%TF.GenerationSoftware,KiCad,Pcbnew,9.0.7*%
%TF.CreationDate,2026-03-26T15:30:41-05:00*%
%TF.ProjectId,Flex Hub PCB,466c6578-2048-4756-9220-5043422e6b69,rev?*%
%TF.SameCoordinates,Original*%
%TF.FileFunction,Copper,L1,Top*%
%TF.FilePolarity,Positive*%
%FSLAX46Y46*%
G04 Gerber Fmt 4.6, Leading zero omitted, Abs format (unit mm)*
G04 Created by KiCad (PCBNEW 9.0.7) date 2026-03-26 15:30:41*
%MOMM*%
%LPD*%
G01*
G04 APERTURE LIST*
%TA.AperFunction,SMDPad,CuDef*%
%ADD10R,0.600000X2.000000*%
%TD*%
%TA.AperFunction,SMDPad,CuDef*%
%ADD11R,0.700000X4.200000*%
%TD*%
%TA.AperFunction,ViaPad*%
%ADD12C,0.600000*%
%TD*%
%TA.AperFunction,Conductor*%
%ADD13C,0.200000*%
%TD*%
G04 APERTURE END LIST*
D10*
%TO.P,J2,1,Pin_1*%
%TO.N,/GND*%
X100000000Y-45250000D03*
%TO.P,J2,2,Pin_2*%
%TO.N,Net-(J2-Pin_2)*%
X101000000Y-45250000D03*
%TO.P,J2,3,Pin_3*%
%TO.N,Net-(J2-Pin_3)*%
X102000000Y-45250000D03*
%TO.P,J2,4,Pin_4*%
%TO.N,Net-(J2-Pin_4)*%
X103000000Y-45250000D03*
%TO.P,J2,5,Pin_5*%
%TO.N,unconnected-(J2-Pin_5-Pad5)*%
X104000000Y-45250000D03*
%TO.P,J2,6,Pin_6*%
%TO.N,unconnected-(J2-Pin_6-Pad6)*%
X105000000Y-45250000D03*
%TO.P,J2,7,Pin_7*%
%TO.N,unconnected-(J2-Pin_7-Pad7)*%
X106000000Y-45250000D03*
%TO.P,J2,8,Pin_8*%
%TO.N,unconnected-(J2-Pin_8-Pad8)*%
X107000000Y-45250000D03*
%TO.P,J2,9,Pin_9*%
%TO.N,Net-(J2-Pin_9)*%
X108000000Y-45250000D03*
%TO.P,J2,10,Pin_10*%
%TO.N,unconnected-(J2-Pin_10-Pad10)*%
X109000000Y-45250000D03*
%TO.P,J2,11,Pin_11*%
%TO.N,unconnected-(J2-Pin_11-Pad11)*%
X110000000Y-45250000D03*
%TO.P,J2,12,Pin_12*%
%TO.N,unconnected-(J2-Pin_12-Pad12)*%
X111000000Y-45250000D03*
%TO.P,J2,13,Pin_13*%
%TO.N,unconnected-(J2-Pin_13-Pad13)*%
X112000000Y-45250000D03*
%TO.P,J2,14,Pin_14*%
%TO.N,unconnected-(J2-Pin_14-Pad14)*%
X113000000Y-45250000D03*
%TO.P,J2,15,Pin_15*%
%TO.N,Net-(J2-Pin_15)*%
X114000000Y-45250000D03*
%TO.P,J2,16,Pin_16*%
%TO.N,Net-(J2-Pin_16)*%
X115000000Y-45250000D03*
%TO.P,J2,17,Pin_17*%
%TO.N,Net-(J2-Pin_17)*%
X116000000Y-45250000D03*
%TO.P,J2,18,Pin_18*%
%TO.N,/3V3*%
X117000000Y-45250000D03*
D11*
%TO.P,J2,S1*%
%TO.N,N/C*%
X99000000Y-47350000D03*
%TO.P,J2,S2*%
X118000000Y-47350000D03*
%TD*%
D10*
%TO.P,J3,1,Pin_1*%
%TO.N,/GND*%
X126500000Y-121250000D03*
%TO.P,J3,2,Pin_2*%
%TO.N,Net-(J2-Pin_17)*%
X127500000Y-121250000D03*
%TO.P,J3,3,Pin_3*%
%TO.N,Net-(J2-Pin_16)*%
X128500000Y-121250000D03*
%TO.P,J3,4,Pin_4*%
%TO.N,Net-(J2-Pin_15)*%
X129500000Y-121250000D03*
%TO.P,J3,5,Pin_5*%
%TO.N,Net-(J2-Pin_9)*%
X130500000Y-121250000D03*
%TO.P,J3,6,Pin_6*%
%TO.N,Net-(J2-Pin_4)*%
X131500000Y-121250000D03*
%TO.P,J3,7,Pin_7*%
%TO.N,Net-(J2-Pin_3)*%
X132500000Y-121250000D03*
%TO.P,J3,8,Pin_8*%
%TO.N,Net-(J2-Pin_2)*%
X133500000Y-121250000D03*
%TO.P,J3,9,Pin_9*%
%TO.N,unconnected-(J3-Pin_9-Pad9)*%
X134500000Y-121250000D03*
%TO.P,J3,10,Pin_10*%
%TO.N,unconnected-(J3-Pin_10-Pad10)*%
X135500000Y-121250000D03*
%TO.P,J3,11,Pin_11*%
%TO.N,Net-(J1-Pin_17)*%
X136500000Y-121250000D03*
%TO.P,J3,12,Pin_12*%
%TO.N,Net-(J1-Pin_16)*%
X137500000Y-121250000D03*
%TO.P,J3,13,Pin_13*%
%TO.N,Net-(J1-Pin_15)*%
X138500000Y-121250000D03*
%TO.P,J3,14,Pin_14*%
%TO.N,Net-(J1-Pin_9)*%
X139500000Y-121250000D03*
%TO.P,J3,15,Pin_15*%
%TO.N,Net-(J1-Pin_4)*%
X140500000Y-121250000D03*
%TO.P,J3,16,Pin_16*%
%TO.N,Net-(J1-Pin_3)*%
X141500000Y-121250000D03*
%TO.P,J3,17,Pin_17*%
%TO.N,Net-(J1-Pin_2)*%
X142500000Y-121250000D03*
%TO.P,J3,18,Pin_18*%
%TO.N,/3V3*%
X143500000Y-121250000D03*
D11*
%TO.P,J3,S1*%
%TO.N,N/C*%
X125500000Y-123350000D03*
%TO.P,J3,S2*%
X144500000Y-123350000D03*
%TD*%
D10*
%TO.P,J1,1,Pin_1*%
%TO.N,/GND*%
X114000000Y-41750000D03*
%TO.P,J1,2,Pin_2*%
%TO.N,Net-(J1-Pin_2)*%
X113000000Y-41750000D03*
%TO.P,J1,3,Pin_3*%
%TO.N,Net-(J1-Pin_3)*%
X112000000Y-41750000D03*
%TO.P,J1,4,Pin_4*%
%TO.N,Net-(J1-Pin_4)*%
X111000000Y-41750000D03*
%TO.P,J1,5,Pin_5*%
%TO.N,unconnected-(J1-Pin_5-Pad5)*%
X110000000Y-41750000D03*
%TO.P,J1,6,Pin_6*%
%TO.N,unconnected-(J1-Pin_6-Pad6)*%
X109000000Y-41750000D03*
%TO.P,J1,7,Pin_7*%
%TO.N,unconnected-(J1-Pin_7-Pad7)*%
X108000000Y-41750000D03*
%TO.P,J1,8,Pin_8*%
%TO.N,unconnected-(J1-Pin_8-Pad8)*%
X107000000Y-41750000D03*
%TO.P,J1,9,Pin_9*%
%TO.N,Net-(J1-Pin_9)*%
X106000000Y-41750000D03*
%TO.P,J1,10,Pin_10*%
%TO.N,unconnected-(J1-Pin_10-Pad10)*%
X105000000Y-41750000D03*
%TO.P,J1,11,Pin_11*%
%TO.N,unconnected-(J1-Pin_11-Pad11)*%
X104000000Y-41750000D03*
%TO.P,J1,12,Pin_12*%
%TO.N,unconnected-(J1-Pin_12-Pad12)*%
X103000000Y-41750000D03*
%TO.P,J1,13,Pin_13*%
%TO.N,unconnected-(J1-Pin_13-Pad13)*%
X102000000Y-41750000D03*
%TO.P,J1,14,Pin_14*%
%TO.N,unconnected-(J1-Pin_14-Pad14)*%
X101000000Y-41750000D03*
%TO.P,J1,15,Pin_15*%
%TO.N,Net-(J1-Pin_15)*%
X100000000Y-41750000D03*
%TO.P,J1,16,Pin_16*%
%TO.N,Net-(J1-Pin_16)*%
X99000000Y-41750000D03*
%TO.P,J1,17,Pin_17*%
%TO.N,Net-(J1-Pin_17)*%
X98000000Y-41750000D03*
%TO.P,J1,18,Pin_18*%
%TO.N,/3V3*%
X97000000Y-41750000D03*
D11*
%TO.P,J1,S1*%
%TO.N,N/C*%
X115000000Y-39650000D03*
%TO.P,J1,S2*%
X96000000Y-39650000D03*
%TD*%
D12*
%TO.N,Net-(J1-Pin_9)*%
X107408465Y-43238095D03*
X137700000Y-44453000D03*
%TO.N,/3V3*%
X97000000Y-38000000D03*
X116900000Y-47200000D03*
X143500000Y-46500000D03*
X138300000Y-45600000D03*
%TO.N,Net-(J1-Pin_17)*%
X136500000Y-118500000D03*
X98000000Y-38600000D03*
%TO.N,Net-(J1-Pin_16)*%
X99000000Y-39400000D03*
X137500000Y-118500000D03*
%TO.N,Net-(J1-Pin_15)*%
X138400000Y-118500000D03*
X100000000Y-40000000D03*
%TO.N,Net-(J2-Pin_9)*%
X120924265Y-50975735D03*
X108000000Y-48100000D03*
%TO.N,Net-(J2-Pin_15)*%
X119924265Y-50575735D03*
X114000000Y-48500000D03*
%TO.N,Net-(J2-Pin_2)*%
X124697060Y-52202940D03*
X101000000Y-48000000D03*
%TO.N,Net-(J2-Pin_16)*%
X118824265Y-50275735D03*
X115000000Y-48500000D03*
%TO.N,Net-(J2-Pin_3)*%
X123422795Y-51777205D03*
X102000000Y-48000000D03*
%TO.N,Net-(J2-Pin_4)*%
X103100000Y-48000000D03*
X122098530Y-51301470D03*
%TD*%
D13*
%TO.N,Net-(J1-Pin_9)*%
X107408465Y-43238095D02*
X106288095Y-43238095D01*
X139252700Y-44254000D02*
X137899000Y-44254000D01*
X106288095Y-43238095D02*
X106000000Y-42950000D01*
X106000000Y-42950000D02*
X106000000Y-41750000D01*
X137899000Y-44254000D02*
X137700000Y-44453000D01*
X139500000Y-121250000D02*
X139500000Y-44501300D01*
X139500000Y-44501300D02*
X139252700Y-44254000D01*
%TO.N,Net-(J1-Pin_2)*%
X139751000Y-43051000D02*
X142500000Y-45800000D01*
X142500000Y-45800000D02*
X142500000Y-121250000D01*
X113000000Y-42652000D02*
X113399000Y-43051000D01*
X113399000Y-43051000D02*
X139751000Y-43051000D01*
X113000000Y-41750000D02*
X113000000Y-42652000D01*
%TO.N,Net-(J1-Pin_3)*%
X112000000Y-41750000D02*
X112000000Y-42652000D01*
X112000000Y-42652000D02*
X112800000Y-43452000D01*
X139584900Y-43452000D02*
X141500000Y-45367100D01*
X141500000Y-121250000D02*
X141500000Y-45367100D01*
X112800000Y-43452000D02*
X139584900Y-43452000D01*
%TO.N,/3V3*%
X137997057Y-45600000D02*
X138300000Y-45600000D01*
X117000000Y-45250000D02*
X117996000Y-44254000D01*
X137000000Y-44254000D02*
X137000000Y-44602943D01*
X117996000Y-44254000D02*
X137000000Y-44254000D01*
X97000000Y-41750000D02*
X97000000Y-38000000D01*
X116900000Y-45350000D02*
X117000000Y-45250000D01*
X137000000Y-44602943D02*
X137997057Y-45600000D01*
X143500000Y-121250000D02*
X143500000Y-46500000D01*
X116900000Y-47200000D02*
X116900000Y-45350000D01*
%TO.N,Net-(J1-Pin_17)*%
X136500000Y-118500000D02*
X136500000Y-121250000D01*
X98000000Y-41750000D02*
X98000000Y-38600000D01*
%TO.N,Net-(J1-Pin_16)*%
X137500000Y-118500000D02*
X137500000Y-121250000D01*
X99000000Y-41750000D02*
X99000000Y-39400000D01*
%TO.N,Net-(J1-Pin_4)*%
X111903000Y-43853000D02*
X111000000Y-42950000D01*
X111000000Y-42950000D02*
X111000000Y-41750000D01*
X140500000Y-44934200D02*
X140500000Y-121250000D01*
X139418800Y-43853000D02*
X111903000Y-43853000D01*
X140500000Y-44934200D02*
X139418800Y-43853000D01*
%TO.N,Net-(J1-Pin_15)*%
X138400000Y-118500000D02*
X138500000Y-118600000D01*
X100000000Y-41750000D02*
X100000000Y-40000000D01*
X138500000Y-118600000D02*
X138500000Y-121250000D01*
%TO.N,/GND*%
X102100000Y-50200000D02*
X100000000Y-48100000D01*
X100000000Y-43500000D02*
X95900000Y-43500000D01*
X95900000Y-43500000D02*
X94800000Y-42400000D01*
X114000000Y-40500000D02*
X114000000Y-41750000D01*
X112800000Y-39300000D02*
X114000000Y-40500000D01*
X126500000Y-59400000D02*
X117300000Y-50200000D01*
X98400000Y-36600000D02*
X101100000Y-39300000D01*
X94800000Y-42400000D02*
X94800000Y-37400000D01*
X100000000Y-45250000D02*
X100000000Y-43500000D01*
X100000000Y-48100000D02*
X100000000Y-45250000D01*
X117300000Y-50200000D02*
X102100000Y-50200000D01*
X101100000Y-39300000D02*
X112800000Y-39300000D01*
X94800000Y-37400000D02*
X95600000Y-36600000D01*
X126500000Y-121250000D02*
X126500000Y-59400000D01*
X95600000Y-36600000D02*
X98400000Y-36600000D01*
%TO.N,Net-(J2-Pin_9)*%
X130500000Y-121250000D02*
X130500000Y-60551470D01*
X108000000Y-48100000D02*
X108000000Y-45250000D01*
X130500000Y-60551470D02*
X120924265Y-50975735D01*
%TO.N,Net-(J2-Pin_17)*%
X116000000Y-48300000D02*
X116000000Y-45250000D01*
X127500000Y-121250000D02*
X127500000Y-59800000D01*
X127500000Y-59800000D02*
X116000000Y-48300000D01*
%TO.N,Net-(J2-Pin_15)*%
X129500000Y-121250000D02*
X129500000Y-60400000D01*
X114000000Y-48500000D02*
X114000000Y-45250000D01*
X119800000Y-50700000D02*
X119924265Y-50575735D01*
X129500000Y-60400000D02*
X119800000Y-50700000D01*
%TO.N,Net-(J2-Pin_2)*%
X133500000Y-61005880D02*
X124697060Y-52202940D01*
X101000000Y-48000000D02*
X101000000Y-45250000D01*
X133500000Y-121250000D02*
X133500000Y-61005880D01*
%TO.N,Net-(J2-Pin_16)*%
X128500000Y-121250000D02*
X128500000Y-60000000D01*
X115000000Y-48500000D02*
X115000000Y-45250000D01*
X128500000Y-60000000D02*
X118800000Y-50300000D01*
X118800000Y-50300000D02*
X118824265Y-50275735D01*
%TO.N,Net-(J2-Pin_3)*%
X132500000Y-121250000D02*
X132500000Y-60854410D01*
X132500000Y-60854410D02*
X123422795Y-51777205D01*
X102000000Y-48000000D02*
X102000000Y-45250000D01*
%TO.N,Net-(J2-Pin_4)*%
X131500000Y-60702940D02*
X122098530Y-51301470D01*
X131500000Y-121250000D02*
X131500000Y-60702940D01*
X103000000Y-47900000D02*
X103000000Y-45250000D01*
X103100000Y-48000000D02*
X103000000Y-47900000D01*
%TD*%
M02*
