%TF.GenerationSoftware,KiCad,Pcbnew,9.0.7*%
%TF.CreationDate,2026-03-26T15:30:41-05:00*%
%TF.ProjectId,Flex Hub PCB,466c6578-2048-4756-9220-5043422e6b69,rev?*%
%TF.SameCoordinates,Original*%
%TF.FileFunction,Copper,L2,Bot*%
%TF.FilePolarity,Positive*%
%FSLAX46Y46*%
G04 Gerber Fmt 4.6, Leading zero omitted, Abs format (unit mm)*
G04 Created by KiCad (PCBNEW 9.0.7) date 2026-03-26 15:30:41*
%MOMM*%
%LPD*%
G01*
G04 APERTURE LIST*
%TA.AperFunction,ViaPad*%
%ADD10C,0.600000*%
%TD*%
%TA.AperFunction,Conductor*%
%ADD11C,0.200000*%
%TD*%
G04 APERTURE END LIST*
D10*
%TO.N,Net-(J1-Pin_9)*%
X107408465Y-43238095D03*
X137700000Y-44453000D03*
%TO.N,/3V3*%
X97000000Y-38000000D03*
X116900000Y-47200000D03*
X143500000Y-46500000D03*
X138300000Y-45600000D03*
%TO.N,Net-(J1-Pin_17)*%
X136500000Y-118500000D03*
X98000000Y-38600000D03*
%TO.N,Net-(J1-Pin_16)*%
X99000000Y-39400000D03*
X137500000Y-118500000D03*
%TO.N,Net-(J1-Pin_15)*%
X138400000Y-118500000D03*
X100000000Y-40000000D03*
%TO.N,Net-(J2-Pin_9)*%
X120924265Y-50975735D03*
X108000000Y-48100000D03*
%TO.N,Net-(J2-Pin_15)*%
X119924265Y-50575735D03*
X114000000Y-48500000D03*
%TO.N,Net-(J2-Pin_2)*%
X124697060Y-52202940D03*
X101000000Y-48000000D03*
%TO.N,Net-(J2-Pin_16)*%
X118824265Y-50275735D03*
X115000000Y-48500000D03*
%TO.N,Net-(J2-Pin_3)*%
X123422795Y-51777205D03*
X102000000Y-48000000D03*
%TO.N,Net-(J2-Pin_4)*%
X103100000Y-48000000D03*
X122098530Y-51301470D03*
%TD*%
D11*
%TO.N,Net-(J1-Pin_9)*%
X136447000Y-43200000D02*
X107400000Y-43200000D01*
X107400000Y-43200000D02*
X107400000Y-43229630D01*
X107400000Y-43229630D02*
X107408465Y-43238095D01*
X137700000Y-44453000D02*
X136447000Y-43200000D01*
%TO.N,/3V3*%
X138300000Y-45600000D02*
X142600000Y-45600000D01*
X142600000Y-45600000D02*
X143500000Y-46500000D01*
X97000000Y-38000000D02*
X97000000Y-39067100D01*
X97000000Y-39067100D02*
X105132900Y-47200000D01*
X105132900Y-47200000D02*
X116900000Y-47200000D01*
%TO.N,Net-(J1-Pin_17)*%
X98000000Y-38600000D02*
X98000000Y-39500000D01*
X98000000Y-39500000D02*
X103201000Y-44701000D01*
X135999000Y-45099000D02*
X135999000Y-46900000D01*
X136000000Y-118000000D02*
X136000000Y-46901000D01*
X103201000Y-44701000D02*
X135601000Y-44701000D01*
X136000000Y-118000000D02*
X136500000Y-118500000D01*
X136000000Y-46901000D02*
X135999000Y-46900000D01*
X135601000Y-44701000D02*
X135999000Y-45099000D01*
%TO.N,Net-(J1-Pin_16)*%
X99000000Y-39400000D02*
X99000000Y-39849943D01*
X136400000Y-117400000D02*
X137500000Y-118500000D01*
X136000000Y-44300000D02*
X136400000Y-44700000D01*
X103450057Y-44300000D02*
X136000000Y-44300000D01*
X99000000Y-39849943D02*
X103450057Y-44300000D01*
X136400000Y-117400000D02*
X136400000Y-44700000D01*
%TO.N,Net-(J1-Pin_15)*%
X103900000Y-43900000D02*
X136300000Y-43900000D01*
X136300000Y-43900000D02*
X137089950Y-44689950D01*
X137089950Y-117189950D02*
X137089950Y-44689950D01*
X137089950Y-117189950D02*
X138400000Y-118500000D01*
X100000000Y-40000000D02*
X103900000Y-43900000D01*
%TO.N,Net-(J2-Pin_9)*%
X111177735Y-51277735D02*
X108000000Y-48100000D01*
X120924265Y-50975735D02*
X120622265Y-51277735D01*
X120622265Y-51277735D02*
X111177735Y-51277735D01*
%TO.N,Net-(J2-Pin_15)*%
X116376735Y-50876735D02*
X114000000Y-48500000D01*
X119623265Y-50876735D02*
X116376735Y-50876735D01*
X119924265Y-50575735D02*
X119623265Y-50876735D01*
%TO.N,Net-(J2-Pin_2)*%
X105502000Y-52502000D02*
X101000000Y-48000000D01*
X124398000Y-52502000D02*
X105502000Y-52502000D01*
X124697060Y-52202940D02*
X124398000Y-52502000D01*
%TO.N,Net-(J2-Pin_16)*%
X116775735Y-50275735D02*
X115000000Y-48500000D01*
X118824265Y-50275735D02*
X116775735Y-50275735D01*
%TO.N,Net-(J2-Pin_3)*%
X123422795Y-51777205D02*
X123099000Y-52101000D01*
X106101000Y-52101000D02*
X102000000Y-48000000D01*
X123099000Y-52101000D02*
X106101000Y-52101000D01*
%TO.N,Net-(J2-Pin_4)*%
X121700000Y-51700000D02*
X106800000Y-51700000D01*
X106800000Y-51700000D02*
X103100000Y-48000000D01*
X122098530Y-51301470D02*
X121700000Y-51700000D01*
%TD*%
M02*
