M48
; DRILL file {KiCad 9.0.7} date 2026-03-26T15:30:51-0500
; FORMAT={-:-/ absolute / metric / decimal}
; #@! TF.CreationDate,2026-03-26T15:30:51-05:00
; #@! TF.GenerationSoftware,Kicad,Pcbnew,9.0.7
; #@! TF.FileFunction,Plated,1,2,PTH
FMAT,2
METRIC
; #@! TA.AperFunction,Plated,PTH,ViaDrill
T1C0.300
%
G90
G05
T1
X97.0Y-38.0
X98.0Y-38.6
X99.0Y-39.4
X100.0Y-40.0
X101.0Y-48.0
X102.0Y-48.0
X103.1Y-48.0
X107.408Y-43.238
X108.0Y-48.1
X114.0Y-48.5
X115.0Y-48.5
X116.9Y-47.2
X118.824Y-50.276
X119.924Y-50.576
X120.924Y-50.976
X122.099Y-51.301
X123.423Y-51.777
X124.697Y-52.203
X136.5Y-118.5
X137.5Y-118.5
X137.7Y-44.453
X138.3Y-45.6
X138.4Y-118.5
X143.5Y-46.5
M30
