%TF.GenerationSoftware,KiCad,Pcbnew,9.0.7*%
%TF.CreationDate,2026-03-26T15:30:41-05:00*%
%TF.ProjectId,Flex Hub PCB,466c6578-2048-4756-9220-5043422e6b69,rev?*%
%TF.SameCoordinates,Original*%
%TF.FileFunction,Legend,Top*%
%TF.FilePolarity,Positive*%
%FSLAX46Y46*%
G04 Gerber Fmt 4.6, Leading zero omitted, Abs format (unit mm)*
G04 Created by KiCad (PCBNEW 9.0.7) date 2026-03-26 15:30:41*
%MOMM*%
%LPD*%
G01*
G04 APERTURE LIST*
%ADD10C,0.149860*%
%ADD11C,0.150000*%
%ADD12C,0.127000*%
%ADD13C,0.200000*%
G04 APERTURE END LIST*
D10*
X129312496Y-52043137D02*
X129312496Y-51144737D01*
X129740306Y-52043137D02*
X129740306Y-51444204D01*
X129740306Y-51529766D02*
X129783087Y-51486985D01*
X129783087Y-51486985D02*
X129868649Y-51444204D01*
X129868649Y-51444204D02*
X129996992Y-51444204D01*
X129996992Y-51444204D02*
X130082554Y-51486985D01*
X130082554Y-51486985D02*
X130125335Y-51572547D01*
X130125335Y-51572547D02*
X130125335Y-52043137D01*
X130125335Y-51572547D02*
X130168116Y-51486985D01*
X130168116Y-51486985D02*
X130253678Y-51444204D01*
X130253678Y-51444204D02*
X130382021Y-51444204D01*
X130382021Y-51444204D02*
X130467582Y-51486985D01*
X130467582Y-51486985D02*
X130510363Y-51572547D01*
X130510363Y-51572547D02*
X130510363Y-52043137D01*
X130938173Y-51444204D02*
X130938173Y-52342604D01*
X130938173Y-51486985D02*
X131023735Y-51444204D01*
X131023735Y-51444204D02*
X131194859Y-51444204D01*
X131194859Y-51444204D02*
X131280421Y-51486985D01*
X131280421Y-51486985D02*
X131323202Y-51529766D01*
X131323202Y-51529766D02*
X131365983Y-51615328D01*
X131365983Y-51615328D02*
X131365983Y-51872014D01*
X131365983Y-51872014D02*
X131323202Y-51957576D01*
X131323202Y-51957576D02*
X131280421Y-52000357D01*
X131280421Y-52000357D02*
X131194859Y-52043137D01*
X131194859Y-52043137D02*
X131023735Y-52043137D01*
X131023735Y-52043137D02*
X130938173Y-52000357D01*
X132136040Y-52043137D02*
X132136040Y-51572547D01*
X132136040Y-51572547D02*
X132093259Y-51486985D01*
X132093259Y-51486985D02*
X132007697Y-51444204D01*
X132007697Y-51444204D02*
X131836573Y-51444204D01*
X131836573Y-51444204D02*
X131751011Y-51486985D01*
X132136040Y-52000357D02*
X132050478Y-52043137D01*
X132050478Y-52043137D02*
X131836573Y-52043137D01*
X131836573Y-52043137D02*
X131751011Y-52000357D01*
X131751011Y-52000357D02*
X131708230Y-51914795D01*
X131708230Y-51914795D02*
X131708230Y-51829233D01*
X131708230Y-51829233D02*
X131751011Y-51743671D01*
X131751011Y-51743671D02*
X131836573Y-51700890D01*
X131836573Y-51700890D02*
X132050478Y-51700890D01*
X132050478Y-51700890D02*
X132136040Y-51658109D01*
X132948878Y-52000357D02*
X132863316Y-52043137D01*
X132863316Y-52043137D02*
X132692192Y-52043137D01*
X132692192Y-52043137D02*
X132606630Y-52000357D01*
X132606630Y-52000357D02*
X132563849Y-51957576D01*
X132563849Y-51957576D02*
X132521068Y-51872014D01*
X132521068Y-51872014D02*
X132521068Y-51615328D01*
X132521068Y-51615328D02*
X132563849Y-51529766D01*
X132563849Y-51529766D02*
X132606630Y-51486985D01*
X132606630Y-51486985D02*
X132692192Y-51444204D01*
X132692192Y-51444204D02*
X132863316Y-51444204D01*
X132863316Y-51444204D02*
X132948878Y-51486985D01*
X133205563Y-51444204D02*
X133547811Y-51444204D01*
X133333906Y-51144737D02*
X133333906Y-51914795D01*
X133333906Y-51914795D02*
X133376687Y-52000357D01*
X133376687Y-52000357D02*
X133462249Y-52043137D01*
X133462249Y-52043137D02*
X133547811Y-52043137D01*
X133847277Y-52043137D02*
X133847277Y-51144737D01*
X134275087Y-51444204D02*
X134275087Y-52043137D01*
X134275087Y-51529766D02*
X134317868Y-51486985D01*
X134317868Y-51486985D02*
X134403430Y-51444204D01*
X134403430Y-51444204D02*
X134531773Y-51444204D01*
X134531773Y-51444204D02*
X134617335Y-51486985D01*
X134617335Y-51486985D02*
X134660116Y-51572547D01*
X134660116Y-51572547D02*
X134660116Y-52043137D01*
X135045144Y-52000357D02*
X135130706Y-52043137D01*
X135130706Y-52043137D02*
X135301830Y-52043137D01*
X135301830Y-52043137D02*
X135387392Y-52000357D01*
X135387392Y-52000357D02*
X135430173Y-51914795D01*
X135430173Y-51914795D02*
X135430173Y-51872014D01*
X135430173Y-51872014D02*
X135387392Y-51786452D01*
X135387392Y-51786452D02*
X135301830Y-51743671D01*
X135301830Y-51743671D02*
X135173487Y-51743671D01*
X135173487Y-51743671D02*
X135087925Y-51700890D01*
X135087925Y-51700890D02*
X135045144Y-51615328D01*
X135045144Y-51615328D02*
X135045144Y-51572547D01*
X135045144Y-51572547D02*
X135087925Y-51486985D01*
X135087925Y-51486985D02*
X135173487Y-51444204D01*
X135173487Y-51444204D02*
X135301830Y-51444204D01*
X135301830Y-51444204D02*
X135387392Y-51486985D01*
X135943544Y-52043137D02*
X135857982Y-52000357D01*
X135857982Y-52000357D02*
X135815201Y-51957576D01*
X135815201Y-51957576D02*
X135772420Y-51872014D01*
X135772420Y-51872014D02*
X135772420Y-51615328D01*
X135772420Y-51615328D02*
X135815201Y-51529766D01*
X135815201Y-51529766D02*
X135857982Y-51486985D01*
X135857982Y-51486985D02*
X135943544Y-51444204D01*
X135943544Y-51444204D02*
X136071887Y-51444204D01*
X136071887Y-51444204D02*
X136157449Y-51486985D01*
X136157449Y-51486985D02*
X136200230Y-51529766D01*
X136200230Y-51529766D02*
X136243011Y-51615328D01*
X136243011Y-51615328D02*
X136243011Y-51872014D01*
X136243011Y-51872014D02*
X136200230Y-51957576D01*
X136200230Y-51957576D02*
X136157449Y-52000357D01*
X136157449Y-52000357D02*
X136071887Y-52043137D01*
X136071887Y-52043137D02*
X135943544Y-52043137D01*
X136756382Y-52043137D02*
X136670820Y-52000357D01*
X136670820Y-52000357D02*
X136628039Y-51914795D01*
X136628039Y-51914795D02*
X136628039Y-51144737D01*
X137440877Y-52000357D02*
X137355315Y-52043137D01*
X137355315Y-52043137D02*
X137184191Y-52043137D01*
X137184191Y-52043137D02*
X137098629Y-52000357D01*
X137098629Y-52000357D02*
X137055848Y-51914795D01*
X137055848Y-51914795D02*
X137055848Y-51572547D01*
X137055848Y-51572547D02*
X137098629Y-51486985D01*
X137098629Y-51486985D02*
X137184191Y-51444204D01*
X137184191Y-51444204D02*
X137355315Y-51444204D01*
X137355315Y-51444204D02*
X137440877Y-51486985D01*
X137440877Y-51486985D02*
X137483658Y-51572547D01*
X137483658Y-51572547D02*
X137483658Y-51658109D01*
X137483658Y-51658109D02*
X137055848Y-51743671D01*
X137825905Y-52000357D02*
X137911467Y-52043137D01*
X137911467Y-52043137D02*
X138082591Y-52043137D01*
X138082591Y-52043137D02*
X138168153Y-52000357D01*
X138168153Y-52000357D02*
X138210934Y-51914795D01*
X138210934Y-51914795D02*
X138210934Y-51872014D01*
X138210934Y-51872014D02*
X138168153Y-51786452D01*
X138168153Y-51786452D02*
X138082591Y-51743671D01*
X138082591Y-51743671D02*
X137954248Y-51743671D01*
X137954248Y-51743671D02*
X137868686Y-51700890D01*
X137868686Y-51700890D02*
X137825905Y-51615328D01*
X137825905Y-51615328D02*
X137825905Y-51572547D01*
X137825905Y-51572547D02*
X137868686Y-51486985D01*
X137868686Y-51486985D02*
X137954248Y-51444204D01*
X137954248Y-51444204D02*
X138082591Y-51444204D01*
X138082591Y-51444204D02*
X138168153Y-51486985D01*
X129611963Y-53018921D02*
X129312496Y-53018921D01*
X129312496Y-53489511D02*
X129312496Y-52591111D01*
X129312496Y-52591111D02*
X129740306Y-52591111D01*
X130210896Y-53489511D02*
X130125334Y-53446731D01*
X130125334Y-53446731D02*
X130082553Y-53361169D01*
X130082553Y-53361169D02*
X130082553Y-52591111D01*
X130895391Y-53446731D02*
X130809829Y-53489511D01*
X130809829Y-53489511D02*
X130638705Y-53489511D01*
X130638705Y-53489511D02*
X130553143Y-53446731D01*
X130553143Y-53446731D02*
X130510362Y-53361169D01*
X130510362Y-53361169D02*
X130510362Y-53018921D01*
X130510362Y-53018921D02*
X130553143Y-52933359D01*
X130553143Y-52933359D02*
X130638705Y-52890578D01*
X130638705Y-52890578D02*
X130809829Y-52890578D01*
X130809829Y-52890578D02*
X130895391Y-52933359D01*
X130895391Y-52933359D02*
X130938172Y-53018921D01*
X130938172Y-53018921D02*
X130938172Y-53104483D01*
X130938172Y-53104483D02*
X130510362Y-53190045D01*
X131237638Y-53489511D02*
X131708229Y-52890578D01*
X131237638Y-52890578D02*
X131708229Y-53489511D01*
X132050476Y-53489511D02*
X132050476Y-52591111D01*
X132050476Y-53018921D02*
X132563848Y-53018921D01*
X132563848Y-53489511D02*
X132563848Y-52591111D01*
X133376686Y-52890578D02*
X133376686Y-53489511D01*
X132991657Y-52890578D02*
X132991657Y-53361169D01*
X132991657Y-53361169D02*
X133034438Y-53446731D01*
X133034438Y-53446731D02*
X133120000Y-53489511D01*
X133120000Y-53489511D02*
X133248343Y-53489511D01*
X133248343Y-53489511D02*
X133333905Y-53446731D01*
X133333905Y-53446731D02*
X133376686Y-53403950D01*
X133804495Y-53489511D02*
X133804495Y-52591111D01*
X133804495Y-52933359D02*
X133890057Y-52890578D01*
X133890057Y-52890578D02*
X134061181Y-52890578D01*
X134061181Y-52890578D02*
X134146743Y-52933359D01*
X134146743Y-52933359D02*
X134189524Y-52976140D01*
X134189524Y-52976140D02*
X134232305Y-53061702D01*
X134232305Y-53061702D02*
X134232305Y-53318388D01*
X134232305Y-53318388D02*
X134189524Y-53403950D01*
X134189524Y-53403950D02*
X134146743Y-53446731D01*
X134146743Y-53446731D02*
X134061181Y-53489511D01*
X134061181Y-53489511D02*
X133890057Y-53489511D01*
X133890057Y-53489511D02*
X133804495Y-53446731D01*
X134488990Y-52591111D02*
X134788457Y-53489511D01*
X134788457Y-53489511D02*
X135087924Y-52591111D01*
X135857981Y-53489511D02*
X135344609Y-53489511D01*
X135601295Y-53489511D02*
X135601295Y-52591111D01*
X135601295Y-52591111D02*
X135515733Y-52719454D01*
X135515733Y-52719454D02*
X135430171Y-52805016D01*
X135430171Y-52805016D02*
X135344609Y-52847797D01*
X129312496Y-54465295D02*
X129611963Y-54465295D01*
X129740306Y-54935885D02*
X129312496Y-54935885D01*
X129312496Y-54935885D02*
X129312496Y-54037485D01*
X129312496Y-54037485D02*
X129740306Y-54037485D01*
X130638706Y-54850324D02*
X130595925Y-54893105D01*
X130595925Y-54893105D02*
X130467582Y-54935885D01*
X130467582Y-54935885D02*
X130382020Y-54935885D01*
X130382020Y-54935885D02*
X130253677Y-54893105D01*
X130253677Y-54893105D02*
X130168115Y-54807543D01*
X130168115Y-54807543D02*
X130125334Y-54721981D01*
X130125334Y-54721981D02*
X130082553Y-54550857D01*
X130082553Y-54550857D02*
X130082553Y-54422514D01*
X130082553Y-54422514D02*
X130125334Y-54251390D01*
X130125334Y-54251390D02*
X130168115Y-54165828D01*
X130168115Y-54165828D02*
X130253677Y-54080266D01*
X130253677Y-54080266D02*
X130382020Y-54037485D01*
X130382020Y-54037485D02*
X130467582Y-54037485D01*
X130467582Y-54037485D02*
X130595925Y-54080266D01*
X130595925Y-54080266D02*
X130638706Y-54123047D01*
X131023734Y-54465295D02*
X131323201Y-54465295D01*
X131451544Y-54935885D02*
X131023734Y-54935885D01*
X131023734Y-54935885D02*
X131023734Y-54037485D01*
X131023734Y-54037485D02*
X131451544Y-54037485D01*
X132221601Y-54336952D02*
X132221601Y-54935885D01*
X132007696Y-53994705D02*
X131793791Y-54636419D01*
X131793791Y-54636419D02*
X132349944Y-54636419D01*
X133077220Y-54336952D02*
X133077220Y-54935885D01*
X132863315Y-53994705D02*
X132649410Y-54636419D01*
X132649410Y-54636419D02*
X133205563Y-54636419D01*
X133975620Y-54037485D02*
X133547810Y-54037485D01*
X133547810Y-54037485D02*
X133505029Y-54465295D01*
X133505029Y-54465295D02*
X133547810Y-54422514D01*
X133547810Y-54422514D02*
X133633372Y-54379733D01*
X133633372Y-54379733D02*
X133847277Y-54379733D01*
X133847277Y-54379733D02*
X133932839Y-54422514D01*
X133932839Y-54422514D02*
X133975620Y-54465295D01*
X133975620Y-54465295D02*
X134018401Y-54550857D01*
X134018401Y-54550857D02*
X134018401Y-54764762D01*
X134018401Y-54764762D02*
X133975620Y-54850324D01*
X133975620Y-54850324D02*
X133932839Y-54893105D01*
X133932839Y-54893105D02*
X133847277Y-54935885D01*
X133847277Y-54935885D02*
X133633372Y-54935885D01*
X133633372Y-54935885D02*
X133547810Y-54893105D01*
X133547810Y-54893105D02*
X133505029Y-54850324D01*
X135045143Y-54893105D02*
X135173486Y-54935885D01*
X135173486Y-54935885D02*
X135387391Y-54935885D01*
X135387391Y-54935885D02*
X135472953Y-54893105D01*
X135472953Y-54893105D02*
X135515734Y-54850324D01*
X135515734Y-54850324D02*
X135558515Y-54764762D01*
X135558515Y-54764762D02*
X135558515Y-54679200D01*
X135558515Y-54679200D02*
X135515734Y-54593638D01*
X135515734Y-54593638D02*
X135472953Y-54550857D01*
X135472953Y-54550857D02*
X135387391Y-54508076D01*
X135387391Y-54508076D02*
X135216267Y-54465295D01*
X135216267Y-54465295D02*
X135130705Y-54422514D01*
X135130705Y-54422514D02*
X135087924Y-54379733D01*
X135087924Y-54379733D02*
X135045143Y-54294171D01*
X135045143Y-54294171D02*
X135045143Y-54208609D01*
X135045143Y-54208609D02*
X135087924Y-54123047D01*
X135087924Y-54123047D02*
X135130705Y-54080266D01*
X135130705Y-54080266D02*
X135216267Y-54037485D01*
X135216267Y-54037485D02*
X135430172Y-54037485D01*
X135430172Y-54037485D02*
X135558515Y-54080266D01*
X135943543Y-54336952D02*
X135943543Y-55235352D01*
X135943543Y-54379733D02*
X136029105Y-54336952D01*
X136029105Y-54336952D02*
X136200229Y-54336952D01*
X136200229Y-54336952D02*
X136285791Y-54379733D01*
X136285791Y-54379733D02*
X136328572Y-54422514D01*
X136328572Y-54422514D02*
X136371353Y-54508076D01*
X136371353Y-54508076D02*
X136371353Y-54764762D01*
X136371353Y-54764762D02*
X136328572Y-54850324D01*
X136328572Y-54850324D02*
X136285791Y-54893105D01*
X136285791Y-54893105D02*
X136200229Y-54935885D01*
X136200229Y-54935885D02*
X136029105Y-54935885D01*
X136029105Y-54935885D02*
X135943543Y-54893105D01*
X136756381Y-54935885D02*
X136756381Y-54336952D01*
X136756381Y-54508076D02*
X136799162Y-54422514D01*
X136799162Y-54422514D02*
X136841943Y-54379733D01*
X136841943Y-54379733D02*
X136927505Y-54336952D01*
X136927505Y-54336952D02*
X137013067Y-54336952D01*
X137312533Y-54935885D02*
X137312533Y-54336952D01*
X137312533Y-54037485D02*
X137269752Y-54080266D01*
X137269752Y-54080266D02*
X137312533Y-54123047D01*
X137312533Y-54123047D02*
X137355314Y-54080266D01*
X137355314Y-54080266D02*
X137312533Y-54037485D01*
X137312533Y-54037485D02*
X137312533Y-54123047D01*
X137740343Y-54336952D02*
X137740343Y-54935885D01*
X137740343Y-54422514D02*
X137783124Y-54379733D01*
X137783124Y-54379733D02*
X137868686Y-54336952D01*
X137868686Y-54336952D02*
X137997029Y-54336952D01*
X137997029Y-54336952D02*
X138082591Y-54379733D01*
X138082591Y-54379733D02*
X138125372Y-54465295D01*
X138125372Y-54465295D02*
X138125372Y-54935885D01*
X138938210Y-54336952D02*
X138938210Y-55064228D01*
X138938210Y-55064228D02*
X138895429Y-55149790D01*
X138895429Y-55149790D02*
X138852648Y-55192571D01*
X138852648Y-55192571D02*
X138767086Y-55235352D01*
X138767086Y-55235352D02*
X138638743Y-55235352D01*
X138638743Y-55235352D02*
X138553181Y-55192571D01*
X138938210Y-54893105D02*
X138852648Y-54935885D01*
X138852648Y-54935885D02*
X138681524Y-54935885D01*
X138681524Y-54935885D02*
X138595962Y-54893105D01*
X138595962Y-54893105D02*
X138553181Y-54850324D01*
X138553181Y-54850324D02*
X138510400Y-54764762D01*
X138510400Y-54764762D02*
X138510400Y-54508076D01*
X138510400Y-54508076D02*
X138553181Y-54422514D01*
X138553181Y-54422514D02*
X138595962Y-54379733D01*
X138595962Y-54379733D02*
X138681524Y-54336952D01*
X138681524Y-54336952D02*
X138852648Y-54336952D01*
X138852648Y-54336952D02*
X138938210Y-54379733D01*
X140007733Y-54123047D02*
X140050514Y-54080266D01*
X140050514Y-54080266D02*
X140136076Y-54037485D01*
X140136076Y-54037485D02*
X140349981Y-54037485D01*
X140349981Y-54037485D02*
X140435543Y-54080266D01*
X140435543Y-54080266D02*
X140478324Y-54123047D01*
X140478324Y-54123047D02*
X140521105Y-54208609D01*
X140521105Y-54208609D02*
X140521105Y-54294171D01*
X140521105Y-54294171D02*
X140478324Y-54422514D01*
X140478324Y-54422514D02*
X139964952Y-54935885D01*
X139964952Y-54935885D02*
X140521105Y-54935885D01*
X141291162Y-54037485D02*
X141120038Y-54037485D01*
X141120038Y-54037485D02*
X141034476Y-54080266D01*
X141034476Y-54080266D02*
X140991695Y-54123047D01*
X140991695Y-54123047D02*
X140906133Y-54251390D01*
X140906133Y-54251390D02*
X140863352Y-54422514D01*
X140863352Y-54422514D02*
X140863352Y-54764762D01*
X140863352Y-54764762D02*
X140906133Y-54850324D01*
X140906133Y-54850324D02*
X140948914Y-54893105D01*
X140948914Y-54893105D02*
X141034476Y-54935885D01*
X141034476Y-54935885D02*
X141205600Y-54935885D01*
X141205600Y-54935885D02*
X141291162Y-54893105D01*
X141291162Y-54893105D02*
X141333943Y-54850324D01*
X141333943Y-54850324D02*
X141376724Y-54764762D01*
X141376724Y-54764762D02*
X141376724Y-54550857D01*
X141376724Y-54550857D02*
X141333943Y-54465295D01*
X141333943Y-54465295D02*
X141291162Y-54422514D01*
X141291162Y-54422514D02*
X141205600Y-54379733D01*
X141205600Y-54379733D02*
X141034476Y-54379733D01*
X141034476Y-54379733D02*
X140948914Y-54422514D01*
X140948914Y-54422514D02*
X140906133Y-54465295D01*
X140906133Y-54465295D02*
X140863352Y-54550857D01*
X129783087Y-55526640D02*
X129697525Y-55483859D01*
X129697525Y-55483859D02*
X129569182Y-55483859D01*
X129569182Y-55483859D02*
X129440839Y-55526640D01*
X129440839Y-55526640D02*
X129355277Y-55612202D01*
X129355277Y-55612202D02*
X129312496Y-55697764D01*
X129312496Y-55697764D02*
X129269715Y-55868888D01*
X129269715Y-55868888D02*
X129269715Y-55997231D01*
X129269715Y-55997231D02*
X129312496Y-56168355D01*
X129312496Y-56168355D02*
X129355277Y-56253917D01*
X129355277Y-56253917D02*
X129440839Y-56339479D01*
X129440839Y-56339479D02*
X129569182Y-56382259D01*
X129569182Y-56382259D02*
X129654744Y-56382259D01*
X129654744Y-56382259D02*
X129783087Y-56339479D01*
X129783087Y-56339479D02*
X129825868Y-56296698D01*
X129825868Y-56296698D02*
X129825868Y-55997231D01*
X129825868Y-55997231D02*
X129654744Y-55997231D01*
X130210896Y-56382259D02*
X130210896Y-55783326D01*
X130210896Y-55954450D02*
X130253677Y-55868888D01*
X130253677Y-55868888D02*
X130296458Y-55826107D01*
X130296458Y-55826107D02*
X130382020Y-55783326D01*
X130382020Y-55783326D02*
X130467582Y-55783326D01*
X130895391Y-56382259D02*
X130809829Y-56339479D01*
X130809829Y-56339479D02*
X130767048Y-56296698D01*
X130767048Y-56296698D02*
X130724267Y-56211136D01*
X130724267Y-56211136D02*
X130724267Y-55954450D01*
X130724267Y-55954450D02*
X130767048Y-55868888D01*
X130767048Y-55868888D02*
X130809829Y-55826107D01*
X130809829Y-55826107D02*
X130895391Y-55783326D01*
X130895391Y-55783326D02*
X131023734Y-55783326D01*
X131023734Y-55783326D02*
X131109296Y-55826107D01*
X131109296Y-55826107D02*
X131152077Y-55868888D01*
X131152077Y-55868888D02*
X131194858Y-55954450D01*
X131194858Y-55954450D02*
X131194858Y-56211136D01*
X131194858Y-56211136D02*
X131152077Y-56296698D01*
X131152077Y-56296698D02*
X131109296Y-56339479D01*
X131109296Y-56339479D02*
X131023734Y-56382259D01*
X131023734Y-56382259D02*
X130895391Y-56382259D01*
X131964915Y-55783326D02*
X131964915Y-56382259D01*
X131579886Y-55783326D02*
X131579886Y-56253917D01*
X131579886Y-56253917D02*
X131622667Y-56339479D01*
X131622667Y-56339479D02*
X131708229Y-56382259D01*
X131708229Y-56382259D02*
X131836572Y-56382259D01*
X131836572Y-56382259D02*
X131922134Y-56339479D01*
X131922134Y-56339479D02*
X131964915Y-56296698D01*
X132392724Y-55783326D02*
X132392724Y-56681726D01*
X132392724Y-55826107D02*
X132478286Y-55783326D01*
X132478286Y-55783326D02*
X132649410Y-55783326D01*
X132649410Y-55783326D02*
X132734972Y-55826107D01*
X132734972Y-55826107D02*
X132777753Y-55868888D01*
X132777753Y-55868888D02*
X132820534Y-55954450D01*
X132820534Y-55954450D02*
X132820534Y-56211136D01*
X132820534Y-56211136D02*
X132777753Y-56296698D01*
X132777753Y-56296698D02*
X132734972Y-56339479D01*
X132734972Y-56339479D02*
X132649410Y-56382259D01*
X132649410Y-56382259D02*
X132478286Y-56382259D01*
X132478286Y-56382259D02*
X132392724Y-56339479D01*
X134275086Y-55483859D02*
X134103962Y-55483859D01*
X134103962Y-55483859D02*
X134018400Y-55526640D01*
X134018400Y-55526640D02*
X133975619Y-55569421D01*
X133975619Y-55569421D02*
X133890057Y-55697764D01*
X133890057Y-55697764D02*
X133847276Y-55868888D01*
X133847276Y-55868888D02*
X133847276Y-56211136D01*
X133847276Y-56211136D02*
X133890057Y-56296698D01*
X133890057Y-56296698D02*
X133932838Y-56339479D01*
X133932838Y-56339479D02*
X134018400Y-56382259D01*
X134018400Y-56382259D02*
X134189524Y-56382259D01*
X134189524Y-56382259D02*
X134275086Y-56339479D01*
X134275086Y-56339479D02*
X134317867Y-56296698D01*
X134317867Y-56296698D02*
X134360648Y-56211136D01*
X134360648Y-56211136D02*
X134360648Y-55997231D01*
X134360648Y-55997231D02*
X134317867Y-55911669D01*
X134317867Y-55911669D02*
X134275086Y-55868888D01*
X134275086Y-55868888D02*
X134189524Y-55826107D01*
X134189524Y-55826107D02*
X134018400Y-55826107D01*
X134018400Y-55826107D02*
X133932838Y-55868888D01*
X133932838Y-55868888D02*
X133890057Y-55911669D01*
X133890057Y-55911669D02*
X133847276Y-55997231D01*
X134874019Y-55868888D02*
X134788457Y-55826107D01*
X134788457Y-55826107D02*
X134745676Y-55783326D01*
X134745676Y-55783326D02*
X134702895Y-55697764D01*
X134702895Y-55697764D02*
X134702895Y-55654983D01*
X134702895Y-55654983D02*
X134745676Y-55569421D01*
X134745676Y-55569421D02*
X134788457Y-55526640D01*
X134788457Y-55526640D02*
X134874019Y-55483859D01*
X134874019Y-55483859D02*
X135045143Y-55483859D01*
X135045143Y-55483859D02*
X135130705Y-55526640D01*
X135130705Y-55526640D02*
X135173486Y-55569421D01*
X135173486Y-55569421D02*
X135216267Y-55654983D01*
X135216267Y-55654983D02*
X135216267Y-55697764D01*
X135216267Y-55697764D02*
X135173486Y-55783326D01*
X135173486Y-55783326D02*
X135130705Y-55826107D01*
X135130705Y-55826107D02*
X135045143Y-55868888D01*
X135045143Y-55868888D02*
X134874019Y-55868888D01*
X134874019Y-55868888D02*
X134788457Y-55911669D01*
X134788457Y-55911669D02*
X134745676Y-55954450D01*
X134745676Y-55954450D02*
X134702895Y-56040012D01*
X134702895Y-56040012D02*
X134702895Y-56211136D01*
X134702895Y-56211136D02*
X134745676Y-56296698D01*
X134745676Y-56296698D02*
X134788457Y-56339479D01*
X134788457Y-56339479D02*
X134874019Y-56382259D01*
X134874019Y-56382259D02*
X135045143Y-56382259D01*
X135045143Y-56382259D02*
X135130705Y-56339479D01*
X135130705Y-56339479D02*
X135173486Y-56296698D01*
X135173486Y-56296698D02*
X135216267Y-56211136D01*
X135216267Y-56211136D02*
X135216267Y-56040012D01*
X135216267Y-56040012D02*
X135173486Y-55954450D01*
X135173486Y-55954450D02*
X135130705Y-55911669D01*
X135130705Y-55911669D02*
X135045143Y-55868888D01*
D11*
X93166666Y-46954819D02*
X93166666Y-47669104D01*
X93166666Y-47669104D02*
X93119047Y-47811961D01*
X93119047Y-47811961D02*
X93023809Y-47907200D01*
X93023809Y-47907200D02*
X92880952Y-47954819D01*
X92880952Y-47954819D02*
X92785714Y-47954819D01*
X93595238Y-47050057D02*
X93642857Y-47002438D01*
X93642857Y-47002438D02*
X93738095Y-46954819D01*
X93738095Y-46954819D02*
X93976190Y-46954819D01*
X93976190Y-46954819D02*
X94071428Y-47002438D01*
X94071428Y-47002438D02*
X94119047Y-47050057D01*
X94119047Y-47050057D02*
X94166666Y-47145295D01*
X94166666Y-47145295D02*
X94166666Y-47240533D01*
X94166666Y-47240533D02*
X94119047Y-47383390D01*
X94119047Y-47383390D02*
X93547619Y-47954819D01*
X93547619Y-47954819D02*
X94166666Y-47954819D01*
X123666666Y-117954819D02*
X123666666Y-118669104D01*
X123666666Y-118669104D02*
X123619047Y-118811961D01*
X123619047Y-118811961D02*
X123523809Y-118907200D01*
X123523809Y-118907200D02*
X123380952Y-118954819D01*
X123380952Y-118954819D02*
X123285714Y-118954819D01*
X124047619Y-117954819D02*
X124666666Y-117954819D01*
X124666666Y-117954819D02*
X124333333Y-118335771D01*
X124333333Y-118335771D02*
X124476190Y-118335771D01*
X124476190Y-118335771D02*
X124571428Y-118383390D01*
X124571428Y-118383390D02*
X124619047Y-118431009D01*
X124619047Y-118431009D02*
X124666666Y-118526247D01*
X124666666Y-118526247D02*
X124666666Y-118764342D01*
X124666666Y-118764342D02*
X124619047Y-118859580D01*
X124619047Y-118859580D02*
X124571428Y-118907200D01*
X124571428Y-118907200D02*
X124476190Y-118954819D01*
X124476190Y-118954819D02*
X124190476Y-118954819D01*
X124190476Y-118954819D02*
X124095238Y-118907200D01*
X124095238Y-118907200D02*
X124047619Y-118859580D01*
X92066666Y-37854819D02*
X92066666Y-38569104D01*
X92066666Y-38569104D02*
X92019047Y-38711961D01*
X92019047Y-38711961D02*
X91923809Y-38807200D01*
X91923809Y-38807200D02*
X91780952Y-38854819D01*
X91780952Y-38854819D02*
X91685714Y-38854819D01*
X93066666Y-38854819D02*
X92495238Y-38854819D01*
X92780952Y-38854819D02*
X92780952Y-37854819D01*
X92780952Y-37854819D02*
X92685714Y-37997676D01*
X92685714Y-37997676D02*
X92590476Y-38092914D01*
X92590476Y-38092914D02*
X92495238Y-38140533D01*
D12*
%TO.C,J2*%
X96600000Y-45750000D02*
X98330000Y-45750000D01*
X96600000Y-51250000D02*
X96600000Y-45750000D01*
X118670000Y-45750000D02*
X120400000Y-45750000D01*
X120400000Y-45750000D02*
X120400000Y-51250000D01*
X120400000Y-51250000D02*
X96600000Y-51250000D01*
D13*
X100100000Y-43650000D02*
G75*
G02*
X99900000Y-43650000I-100000J0D01*
G01*
X99900000Y-43650000D02*
G75*
G02*
X100100000Y-43650000I100000J0D01*
G01*
D12*
%TO.C,J3*%
X123100000Y-121750000D02*
X124830000Y-121750000D01*
X123100000Y-127250000D02*
X123100000Y-121750000D01*
X145170000Y-121750000D02*
X146900000Y-121750000D01*
X146900000Y-121750000D02*
X146900000Y-127250000D01*
X146900000Y-127250000D02*
X123100000Y-127250000D01*
D13*
X126600000Y-119650000D02*
G75*
G02*
X126400000Y-119650000I-100000J0D01*
G01*
X126400000Y-119650000D02*
G75*
G02*
X126600000Y-119650000I100000J0D01*
G01*
D12*
%TO.C,J1*%
X93600000Y-35750000D02*
X117400000Y-35750000D01*
X93600000Y-41250000D02*
X93600000Y-35750000D01*
X95330000Y-41250000D02*
X93600000Y-41250000D01*
X117400000Y-35750000D02*
X117400000Y-41250000D01*
X117400000Y-41250000D02*
X115670000Y-41250000D01*
D13*
X114100000Y-43350000D02*
G75*
G02*
X113900000Y-43350000I-100000J0D01*
G01*
X113900000Y-43350000D02*
G75*
G02*
X114100000Y-43350000I100000J0D01*
G01*
%TD*%
M02*
