M48
; DRILL file {KiCad 9.0.7} date 2026-03-12T15:29:16-0500
; FORMAT={-:-/ absolute / metric / decimal}
; #@! TF.CreationDate,2026-03-12T15:29:16-05:00
; #@! TF.GenerationSoftware,Kicad,Pcbnew,9.0.7
; #@! TF.FileFunction,Plated,1,2,PTH
FMAT,2
METRIC
; #@! TA.AperFunction,Plated,PTH,ViaDrill
T1C0.400
; #@! TA.AperFunction,Plated,PTH,ComponentDrill
T2C1.000
%
G90
G05
T1
X141.3Y-61.64
X153.046Y-111.753
X153.5Y-45.5
X153.5Y-120.172
X153.5Y-122.712
X153.56Y-64.787
X153.85Y-101.972
X153.924Y-82.931
X153.924Y-85.471
X153.954Y-54.04
T2
X142.9Y-63.866
X142.9Y-66.406
X142.9Y-68.946
X142.9Y-71.486
X142.9Y-74.026
X142.9Y-76.566
X142.9Y-79.106
X142.9Y-81.646
X142.9Y-84.186
X142.9Y-86.726
X142.9Y-89.266
X142.9Y-91.806
X142.9Y-94.346
X142.9Y-96.886
X142.9Y-99.426
X142.9Y-101.966
X142.9Y-104.506
X142.9Y-107.046
M30
