%TF.GenerationSoftware,KiCad,Pcbnew,9.0.7*%
%TF.CreationDate,2026-03-12T15:29:08-05:00*%
%TF.ProjectId,Flex PCB,466c6578-2050-4434-922e-6b696361645f,rev?*%
%TF.SameCoordinates,Original*%
%TF.FileFunction,Legend,Top*%
%TF.FilePolarity,Positive*%
%FSLAX46Y46*%
G04 Gerber Fmt 4.6, Leading zero omitted, Abs format (unit mm)*
G04 Created by KiCad (PCBNEW 9.0.7) date 2026-03-12 15:29:08*
%MOMM*%
%LPD*%
G01*
G04 APERTURE LIST*
%ADD10C,0.149860*%
%ADD11C,0.150000*%
%ADD12C,0.120000*%
G04 APERTURE END LIST*
D10*
X148849137Y-81435503D02*
X147950737Y-81435503D01*
X148849137Y-81007693D02*
X148250204Y-81007693D01*
X148335766Y-81007693D02*
X148292985Y-80964912D01*
X148292985Y-80964912D02*
X148250204Y-80879350D01*
X148250204Y-80879350D02*
X148250204Y-80751007D01*
X148250204Y-80751007D02*
X148292985Y-80665445D01*
X148292985Y-80665445D02*
X148378547Y-80622664D01*
X148378547Y-80622664D02*
X148849137Y-80622664D01*
X148378547Y-80622664D02*
X148292985Y-80579883D01*
X148292985Y-80579883D02*
X148250204Y-80494321D01*
X148250204Y-80494321D02*
X148250204Y-80365978D01*
X148250204Y-80365978D02*
X148292985Y-80280417D01*
X148292985Y-80280417D02*
X148378547Y-80237636D01*
X148378547Y-80237636D02*
X148849137Y-80237636D01*
X148250204Y-79809826D02*
X149148604Y-79809826D01*
X148292985Y-79809826D02*
X148250204Y-79724264D01*
X148250204Y-79724264D02*
X148250204Y-79553140D01*
X148250204Y-79553140D02*
X148292985Y-79467578D01*
X148292985Y-79467578D02*
X148335766Y-79424797D01*
X148335766Y-79424797D02*
X148421328Y-79382016D01*
X148421328Y-79382016D02*
X148678014Y-79382016D01*
X148678014Y-79382016D02*
X148763576Y-79424797D01*
X148763576Y-79424797D02*
X148806357Y-79467578D01*
X148806357Y-79467578D02*
X148849137Y-79553140D01*
X148849137Y-79553140D02*
X148849137Y-79724264D01*
X148849137Y-79724264D02*
X148806357Y-79809826D01*
X148849137Y-78611959D02*
X148378547Y-78611959D01*
X148378547Y-78611959D02*
X148292985Y-78654740D01*
X148292985Y-78654740D02*
X148250204Y-78740302D01*
X148250204Y-78740302D02*
X148250204Y-78911426D01*
X148250204Y-78911426D02*
X148292985Y-78996988D01*
X148806357Y-78611959D02*
X148849137Y-78697521D01*
X148849137Y-78697521D02*
X148849137Y-78911426D01*
X148849137Y-78911426D02*
X148806357Y-78996988D01*
X148806357Y-78996988D02*
X148720795Y-79039769D01*
X148720795Y-79039769D02*
X148635233Y-79039769D01*
X148635233Y-79039769D02*
X148549671Y-78996988D01*
X148549671Y-78996988D02*
X148506890Y-78911426D01*
X148506890Y-78911426D02*
X148506890Y-78697521D01*
X148506890Y-78697521D02*
X148464109Y-78611959D01*
X148806357Y-77799121D02*
X148849137Y-77884683D01*
X148849137Y-77884683D02*
X148849137Y-78055807D01*
X148849137Y-78055807D02*
X148806357Y-78141369D01*
X148806357Y-78141369D02*
X148763576Y-78184150D01*
X148763576Y-78184150D02*
X148678014Y-78226931D01*
X148678014Y-78226931D02*
X148421328Y-78226931D01*
X148421328Y-78226931D02*
X148335766Y-78184150D01*
X148335766Y-78184150D02*
X148292985Y-78141369D01*
X148292985Y-78141369D02*
X148250204Y-78055807D01*
X148250204Y-78055807D02*
X148250204Y-77884683D01*
X148250204Y-77884683D02*
X148292985Y-77799121D01*
X148250204Y-77542436D02*
X148250204Y-77200188D01*
X147950737Y-77414093D02*
X148720795Y-77414093D01*
X148720795Y-77414093D02*
X148806357Y-77371312D01*
X148806357Y-77371312D02*
X148849137Y-77285750D01*
X148849137Y-77285750D02*
X148849137Y-77200188D01*
X148849137Y-76900722D02*
X147950737Y-76900722D01*
X148250204Y-76472912D02*
X148849137Y-76472912D01*
X148335766Y-76472912D02*
X148292985Y-76430131D01*
X148292985Y-76430131D02*
X148250204Y-76344569D01*
X148250204Y-76344569D02*
X148250204Y-76216226D01*
X148250204Y-76216226D02*
X148292985Y-76130664D01*
X148292985Y-76130664D02*
X148378547Y-76087883D01*
X148378547Y-76087883D02*
X148849137Y-76087883D01*
X148806357Y-75702855D02*
X148849137Y-75617293D01*
X148849137Y-75617293D02*
X148849137Y-75446169D01*
X148849137Y-75446169D02*
X148806357Y-75360607D01*
X148806357Y-75360607D02*
X148720795Y-75317826D01*
X148720795Y-75317826D02*
X148678014Y-75317826D01*
X148678014Y-75317826D02*
X148592452Y-75360607D01*
X148592452Y-75360607D02*
X148549671Y-75446169D01*
X148549671Y-75446169D02*
X148549671Y-75574512D01*
X148549671Y-75574512D02*
X148506890Y-75660074D01*
X148506890Y-75660074D02*
X148421328Y-75702855D01*
X148421328Y-75702855D02*
X148378547Y-75702855D01*
X148378547Y-75702855D02*
X148292985Y-75660074D01*
X148292985Y-75660074D02*
X148250204Y-75574512D01*
X148250204Y-75574512D02*
X148250204Y-75446169D01*
X148250204Y-75446169D02*
X148292985Y-75360607D01*
X148849137Y-74804455D02*
X148806357Y-74890017D01*
X148806357Y-74890017D02*
X148763576Y-74932798D01*
X148763576Y-74932798D02*
X148678014Y-74975579D01*
X148678014Y-74975579D02*
X148421328Y-74975579D01*
X148421328Y-74975579D02*
X148335766Y-74932798D01*
X148335766Y-74932798D02*
X148292985Y-74890017D01*
X148292985Y-74890017D02*
X148250204Y-74804455D01*
X148250204Y-74804455D02*
X148250204Y-74676112D01*
X148250204Y-74676112D02*
X148292985Y-74590550D01*
X148292985Y-74590550D02*
X148335766Y-74547769D01*
X148335766Y-74547769D02*
X148421328Y-74504988D01*
X148421328Y-74504988D02*
X148678014Y-74504988D01*
X148678014Y-74504988D02*
X148763576Y-74547769D01*
X148763576Y-74547769D02*
X148806357Y-74590550D01*
X148806357Y-74590550D02*
X148849137Y-74676112D01*
X148849137Y-74676112D02*
X148849137Y-74804455D01*
X148849137Y-73991617D02*
X148806357Y-74077179D01*
X148806357Y-74077179D02*
X148720795Y-74119960D01*
X148720795Y-74119960D02*
X147950737Y-74119960D01*
X148806357Y-73307122D02*
X148849137Y-73392684D01*
X148849137Y-73392684D02*
X148849137Y-73563808D01*
X148849137Y-73563808D02*
X148806357Y-73649370D01*
X148806357Y-73649370D02*
X148720795Y-73692151D01*
X148720795Y-73692151D02*
X148378547Y-73692151D01*
X148378547Y-73692151D02*
X148292985Y-73649370D01*
X148292985Y-73649370D02*
X148250204Y-73563808D01*
X148250204Y-73563808D02*
X148250204Y-73392684D01*
X148250204Y-73392684D02*
X148292985Y-73307122D01*
X148292985Y-73307122D02*
X148378547Y-73264341D01*
X148378547Y-73264341D02*
X148464109Y-73264341D01*
X148464109Y-73264341D02*
X148549671Y-73692151D01*
X148806357Y-72922094D02*
X148849137Y-72836532D01*
X148849137Y-72836532D02*
X148849137Y-72665408D01*
X148849137Y-72665408D02*
X148806357Y-72579846D01*
X148806357Y-72579846D02*
X148720795Y-72537065D01*
X148720795Y-72537065D02*
X148678014Y-72537065D01*
X148678014Y-72537065D02*
X148592452Y-72579846D01*
X148592452Y-72579846D02*
X148549671Y-72665408D01*
X148549671Y-72665408D02*
X148549671Y-72793751D01*
X148549671Y-72793751D02*
X148506890Y-72879313D01*
X148506890Y-72879313D02*
X148421328Y-72922094D01*
X148421328Y-72922094D02*
X148378547Y-72922094D01*
X148378547Y-72922094D02*
X148292985Y-72879313D01*
X148292985Y-72879313D02*
X148250204Y-72793751D01*
X148250204Y-72793751D02*
X148250204Y-72665408D01*
X148250204Y-72665408D02*
X148292985Y-72579846D01*
X149824921Y-81136036D02*
X149824921Y-81435503D01*
X150295511Y-81435503D02*
X149397111Y-81435503D01*
X149397111Y-81435503D02*
X149397111Y-81007693D01*
X150295511Y-80537103D02*
X150252731Y-80622665D01*
X150252731Y-80622665D02*
X150167169Y-80665446D01*
X150167169Y-80665446D02*
X149397111Y-80665446D01*
X150252731Y-79852608D02*
X150295511Y-79938170D01*
X150295511Y-79938170D02*
X150295511Y-80109294D01*
X150295511Y-80109294D02*
X150252731Y-80194856D01*
X150252731Y-80194856D02*
X150167169Y-80237637D01*
X150167169Y-80237637D02*
X149824921Y-80237637D01*
X149824921Y-80237637D02*
X149739359Y-80194856D01*
X149739359Y-80194856D02*
X149696578Y-80109294D01*
X149696578Y-80109294D02*
X149696578Y-79938170D01*
X149696578Y-79938170D02*
X149739359Y-79852608D01*
X149739359Y-79852608D02*
X149824921Y-79809827D01*
X149824921Y-79809827D02*
X149910483Y-79809827D01*
X149910483Y-79809827D02*
X149996045Y-80237637D01*
X150295511Y-79510361D02*
X149696578Y-79039770D01*
X149696578Y-79510361D02*
X150295511Y-79039770D01*
X149397111Y-78141371D02*
X150295511Y-77841904D01*
X150295511Y-77841904D02*
X149397111Y-77542437D01*
X149482673Y-77285752D02*
X149439892Y-77242971D01*
X149439892Y-77242971D02*
X149397111Y-77157409D01*
X149397111Y-77157409D02*
X149397111Y-76943504D01*
X149397111Y-76943504D02*
X149439892Y-76857942D01*
X149439892Y-76857942D02*
X149482673Y-76815161D01*
X149482673Y-76815161D02*
X149568235Y-76772380D01*
X149568235Y-76772380D02*
X149653797Y-76772380D01*
X149653797Y-76772380D02*
X149782140Y-76815161D01*
X149782140Y-76815161D02*
X150295511Y-77328533D01*
X150295511Y-77328533D02*
X150295511Y-76772380D01*
X151271295Y-81435503D02*
X151271295Y-81136036D01*
X151741885Y-81007693D02*
X151741885Y-81435503D01*
X151741885Y-81435503D02*
X150843485Y-81435503D01*
X150843485Y-81435503D02*
X150843485Y-81007693D01*
X151656324Y-80109293D02*
X151699105Y-80152074D01*
X151699105Y-80152074D02*
X151741885Y-80280417D01*
X151741885Y-80280417D02*
X151741885Y-80365979D01*
X151741885Y-80365979D02*
X151699105Y-80494322D01*
X151699105Y-80494322D02*
X151613543Y-80579884D01*
X151613543Y-80579884D02*
X151527981Y-80622665D01*
X151527981Y-80622665D02*
X151356857Y-80665446D01*
X151356857Y-80665446D02*
X151228514Y-80665446D01*
X151228514Y-80665446D02*
X151057390Y-80622665D01*
X151057390Y-80622665D02*
X150971828Y-80579884D01*
X150971828Y-80579884D02*
X150886266Y-80494322D01*
X150886266Y-80494322D02*
X150843485Y-80365979D01*
X150843485Y-80365979D02*
X150843485Y-80280417D01*
X150843485Y-80280417D02*
X150886266Y-80152074D01*
X150886266Y-80152074D02*
X150929047Y-80109293D01*
X151271295Y-79724265D02*
X151271295Y-79424798D01*
X151741885Y-79296455D02*
X151741885Y-79724265D01*
X151741885Y-79724265D02*
X150843485Y-79724265D01*
X150843485Y-79724265D02*
X150843485Y-79296455D01*
X151142952Y-78526398D02*
X151741885Y-78526398D01*
X150800705Y-78740303D02*
X151442419Y-78954208D01*
X151442419Y-78954208D02*
X151442419Y-78398055D01*
X151142952Y-77670779D02*
X151741885Y-77670779D01*
X150800705Y-77884684D02*
X151442419Y-78098589D01*
X151442419Y-78098589D02*
X151442419Y-77542436D01*
X150843485Y-76772379D02*
X150843485Y-77200189D01*
X150843485Y-77200189D02*
X151271295Y-77242970D01*
X151271295Y-77242970D02*
X151228514Y-77200189D01*
X151228514Y-77200189D02*
X151185733Y-77114627D01*
X151185733Y-77114627D02*
X151185733Y-76900722D01*
X151185733Y-76900722D02*
X151228514Y-76815160D01*
X151228514Y-76815160D02*
X151271295Y-76772379D01*
X151271295Y-76772379D02*
X151356857Y-76729598D01*
X151356857Y-76729598D02*
X151570762Y-76729598D01*
X151570762Y-76729598D02*
X151656324Y-76772379D01*
X151656324Y-76772379D02*
X151699105Y-76815160D01*
X151699105Y-76815160D02*
X151741885Y-76900722D01*
X151741885Y-76900722D02*
X151741885Y-77114627D01*
X151741885Y-77114627D02*
X151699105Y-77200189D01*
X151699105Y-77200189D02*
X151656324Y-77242970D01*
X151699105Y-75702856D02*
X151741885Y-75574513D01*
X151741885Y-75574513D02*
X151741885Y-75360608D01*
X151741885Y-75360608D02*
X151699105Y-75275046D01*
X151699105Y-75275046D02*
X151656324Y-75232265D01*
X151656324Y-75232265D02*
X151570762Y-75189484D01*
X151570762Y-75189484D02*
X151485200Y-75189484D01*
X151485200Y-75189484D02*
X151399638Y-75232265D01*
X151399638Y-75232265D02*
X151356857Y-75275046D01*
X151356857Y-75275046D02*
X151314076Y-75360608D01*
X151314076Y-75360608D02*
X151271295Y-75531732D01*
X151271295Y-75531732D02*
X151228514Y-75617294D01*
X151228514Y-75617294D02*
X151185733Y-75660075D01*
X151185733Y-75660075D02*
X151100171Y-75702856D01*
X151100171Y-75702856D02*
X151014609Y-75702856D01*
X151014609Y-75702856D02*
X150929047Y-75660075D01*
X150929047Y-75660075D02*
X150886266Y-75617294D01*
X150886266Y-75617294D02*
X150843485Y-75531732D01*
X150843485Y-75531732D02*
X150843485Y-75317827D01*
X150843485Y-75317827D02*
X150886266Y-75189484D01*
X151142952Y-74804456D02*
X152041352Y-74804456D01*
X151185733Y-74804456D02*
X151142952Y-74718894D01*
X151142952Y-74718894D02*
X151142952Y-74547770D01*
X151142952Y-74547770D02*
X151185733Y-74462208D01*
X151185733Y-74462208D02*
X151228514Y-74419427D01*
X151228514Y-74419427D02*
X151314076Y-74376646D01*
X151314076Y-74376646D02*
X151570762Y-74376646D01*
X151570762Y-74376646D02*
X151656324Y-74419427D01*
X151656324Y-74419427D02*
X151699105Y-74462208D01*
X151699105Y-74462208D02*
X151741885Y-74547770D01*
X151741885Y-74547770D02*
X151741885Y-74718894D01*
X151741885Y-74718894D02*
X151699105Y-74804456D01*
X151741885Y-73991618D02*
X151142952Y-73991618D01*
X151314076Y-73991618D02*
X151228514Y-73948837D01*
X151228514Y-73948837D02*
X151185733Y-73906056D01*
X151185733Y-73906056D02*
X151142952Y-73820494D01*
X151142952Y-73820494D02*
X151142952Y-73734932D01*
X151741885Y-73435466D02*
X151142952Y-73435466D01*
X150843485Y-73435466D02*
X150886266Y-73478247D01*
X150886266Y-73478247D02*
X150929047Y-73435466D01*
X150929047Y-73435466D02*
X150886266Y-73392685D01*
X150886266Y-73392685D02*
X150843485Y-73435466D01*
X150843485Y-73435466D02*
X150929047Y-73435466D01*
X151142952Y-73007656D02*
X151741885Y-73007656D01*
X151228514Y-73007656D02*
X151185733Y-72964875D01*
X151185733Y-72964875D02*
X151142952Y-72879313D01*
X151142952Y-72879313D02*
X151142952Y-72750970D01*
X151142952Y-72750970D02*
X151185733Y-72665408D01*
X151185733Y-72665408D02*
X151271295Y-72622627D01*
X151271295Y-72622627D02*
X151741885Y-72622627D01*
X151142952Y-71809789D02*
X151870228Y-71809789D01*
X151870228Y-71809789D02*
X151955790Y-71852570D01*
X151955790Y-71852570D02*
X151998571Y-71895351D01*
X151998571Y-71895351D02*
X152041352Y-71980913D01*
X152041352Y-71980913D02*
X152041352Y-72109256D01*
X152041352Y-72109256D02*
X151998571Y-72194818D01*
X151699105Y-71809789D02*
X151741885Y-71895351D01*
X151741885Y-71895351D02*
X151741885Y-72066475D01*
X151741885Y-72066475D02*
X151699105Y-72152037D01*
X151699105Y-72152037D02*
X151656324Y-72194818D01*
X151656324Y-72194818D02*
X151570762Y-72237599D01*
X151570762Y-72237599D02*
X151314076Y-72237599D01*
X151314076Y-72237599D02*
X151228514Y-72194818D01*
X151228514Y-72194818D02*
X151185733Y-72152037D01*
X151185733Y-72152037D02*
X151142952Y-72066475D01*
X151142952Y-72066475D02*
X151142952Y-71895351D01*
X151142952Y-71895351D02*
X151185733Y-71809789D01*
X150929047Y-70740266D02*
X150886266Y-70697485D01*
X150886266Y-70697485D02*
X150843485Y-70611923D01*
X150843485Y-70611923D02*
X150843485Y-70398018D01*
X150843485Y-70398018D02*
X150886266Y-70312456D01*
X150886266Y-70312456D02*
X150929047Y-70269675D01*
X150929047Y-70269675D02*
X151014609Y-70226894D01*
X151014609Y-70226894D02*
X151100171Y-70226894D01*
X151100171Y-70226894D02*
X151228514Y-70269675D01*
X151228514Y-70269675D02*
X151741885Y-70783047D01*
X151741885Y-70783047D02*
X151741885Y-70226894D01*
X150843485Y-69456837D02*
X150843485Y-69627961D01*
X150843485Y-69627961D02*
X150886266Y-69713523D01*
X150886266Y-69713523D02*
X150929047Y-69756304D01*
X150929047Y-69756304D02*
X151057390Y-69841866D01*
X151057390Y-69841866D02*
X151228514Y-69884647D01*
X151228514Y-69884647D02*
X151570762Y-69884647D01*
X151570762Y-69884647D02*
X151656324Y-69841866D01*
X151656324Y-69841866D02*
X151699105Y-69799085D01*
X151699105Y-69799085D02*
X151741885Y-69713523D01*
X151741885Y-69713523D02*
X151741885Y-69542399D01*
X151741885Y-69542399D02*
X151699105Y-69456837D01*
X151699105Y-69456837D02*
X151656324Y-69414056D01*
X151656324Y-69414056D02*
X151570762Y-69371275D01*
X151570762Y-69371275D02*
X151356857Y-69371275D01*
X151356857Y-69371275D02*
X151271295Y-69414056D01*
X151271295Y-69414056D02*
X151228514Y-69456837D01*
X151228514Y-69456837D02*
X151185733Y-69542399D01*
X151185733Y-69542399D02*
X151185733Y-69713523D01*
X151185733Y-69713523D02*
X151228514Y-69799085D01*
X151228514Y-69799085D02*
X151271295Y-69841866D01*
X151271295Y-69841866D02*
X151356857Y-69884647D01*
X152332640Y-80964912D02*
X152289859Y-81050474D01*
X152289859Y-81050474D02*
X152289859Y-81178817D01*
X152289859Y-81178817D02*
X152332640Y-81307160D01*
X152332640Y-81307160D02*
X152418202Y-81392722D01*
X152418202Y-81392722D02*
X152503764Y-81435503D01*
X152503764Y-81435503D02*
X152674888Y-81478284D01*
X152674888Y-81478284D02*
X152803231Y-81478284D01*
X152803231Y-81478284D02*
X152974355Y-81435503D01*
X152974355Y-81435503D02*
X153059917Y-81392722D01*
X153059917Y-81392722D02*
X153145479Y-81307160D01*
X153145479Y-81307160D02*
X153188259Y-81178817D01*
X153188259Y-81178817D02*
X153188259Y-81093255D01*
X153188259Y-81093255D02*
X153145479Y-80964912D01*
X153145479Y-80964912D02*
X153102698Y-80922131D01*
X153102698Y-80922131D02*
X152803231Y-80922131D01*
X152803231Y-80922131D02*
X152803231Y-81093255D01*
X153188259Y-80537103D02*
X152589326Y-80537103D01*
X152760450Y-80537103D02*
X152674888Y-80494322D01*
X152674888Y-80494322D02*
X152632107Y-80451541D01*
X152632107Y-80451541D02*
X152589326Y-80365979D01*
X152589326Y-80365979D02*
X152589326Y-80280417D01*
X153188259Y-79852608D02*
X153145479Y-79938170D01*
X153145479Y-79938170D02*
X153102698Y-79980951D01*
X153102698Y-79980951D02*
X153017136Y-80023732D01*
X153017136Y-80023732D02*
X152760450Y-80023732D01*
X152760450Y-80023732D02*
X152674888Y-79980951D01*
X152674888Y-79980951D02*
X152632107Y-79938170D01*
X152632107Y-79938170D02*
X152589326Y-79852608D01*
X152589326Y-79852608D02*
X152589326Y-79724265D01*
X152589326Y-79724265D02*
X152632107Y-79638703D01*
X152632107Y-79638703D02*
X152674888Y-79595922D01*
X152674888Y-79595922D02*
X152760450Y-79553141D01*
X152760450Y-79553141D02*
X153017136Y-79553141D01*
X153017136Y-79553141D02*
X153102698Y-79595922D01*
X153102698Y-79595922D02*
X153145479Y-79638703D01*
X153145479Y-79638703D02*
X153188259Y-79724265D01*
X153188259Y-79724265D02*
X153188259Y-79852608D01*
X152589326Y-78783084D02*
X153188259Y-78783084D01*
X152589326Y-79168113D02*
X153059917Y-79168113D01*
X153059917Y-79168113D02*
X153145479Y-79125332D01*
X153145479Y-79125332D02*
X153188259Y-79039770D01*
X153188259Y-79039770D02*
X153188259Y-78911427D01*
X153188259Y-78911427D02*
X153145479Y-78825865D01*
X153145479Y-78825865D02*
X153102698Y-78783084D01*
X152589326Y-78355275D02*
X153487726Y-78355275D01*
X152632107Y-78355275D02*
X152589326Y-78269713D01*
X152589326Y-78269713D02*
X152589326Y-78098589D01*
X152589326Y-78098589D02*
X152632107Y-78013027D01*
X152632107Y-78013027D02*
X152674888Y-77970246D01*
X152674888Y-77970246D02*
X152760450Y-77927465D01*
X152760450Y-77927465D02*
X153017136Y-77927465D01*
X153017136Y-77927465D02*
X153102698Y-77970246D01*
X153102698Y-77970246D02*
X153145479Y-78013027D01*
X153145479Y-78013027D02*
X153188259Y-78098589D01*
X153188259Y-78098589D02*
X153188259Y-78269713D01*
X153188259Y-78269713D02*
X153145479Y-78355275D01*
X152289859Y-76472913D02*
X152289859Y-76644037D01*
X152289859Y-76644037D02*
X152332640Y-76729599D01*
X152332640Y-76729599D02*
X152375421Y-76772380D01*
X152375421Y-76772380D02*
X152503764Y-76857942D01*
X152503764Y-76857942D02*
X152674888Y-76900723D01*
X152674888Y-76900723D02*
X153017136Y-76900723D01*
X153017136Y-76900723D02*
X153102698Y-76857942D01*
X153102698Y-76857942D02*
X153145479Y-76815161D01*
X153145479Y-76815161D02*
X153188259Y-76729599D01*
X153188259Y-76729599D02*
X153188259Y-76558475D01*
X153188259Y-76558475D02*
X153145479Y-76472913D01*
X153145479Y-76472913D02*
X153102698Y-76430132D01*
X153102698Y-76430132D02*
X153017136Y-76387351D01*
X153017136Y-76387351D02*
X152803231Y-76387351D01*
X152803231Y-76387351D02*
X152717669Y-76430132D01*
X152717669Y-76430132D02*
X152674888Y-76472913D01*
X152674888Y-76472913D02*
X152632107Y-76558475D01*
X152632107Y-76558475D02*
X152632107Y-76729599D01*
X152632107Y-76729599D02*
X152674888Y-76815161D01*
X152674888Y-76815161D02*
X152717669Y-76857942D01*
X152717669Y-76857942D02*
X152803231Y-76900723D01*
X152674888Y-75873980D02*
X152632107Y-75959542D01*
X152632107Y-75959542D02*
X152589326Y-76002323D01*
X152589326Y-76002323D02*
X152503764Y-76045104D01*
X152503764Y-76045104D02*
X152460983Y-76045104D01*
X152460983Y-76045104D02*
X152375421Y-76002323D01*
X152375421Y-76002323D02*
X152332640Y-75959542D01*
X152332640Y-75959542D02*
X152289859Y-75873980D01*
X152289859Y-75873980D02*
X152289859Y-75702856D01*
X152289859Y-75702856D02*
X152332640Y-75617294D01*
X152332640Y-75617294D02*
X152375421Y-75574513D01*
X152375421Y-75574513D02*
X152460983Y-75531732D01*
X152460983Y-75531732D02*
X152503764Y-75531732D01*
X152503764Y-75531732D02*
X152589326Y-75574513D01*
X152589326Y-75574513D02*
X152632107Y-75617294D01*
X152632107Y-75617294D02*
X152674888Y-75702856D01*
X152674888Y-75702856D02*
X152674888Y-75873980D01*
X152674888Y-75873980D02*
X152717669Y-75959542D01*
X152717669Y-75959542D02*
X152760450Y-76002323D01*
X152760450Y-76002323D02*
X152846012Y-76045104D01*
X152846012Y-76045104D02*
X153017136Y-76045104D01*
X153017136Y-76045104D02*
X153102698Y-76002323D01*
X153102698Y-76002323D02*
X153145479Y-75959542D01*
X153145479Y-75959542D02*
X153188259Y-75873980D01*
X153188259Y-75873980D02*
X153188259Y-75702856D01*
X153188259Y-75702856D02*
X153145479Y-75617294D01*
X153145479Y-75617294D02*
X153102698Y-75574513D01*
X153102698Y-75574513D02*
X153017136Y-75531732D01*
X153017136Y-75531732D02*
X152846012Y-75531732D01*
X152846012Y-75531732D02*
X152760450Y-75574513D01*
X152760450Y-75574513D02*
X152717669Y-75617294D01*
X152717669Y-75617294D02*
X152674888Y-75702856D01*
D11*
X150754819Y-103466666D02*
X150278628Y-103799999D01*
X150754819Y-104038094D02*
X149754819Y-104038094D01*
X149754819Y-104038094D02*
X149754819Y-103657142D01*
X149754819Y-103657142D02*
X149802438Y-103561904D01*
X149802438Y-103561904D02*
X149850057Y-103514285D01*
X149850057Y-103514285D02*
X149945295Y-103466666D01*
X149945295Y-103466666D02*
X150088152Y-103466666D01*
X150088152Y-103466666D02*
X150183390Y-103514285D01*
X150183390Y-103514285D02*
X150231009Y-103561904D01*
X150231009Y-103561904D02*
X150278628Y-103657142D01*
X150278628Y-103657142D02*
X150278628Y-104038094D01*
X149754819Y-103133332D02*
X149754819Y-102514285D01*
X149754819Y-102514285D02*
X150135771Y-102847618D01*
X150135771Y-102847618D02*
X150135771Y-102704761D01*
X150135771Y-102704761D02*
X150183390Y-102609523D01*
X150183390Y-102609523D02*
X150231009Y-102561904D01*
X150231009Y-102561904D02*
X150326247Y-102514285D01*
X150326247Y-102514285D02*
X150564342Y-102514285D01*
X150564342Y-102514285D02*
X150659580Y-102561904D01*
X150659580Y-102561904D02*
X150707200Y-102609523D01*
X150707200Y-102609523D02*
X150754819Y-102704761D01*
X150754819Y-102704761D02*
X150754819Y-102990475D01*
X150754819Y-102990475D02*
X150707200Y-103085713D01*
X150707200Y-103085713D02*
X150659580Y-103133332D01*
X149679697Y-114213114D02*
X150013163Y-113737016D01*
X149484257Y-113676147D02*
X150423950Y-113334126D01*
X150423950Y-113334126D02*
X150554243Y-113692105D01*
X150554243Y-113692105D02*
X150542069Y-113797886D01*
X150542069Y-113797886D02*
X150513609Y-113858920D01*
X150513609Y-113858920D02*
X150440401Y-113936240D01*
X150440401Y-113936240D02*
X150306159Y-113985100D01*
X150306159Y-113985100D02*
X150200378Y-113972926D01*
X150200378Y-113972926D02*
X150139344Y-113944466D01*
X150139344Y-113944466D02*
X150062023Y-113871258D01*
X150062023Y-113871258D02*
X149931730Y-113513280D01*
X150599319Y-114790551D02*
X149972857Y-115018565D01*
X150875864Y-114436521D02*
X150123221Y-114457085D01*
X150123221Y-114457085D02*
X150334948Y-115038800D01*
X150534477Y-54385500D02*
X149972998Y-54535864D01*
X150339037Y-54922467D02*
X149399345Y-54580447D01*
X149399345Y-54580447D02*
X149529638Y-54222469D01*
X149529638Y-54222469D02*
X149606959Y-54149261D01*
X149606959Y-54149261D02*
X149667993Y-54120800D01*
X149667993Y-54120800D02*
X149773774Y-54108626D01*
X149773774Y-54108626D02*
X149908016Y-54157486D01*
X149908016Y-54157486D02*
X149981224Y-54234807D01*
X149981224Y-54234807D02*
X150009684Y-54295841D01*
X150009684Y-54295841D02*
X150021858Y-54401622D01*
X150021858Y-54401622D02*
X149891565Y-54759600D01*
X149904232Y-53193282D02*
X149741365Y-53640754D01*
X149741365Y-53640754D02*
X150172551Y-53848368D01*
X150172551Y-53848368D02*
X150144090Y-53787334D01*
X150144090Y-53787334D02*
X150131916Y-53681553D01*
X150131916Y-53681553D02*
X150213350Y-53457817D01*
X150213350Y-53457817D02*
X150290670Y-53384609D01*
X150290670Y-53384609D02*
X150351704Y-53356148D01*
X150351704Y-53356148D02*
X150457485Y-53343974D01*
X150457485Y-53343974D02*
X150681222Y-53425408D01*
X150681222Y-53425408D02*
X150754430Y-53502728D01*
X150754430Y-53502728D02*
X150782890Y-53563762D01*
X150782890Y-53563762D02*
X150795064Y-53669543D01*
X150795064Y-53669543D02*
X150713631Y-53893280D01*
X150713631Y-53893280D02*
X150636310Y-53966488D01*
X150636310Y-53966488D02*
X150575276Y-53994948D01*
X150404819Y-121666666D02*
X149928628Y-121999999D01*
X150404819Y-122238094D02*
X149404819Y-122238094D01*
X149404819Y-122238094D02*
X149404819Y-121857142D01*
X149404819Y-121857142D02*
X149452438Y-121761904D01*
X149452438Y-121761904D02*
X149500057Y-121714285D01*
X149500057Y-121714285D02*
X149595295Y-121666666D01*
X149595295Y-121666666D02*
X149738152Y-121666666D01*
X149738152Y-121666666D02*
X149833390Y-121714285D01*
X149833390Y-121714285D02*
X149881009Y-121761904D01*
X149881009Y-121761904D02*
X149928628Y-121857142D01*
X149928628Y-121857142D02*
X149928628Y-122238094D01*
X149404819Y-121333332D02*
X149404819Y-120666666D01*
X149404819Y-120666666D02*
X150404819Y-121095237D01*
X150404819Y-46994166D02*
X149928628Y-47327499D01*
X150404819Y-47565594D02*
X149404819Y-47565594D01*
X149404819Y-47565594D02*
X149404819Y-47184642D01*
X149404819Y-47184642D02*
X149452438Y-47089404D01*
X149452438Y-47089404D02*
X149500057Y-47041785D01*
X149500057Y-47041785D02*
X149595295Y-46994166D01*
X149595295Y-46994166D02*
X149738152Y-46994166D01*
X149738152Y-46994166D02*
X149833390Y-47041785D01*
X149833390Y-47041785D02*
X149881009Y-47089404D01*
X149881009Y-47089404D02*
X149928628Y-47184642D01*
X149928628Y-47184642D02*
X149928628Y-47565594D01*
X149404819Y-46137023D02*
X149404819Y-46327499D01*
X149404819Y-46327499D02*
X149452438Y-46422737D01*
X149452438Y-46422737D02*
X149500057Y-46470356D01*
X149500057Y-46470356D02*
X149642914Y-46565594D01*
X149642914Y-46565594D02*
X149833390Y-46613213D01*
X149833390Y-46613213D02*
X150214342Y-46613213D01*
X150214342Y-46613213D02*
X150309580Y-46565594D01*
X150309580Y-46565594D02*
X150357200Y-46517975D01*
X150357200Y-46517975D02*
X150404819Y-46422737D01*
X150404819Y-46422737D02*
X150404819Y-46232261D01*
X150404819Y-46232261D02*
X150357200Y-46137023D01*
X150357200Y-46137023D02*
X150309580Y-46089404D01*
X150309580Y-46089404D02*
X150214342Y-46041785D01*
X150214342Y-46041785D02*
X149976247Y-46041785D01*
X149976247Y-46041785D02*
X149881009Y-46089404D01*
X149881009Y-46089404D02*
X149833390Y-46137023D01*
X149833390Y-46137023D02*
X149785771Y-46232261D01*
X149785771Y-46232261D02*
X149785771Y-46422737D01*
X149785771Y-46422737D02*
X149833390Y-46517975D01*
X149833390Y-46517975D02*
X149881009Y-46565594D01*
X149881009Y-46565594D02*
X149976247Y-46613213D01*
X150828819Y-84425166D02*
X150352628Y-84758499D01*
X150828819Y-84996594D02*
X149828819Y-84996594D01*
X149828819Y-84996594D02*
X149828819Y-84615642D01*
X149828819Y-84615642D02*
X149876438Y-84520404D01*
X149876438Y-84520404D02*
X149924057Y-84472785D01*
X149924057Y-84472785D02*
X150019295Y-84425166D01*
X150019295Y-84425166D02*
X150162152Y-84425166D01*
X150162152Y-84425166D02*
X150257390Y-84472785D01*
X150257390Y-84472785D02*
X150305009Y-84520404D01*
X150305009Y-84520404D02*
X150352628Y-84615642D01*
X150352628Y-84615642D02*
X150352628Y-84996594D01*
X149924057Y-84044213D02*
X149876438Y-83996594D01*
X149876438Y-83996594D02*
X149828819Y-83901356D01*
X149828819Y-83901356D02*
X149828819Y-83663261D01*
X149828819Y-83663261D02*
X149876438Y-83568023D01*
X149876438Y-83568023D02*
X149924057Y-83520404D01*
X149924057Y-83520404D02*
X150019295Y-83472785D01*
X150019295Y-83472785D02*
X150114533Y-83472785D01*
X150114533Y-83472785D02*
X150257390Y-83520404D01*
X150257390Y-83520404D02*
X150828819Y-84091832D01*
X150828819Y-84091832D02*
X150828819Y-83472785D01*
X150464819Y-66166666D02*
X149988628Y-66499999D01*
X150464819Y-66738094D02*
X149464819Y-66738094D01*
X149464819Y-66738094D02*
X149464819Y-66357142D01*
X149464819Y-66357142D02*
X149512438Y-66261904D01*
X149512438Y-66261904D02*
X149560057Y-66214285D01*
X149560057Y-66214285D02*
X149655295Y-66166666D01*
X149655295Y-66166666D02*
X149798152Y-66166666D01*
X149798152Y-66166666D02*
X149893390Y-66214285D01*
X149893390Y-66214285D02*
X149941009Y-66261904D01*
X149941009Y-66261904D02*
X149988628Y-66357142D01*
X149988628Y-66357142D02*
X149988628Y-66738094D01*
X150464819Y-65214285D02*
X150464819Y-65785713D01*
X150464819Y-65499999D02*
X149464819Y-65499999D01*
X149464819Y-65499999D02*
X149607676Y-65595237D01*
X149607676Y-65595237D02*
X149702914Y-65690475D01*
X149702914Y-65690475D02*
X149750533Y-65785713D01*
X142566666Y-109270819D02*
X142566666Y-109985104D01*
X142566666Y-109985104D02*
X142519047Y-110127961D01*
X142519047Y-110127961D02*
X142423809Y-110223200D01*
X142423809Y-110223200D02*
X142280952Y-110270819D01*
X142280952Y-110270819D02*
X142185714Y-110270819D01*
X142995238Y-109366057D02*
X143042857Y-109318438D01*
X143042857Y-109318438D02*
X143138095Y-109270819D01*
X143138095Y-109270819D02*
X143376190Y-109270819D01*
X143376190Y-109270819D02*
X143471428Y-109318438D01*
X143471428Y-109318438D02*
X143519047Y-109366057D01*
X143519047Y-109366057D02*
X143566666Y-109461295D01*
X143566666Y-109461295D02*
X143566666Y-109556533D01*
X143566666Y-109556533D02*
X143519047Y-109699390D01*
X143519047Y-109699390D02*
X142947619Y-110270819D01*
X142947619Y-110270819D02*
X143566666Y-110270819D01*
D12*
%TO.C,R3*%
X156460000Y-103661252D02*
X156460000Y-102938748D01*
X151240000Y-103661252D02*
X151240000Y-102938748D01*
%TO.C,R4*%
X156076153Y-112446793D02*
X155829043Y-111767862D01*
X151170957Y-114232138D02*
X150923847Y-113553207D01*
%TO.C,R5*%
X155829042Y-56519638D02*
X156076153Y-55840707D01*
X150923847Y-54734293D02*
X151170958Y-54055362D01*
%TO.C,R7*%
X150890000Y-121861252D02*
X150890000Y-121138748D01*
X156110000Y-121861252D02*
X156110000Y-121138748D01*
%TO.C,R6*%
X150890000Y-47188752D02*
X150890000Y-46466248D01*
X156110000Y-47188752D02*
X156110000Y-46466248D01*
%TO.C,R2*%
X151314000Y-84619752D02*
X151314000Y-83897248D01*
X156534000Y-84619752D02*
X156534000Y-83897248D01*
%TO.C,R1*%
X150950000Y-66361252D02*
X150950000Y-65638748D01*
X156170000Y-66361252D02*
X156170000Y-65638748D01*
%TD*%
M02*
