G04 #@! TF.GenerationSoftware,KiCad,Pcbnew,9.0.5*
G04 #@! TF.CreationDate,2026-02-26T13:41:24-06:00*
G04 #@! TF.ProjectId,Flex PCB,466c6578-2050-4434-922e-6b696361645f,rev?*
G04 #@! TF.SameCoordinates,Original*
G04 #@! TF.FileFunction,Copper,L2,Bot*
G04 #@! TF.FilePolarity,Positive*
%FSLAX46Y46*%
G04 Gerber Fmt 4.6, Leading zero omitted, Abs format (unit mm)*
G04 Created by KiCad (PCBNEW 9.0.5) date 2026-02-26 13:41:24*
%MOMM*%
%LPD*%
G01*
G04 APERTURE LIST*
G04 #@! TA.AperFunction,SMDPad,CuDef*
%ADD10R,2.500000X0.350000*%
G04 #@! TD*
G04 #@! TA.AperFunction,ComponentPad*
%ADD11R,1.700000X1.700000*%
G04 #@! TD*
G04 #@! TA.AperFunction,ComponentPad*
%ADD12C,1.700000*%
G04 #@! TD*
G04 #@! TA.AperFunction,ViaPad*
%ADD13C,0.600000*%
G04 #@! TD*
G04 #@! TA.AperFunction,Conductor*
%ADD14C,0.200000*%
G04 #@! TD*
G04 #@! TA.AperFunction,Conductor*
%ADD15C,0.150000*%
G04 #@! TD*
G04 APERTURE END LIST*
D10*
G04 #@! TO.P,J1,1,Pin_1*
G04 #@! TO.N,Net-(J1-Pin_1)*
X191975000Y-88500000D03*
G04 #@! TO.P,J1,2,Pin_2*
G04 #@! TO.N,Net-(J1-Pin_2)*
X191975000Y-88000000D03*
G04 #@! TO.P,J1,3,Pin_3*
G04 #@! TO.N,Net-(J1-Pin_3)*
X191975000Y-87500000D03*
G04 #@! TO.P,J1,4,Pin_4*
G04 #@! TO.N,Net-(J1-Pin_4)*
X191975000Y-87000000D03*
G04 #@! TO.P,J1,5,Pin_5*
G04 #@! TO.N,Net-(J1-Pin_5)*
X191975000Y-86500000D03*
G04 #@! TO.P,J1,6,Pin_6*
G04 #@! TO.N,Net-(J1-Pin_6)*
X191975000Y-86000000D03*
G04 #@! TO.P,J1,7,Pin_7*
G04 #@! TO.N,Net-(J1-Pin_7)*
X191975000Y-85500000D03*
G04 #@! TO.P,J1,8,Pin_8*
G04 #@! TO.N,Net-(J1-Pin_8)*
X191975000Y-85000000D03*
G04 #@! TO.P,J1,9,Pin_9*
G04 #@! TO.N,Net-(J1-Pin_9)*
X191975000Y-84500000D03*
G04 #@! TO.P,J1,10,Pin_10*
G04 #@! TO.N,Net-(J1-Pin_10)*
X191975000Y-84000000D03*
G04 #@! TO.P,J1,11,Pin_11*
G04 #@! TO.N,Net-(J1-Pin_11)*
X191975000Y-83500000D03*
G04 #@! TO.P,J1,12,Pin_12*
G04 #@! TO.N,Net-(J1-Pin_12)*
X191975000Y-83000000D03*
G04 #@! TO.P,J1,13,Pin_13*
G04 #@! TO.N,Net-(J1-Pin_13)*
X191975000Y-82500000D03*
G04 #@! TO.P,J1,14,Pin_14*
G04 #@! TO.N,Net-(J1-Pin_14)*
X191975000Y-82000000D03*
G04 #@! TO.P,J1,15,Pin_15*
G04 #@! TO.N,Net-(J1-Pin_15)*
X191975000Y-81500000D03*
G04 #@! TO.P,J1,16,Pin_16*
G04 #@! TO.N,Net-(J1-Pin_16)*
X191975000Y-81000000D03*
G04 #@! TO.P,J1,17,Pin_17*
G04 #@! TO.N,Net-(J1-Pin_17)*
X191975000Y-80500000D03*
G04 #@! TO.P,J1,18,Pin_18*
G04 #@! TO.N,/3V3*
X191975000Y-80000000D03*
G04 #@! TD*
D11*
G04 #@! TO.P,J2,1,Pin_1*
G04 #@! TO.N,Net-(J1-Pin_1)*
X142900000Y-107046000D03*
D12*
G04 #@! TO.P,J2,2,Pin_2*
G04 #@! TO.N,Net-(J1-Pin_2)*
X142900000Y-104506000D03*
G04 #@! TO.P,J2,3,Pin_3*
G04 #@! TO.N,Net-(J1-Pin_3)*
X142900000Y-101966000D03*
G04 #@! TO.P,J2,4,Pin_4*
G04 #@! TO.N,Net-(J1-Pin_4)*
X142900000Y-99426000D03*
G04 #@! TO.P,J2,5,Pin_5*
G04 #@! TO.N,Net-(J1-Pin_5)*
X142900000Y-96886000D03*
G04 #@! TO.P,J2,6,Pin_6*
G04 #@! TO.N,Net-(J1-Pin_6)*
X142900000Y-94346000D03*
G04 #@! TO.P,J2,7,Pin_7*
G04 #@! TO.N,Net-(J1-Pin_7)*
X142900000Y-91806000D03*
G04 #@! TO.P,J2,8,Pin_8*
G04 #@! TO.N,Net-(J1-Pin_8)*
X142900000Y-89266000D03*
G04 #@! TO.P,J2,9,Pin_9*
G04 #@! TO.N,Net-(J1-Pin_9)*
X142900000Y-86726000D03*
G04 #@! TO.P,J2,10,Pin_10*
G04 #@! TO.N,Net-(J1-Pin_10)*
X142900000Y-84186000D03*
G04 #@! TO.P,J2,11,Pin_11*
G04 #@! TO.N,Net-(J1-Pin_11)*
X142900000Y-81646000D03*
G04 #@! TO.P,J2,12,Pin_12*
G04 #@! TO.N,Net-(J1-Pin_12)*
X142900000Y-79106000D03*
G04 #@! TO.P,J2,13,Pin_13*
G04 #@! TO.N,Net-(J1-Pin_13)*
X142900000Y-76566000D03*
G04 #@! TO.P,J2,14,Pin_14*
G04 #@! TO.N,Net-(J1-Pin_14)*
X142900000Y-74026000D03*
G04 #@! TO.P,J2,15,Pin_15*
G04 #@! TO.N,Net-(J1-Pin_15)*
X142900000Y-71486000D03*
G04 #@! TO.P,J2,16,Pin_16*
G04 #@! TO.N,Net-(J1-Pin_16)*
X142900000Y-68946000D03*
G04 #@! TO.P,J2,17,Pin_17*
G04 #@! TO.N,Net-(J1-Pin_17)*
X142900000Y-66406000D03*
G04 #@! TO.P,J2,18,Pin_18*
G04 #@! TO.N,/3V3*
X142900000Y-63866000D03*
G04 #@! TD*
D13*
G04 #@! TO.N,Net-(J1-Pin_2)*
X153797000Y-102489000D03*
G04 #@! TO.N,Net-(J1-Pin_10)*
X153924000Y-82931000D03*
G04 #@! TO.N,/3V3*
X153924000Y-85471000D03*
X153797000Y-66490500D03*
X153797000Y-105029000D03*
G04 #@! TO.N,Net-(J1-Pin_17)*
X153797000Y-64065500D03*
G04 #@! TD*
D14*
G04 #@! TO.N,Net-(J1-Pin_11)*
X192000000Y-83500000D02*
X157365100Y-83500000D01*
X155511100Y-81646000D02*
X142900000Y-81646000D01*
X157365100Y-83500000D02*
X155511100Y-81646000D01*
G04 #@! TO.N,Net-(J1-Pin_2)*
X158511000Y-102489000D02*
X158950000Y-102050000D01*
X144917000Y-102489000D02*
X153797000Y-102489000D01*
X158950000Y-102050000D02*
X158950000Y-88550000D01*
X142900000Y-104506000D02*
X144917000Y-102489000D01*
X158950000Y-88550000D02*
X159500000Y-88000000D01*
X153797000Y-102489000D02*
X158511000Y-102489000D01*
X159500000Y-88000000D02*
X192000000Y-88000000D01*
G04 #@! TO.N,Net-(J1-Pin_9)*
X142900000Y-86726000D02*
X156804300Y-86726000D01*
X159030300Y-84500000D02*
X192000000Y-84500000D01*
X156804300Y-86726000D02*
X159030300Y-84500000D01*
G04 #@! TO.N,Net-(J1-Pin_3)*
X158550000Y-101150000D02*
X158550000Y-88382900D01*
X143716000Y-101150000D02*
X158550000Y-101150000D01*
X158550000Y-88382900D02*
X159382900Y-87550000D01*
X159450000Y-87550000D02*
X159500000Y-87500000D01*
X159382900Y-87550000D02*
X159450000Y-87550000D01*
X142900000Y-101966000D02*
X143716000Y-101150000D01*
X159500000Y-87500000D02*
X192000000Y-87500000D01*
G04 #@! TO.N,Net-(J1-Pin_10)*
X153924000Y-82931000D02*
X156031000Y-82931000D01*
X156031000Y-82931000D02*
X157100000Y-84000000D01*
X142900000Y-84186000D02*
X144155000Y-82931000D01*
X157100000Y-84000000D02*
X192000000Y-84000000D01*
X144155000Y-82931000D02*
X153924000Y-82931000D01*
G04 #@! TO.N,Net-(J1-Pin_16)*
X157700600Y-81000000D02*
X145646600Y-68946000D01*
X192000000Y-81000000D02*
X157700600Y-81000000D01*
X145646600Y-68946000D02*
X142900000Y-68946000D01*
G04 #@! TO.N,Net-(J1-Pin_4)*
X158149000Y-99000000D02*
X158149000Y-88216800D01*
X142900000Y-99426000D02*
X157723000Y-99426000D01*
X158149000Y-88216800D02*
X159365800Y-87000000D01*
X159365800Y-87000000D02*
X192000000Y-87000000D01*
X157723000Y-99426000D02*
X158149000Y-99000000D01*
G04 #@! TO.N,Net-(J1-Pin_5)*
X157748000Y-88050700D02*
X159298700Y-86500000D01*
X159298700Y-86500000D02*
X192000000Y-86500000D01*
X142900000Y-96886000D02*
X157562000Y-96886000D01*
X157562000Y-96886000D02*
X157748000Y-96700000D01*
X157748000Y-96700000D02*
X157748000Y-88050700D01*
G04 #@! TO.N,/3V3*
X157834800Y-80000000D02*
X154742400Y-76907600D01*
X140589000Y-85471000D02*
X153924000Y-85471000D01*
X140589000Y-68453000D02*
X140589000Y-85471000D01*
X138650000Y-59550000D02*
X150131443Y-59550000D01*
X154398000Y-65889500D02*
X153797000Y-66490500D01*
X154742400Y-67435900D02*
X153797000Y-66490500D01*
X140589000Y-85471000D02*
X140589000Y-105664000D01*
X138650000Y-66514000D02*
X138650000Y-59550000D01*
X142900000Y-63866000D02*
X145524500Y-66490500D01*
X145034000Y-105029000D02*
X153797000Y-105029000D01*
X154742400Y-76907600D02*
X154742400Y-67435900D01*
X145524500Y-66490500D02*
X153797000Y-66490500D01*
X150131443Y-59550000D02*
X154398000Y-63816557D01*
X144272000Y-105791000D02*
X145034000Y-105029000D01*
X140589000Y-105664000D02*
X140462000Y-105791000D01*
X140462000Y-105791000D02*
X144272000Y-105791000D01*
X154398000Y-63816557D02*
X154398000Y-65889500D01*
X140589000Y-68453000D02*
X138650000Y-66514000D01*
X192000000Y-80000000D02*
X157834800Y-80000000D01*
G04 #@! TO.N,Net-(J1-Pin_15)*
X192000000Y-81500000D02*
X157633500Y-81500000D01*
X157633500Y-81500000D02*
X147619500Y-71486000D01*
X147619500Y-71486000D02*
X142900000Y-71486000D01*
D15*
G04 #@! TO.N,Net-(J1-Pin_1)*
X159761413Y-88424000D02*
X159837413Y-88500000D01*
X159837413Y-88500000D02*
X192000000Y-88500000D01*
X159424000Y-88761413D02*
X159761413Y-88424000D01*
X158578000Y-107046000D02*
X159424000Y-106200000D01*
X159424000Y-106200000D02*
X159424000Y-88761413D01*
X142900000Y-107046000D02*
X158578000Y-107046000D01*
D14*
G04 #@! TO.N,Net-(J1-Pin_17)*
X192000000Y-80500000D02*
X157767700Y-80500000D01*
X139939000Y-66406000D02*
X139573000Y-66040000D01*
X143673700Y-66406000D02*
X142900000Y-66406000D01*
X139700000Y-65913000D02*
X139700000Y-60452000D01*
X150183500Y-60452000D02*
X153797000Y-64065500D01*
X139573000Y-66040000D02*
X139700000Y-65913000D01*
X142900000Y-66406000D02*
X139939000Y-66406000D01*
X157767700Y-80500000D02*
X143673700Y-66406000D01*
X139700000Y-60452000D02*
X150183500Y-60452000D01*
G04 #@! TO.N,Net-(J1-Pin_14)*
X192000000Y-82000000D02*
X157566400Y-82000000D01*
X149592400Y-74026000D02*
X142900000Y-74026000D01*
X157566400Y-82000000D02*
X149592400Y-74026000D01*
G04 #@! TO.N,Net-(J1-Pin_12)*
X192000000Y-83000000D02*
X157432200Y-83000000D01*
X153538200Y-79106000D02*
X142900000Y-79106000D01*
X157432200Y-83000000D02*
X153538200Y-79106000D01*
G04 #@! TO.N,Net-(J1-Pin_8)*
X156449000Y-89200000D02*
X156449000Y-87648400D01*
X159097400Y-85000000D02*
X192000000Y-85000000D01*
X156383000Y-89266000D02*
X156449000Y-89200000D01*
X142900000Y-89266000D02*
X156383000Y-89266000D01*
X156449000Y-87648400D02*
X159097400Y-85000000D01*
G04 #@! TO.N,Net-(J1-Pin_7)*
X142900000Y-91806000D02*
X156794000Y-91806000D01*
X156850000Y-87814500D02*
X159164500Y-85500000D01*
X156850000Y-91750000D02*
X156850000Y-87814500D01*
X156794000Y-91806000D02*
X156850000Y-91750000D01*
X159164500Y-85500000D02*
X192000000Y-85500000D01*
G04 #@! TO.N,Net-(J1-Pin_13)*
X151565300Y-76566000D02*
X142900000Y-76566000D01*
X192000000Y-82500000D02*
X157499300Y-82500000D01*
X157499300Y-82500000D02*
X151565300Y-76566000D01*
G04 #@! TO.N,Net-(J1-Pin_6)*
X159231600Y-86000000D02*
X192000000Y-86000000D01*
X142900000Y-94346000D02*
X157001000Y-94346000D01*
X157347000Y-94000000D02*
X157347000Y-87884600D01*
X157347000Y-87884600D02*
X159231600Y-86000000D01*
X157001000Y-94346000D02*
X157347000Y-94000000D01*
G04 #@! TD*
M02*
