M48
; DRILL file {KiCad 9.0.7} date 2026-03-26T15:36:23-0500
; FORMAT={-:-/ absolute / metric / decimal}
; #@! TF.CreationDate,2026-03-26T15:36:23-05:00
; #@! TF.GenerationSoftware,Kicad,Pcbnew,9.0.7
; #@! TF.FileFunction,Plated,1,2,PTH
FMAT,2
METRIC
; #@! TA.AperFunction,Plated,PTH,ViaDrill
T1C0.400
; #@! TA.AperFunction,Plated,PTH,ComponentDrill
T2C1.000
%
G90
G05
T1
X170.27Y-79.617
X182.046Y-122.253
X182.47Y-130.672
X182.47Y-133.213
X182.5Y-70.672
X182.82Y-112.172
X182.894Y-100.908
X182.894Y-103.448
X182.954Y-79.253
X183.0Y-89.172
T2
X171.87Y-81.843
X171.87Y-84.383
X171.87Y-86.923
X171.87Y-89.463
X171.87Y-92.003
X171.87Y-94.543
X171.87Y-97.083
X171.87Y-99.623
X171.87Y-102.163
X171.87Y-104.703
X171.87Y-107.243
X171.87Y-109.783
X171.87Y-112.323
X171.87Y-114.863
X171.87Y-117.403
X171.87Y-119.943
X171.87Y-122.483
X171.87Y-125.023
M30
