%TF.GenerationSoftware,KiCad,Pcbnew,9.0.7*%
%TF.CreationDate,2026-03-26T15:36:03-05:00*%
%TF.ProjectId,Flex PCB,466c6578-2050-4434-922e-6b696361645f,rev?*%
%TF.SameCoordinates,Original*%
%TF.FileFunction,Other,Comment*%
%FSLAX46Y46*%
G04 Gerber Fmt 4.6, Leading zero omitted, Abs format (unit mm)*
G04 Created by KiCad (PCBNEW 9.0.7) date 2026-03-26 15:36:03*
%MOMM*%
%LPD*%
G01*
G04 APERTURE LIST*
%ADD10C,0.150000*%
%ADD11C,0.100000*%
G04 APERTURE END LIST*
D10*
X238719160Y-114799200D02*
X238862017Y-114846819D01*
X238862017Y-114846819D02*
X239100112Y-114846819D01*
X239100112Y-114846819D02*
X239195350Y-114799200D01*
X239195350Y-114799200D02*
X239242969Y-114751580D01*
X239242969Y-114751580D02*
X239290588Y-114656342D01*
X239290588Y-114656342D02*
X239290588Y-114561104D01*
X239290588Y-114561104D02*
X239242969Y-114465866D01*
X239242969Y-114465866D02*
X239195350Y-114418247D01*
X239195350Y-114418247D02*
X239100112Y-114370628D01*
X239100112Y-114370628D02*
X238909636Y-114323009D01*
X238909636Y-114323009D02*
X238814398Y-114275390D01*
X238814398Y-114275390D02*
X238766779Y-114227771D01*
X238766779Y-114227771D02*
X238719160Y-114132533D01*
X238719160Y-114132533D02*
X238719160Y-114037295D01*
X238719160Y-114037295D02*
X238766779Y-113942057D01*
X238766779Y-113942057D02*
X238814398Y-113894438D01*
X238814398Y-113894438D02*
X238909636Y-113846819D01*
X238909636Y-113846819D02*
X239147731Y-113846819D01*
X239147731Y-113846819D02*
X239290588Y-113894438D01*
X239576303Y-114180152D02*
X239957255Y-114180152D01*
X239719160Y-113846819D02*
X239719160Y-114703961D01*
X239719160Y-114703961D02*
X239766779Y-114799200D01*
X239766779Y-114799200D02*
X239862017Y-114846819D01*
X239862017Y-114846819D02*
X239957255Y-114846819D01*
X240290589Y-114846819D02*
X240290589Y-114180152D01*
X240290589Y-113846819D02*
X240242970Y-113894438D01*
X240242970Y-113894438D02*
X240290589Y-113942057D01*
X240290589Y-113942057D02*
X240338208Y-113894438D01*
X240338208Y-113894438D02*
X240290589Y-113846819D01*
X240290589Y-113846819D02*
X240290589Y-113942057D01*
X240623922Y-114180152D02*
X241004874Y-114180152D01*
X240766779Y-114846819D02*
X240766779Y-113989676D01*
X240766779Y-113989676D02*
X240814398Y-113894438D01*
X240814398Y-113894438D02*
X240909636Y-113846819D01*
X240909636Y-113846819D02*
X241004874Y-113846819D01*
X241195351Y-114180152D02*
X241576303Y-114180152D01*
X241338208Y-114846819D02*
X241338208Y-113989676D01*
X241338208Y-113989676D02*
X241385827Y-113894438D01*
X241385827Y-113894438D02*
X241481065Y-113846819D01*
X241481065Y-113846819D02*
X241576303Y-113846819D01*
X242290589Y-114799200D02*
X242195351Y-114846819D01*
X242195351Y-114846819D02*
X242004875Y-114846819D01*
X242004875Y-114846819D02*
X241909637Y-114799200D01*
X241909637Y-114799200D02*
X241862018Y-114703961D01*
X241862018Y-114703961D02*
X241862018Y-114323009D01*
X241862018Y-114323009D02*
X241909637Y-114227771D01*
X241909637Y-114227771D02*
X242004875Y-114180152D01*
X242004875Y-114180152D02*
X242195351Y-114180152D01*
X242195351Y-114180152D02*
X242290589Y-114227771D01*
X242290589Y-114227771D02*
X242338208Y-114323009D01*
X242338208Y-114323009D02*
X242338208Y-114418247D01*
X242338208Y-114418247D02*
X241862018Y-114513485D01*
X242766780Y-114180152D02*
X242766780Y-114846819D01*
X242766780Y-114275390D02*
X242814399Y-114227771D01*
X242814399Y-114227771D02*
X242909637Y-114180152D01*
X242909637Y-114180152D02*
X243052494Y-114180152D01*
X243052494Y-114180152D02*
X243147732Y-114227771D01*
X243147732Y-114227771D02*
X243195351Y-114323009D01*
X243195351Y-114323009D02*
X243195351Y-114846819D01*
X244052494Y-114799200D02*
X243957256Y-114846819D01*
X243957256Y-114846819D02*
X243766780Y-114846819D01*
X243766780Y-114846819D02*
X243671542Y-114799200D01*
X243671542Y-114799200D02*
X243623923Y-114703961D01*
X243623923Y-114703961D02*
X243623923Y-114323009D01*
X243623923Y-114323009D02*
X243671542Y-114227771D01*
X243671542Y-114227771D02*
X243766780Y-114180152D01*
X243766780Y-114180152D02*
X243957256Y-114180152D01*
X243957256Y-114180152D02*
X244052494Y-114227771D01*
X244052494Y-114227771D02*
X244100113Y-114323009D01*
X244100113Y-114323009D02*
X244100113Y-114418247D01*
X244100113Y-114418247D02*
X243623923Y-114513485D01*
X244528685Y-114846819D02*
X244528685Y-114180152D01*
X244528685Y-114370628D02*
X244576304Y-114275390D01*
X244576304Y-114275390D02*
X244623923Y-114227771D01*
X244623923Y-114227771D02*
X244719161Y-114180152D01*
X244719161Y-114180152D02*
X244814399Y-114180152D01*
X245766781Y-113846819D02*
X246338209Y-113846819D01*
X246052495Y-114846819D02*
X246052495Y-113846819D01*
X246862019Y-113846819D02*
X247052495Y-113846819D01*
X247052495Y-113846819D02*
X247147733Y-113894438D01*
X247147733Y-113894438D02*
X247242971Y-113989676D01*
X247242971Y-113989676D02*
X247290590Y-114180152D01*
X247290590Y-114180152D02*
X247290590Y-114513485D01*
X247290590Y-114513485D02*
X247242971Y-114703961D01*
X247242971Y-114703961D02*
X247147733Y-114799200D01*
X247147733Y-114799200D02*
X247052495Y-114846819D01*
X247052495Y-114846819D02*
X246862019Y-114846819D01*
X246862019Y-114846819D02*
X246766781Y-114799200D01*
X246766781Y-114799200D02*
X246671543Y-114703961D01*
X246671543Y-114703961D02*
X246623924Y-114513485D01*
X246623924Y-114513485D02*
X246623924Y-114180152D01*
X246623924Y-114180152D02*
X246671543Y-113989676D01*
X246671543Y-113989676D02*
X246766781Y-113894438D01*
X246766781Y-113894438D02*
X246862019Y-113846819D01*
X247719162Y-114846819D02*
X247719162Y-113846819D01*
X247719162Y-113846819D02*
X248100114Y-113846819D01*
X248100114Y-113846819D02*
X248195352Y-113894438D01*
X248195352Y-113894438D02*
X248242971Y-113942057D01*
X248242971Y-113942057D02*
X248290590Y-114037295D01*
X248290590Y-114037295D02*
X248290590Y-114180152D01*
X248290590Y-114180152D02*
X248242971Y-114275390D01*
X248242971Y-114275390D02*
X248195352Y-114323009D01*
X248195352Y-114323009D02*
X248100114Y-114370628D01*
X248100114Y-114370628D02*
X247719162Y-114370628D01*
X241922381Y-111281819D02*
X242541428Y-111281819D01*
X242541428Y-111281819D02*
X242208095Y-111662771D01*
X242208095Y-111662771D02*
X242350952Y-111662771D01*
X242350952Y-111662771D02*
X242446190Y-111710390D01*
X242446190Y-111710390D02*
X242493809Y-111758009D01*
X242493809Y-111758009D02*
X242541428Y-111853247D01*
X242541428Y-111853247D02*
X242541428Y-112091342D01*
X242541428Y-112091342D02*
X242493809Y-112186580D01*
X242493809Y-112186580D02*
X242446190Y-112234200D01*
X242446190Y-112234200D02*
X242350952Y-112281819D01*
X242350952Y-112281819D02*
X242065238Y-112281819D01*
X242065238Y-112281819D02*
X241970000Y-112234200D01*
X241970000Y-112234200D02*
X241922381Y-112186580D01*
X242970000Y-112186580D02*
X243017619Y-112234200D01*
X243017619Y-112234200D02*
X242970000Y-112281819D01*
X242970000Y-112281819D02*
X242922381Y-112234200D01*
X242922381Y-112234200D02*
X242970000Y-112186580D01*
X242970000Y-112186580D02*
X242970000Y-112281819D01*
X243922380Y-111281819D02*
X243446190Y-111281819D01*
X243446190Y-111281819D02*
X243398571Y-111758009D01*
X243398571Y-111758009D02*
X243446190Y-111710390D01*
X243446190Y-111710390D02*
X243541428Y-111662771D01*
X243541428Y-111662771D02*
X243779523Y-111662771D01*
X243779523Y-111662771D02*
X243874761Y-111710390D01*
X243874761Y-111710390D02*
X243922380Y-111758009D01*
X243922380Y-111758009D02*
X243969999Y-111853247D01*
X243969999Y-111853247D02*
X243969999Y-112091342D01*
X243969999Y-112091342D02*
X243922380Y-112186580D01*
X243922380Y-112186580D02*
X243874761Y-112234200D01*
X243874761Y-112234200D02*
X243779523Y-112281819D01*
X243779523Y-112281819D02*
X243541428Y-112281819D01*
X243541428Y-112281819D02*
X243446190Y-112234200D01*
X243446190Y-112234200D02*
X243398571Y-112186580D01*
D11*
X241220000Y-106977000D02*
X241220000Y-113563420D01*
X244720000Y-113563420D02*
X244720000Y-106477000D01*
X241220000Y-112977000D02*
X244720000Y-112977000D01*
X241220000Y-112977000D02*
X242346504Y-112390579D01*
X241220000Y-112977000D02*
X242346504Y-113563421D01*
X244720000Y-112977000D02*
X243593496Y-113563421D01*
X244720000Y-112977000D02*
X243593496Y-112390579D01*
M02*
