%TF.GenerationSoftware,KiCad,Pcbnew,9.0.7*%
%TF.CreationDate,2026-03-26T15:36:03-05:00*%
%TF.ProjectId,Flex PCB,466c6578-2050-4434-922e-6b696361645f,rev?*%
%TF.SameCoordinates,Original*%
%TF.FileFunction,Copper,L1,Top*%
%TF.FilePolarity,Positive*%
%FSLAX46Y46*%
G04 Gerber Fmt 4.6, Leading zero omitted, Abs format (unit mm)*
G04 Created by KiCad (PCBNEW 9.0.7) date 2026-03-26 15:36:03*
%MOMM*%
%LPD*%
G01*
G04 APERTURE LIST*
G04 Aperture macros list*
%AMRoundRect*
0 Rectangle with rounded corners*
0 $1 Rounding radius*
0 $2 $3 $4 $5 $6 $7 $8 $9 X,Y pos of 4 corners*
0 Add a 4 corners polygon primitive as box body*
4,1,4,$2,$3,$4,$5,$6,$7,$8,$9,$2,$3,0*
0 Add four circle primitives for the rounded corners*
1,1,$1+$1,$2,$3*
1,1,$1+$1,$4,$5*
1,1,$1+$1,$6,$7*
1,1,$1+$1,$8,$9*
0 Add four rect primitives between the rounded corners*
20,1,$1+$1,$2,$3,$4,$5,0*
20,1,$1+$1,$4,$5,$6,$7,0*
20,1,$1+$1,$6,$7,$8,$9,0*
20,1,$1+$1,$8,$9,$2,$3,0*%
G04 Aperture macros list end*
%TA.AperFunction,SMDPad,CuDef*%
%ADD10RoundRect,0.250000X2.067194X-1.191371X2.349361X-0.416124X-2.067194X1.191371X-2.349361X0.416124X0*%
%TD*%
%TA.AperFunction,SMDPad,CuDef*%
%ADD11RoundRect,0.250000X2.350000X-0.412500X2.350000X0.412500X-2.350000X0.412500X-2.350000X-0.412500X0*%
%TD*%
%TA.AperFunction,SMDPad,CuDef*%
%ADD12RoundRect,0.250000X2.349361X0.416124X2.067194X1.191371X-2.349361X-0.416124X-2.067194X-1.191371X0*%
%TD*%
%TA.AperFunction,ComponentPad*%
%ADD13R,1.700000X1.700000*%
%TD*%
%TA.AperFunction,ComponentPad*%
%ADD14C,1.700000*%
%TD*%
%TA.AperFunction,ViaPad*%
%ADD15C,0.600000*%
%TD*%
%TA.AperFunction,Conductor*%
%ADD16C,0.200000*%
%TD*%
G04 APERTURE END LIST*
D10*
%TO.P,R5,1*%
%TO.N,/3V3*%
X182085301Y-81639377D03*
%TO.P,R5,2*%
%TO.N,Net-(J1-Pin_16)*%
X182954031Y-79252559D03*
%TD*%
D11*
%TO.P,R3,1*%
%TO.N,/3V3*%
X182820000Y-114712500D03*
%TO.P,R3,2*%
%TO.N,Net-(J1-Pin_4)*%
X182820000Y-112172500D03*
%TD*%
%TO.P,R7,1*%
%TO.N,/3V3*%
X182470000Y-133212500D03*
%TO.P,R7,2*%
%TO.N,Net-(J1-Pin_2)*%
X182470000Y-130672500D03*
%TD*%
%TO.P,R6,1*%
%TO.N,/3V3*%
X182500000Y-73212500D03*
%TO.P,R6,2*%
%TO.N,Net-(J1-Pin_17)*%
X182500000Y-70672500D03*
%TD*%
D12*
%TO.P,R4,1*%
%TO.N,/3V3*%
X182914699Y-124639377D03*
%TO.P,R4,2*%
%TO.N,Net-(J1-Pin_3)*%
X182045969Y-122252558D03*
%TD*%
D11*
%TO.P,R2,1*%
%TO.N,/3V3*%
X182894000Y-103448000D03*
%TO.P,R2,2*%
%TO.N,Net-(J1-Pin_10)*%
X182894000Y-100908000D03*
%TD*%
%TO.P,R1,1*%
%TO.N,/3V3*%
X183000000Y-91712500D03*
%TO.P,R1,2*%
%TO.N,Net-(J1-Pin_15)*%
X183000000Y-89172500D03*
%TD*%
D13*
%TO.P,J2,1,Pin_1*%
%TO.N,/3V3*%
X171870000Y-125023000D03*
D14*
%TO.P,J2,2,Pin_2*%
%TO.N,Net-(J1-Pin_2)*%
X171870000Y-122483000D03*
%TO.P,J2,3,Pin_3*%
%TO.N,Net-(J1-Pin_3)*%
X171870000Y-119943000D03*
%TO.P,J2,4,Pin_4*%
%TO.N,Net-(J1-Pin_4)*%
X171870000Y-117403000D03*
%TO.P,J2,5,Pin_5*%
%TO.N,Net-(J1-Pin_5)*%
X171870000Y-114863000D03*
%TO.P,J2,6,Pin_6*%
%TO.N,Net-(J1-Pin_6)*%
X171870000Y-112323000D03*
%TO.P,J2,7,Pin_7*%
%TO.N,Net-(J1-Pin_7)*%
X171870000Y-109783000D03*
%TO.P,J2,8,Pin_8*%
%TO.N,Net-(J1-Pin_8)*%
X171870000Y-107243000D03*
%TO.P,J2,9,Pin_9*%
%TO.N,Net-(J1-Pin_9)*%
X171870000Y-104703000D03*
%TO.P,J2,10,Pin_10*%
%TO.N,Net-(J1-Pin_10)*%
X171870000Y-102163000D03*
%TO.P,J2,11,Pin_11*%
%TO.N,Net-(J1-Pin_11)*%
X171870000Y-99623000D03*
%TO.P,J2,12,Pin_12*%
%TO.N,Net-(J1-Pin_12)*%
X171870000Y-97083000D03*
%TO.P,J2,13,Pin_13*%
%TO.N,Net-(J1-Pin_13)*%
X171870000Y-94543000D03*
%TO.P,J2,14,Pin_14*%
%TO.N,Net-(J1-Pin_14)*%
X171870000Y-92003000D03*
%TO.P,J2,15,Pin_15*%
%TO.N,Net-(J1-Pin_15)*%
X171870000Y-89463000D03*
%TO.P,J2,16,Pin_16*%
%TO.N,Net-(J1-Pin_16)*%
X171870000Y-86923000D03*
%TO.P,J2,17,Pin_17*%
%TO.N,Net-(J1-Pin_17)*%
X171870000Y-84383000D03*
%TO.P,J2,18,Pin_18*%
%TO.N,/GND*%
X171870000Y-81843000D03*
%TD*%
D15*
%TO.N,Net-(J1-Pin_2)*%
X182470000Y-130672500D03*
%TO.N,Net-(J1-Pin_3)*%
X182045969Y-122252558D03*
%TO.N,Net-(J1-Pin_10)*%
X182894000Y-100908000D03*
%TO.N,Net-(J1-Pin_16)*%
X182954031Y-79252559D03*
%TO.N,Net-(J1-Pin_4)*%
X182820000Y-112172500D03*
%TO.N,/3V3*%
X182894000Y-103448000D03*
X170270000Y-79617000D03*
X182470000Y-133212500D03*
%TO.N,Net-(J1-Pin_15)*%
X183000000Y-89172500D03*
%TO.N,Net-(J1-Pin_17)*%
X182500000Y-70672500D03*
%TD*%
D16*
%TO.N,/3V3*%
X183695448Y-133500000D02*
X185000000Y-133500000D01*
X180400000Y-91712500D02*
X183000000Y-91712500D01*
X179139377Y-81639377D02*
X182085301Y-81639377D01*
X176970000Y-79470000D02*
X179139377Y-81639377D01*
X186000000Y-129682500D02*
X186970000Y-128712500D01*
X184970000Y-119690000D02*
X182820000Y-117540000D01*
X174395500Y-79896500D02*
X174395500Y-85708000D01*
X186000000Y-132500000D02*
X186000000Y-129682500D01*
X178969500Y-76743000D02*
X182500000Y-73212500D01*
X174106000Y-79607000D02*
X176970000Y-76743000D01*
X174106000Y-79607000D02*
X174395500Y-79896500D01*
X184970000Y-125584076D02*
X184970000Y-119690000D01*
X170270000Y-79617000D02*
X170280000Y-79607000D01*
X185084076Y-125584076D02*
X184970000Y-125584076D01*
X174395500Y-85708000D02*
X180400000Y-91712500D01*
X183407948Y-133212500D02*
X183695448Y-133500000D01*
X186970000Y-128712500D02*
X186970000Y-127470000D01*
X182820000Y-117540000D02*
X182820000Y-114712500D01*
X170280000Y-79607000D02*
X174106000Y-79607000D01*
X186970000Y-127470000D02*
X185084076Y-125584076D01*
X182470000Y-133212500D02*
X183407948Y-133212500D01*
X176970000Y-76743000D02*
X178969500Y-76743000D01*
X185000000Y-133500000D02*
X186000000Y-132500000D01*
X176970000Y-76743000D02*
X176970000Y-79470000D01*
%TO.N,Net-(J1-Pin_15)*%
X180712500Y-89212500D02*
X183000000Y-89212500D01*
%TD*%
M02*
