G04 #@! TF.GenerationSoftware,KiCad,Pcbnew,9.0.5*
G04 #@! TF.CreationDate,2026-02-26T13:41:24-06:00*
G04 #@! TF.ProjectId,Flex PCB,466c6578-2050-4434-922e-6b696361645f,rev?*
G04 #@! TF.SameCoordinates,Original*
G04 #@! TF.FileFunction,Other,Comment*
%FSLAX46Y46*%
G04 Gerber Fmt 4.6, Leading zero omitted, Abs format (unit mm)*
G04 Created by KiCad (PCBNEW 9.0.5) date 2026-02-26 13:41:24*
%MOMM*%
%LPD*%
G01*
G04 APERTURE LIST*
%ADD10C,0.150000*%
%ADD11C,0.100000*%
G04 APERTURE END LIST*
D10*
X187289160Y-97322200D02*
X187432017Y-97369819D01*
X187432017Y-97369819D02*
X187670112Y-97369819D01*
X187670112Y-97369819D02*
X187765350Y-97322200D01*
X187765350Y-97322200D02*
X187812969Y-97274580D01*
X187812969Y-97274580D02*
X187860588Y-97179342D01*
X187860588Y-97179342D02*
X187860588Y-97084104D01*
X187860588Y-97084104D02*
X187812969Y-96988866D01*
X187812969Y-96988866D02*
X187765350Y-96941247D01*
X187765350Y-96941247D02*
X187670112Y-96893628D01*
X187670112Y-96893628D02*
X187479636Y-96846009D01*
X187479636Y-96846009D02*
X187384398Y-96798390D01*
X187384398Y-96798390D02*
X187336779Y-96750771D01*
X187336779Y-96750771D02*
X187289160Y-96655533D01*
X187289160Y-96655533D02*
X187289160Y-96560295D01*
X187289160Y-96560295D02*
X187336779Y-96465057D01*
X187336779Y-96465057D02*
X187384398Y-96417438D01*
X187384398Y-96417438D02*
X187479636Y-96369819D01*
X187479636Y-96369819D02*
X187717731Y-96369819D01*
X187717731Y-96369819D02*
X187860588Y-96417438D01*
X188146303Y-96703152D02*
X188527255Y-96703152D01*
X188289160Y-96369819D02*
X188289160Y-97226961D01*
X188289160Y-97226961D02*
X188336779Y-97322200D01*
X188336779Y-97322200D02*
X188432017Y-97369819D01*
X188432017Y-97369819D02*
X188527255Y-97369819D01*
X188860589Y-97369819D02*
X188860589Y-96703152D01*
X188860589Y-96369819D02*
X188812970Y-96417438D01*
X188812970Y-96417438D02*
X188860589Y-96465057D01*
X188860589Y-96465057D02*
X188908208Y-96417438D01*
X188908208Y-96417438D02*
X188860589Y-96369819D01*
X188860589Y-96369819D02*
X188860589Y-96465057D01*
X189193922Y-96703152D02*
X189574874Y-96703152D01*
X189336779Y-97369819D02*
X189336779Y-96512676D01*
X189336779Y-96512676D02*
X189384398Y-96417438D01*
X189384398Y-96417438D02*
X189479636Y-96369819D01*
X189479636Y-96369819D02*
X189574874Y-96369819D01*
X189765351Y-96703152D02*
X190146303Y-96703152D01*
X189908208Y-97369819D02*
X189908208Y-96512676D01*
X189908208Y-96512676D02*
X189955827Y-96417438D01*
X189955827Y-96417438D02*
X190051065Y-96369819D01*
X190051065Y-96369819D02*
X190146303Y-96369819D01*
X190860589Y-97322200D02*
X190765351Y-97369819D01*
X190765351Y-97369819D02*
X190574875Y-97369819D01*
X190574875Y-97369819D02*
X190479637Y-97322200D01*
X190479637Y-97322200D02*
X190432018Y-97226961D01*
X190432018Y-97226961D02*
X190432018Y-96846009D01*
X190432018Y-96846009D02*
X190479637Y-96750771D01*
X190479637Y-96750771D02*
X190574875Y-96703152D01*
X190574875Y-96703152D02*
X190765351Y-96703152D01*
X190765351Y-96703152D02*
X190860589Y-96750771D01*
X190860589Y-96750771D02*
X190908208Y-96846009D01*
X190908208Y-96846009D02*
X190908208Y-96941247D01*
X190908208Y-96941247D02*
X190432018Y-97036485D01*
X191336780Y-96703152D02*
X191336780Y-97369819D01*
X191336780Y-96798390D02*
X191384399Y-96750771D01*
X191384399Y-96750771D02*
X191479637Y-96703152D01*
X191479637Y-96703152D02*
X191622494Y-96703152D01*
X191622494Y-96703152D02*
X191717732Y-96750771D01*
X191717732Y-96750771D02*
X191765351Y-96846009D01*
X191765351Y-96846009D02*
X191765351Y-97369819D01*
X192622494Y-97322200D02*
X192527256Y-97369819D01*
X192527256Y-97369819D02*
X192336780Y-97369819D01*
X192336780Y-97369819D02*
X192241542Y-97322200D01*
X192241542Y-97322200D02*
X192193923Y-97226961D01*
X192193923Y-97226961D02*
X192193923Y-96846009D01*
X192193923Y-96846009D02*
X192241542Y-96750771D01*
X192241542Y-96750771D02*
X192336780Y-96703152D01*
X192336780Y-96703152D02*
X192527256Y-96703152D01*
X192527256Y-96703152D02*
X192622494Y-96750771D01*
X192622494Y-96750771D02*
X192670113Y-96846009D01*
X192670113Y-96846009D02*
X192670113Y-96941247D01*
X192670113Y-96941247D02*
X192193923Y-97036485D01*
X193098685Y-97369819D02*
X193098685Y-96703152D01*
X193098685Y-96893628D02*
X193146304Y-96798390D01*
X193146304Y-96798390D02*
X193193923Y-96750771D01*
X193193923Y-96750771D02*
X193289161Y-96703152D01*
X193289161Y-96703152D02*
X193384399Y-96703152D01*
X194336781Y-96369819D02*
X194908209Y-96369819D01*
X194622495Y-97369819D02*
X194622495Y-96369819D01*
X195432019Y-96369819D02*
X195622495Y-96369819D01*
X195622495Y-96369819D02*
X195717733Y-96417438D01*
X195717733Y-96417438D02*
X195812971Y-96512676D01*
X195812971Y-96512676D02*
X195860590Y-96703152D01*
X195860590Y-96703152D02*
X195860590Y-97036485D01*
X195860590Y-97036485D02*
X195812971Y-97226961D01*
X195812971Y-97226961D02*
X195717733Y-97322200D01*
X195717733Y-97322200D02*
X195622495Y-97369819D01*
X195622495Y-97369819D02*
X195432019Y-97369819D01*
X195432019Y-97369819D02*
X195336781Y-97322200D01*
X195336781Y-97322200D02*
X195241543Y-97226961D01*
X195241543Y-97226961D02*
X195193924Y-97036485D01*
X195193924Y-97036485D02*
X195193924Y-96703152D01*
X195193924Y-96703152D02*
X195241543Y-96512676D01*
X195241543Y-96512676D02*
X195336781Y-96417438D01*
X195336781Y-96417438D02*
X195432019Y-96369819D01*
X196289162Y-97369819D02*
X196289162Y-96369819D01*
X196289162Y-96369819D02*
X196670114Y-96369819D01*
X196670114Y-96369819D02*
X196765352Y-96417438D01*
X196765352Y-96417438D02*
X196812971Y-96465057D01*
X196812971Y-96465057D02*
X196860590Y-96560295D01*
X196860590Y-96560295D02*
X196860590Y-96703152D01*
X196860590Y-96703152D02*
X196812971Y-96798390D01*
X196812971Y-96798390D02*
X196765352Y-96846009D01*
X196765352Y-96846009D02*
X196670114Y-96893628D01*
X196670114Y-96893628D02*
X196289162Y-96893628D01*
X188690476Y-94804819D02*
X188119048Y-94804819D01*
X188404762Y-94804819D02*
X188404762Y-93804819D01*
X188404762Y-93804819D02*
X188309524Y-93947676D01*
X188309524Y-93947676D02*
X188214286Y-94042914D01*
X188214286Y-94042914D02*
X188119048Y-94090533D01*
X189023810Y-93804819D02*
X189642857Y-93804819D01*
X189642857Y-93804819D02*
X189309524Y-94185771D01*
X189309524Y-94185771D02*
X189452381Y-94185771D01*
X189452381Y-94185771D02*
X189547619Y-94233390D01*
X189547619Y-94233390D02*
X189595238Y-94281009D01*
X189595238Y-94281009D02*
X189642857Y-94376247D01*
X189642857Y-94376247D02*
X189642857Y-94614342D01*
X189642857Y-94614342D02*
X189595238Y-94709580D01*
X189595238Y-94709580D02*
X189547619Y-94757200D01*
X189547619Y-94757200D02*
X189452381Y-94804819D01*
X189452381Y-94804819D02*
X189166667Y-94804819D01*
X189166667Y-94804819D02*
X189071429Y-94757200D01*
X189071429Y-94757200D02*
X189023810Y-94709580D01*
X189976191Y-93804819D02*
X190642857Y-93804819D01*
X190642857Y-93804819D02*
X190214286Y-94804819D01*
X191023810Y-94709580D02*
X191071429Y-94757200D01*
X191071429Y-94757200D02*
X191023810Y-94804819D01*
X191023810Y-94804819D02*
X190976191Y-94757200D01*
X190976191Y-94757200D02*
X191023810Y-94709580D01*
X191023810Y-94709580D02*
X191023810Y-94804819D01*
X191404762Y-93804819D02*
X192071428Y-93804819D01*
X192071428Y-93804819D02*
X191642857Y-94804819D01*
X192500000Y-94804819D02*
X192690476Y-94804819D01*
X192690476Y-94804819D02*
X192785714Y-94757200D01*
X192785714Y-94757200D02*
X192833333Y-94709580D01*
X192833333Y-94709580D02*
X192928571Y-94566723D01*
X192928571Y-94566723D02*
X192976190Y-94376247D01*
X192976190Y-94376247D02*
X192976190Y-93995295D01*
X192976190Y-93995295D02*
X192928571Y-93900057D01*
X192928571Y-93900057D02*
X192880952Y-93852438D01*
X192880952Y-93852438D02*
X192785714Y-93804819D01*
X192785714Y-93804819D02*
X192595238Y-93804819D01*
X192595238Y-93804819D02*
X192500000Y-93852438D01*
X192500000Y-93852438D02*
X192452381Y-93900057D01*
X192452381Y-93900057D02*
X192404762Y-93995295D01*
X192404762Y-93995295D02*
X192404762Y-94233390D01*
X192404762Y-94233390D02*
X192452381Y-94328628D01*
X192452381Y-94328628D02*
X192500000Y-94376247D01*
X192500000Y-94376247D02*
X192595238Y-94423866D01*
X192595238Y-94423866D02*
X192785714Y-94423866D01*
X192785714Y-94423866D02*
X192880952Y-94376247D01*
X192880952Y-94376247D02*
X192928571Y-94328628D01*
X192928571Y-94328628D02*
X192976190Y-94233390D01*
X193880952Y-93804819D02*
X193404762Y-93804819D01*
X193404762Y-93804819D02*
X193357143Y-94281009D01*
X193357143Y-94281009D02*
X193404762Y-94233390D01*
X193404762Y-94233390D02*
X193500000Y-94185771D01*
X193500000Y-94185771D02*
X193738095Y-94185771D01*
X193738095Y-94185771D02*
X193833333Y-94233390D01*
X193833333Y-94233390D02*
X193880952Y-94281009D01*
X193880952Y-94281009D02*
X193928571Y-94376247D01*
X193928571Y-94376247D02*
X193928571Y-94614342D01*
X193928571Y-94614342D02*
X193880952Y-94709580D01*
X193880952Y-94709580D02*
X193833333Y-94757200D01*
X193833333Y-94757200D02*
X193738095Y-94804819D01*
X193738095Y-94804819D02*
X193500000Y-94804819D01*
X193500000Y-94804819D02*
X193404762Y-94757200D01*
X193404762Y-94757200D02*
X193357143Y-94709580D01*
X194261905Y-93804819D02*
X194880952Y-93804819D01*
X194880952Y-93804819D02*
X194547619Y-94185771D01*
X194547619Y-94185771D02*
X194690476Y-94185771D01*
X194690476Y-94185771D02*
X194785714Y-94233390D01*
X194785714Y-94233390D02*
X194833333Y-94281009D01*
X194833333Y-94281009D02*
X194880952Y-94376247D01*
X194880952Y-94376247D02*
X194880952Y-94614342D01*
X194880952Y-94614342D02*
X194833333Y-94709580D01*
X194833333Y-94709580D02*
X194785714Y-94757200D01*
X194785714Y-94757200D02*
X194690476Y-94804819D01*
X194690476Y-94804819D02*
X194404762Y-94804819D01*
X194404762Y-94804819D02*
X194309524Y-94757200D01*
X194309524Y-94757200D02*
X194261905Y-94709580D01*
D11*
X189750000Y-89500000D02*
X189750000Y-96086420D01*
X193250000Y-96086420D02*
X193250000Y-89000000D01*
X189750000Y-95500000D02*
X193250000Y-95500000D01*
X189750000Y-95500000D02*
X190876504Y-94913579D01*
X189750000Y-95500000D02*
X190876504Y-96086421D01*
X193250000Y-95500000D02*
X192123496Y-96086421D01*
X193250000Y-95500000D02*
X192123496Y-94913579D01*
M02*
