G04 #@! TF.GenerationSoftware,KiCad,Pcbnew,9.0.7*
G04 #@! TF.CreationDate,2026-02-26T09:09:59-06:00*
G04 #@! TF.ProjectId,Flex PCB,466c6578-2050-4434-922e-6b696361645f,rev?*
G04 #@! TF.SameCoordinates,Original*
G04 #@! TF.FileFunction,Legend,Top*
G04 #@! TF.FilePolarity,Positive*
%FSLAX46Y46*%
G04 Gerber Fmt 4.6, Leading zero omitted, Abs format (unit mm)*
G04 Created by KiCad (PCBNEW 9.0.7) date 2026-02-26 09:09:59*
%MOMM*%
%LPD*%
G01*
G04 APERTURE LIST*
%ADD10C,0.150000*%
%ADD11C,0.120000*%
G04 APERTURE END LIST*
D10*
X150701819Y-103983166D02*
X150225628Y-104316499D01*
X150701819Y-104554594D02*
X149701819Y-104554594D01*
X149701819Y-104554594D02*
X149701819Y-104173642D01*
X149701819Y-104173642D02*
X149749438Y-104078404D01*
X149749438Y-104078404D02*
X149797057Y-104030785D01*
X149797057Y-104030785D02*
X149892295Y-103983166D01*
X149892295Y-103983166D02*
X150035152Y-103983166D01*
X150035152Y-103983166D02*
X150130390Y-104030785D01*
X150130390Y-104030785D02*
X150178009Y-104078404D01*
X150178009Y-104078404D02*
X150225628Y-104173642D01*
X150225628Y-104173642D02*
X150225628Y-104554594D01*
X149701819Y-103649832D02*
X149701819Y-103030785D01*
X149701819Y-103030785D02*
X150082771Y-103364118D01*
X150082771Y-103364118D02*
X150082771Y-103221261D01*
X150082771Y-103221261D02*
X150130390Y-103126023D01*
X150130390Y-103126023D02*
X150178009Y-103078404D01*
X150178009Y-103078404D02*
X150273247Y-103030785D01*
X150273247Y-103030785D02*
X150511342Y-103030785D01*
X150511342Y-103030785D02*
X150606580Y-103078404D01*
X150606580Y-103078404D02*
X150654200Y-103126023D01*
X150654200Y-103126023D02*
X150701819Y-103221261D01*
X150701819Y-103221261D02*
X150701819Y-103506975D01*
X150701819Y-103506975D02*
X150654200Y-103602213D01*
X150654200Y-103602213D02*
X150606580Y-103649832D01*
X150828819Y-84425166D02*
X150352628Y-84758499D01*
X150828819Y-84996594D02*
X149828819Y-84996594D01*
X149828819Y-84996594D02*
X149828819Y-84615642D01*
X149828819Y-84615642D02*
X149876438Y-84520404D01*
X149876438Y-84520404D02*
X149924057Y-84472785D01*
X149924057Y-84472785D02*
X150019295Y-84425166D01*
X150019295Y-84425166D02*
X150162152Y-84425166D01*
X150162152Y-84425166D02*
X150257390Y-84472785D01*
X150257390Y-84472785D02*
X150305009Y-84520404D01*
X150305009Y-84520404D02*
X150352628Y-84615642D01*
X150352628Y-84615642D02*
X150352628Y-84996594D01*
X149924057Y-84044213D02*
X149876438Y-83996594D01*
X149876438Y-83996594D02*
X149828819Y-83901356D01*
X149828819Y-83901356D02*
X149828819Y-83663261D01*
X149828819Y-83663261D02*
X149876438Y-83568023D01*
X149876438Y-83568023D02*
X149924057Y-83520404D01*
X149924057Y-83520404D02*
X150019295Y-83472785D01*
X150019295Y-83472785D02*
X150114533Y-83472785D01*
X150114533Y-83472785D02*
X150257390Y-83520404D01*
X150257390Y-83520404D02*
X150828819Y-84091832D01*
X150828819Y-84091832D02*
X150828819Y-83472785D01*
X150701819Y-65444666D02*
X150225628Y-65777999D01*
X150701819Y-66016094D02*
X149701819Y-66016094D01*
X149701819Y-66016094D02*
X149701819Y-65635142D01*
X149701819Y-65635142D02*
X149749438Y-65539904D01*
X149749438Y-65539904D02*
X149797057Y-65492285D01*
X149797057Y-65492285D02*
X149892295Y-65444666D01*
X149892295Y-65444666D02*
X150035152Y-65444666D01*
X150035152Y-65444666D02*
X150130390Y-65492285D01*
X150130390Y-65492285D02*
X150178009Y-65539904D01*
X150178009Y-65539904D02*
X150225628Y-65635142D01*
X150225628Y-65635142D02*
X150225628Y-66016094D01*
X150701819Y-64492285D02*
X150701819Y-65063713D01*
X150701819Y-64777999D02*
X149701819Y-64777999D01*
X149701819Y-64777999D02*
X149844676Y-64873237D01*
X149844676Y-64873237D02*
X149939914Y-64968475D01*
X149939914Y-64968475D02*
X149987533Y-65063713D01*
X142566666Y-109270819D02*
X142566666Y-109985104D01*
X142566666Y-109985104D02*
X142519047Y-110127961D01*
X142519047Y-110127961D02*
X142423809Y-110223200D01*
X142423809Y-110223200D02*
X142280952Y-110270819D01*
X142280952Y-110270819D02*
X142185714Y-110270819D01*
X142995238Y-109366057D02*
X143042857Y-109318438D01*
X143042857Y-109318438D02*
X143138095Y-109270819D01*
X143138095Y-109270819D02*
X143376190Y-109270819D01*
X143376190Y-109270819D02*
X143471428Y-109318438D01*
X143471428Y-109318438D02*
X143519047Y-109366057D01*
X143519047Y-109366057D02*
X143566666Y-109461295D01*
X143566666Y-109461295D02*
X143566666Y-109556533D01*
X143566666Y-109556533D02*
X143519047Y-109699390D01*
X143519047Y-109699390D02*
X142947619Y-110270819D01*
X142947619Y-110270819D02*
X143566666Y-110270819D01*
D11*
G04 #@! TO.C,R3*
X151187000Y-104177752D02*
X151187000Y-103455248D01*
X156407000Y-104177752D02*
X156407000Y-103455248D01*
G04 #@! TO.C,R2*
X151314000Y-84619752D02*
X151314000Y-83897248D01*
X156534000Y-84619752D02*
X156534000Y-83897248D01*
G04 #@! TO.C,R1*
X151187000Y-65639252D02*
X151187000Y-64916748D01*
X156407000Y-65639252D02*
X156407000Y-64916748D01*
G04 #@! TD*
M02*
