G04 #@! TF.GenerationSoftware,KiCad,Pcbnew,9.0.5*
G04 #@! TF.CreationDate,2026-02-26T13:41:24-06:00*
G04 #@! TF.ProjectId,Flex PCB,466c6578-2050-4434-922e-6b696361645f,rev?*
G04 #@! TF.SameCoordinates,Original*
G04 #@! TF.FileFunction,Legend,Top*
G04 #@! TF.FilePolarity,Positive*
%FSLAX46Y46*%
G04 Gerber Fmt 4.6, Leading zero omitted, Abs format (unit mm)*
G04 Created by KiCad (PCBNEW 9.0.5) date 2026-02-26 13:41:24*
%MOMM*%
%LPD*%
G01*
G04 APERTURE LIST*
%ADD10C,0.149860*%
%ADD11C,0.150000*%
%ADD12C,0.120000*%
G04 APERTURE END LIST*
D10*
X149086137Y-80713503D02*
X148187737Y-80713503D01*
X149086137Y-80285693D02*
X148487204Y-80285693D01*
X148572766Y-80285693D02*
X148529985Y-80242912D01*
X148529985Y-80242912D02*
X148487204Y-80157350D01*
X148487204Y-80157350D02*
X148487204Y-80029007D01*
X148487204Y-80029007D02*
X148529985Y-79943445D01*
X148529985Y-79943445D02*
X148615547Y-79900664D01*
X148615547Y-79900664D02*
X149086137Y-79900664D01*
X148615547Y-79900664D02*
X148529985Y-79857883D01*
X148529985Y-79857883D02*
X148487204Y-79772321D01*
X148487204Y-79772321D02*
X148487204Y-79643978D01*
X148487204Y-79643978D02*
X148529985Y-79558417D01*
X148529985Y-79558417D02*
X148615547Y-79515636D01*
X148615547Y-79515636D02*
X149086137Y-79515636D01*
X148487204Y-79087826D02*
X149385604Y-79087826D01*
X148529985Y-79087826D02*
X148487204Y-79002264D01*
X148487204Y-79002264D02*
X148487204Y-78831140D01*
X148487204Y-78831140D02*
X148529985Y-78745578D01*
X148529985Y-78745578D02*
X148572766Y-78702797D01*
X148572766Y-78702797D02*
X148658328Y-78660016D01*
X148658328Y-78660016D02*
X148915014Y-78660016D01*
X148915014Y-78660016D02*
X149000576Y-78702797D01*
X149000576Y-78702797D02*
X149043357Y-78745578D01*
X149043357Y-78745578D02*
X149086137Y-78831140D01*
X149086137Y-78831140D02*
X149086137Y-79002264D01*
X149086137Y-79002264D02*
X149043357Y-79087826D01*
X149086137Y-77889959D02*
X148615547Y-77889959D01*
X148615547Y-77889959D02*
X148529985Y-77932740D01*
X148529985Y-77932740D02*
X148487204Y-78018302D01*
X148487204Y-78018302D02*
X148487204Y-78189426D01*
X148487204Y-78189426D02*
X148529985Y-78274988D01*
X149043357Y-77889959D02*
X149086137Y-77975521D01*
X149086137Y-77975521D02*
X149086137Y-78189426D01*
X149086137Y-78189426D02*
X149043357Y-78274988D01*
X149043357Y-78274988D02*
X148957795Y-78317769D01*
X148957795Y-78317769D02*
X148872233Y-78317769D01*
X148872233Y-78317769D02*
X148786671Y-78274988D01*
X148786671Y-78274988D02*
X148743890Y-78189426D01*
X148743890Y-78189426D02*
X148743890Y-77975521D01*
X148743890Y-77975521D02*
X148701109Y-77889959D01*
X149043357Y-77077121D02*
X149086137Y-77162683D01*
X149086137Y-77162683D02*
X149086137Y-77333807D01*
X149086137Y-77333807D02*
X149043357Y-77419369D01*
X149043357Y-77419369D02*
X149000576Y-77462150D01*
X149000576Y-77462150D02*
X148915014Y-77504931D01*
X148915014Y-77504931D02*
X148658328Y-77504931D01*
X148658328Y-77504931D02*
X148572766Y-77462150D01*
X148572766Y-77462150D02*
X148529985Y-77419369D01*
X148529985Y-77419369D02*
X148487204Y-77333807D01*
X148487204Y-77333807D02*
X148487204Y-77162683D01*
X148487204Y-77162683D02*
X148529985Y-77077121D01*
X148487204Y-76820436D02*
X148487204Y-76478188D01*
X148187737Y-76692093D02*
X148957795Y-76692093D01*
X148957795Y-76692093D02*
X149043357Y-76649312D01*
X149043357Y-76649312D02*
X149086137Y-76563750D01*
X149086137Y-76563750D02*
X149086137Y-76478188D01*
X149086137Y-76178722D02*
X148187737Y-76178722D01*
X148487204Y-75750912D02*
X149086137Y-75750912D01*
X148572766Y-75750912D02*
X148529985Y-75708131D01*
X148529985Y-75708131D02*
X148487204Y-75622569D01*
X148487204Y-75622569D02*
X148487204Y-75494226D01*
X148487204Y-75494226D02*
X148529985Y-75408664D01*
X148529985Y-75408664D02*
X148615547Y-75365883D01*
X148615547Y-75365883D02*
X149086137Y-75365883D01*
X149043357Y-74980855D02*
X149086137Y-74895293D01*
X149086137Y-74895293D02*
X149086137Y-74724169D01*
X149086137Y-74724169D02*
X149043357Y-74638607D01*
X149043357Y-74638607D02*
X148957795Y-74595826D01*
X148957795Y-74595826D02*
X148915014Y-74595826D01*
X148915014Y-74595826D02*
X148829452Y-74638607D01*
X148829452Y-74638607D02*
X148786671Y-74724169D01*
X148786671Y-74724169D02*
X148786671Y-74852512D01*
X148786671Y-74852512D02*
X148743890Y-74938074D01*
X148743890Y-74938074D02*
X148658328Y-74980855D01*
X148658328Y-74980855D02*
X148615547Y-74980855D01*
X148615547Y-74980855D02*
X148529985Y-74938074D01*
X148529985Y-74938074D02*
X148487204Y-74852512D01*
X148487204Y-74852512D02*
X148487204Y-74724169D01*
X148487204Y-74724169D02*
X148529985Y-74638607D01*
X149086137Y-74082455D02*
X149043357Y-74168017D01*
X149043357Y-74168017D02*
X149000576Y-74210798D01*
X149000576Y-74210798D02*
X148915014Y-74253579D01*
X148915014Y-74253579D02*
X148658328Y-74253579D01*
X148658328Y-74253579D02*
X148572766Y-74210798D01*
X148572766Y-74210798D02*
X148529985Y-74168017D01*
X148529985Y-74168017D02*
X148487204Y-74082455D01*
X148487204Y-74082455D02*
X148487204Y-73954112D01*
X148487204Y-73954112D02*
X148529985Y-73868550D01*
X148529985Y-73868550D02*
X148572766Y-73825769D01*
X148572766Y-73825769D02*
X148658328Y-73782988D01*
X148658328Y-73782988D02*
X148915014Y-73782988D01*
X148915014Y-73782988D02*
X149000576Y-73825769D01*
X149000576Y-73825769D02*
X149043357Y-73868550D01*
X149043357Y-73868550D02*
X149086137Y-73954112D01*
X149086137Y-73954112D02*
X149086137Y-74082455D01*
X149086137Y-73269617D02*
X149043357Y-73355179D01*
X149043357Y-73355179D02*
X148957795Y-73397960D01*
X148957795Y-73397960D02*
X148187737Y-73397960D01*
X149043357Y-72585122D02*
X149086137Y-72670684D01*
X149086137Y-72670684D02*
X149086137Y-72841808D01*
X149086137Y-72841808D02*
X149043357Y-72927370D01*
X149043357Y-72927370D02*
X148957795Y-72970151D01*
X148957795Y-72970151D02*
X148615547Y-72970151D01*
X148615547Y-72970151D02*
X148529985Y-72927370D01*
X148529985Y-72927370D02*
X148487204Y-72841808D01*
X148487204Y-72841808D02*
X148487204Y-72670684D01*
X148487204Y-72670684D02*
X148529985Y-72585122D01*
X148529985Y-72585122D02*
X148615547Y-72542341D01*
X148615547Y-72542341D02*
X148701109Y-72542341D01*
X148701109Y-72542341D02*
X148786671Y-72970151D01*
X149043357Y-72200094D02*
X149086137Y-72114532D01*
X149086137Y-72114532D02*
X149086137Y-71943408D01*
X149086137Y-71943408D02*
X149043357Y-71857846D01*
X149043357Y-71857846D02*
X148957795Y-71815065D01*
X148957795Y-71815065D02*
X148915014Y-71815065D01*
X148915014Y-71815065D02*
X148829452Y-71857846D01*
X148829452Y-71857846D02*
X148786671Y-71943408D01*
X148786671Y-71943408D02*
X148786671Y-72071751D01*
X148786671Y-72071751D02*
X148743890Y-72157313D01*
X148743890Y-72157313D02*
X148658328Y-72200094D01*
X148658328Y-72200094D02*
X148615547Y-72200094D01*
X148615547Y-72200094D02*
X148529985Y-72157313D01*
X148529985Y-72157313D02*
X148487204Y-72071751D01*
X148487204Y-72071751D02*
X148487204Y-71943408D01*
X148487204Y-71943408D02*
X148529985Y-71857846D01*
X150061921Y-80414036D02*
X150061921Y-80713503D01*
X150532511Y-80713503D02*
X149634111Y-80713503D01*
X149634111Y-80713503D02*
X149634111Y-80285693D01*
X150532511Y-79815103D02*
X150489731Y-79900665D01*
X150489731Y-79900665D02*
X150404169Y-79943446D01*
X150404169Y-79943446D02*
X149634111Y-79943446D01*
X150489731Y-79130608D02*
X150532511Y-79216170D01*
X150532511Y-79216170D02*
X150532511Y-79387294D01*
X150532511Y-79387294D02*
X150489731Y-79472856D01*
X150489731Y-79472856D02*
X150404169Y-79515637D01*
X150404169Y-79515637D02*
X150061921Y-79515637D01*
X150061921Y-79515637D02*
X149976359Y-79472856D01*
X149976359Y-79472856D02*
X149933578Y-79387294D01*
X149933578Y-79387294D02*
X149933578Y-79216170D01*
X149933578Y-79216170D02*
X149976359Y-79130608D01*
X149976359Y-79130608D02*
X150061921Y-79087827D01*
X150061921Y-79087827D02*
X150147483Y-79087827D01*
X150147483Y-79087827D02*
X150233045Y-79515637D01*
X150532511Y-78788361D02*
X149933578Y-78317770D01*
X149933578Y-78788361D02*
X150532511Y-78317770D01*
X149634111Y-77419371D02*
X150532511Y-77119904D01*
X150532511Y-77119904D02*
X149634111Y-76820437D01*
X150532511Y-76050380D02*
X150532511Y-76563752D01*
X150532511Y-76307066D02*
X149634111Y-76307066D01*
X149634111Y-76307066D02*
X149762454Y-76392628D01*
X149762454Y-76392628D02*
X149848016Y-76478190D01*
X149848016Y-76478190D02*
X149890797Y-76563752D01*
X151508295Y-80713503D02*
X151508295Y-80414036D01*
X151978885Y-80285693D02*
X151978885Y-80713503D01*
X151978885Y-80713503D02*
X151080485Y-80713503D01*
X151080485Y-80713503D02*
X151080485Y-80285693D01*
X151893324Y-79387293D02*
X151936105Y-79430074D01*
X151936105Y-79430074D02*
X151978885Y-79558417D01*
X151978885Y-79558417D02*
X151978885Y-79643979D01*
X151978885Y-79643979D02*
X151936105Y-79772322D01*
X151936105Y-79772322D02*
X151850543Y-79857884D01*
X151850543Y-79857884D02*
X151764981Y-79900665D01*
X151764981Y-79900665D02*
X151593857Y-79943446D01*
X151593857Y-79943446D02*
X151465514Y-79943446D01*
X151465514Y-79943446D02*
X151294390Y-79900665D01*
X151294390Y-79900665D02*
X151208828Y-79857884D01*
X151208828Y-79857884D02*
X151123266Y-79772322D01*
X151123266Y-79772322D02*
X151080485Y-79643979D01*
X151080485Y-79643979D02*
X151080485Y-79558417D01*
X151080485Y-79558417D02*
X151123266Y-79430074D01*
X151123266Y-79430074D02*
X151166047Y-79387293D01*
X151508295Y-79002265D02*
X151508295Y-78702798D01*
X151978885Y-78574455D02*
X151978885Y-79002265D01*
X151978885Y-79002265D02*
X151080485Y-79002265D01*
X151080485Y-79002265D02*
X151080485Y-78574455D01*
X151379952Y-77804398D02*
X151978885Y-77804398D01*
X151037705Y-78018303D02*
X151679419Y-78232208D01*
X151679419Y-78232208D02*
X151679419Y-77676055D01*
X151379952Y-76948779D02*
X151978885Y-76948779D01*
X151037705Y-77162684D02*
X151679419Y-77376589D01*
X151679419Y-77376589D02*
X151679419Y-76820436D01*
X151080485Y-76050379D02*
X151080485Y-76478189D01*
X151080485Y-76478189D02*
X151508295Y-76520970D01*
X151508295Y-76520970D02*
X151465514Y-76478189D01*
X151465514Y-76478189D02*
X151422733Y-76392627D01*
X151422733Y-76392627D02*
X151422733Y-76178722D01*
X151422733Y-76178722D02*
X151465514Y-76093160D01*
X151465514Y-76093160D02*
X151508295Y-76050379D01*
X151508295Y-76050379D02*
X151593857Y-76007598D01*
X151593857Y-76007598D02*
X151807762Y-76007598D01*
X151807762Y-76007598D02*
X151893324Y-76050379D01*
X151893324Y-76050379D02*
X151936105Y-76093160D01*
X151936105Y-76093160D02*
X151978885Y-76178722D01*
X151978885Y-76178722D02*
X151978885Y-76392627D01*
X151978885Y-76392627D02*
X151936105Y-76478189D01*
X151936105Y-76478189D02*
X151893324Y-76520970D01*
X151936105Y-74980856D02*
X151978885Y-74852513D01*
X151978885Y-74852513D02*
X151978885Y-74638608D01*
X151978885Y-74638608D02*
X151936105Y-74553046D01*
X151936105Y-74553046D02*
X151893324Y-74510265D01*
X151893324Y-74510265D02*
X151807762Y-74467484D01*
X151807762Y-74467484D02*
X151722200Y-74467484D01*
X151722200Y-74467484D02*
X151636638Y-74510265D01*
X151636638Y-74510265D02*
X151593857Y-74553046D01*
X151593857Y-74553046D02*
X151551076Y-74638608D01*
X151551076Y-74638608D02*
X151508295Y-74809732D01*
X151508295Y-74809732D02*
X151465514Y-74895294D01*
X151465514Y-74895294D02*
X151422733Y-74938075D01*
X151422733Y-74938075D02*
X151337171Y-74980856D01*
X151337171Y-74980856D02*
X151251609Y-74980856D01*
X151251609Y-74980856D02*
X151166047Y-74938075D01*
X151166047Y-74938075D02*
X151123266Y-74895294D01*
X151123266Y-74895294D02*
X151080485Y-74809732D01*
X151080485Y-74809732D02*
X151080485Y-74595827D01*
X151080485Y-74595827D02*
X151123266Y-74467484D01*
X151379952Y-74082456D02*
X152278352Y-74082456D01*
X151422733Y-74082456D02*
X151379952Y-73996894D01*
X151379952Y-73996894D02*
X151379952Y-73825770D01*
X151379952Y-73825770D02*
X151422733Y-73740208D01*
X151422733Y-73740208D02*
X151465514Y-73697427D01*
X151465514Y-73697427D02*
X151551076Y-73654646D01*
X151551076Y-73654646D02*
X151807762Y-73654646D01*
X151807762Y-73654646D02*
X151893324Y-73697427D01*
X151893324Y-73697427D02*
X151936105Y-73740208D01*
X151936105Y-73740208D02*
X151978885Y-73825770D01*
X151978885Y-73825770D02*
X151978885Y-73996894D01*
X151978885Y-73996894D02*
X151936105Y-74082456D01*
X151978885Y-73269618D02*
X151379952Y-73269618D01*
X151551076Y-73269618D02*
X151465514Y-73226837D01*
X151465514Y-73226837D02*
X151422733Y-73184056D01*
X151422733Y-73184056D02*
X151379952Y-73098494D01*
X151379952Y-73098494D02*
X151379952Y-73012932D01*
X151978885Y-72713466D02*
X151379952Y-72713466D01*
X151080485Y-72713466D02*
X151123266Y-72756247D01*
X151123266Y-72756247D02*
X151166047Y-72713466D01*
X151166047Y-72713466D02*
X151123266Y-72670685D01*
X151123266Y-72670685D02*
X151080485Y-72713466D01*
X151080485Y-72713466D02*
X151166047Y-72713466D01*
X151379952Y-72285656D02*
X151978885Y-72285656D01*
X151465514Y-72285656D02*
X151422733Y-72242875D01*
X151422733Y-72242875D02*
X151379952Y-72157313D01*
X151379952Y-72157313D02*
X151379952Y-72028970D01*
X151379952Y-72028970D02*
X151422733Y-71943408D01*
X151422733Y-71943408D02*
X151508295Y-71900627D01*
X151508295Y-71900627D02*
X151978885Y-71900627D01*
X151379952Y-71087789D02*
X152107228Y-71087789D01*
X152107228Y-71087789D02*
X152192790Y-71130570D01*
X152192790Y-71130570D02*
X152235571Y-71173351D01*
X152235571Y-71173351D02*
X152278352Y-71258913D01*
X152278352Y-71258913D02*
X152278352Y-71387256D01*
X152278352Y-71387256D02*
X152235571Y-71472818D01*
X151936105Y-71087789D02*
X151978885Y-71173351D01*
X151978885Y-71173351D02*
X151978885Y-71344475D01*
X151978885Y-71344475D02*
X151936105Y-71430037D01*
X151936105Y-71430037D02*
X151893324Y-71472818D01*
X151893324Y-71472818D02*
X151807762Y-71515599D01*
X151807762Y-71515599D02*
X151551076Y-71515599D01*
X151551076Y-71515599D02*
X151465514Y-71472818D01*
X151465514Y-71472818D02*
X151422733Y-71430037D01*
X151422733Y-71430037D02*
X151379952Y-71344475D01*
X151379952Y-71344475D02*
X151379952Y-71173351D01*
X151379952Y-71173351D02*
X151422733Y-71087789D01*
X151166047Y-70018266D02*
X151123266Y-69975485D01*
X151123266Y-69975485D02*
X151080485Y-69889923D01*
X151080485Y-69889923D02*
X151080485Y-69676018D01*
X151080485Y-69676018D02*
X151123266Y-69590456D01*
X151123266Y-69590456D02*
X151166047Y-69547675D01*
X151166047Y-69547675D02*
X151251609Y-69504894D01*
X151251609Y-69504894D02*
X151337171Y-69504894D01*
X151337171Y-69504894D02*
X151465514Y-69547675D01*
X151465514Y-69547675D02*
X151978885Y-70061047D01*
X151978885Y-70061047D02*
X151978885Y-69504894D01*
X151080485Y-68734837D02*
X151080485Y-68905961D01*
X151080485Y-68905961D02*
X151123266Y-68991523D01*
X151123266Y-68991523D02*
X151166047Y-69034304D01*
X151166047Y-69034304D02*
X151294390Y-69119866D01*
X151294390Y-69119866D02*
X151465514Y-69162647D01*
X151465514Y-69162647D02*
X151807762Y-69162647D01*
X151807762Y-69162647D02*
X151893324Y-69119866D01*
X151893324Y-69119866D02*
X151936105Y-69077085D01*
X151936105Y-69077085D02*
X151978885Y-68991523D01*
X151978885Y-68991523D02*
X151978885Y-68820399D01*
X151978885Y-68820399D02*
X151936105Y-68734837D01*
X151936105Y-68734837D02*
X151893324Y-68692056D01*
X151893324Y-68692056D02*
X151807762Y-68649275D01*
X151807762Y-68649275D02*
X151593857Y-68649275D01*
X151593857Y-68649275D02*
X151508295Y-68692056D01*
X151508295Y-68692056D02*
X151465514Y-68734837D01*
X151465514Y-68734837D02*
X151422733Y-68820399D01*
X151422733Y-68820399D02*
X151422733Y-68991523D01*
X151422733Y-68991523D02*
X151465514Y-69077085D01*
X151465514Y-69077085D02*
X151508295Y-69119866D01*
X151508295Y-69119866D02*
X151593857Y-69162647D01*
X152569640Y-80242912D02*
X152526859Y-80328474D01*
X152526859Y-80328474D02*
X152526859Y-80456817D01*
X152526859Y-80456817D02*
X152569640Y-80585160D01*
X152569640Y-80585160D02*
X152655202Y-80670722D01*
X152655202Y-80670722D02*
X152740764Y-80713503D01*
X152740764Y-80713503D02*
X152911888Y-80756284D01*
X152911888Y-80756284D02*
X153040231Y-80756284D01*
X153040231Y-80756284D02*
X153211355Y-80713503D01*
X153211355Y-80713503D02*
X153296917Y-80670722D01*
X153296917Y-80670722D02*
X153382479Y-80585160D01*
X153382479Y-80585160D02*
X153425259Y-80456817D01*
X153425259Y-80456817D02*
X153425259Y-80371255D01*
X153425259Y-80371255D02*
X153382479Y-80242912D01*
X153382479Y-80242912D02*
X153339698Y-80200131D01*
X153339698Y-80200131D02*
X153040231Y-80200131D01*
X153040231Y-80200131D02*
X153040231Y-80371255D01*
X153425259Y-79815103D02*
X152826326Y-79815103D01*
X152997450Y-79815103D02*
X152911888Y-79772322D01*
X152911888Y-79772322D02*
X152869107Y-79729541D01*
X152869107Y-79729541D02*
X152826326Y-79643979D01*
X152826326Y-79643979D02*
X152826326Y-79558417D01*
X153425259Y-79130608D02*
X153382479Y-79216170D01*
X153382479Y-79216170D02*
X153339698Y-79258951D01*
X153339698Y-79258951D02*
X153254136Y-79301732D01*
X153254136Y-79301732D02*
X152997450Y-79301732D01*
X152997450Y-79301732D02*
X152911888Y-79258951D01*
X152911888Y-79258951D02*
X152869107Y-79216170D01*
X152869107Y-79216170D02*
X152826326Y-79130608D01*
X152826326Y-79130608D02*
X152826326Y-79002265D01*
X152826326Y-79002265D02*
X152869107Y-78916703D01*
X152869107Y-78916703D02*
X152911888Y-78873922D01*
X152911888Y-78873922D02*
X152997450Y-78831141D01*
X152997450Y-78831141D02*
X153254136Y-78831141D01*
X153254136Y-78831141D02*
X153339698Y-78873922D01*
X153339698Y-78873922D02*
X153382479Y-78916703D01*
X153382479Y-78916703D02*
X153425259Y-79002265D01*
X153425259Y-79002265D02*
X153425259Y-79130608D01*
X152826326Y-78061084D02*
X153425259Y-78061084D01*
X152826326Y-78446113D02*
X153296917Y-78446113D01*
X153296917Y-78446113D02*
X153382479Y-78403332D01*
X153382479Y-78403332D02*
X153425259Y-78317770D01*
X153425259Y-78317770D02*
X153425259Y-78189427D01*
X153425259Y-78189427D02*
X153382479Y-78103865D01*
X153382479Y-78103865D02*
X153339698Y-78061084D01*
X152826326Y-77633275D02*
X153724726Y-77633275D01*
X152869107Y-77633275D02*
X152826326Y-77547713D01*
X152826326Y-77547713D02*
X152826326Y-77376589D01*
X152826326Y-77376589D02*
X152869107Y-77291027D01*
X152869107Y-77291027D02*
X152911888Y-77248246D01*
X152911888Y-77248246D02*
X152997450Y-77205465D01*
X152997450Y-77205465D02*
X153254136Y-77205465D01*
X153254136Y-77205465D02*
X153339698Y-77248246D01*
X153339698Y-77248246D02*
X153382479Y-77291027D01*
X153382479Y-77291027D02*
X153425259Y-77376589D01*
X153425259Y-77376589D02*
X153425259Y-77547713D01*
X153425259Y-77547713D02*
X153382479Y-77633275D01*
X152526859Y-75750913D02*
X152526859Y-75922037D01*
X152526859Y-75922037D02*
X152569640Y-76007599D01*
X152569640Y-76007599D02*
X152612421Y-76050380D01*
X152612421Y-76050380D02*
X152740764Y-76135942D01*
X152740764Y-76135942D02*
X152911888Y-76178723D01*
X152911888Y-76178723D02*
X153254136Y-76178723D01*
X153254136Y-76178723D02*
X153339698Y-76135942D01*
X153339698Y-76135942D02*
X153382479Y-76093161D01*
X153382479Y-76093161D02*
X153425259Y-76007599D01*
X153425259Y-76007599D02*
X153425259Y-75836475D01*
X153425259Y-75836475D02*
X153382479Y-75750913D01*
X153382479Y-75750913D02*
X153339698Y-75708132D01*
X153339698Y-75708132D02*
X153254136Y-75665351D01*
X153254136Y-75665351D02*
X153040231Y-75665351D01*
X153040231Y-75665351D02*
X152954669Y-75708132D01*
X152954669Y-75708132D02*
X152911888Y-75750913D01*
X152911888Y-75750913D02*
X152869107Y-75836475D01*
X152869107Y-75836475D02*
X152869107Y-76007599D01*
X152869107Y-76007599D02*
X152911888Y-76093161D01*
X152911888Y-76093161D02*
X152954669Y-76135942D01*
X152954669Y-76135942D02*
X153040231Y-76178723D01*
X152911888Y-75151980D02*
X152869107Y-75237542D01*
X152869107Y-75237542D02*
X152826326Y-75280323D01*
X152826326Y-75280323D02*
X152740764Y-75323104D01*
X152740764Y-75323104D02*
X152697983Y-75323104D01*
X152697983Y-75323104D02*
X152612421Y-75280323D01*
X152612421Y-75280323D02*
X152569640Y-75237542D01*
X152569640Y-75237542D02*
X152526859Y-75151980D01*
X152526859Y-75151980D02*
X152526859Y-74980856D01*
X152526859Y-74980856D02*
X152569640Y-74895294D01*
X152569640Y-74895294D02*
X152612421Y-74852513D01*
X152612421Y-74852513D02*
X152697983Y-74809732D01*
X152697983Y-74809732D02*
X152740764Y-74809732D01*
X152740764Y-74809732D02*
X152826326Y-74852513D01*
X152826326Y-74852513D02*
X152869107Y-74895294D01*
X152869107Y-74895294D02*
X152911888Y-74980856D01*
X152911888Y-74980856D02*
X152911888Y-75151980D01*
X152911888Y-75151980D02*
X152954669Y-75237542D01*
X152954669Y-75237542D02*
X152997450Y-75280323D01*
X152997450Y-75280323D02*
X153083012Y-75323104D01*
X153083012Y-75323104D02*
X153254136Y-75323104D01*
X153254136Y-75323104D02*
X153339698Y-75280323D01*
X153339698Y-75280323D02*
X153382479Y-75237542D01*
X153382479Y-75237542D02*
X153425259Y-75151980D01*
X153425259Y-75151980D02*
X153425259Y-74980856D01*
X153425259Y-74980856D02*
X153382479Y-74895294D01*
X153382479Y-74895294D02*
X153339698Y-74852513D01*
X153339698Y-74852513D02*
X153254136Y-74809732D01*
X153254136Y-74809732D02*
X153083012Y-74809732D01*
X153083012Y-74809732D02*
X152997450Y-74852513D01*
X152997450Y-74852513D02*
X152954669Y-74895294D01*
X152954669Y-74895294D02*
X152911888Y-74980856D01*
D11*
X150701819Y-103983166D02*
X150225628Y-104316499D01*
X150701819Y-104554594D02*
X149701819Y-104554594D01*
X149701819Y-104554594D02*
X149701819Y-104173642D01*
X149701819Y-104173642D02*
X149749438Y-104078404D01*
X149749438Y-104078404D02*
X149797057Y-104030785D01*
X149797057Y-104030785D02*
X149892295Y-103983166D01*
X149892295Y-103983166D02*
X150035152Y-103983166D01*
X150035152Y-103983166D02*
X150130390Y-104030785D01*
X150130390Y-104030785D02*
X150178009Y-104078404D01*
X150178009Y-104078404D02*
X150225628Y-104173642D01*
X150225628Y-104173642D02*
X150225628Y-104554594D01*
X149701819Y-103649832D02*
X149701819Y-103030785D01*
X149701819Y-103030785D02*
X150082771Y-103364118D01*
X150082771Y-103364118D02*
X150082771Y-103221261D01*
X150082771Y-103221261D02*
X150130390Y-103126023D01*
X150130390Y-103126023D02*
X150178009Y-103078404D01*
X150178009Y-103078404D02*
X150273247Y-103030785D01*
X150273247Y-103030785D02*
X150511342Y-103030785D01*
X150511342Y-103030785D02*
X150606580Y-103078404D01*
X150606580Y-103078404D02*
X150654200Y-103126023D01*
X150654200Y-103126023D02*
X150701819Y-103221261D01*
X150701819Y-103221261D02*
X150701819Y-103506975D01*
X150701819Y-103506975D02*
X150654200Y-103602213D01*
X150654200Y-103602213D02*
X150606580Y-103649832D01*
X150828819Y-84425166D02*
X150352628Y-84758499D01*
X150828819Y-84996594D02*
X149828819Y-84996594D01*
X149828819Y-84996594D02*
X149828819Y-84615642D01*
X149828819Y-84615642D02*
X149876438Y-84520404D01*
X149876438Y-84520404D02*
X149924057Y-84472785D01*
X149924057Y-84472785D02*
X150019295Y-84425166D01*
X150019295Y-84425166D02*
X150162152Y-84425166D01*
X150162152Y-84425166D02*
X150257390Y-84472785D01*
X150257390Y-84472785D02*
X150305009Y-84520404D01*
X150305009Y-84520404D02*
X150352628Y-84615642D01*
X150352628Y-84615642D02*
X150352628Y-84996594D01*
X149924057Y-84044213D02*
X149876438Y-83996594D01*
X149876438Y-83996594D02*
X149828819Y-83901356D01*
X149828819Y-83901356D02*
X149828819Y-83663261D01*
X149828819Y-83663261D02*
X149876438Y-83568023D01*
X149876438Y-83568023D02*
X149924057Y-83520404D01*
X149924057Y-83520404D02*
X150019295Y-83472785D01*
X150019295Y-83472785D02*
X150114533Y-83472785D01*
X150114533Y-83472785D02*
X150257390Y-83520404D01*
X150257390Y-83520404D02*
X150828819Y-84091832D01*
X150828819Y-84091832D02*
X150828819Y-83472785D01*
X150701819Y-65444666D02*
X150225628Y-65777999D01*
X150701819Y-66016094D02*
X149701819Y-66016094D01*
X149701819Y-66016094D02*
X149701819Y-65635142D01*
X149701819Y-65635142D02*
X149749438Y-65539904D01*
X149749438Y-65539904D02*
X149797057Y-65492285D01*
X149797057Y-65492285D02*
X149892295Y-65444666D01*
X149892295Y-65444666D02*
X150035152Y-65444666D01*
X150035152Y-65444666D02*
X150130390Y-65492285D01*
X150130390Y-65492285D02*
X150178009Y-65539904D01*
X150178009Y-65539904D02*
X150225628Y-65635142D01*
X150225628Y-65635142D02*
X150225628Y-66016094D01*
X150701819Y-64492285D02*
X150701819Y-65063713D01*
X150701819Y-64777999D02*
X149701819Y-64777999D01*
X149701819Y-64777999D02*
X149844676Y-64873237D01*
X149844676Y-64873237D02*
X149939914Y-64968475D01*
X149939914Y-64968475D02*
X149987533Y-65063713D01*
X142566666Y-109270819D02*
X142566666Y-109985104D01*
X142566666Y-109985104D02*
X142519047Y-110127961D01*
X142519047Y-110127961D02*
X142423809Y-110223200D01*
X142423809Y-110223200D02*
X142280952Y-110270819D01*
X142280952Y-110270819D02*
X142185714Y-110270819D01*
X142995238Y-109366057D02*
X143042857Y-109318438D01*
X143042857Y-109318438D02*
X143138095Y-109270819D01*
X143138095Y-109270819D02*
X143376190Y-109270819D01*
X143376190Y-109270819D02*
X143471428Y-109318438D01*
X143471428Y-109318438D02*
X143519047Y-109366057D01*
X143519047Y-109366057D02*
X143566666Y-109461295D01*
X143566666Y-109461295D02*
X143566666Y-109556533D01*
X143566666Y-109556533D02*
X143519047Y-109699390D01*
X143519047Y-109699390D02*
X142947619Y-110270819D01*
X142947619Y-110270819D02*
X143566666Y-110270819D01*
D12*
G04 #@! TO.C,R3*
X151187000Y-104177752D02*
X151187000Y-103455248D01*
X156407000Y-104177752D02*
X156407000Y-103455248D01*
G04 #@! TO.C,R2*
X151314000Y-84619752D02*
X151314000Y-83897248D01*
X156534000Y-84619752D02*
X156534000Y-83897248D01*
G04 #@! TO.C,R1*
X151187000Y-65639252D02*
X151187000Y-64916748D01*
X156407000Y-65639252D02*
X156407000Y-64916748D01*
G04 #@! TD*
M02*
