%TF.GenerationSoftware,KiCad,Pcbnew,9.0.7*%
%TF.CreationDate,2026-03-12T15:29:09-05:00*%
%TF.ProjectId,Flex PCB,466c6578-2050-4434-922e-6b696361645f,rev?*%
%TF.SameCoordinates,Original*%
%TF.FileFunction,Other,Comment*%
%FSLAX46Y46*%
G04 Gerber Fmt 4.6, Leading zero omitted, Abs format (unit mm)*
G04 Created by KiCad (PCBNEW 9.0.7) date 2026-03-12 15:29:09*
%MOMM*%
%LPD*%
G01*
G04 APERTURE LIST*
%ADD10C,0.150000*%
%ADD11C,0.100000*%
G04 APERTURE END LIST*
D10*
X209749160Y-96822200D02*
X209892017Y-96869819D01*
X209892017Y-96869819D02*
X210130112Y-96869819D01*
X210130112Y-96869819D02*
X210225350Y-96822200D01*
X210225350Y-96822200D02*
X210272969Y-96774580D01*
X210272969Y-96774580D02*
X210320588Y-96679342D01*
X210320588Y-96679342D02*
X210320588Y-96584104D01*
X210320588Y-96584104D02*
X210272969Y-96488866D01*
X210272969Y-96488866D02*
X210225350Y-96441247D01*
X210225350Y-96441247D02*
X210130112Y-96393628D01*
X210130112Y-96393628D02*
X209939636Y-96346009D01*
X209939636Y-96346009D02*
X209844398Y-96298390D01*
X209844398Y-96298390D02*
X209796779Y-96250771D01*
X209796779Y-96250771D02*
X209749160Y-96155533D01*
X209749160Y-96155533D02*
X209749160Y-96060295D01*
X209749160Y-96060295D02*
X209796779Y-95965057D01*
X209796779Y-95965057D02*
X209844398Y-95917438D01*
X209844398Y-95917438D02*
X209939636Y-95869819D01*
X209939636Y-95869819D02*
X210177731Y-95869819D01*
X210177731Y-95869819D02*
X210320588Y-95917438D01*
X210606303Y-96203152D02*
X210987255Y-96203152D01*
X210749160Y-95869819D02*
X210749160Y-96726961D01*
X210749160Y-96726961D02*
X210796779Y-96822200D01*
X210796779Y-96822200D02*
X210892017Y-96869819D01*
X210892017Y-96869819D02*
X210987255Y-96869819D01*
X211320589Y-96869819D02*
X211320589Y-96203152D01*
X211320589Y-95869819D02*
X211272970Y-95917438D01*
X211272970Y-95917438D02*
X211320589Y-95965057D01*
X211320589Y-95965057D02*
X211368208Y-95917438D01*
X211368208Y-95917438D02*
X211320589Y-95869819D01*
X211320589Y-95869819D02*
X211320589Y-95965057D01*
X211653922Y-96203152D02*
X212034874Y-96203152D01*
X211796779Y-96869819D02*
X211796779Y-96012676D01*
X211796779Y-96012676D02*
X211844398Y-95917438D01*
X211844398Y-95917438D02*
X211939636Y-95869819D01*
X211939636Y-95869819D02*
X212034874Y-95869819D01*
X212225351Y-96203152D02*
X212606303Y-96203152D01*
X212368208Y-96869819D02*
X212368208Y-96012676D01*
X212368208Y-96012676D02*
X212415827Y-95917438D01*
X212415827Y-95917438D02*
X212511065Y-95869819D01*
X212511065Y-95869819D02*
X212606303Y-95869819D01*
X213320589Y-96822200D02*
X213225351Y-96869819D01*
X213225351Y-96869819D02*
X213034875Y-96869819D01*
X213034875Y-96869819D02*
X212939637Y-96822200D01*
X212939637Y-96822200D02*
X212892018Y-96726961D01*
X212892018Y-96726961D02*
X212892018Y-96346009D01*
X212892018Y-96346009D02*
X212939637Y-96250771D01*
X212939637Y-96250771D02*
X213034875Y-96203152D01*
X213034875Y-96203152D02*
X213225351Y-96203152D01*
X213225351Y-96203152D02*
X213320589Y-96250771D01*
X213320589Y-96250771D02*
X213368208Y-96346009D01*
X213368208Y-96346009D02*
X213368208Y-96441247D01*
X213368208Y-96441247D02*
X212892018Y-96536485D01*
X213796780Y-96203152D02*
X213796780Y-96869819D01*
X213796780Y-96298390D02*
X213844399Y-96250771D01*
X213844399Y-96250771D02*
X213939637Y-96203152D01*
X213939637Y-96203152D02*
X214082494Y-96203152D01*
X214082494Y-96203152D02*
X214177732Y-96250771D01*
X214177732Y-96250771D02*
X214225351Y-96346009D01*
X214225351Y-96346009D02*
X214225351Y-96869819D01*
X215082494Y-96822200D02*
X214987256Y-96869819D01*
X214987256Y-96869819D02*
X214796780Y-96869819D01*
X214796780Y-96869819D02*
X214701542Y-96822200D01*
X214701542Y-96822200D02*
X214653923Y-96726961D01*
X214653923Y-96726961D02*
X214653923Y-96346009D01*
X214653923Y-96346009D02*
X214701542Y-96250771D01*
X214701542Y-96250771D02*
X214796780Y-96203152D01*
X214796780Y-96203152D02*
X214987256Y-96203152D01*
X214987256Y-96203152D02*
X215082494Y-96250771D01*
X215082494Y-96250771D02*
X215130113Y-96346009D01*
X215130113Y-96346009D02*
X215130113Y-96441247D01*
X215130113Y-96441247D02*
X214653923Y-96536485D01*
X215558685Y-96869819D02*
X215558685Y-96203152D01*
X215558685Y-96393628D02*
X215606304Y-96298390D01*
X215606304Y-96298390D02*
X215653923Y-96250771D01*
X215653923Y-96250771D02*
X215749161Y-96203152D01*
X215749161Y-96203152D02*
X215844399Y-96203152D01*
X216796781Y-95869819D02*
X217368209Y-95869819D01*
X217082495Y-96869819D02*
X217082495Y-95869819D01*
X217892019Y-95869819D02*
X218082495Y-95869819D01*
X218082495Y-95869819D02*
X218177733Y-95917438D01*
X218177733Y-95917438D02*
X218272971Y-96012676D01*
X218272971Y-96012676D02*
X218320590Y-96203152D01*
X218320590Y-96203152D02*
X218320590Y-96536485D01*
X218320590Y-96536485D02*
X218272971Y-96726961D01*
X218272971Y-96726961D02*
X218177733Y-96822200D01*
X218177733Y-96822200D02*
X218082495Y-96869819D01*
X218082495Y-96869819D02*
X217892019Y-96869819D01*
X217892019Y-96869819D02*
X217796781Y-96822200D01*
X217796781Y-96822200D02*
X217701543Y-96726961D01*
X217701543Y-96726961D02*
X217653924Y-96536485D01*
X217653924Y-96536485D02*
X217653924Y-96203152D01*
X217653924Y-96203152D02*
X217701543Y-96012676D01*
X217701543Y-96012676D02*
X217796781Y-95917438D01*
X217796781Y-95917438D02*
X217892019Y-95869819D01*
X218749162Y-96869819D02*
X218749162Y-95869819D01*
X218749162Y-95869819D02*
X219130114Y-95869819D01*
X219130114Y-95869819D02*
X219225352Y-95917438D01*
X219225352Y-95917438D02*
X219272971Y-95965057D01*
X219272971Y-95965057D02*
X219320590Y-96060295D01*
X219320590Y-96060295D02*
X219320590Y-96203152D01*
X219320590Y-96203152D02*
X219272971Y-96298390D01*
X219272971Y-96298390D02*
X219225352Y-96346009D01*
X219225352Y-96346009D02*
X219130114Y-96393628D01*
X219130114Y-96393628D02*
X218749162Y-96393628D01*
X212952381Y-93304819D02*
X213571428Y-93304819D01*
X213571428Y-93304819D02*
X213238095Y-93685771D01*
X213238095Y-93685771D02*
X213380952Y-93685771D01*
X213380952Y-93685771D02*
X213476190Y-93733390D01*
X213476190Y-93733390D02*
X213523809Y-93781009D01*
X213523809Y-93781009D02*
X213571428Y-93876247D01*
X213571428Y-93876247D02*
X213571428Y-94114342D01*
X213571428Y-94114342D02*
X213523809Y-94209580D01*
X213523809Y-94209580D02*
X213476190Y-94257200D01*
X213476190Y-94257200D02*
X213380952Y-94304819D01*
X213380952Y-94304819D02*
X213095238Y-94304819D01*
X213095238Y-94304819D02*
X213000000Y-94257200D01*
X213000000Y-94257200D02*
X212952381Y-94209580D01*
X214000000Y-94209580D02*
X214047619Y-94257200D01*
X214047619Y-94257200D02*
X214000000Y-94304819D01*
X214000000Y-94304819D02*
X213952381Y-94257200D01*
X213952381Y-94257200D02*
X214000000Y-94209580D01*
X214000000Y-94209580D02*
X214000000Y-94304819D01*
X214952380Y-93304819D02*
X214476190Y-93304819D01*
X214476190Y-93304819D02*
X214428571Y-93781009D01*
X214428571Y-93781009D02*
X214476190Y-93733390D01*
X214476190Y-93733390D02*
X214571428Y-93685771D01*
X214571428Y-93685771D02*
X214809523Y-93685771D01*
X214809523Y-93685771D02*
X214904761Y-93733390D01*
X214904761Y-93733390D02*
X214952380Y-93781009D01*
X214952380Y-93781009D02*
X214999999Y-93876247D01*
X214999999Y-93876247D02*
X214999999Y-94114342D01*
X214999999Y-94114342D02*
X214952380Y-94209580D01*
X214952380Y-94209580D02*
X214904761Y-94257200D01*
X214904761Y-94257200D02*
X214809523Y-94304819D01*
X214809523Y-94304819D02*
X214571428Y-94304819D01*
X214571428Y-94304819D02*
X214476190Y-94257200D01*
X214476190Y-94257200D02*
X214428571Y-94209580D01*
D11*
X212250000Y-89000000D02*
X212250000Y-95586420D01*
X215750000Y-95586420D02*
X215750000Y-88500000D01*
X212250000Y-95000000D02*
X215750000Y-95000000D01*
X212250000Y-95000000D02*
X213376504Y-94413579D01*
X212250000Y-95000000D02*
X213376504Y-95586421D01*
X215750000Y-95000000D02*
X214623496Y-95586421D01*
X215750000Y-95000000D02*
X214623496Y-94413579D01*
M02*
