%TF.GenerationSoftware,KiCad,Pcbnew,9.0.7*%
%TF.CreationDate,2026-03-12T15:29:08-05:00*%
%TF.ProjectId,Flex PCB,466c6578-2050-4434-922e-6b696361645f,rev?*%
%TF.SameCoordinates,Original*%
%TF.FileFunction,Copper,L2,Bot*%
%TF.FilePolarity,Positive*%
%FSLAX46Y46*%
G04 Gerber Fmt 4.6, Leading zero omitted, Abs format (unit mm)*
G04 Created by KiCad (PCBNEW 9.0.7) date 2026-03-12 15:29:08*
%MOMM*%
%LPD*%
G01*
G04 APERTURE LIST*
%TA.AperFunction,SMDPad,CuDef*%
%ADD10R,2.470000X0.700000*%
%TD*%
%TA.AperFunction,ComponentPad*%
%ADD11R,1.700000X1.700000*%
%TD*%
%TA.AperFunction,ComponentPad*%
%ADD12C,1.700000*%
%TD*%
%TA.AperFunction,ViaPad*%
%ADD13C,0.600000*%
%TD*%
%TA.AperFunction,Conductor*%
%ADD14C,0.200000*%
%TD*%
%TA.AperFunction,Conductor*%
%ADD15C,0.150000*%
%TD*%
G04 APERTURE END LIST*
D10*
%TO.P,J1,18,Pin_18*%
%TO.N,/GND*%
X214500000Y-75500000D03*
%TO.P,J1,17,Pin_17*%
%TO.N,Net-(J1-Pin_17)*%
X214500000Y-76500000D03*
%TO.P,J1,16,Pin_16*%
%TO.N,Net-(J1-Pin_16)*%
X214500000Y-77500000D03*
%TO.P,J1,15,Pin_15*%
%TO.N,Net-(J1-Pin_15)*%
X214500000Y-78500000D03*
%TO.P,J1,14,Pin_14*%
%TO.N,Net-(J1-Pin_14)*%
X214500000Y-79500000D03*
%TO.P,J1,13,Pin_13*%
%TO.N,Net-(J1-Pin_13)*%
X214500000Y-80500000D03*
%TO.P,J1,12,Pin_12*%
%TO.N,Net-(J1-Pin_12)*%
X214500000Y-81500000D03*
%TO.P,J1,11,Pin_11*%
%TO.N,Net-(J1-Pin_11)*%
X214500000Y-82500000D03*
%TO.P,J1,10,Pin_10*%
%TO.N,Net-(J1-Pin_10)*%
X214500000Y-83500000D03*
%TO.P,J1,9,Pin_9*%
%TO.N,Net-(J1-Pin_9)*%
X214500000Y-84500000D03*
%TO.P,J1,8,Pin_8*%
%TO.N,Net-(J1-Pin_8)*%
X214500000Y-85500000D03*
%TO.P,J1,7,Pin_7*%
%TO.N,Net-(J1-Pin_7)*%
X214500000Y-86500000D03*
%TO.P,J1,6,Pin_6*%
%TO.N,Net-(J1-Pin_6)*%
X214500000Y-87500000D03*
%TO.P,J1,5,Pin_5*%
%TO.N,Net-(J1-Pin_5)*%
X214500000Y-88500000D03*
%TO.P,J1,4,Pin_4*%
%TO.N,Net-(J1-Pin_4)*%
X214500000Y-89500000D03*
%TO.P,J1,3,Pin_3*%
%TO.N,Net-(J1-Pin_3)*%
X214500000Y-90500000D03*
%TO.P,J1,2,Pin_2*%
%TO.N,Net-(J1-Pin_2)*%
X214500000Y-91500000D03*
%TO.P,J1,1,Pin_1*%
%TO.N,/3V3*%
X214500000Y-92500000D03*
%TD*%
D11*
%TO.P,J2,1,Pin_1*%
%TO.N,/3V3*%
X142900000Y-107046000D03*
D12*
%TO.P,J2,2,Pin_2*%
%TO.N,Net-(J1-Pin_2)*%
X142900000Y-104506000D03*
%TO.P,J2,3,Pin_3*%
%TO.N,Net-(J1-Pin_3)*%
X142900000Y-101966000D03*
%TO.P,J2,4,Pin_4*%
%TO.N,Net-(J1-Pin_4)*%
X142900000Y-99426000D03*
%TO.P,J2,5,Pin_5*%
%TO.N,Net-(J1-Pin_5)*%
X142900000Y-96886000D03*
%TO.P,J2,6,Pin_6*%
%TO.N,Net-(J1-Pin_6)*%
X142900000Y-94346000D03*
%TO.P,J2,7,Pin_7*%
%TO.N,Net-(J1-Pin_7)*%
X142900000Y-91806000D03*
%TO.P,J2,8,Pin_8*%
%TO.N,Net-(J1-Pin_8)*%
X142900000Y-89266000D03*
%TO.P,J2,9,Pin_9*%
%TO.N,Net-(J1-Pin_9)*%
X142900000Y-86726000D03*
%TO.P,J2,10,Pin_10*%
%TO.N,Net-(J1-Pin_10)*%
X142900000Y-84186000D03*
%TO.P,J2,11,Pin_11*%
%TO.N,Net-(J1-Pin_11)*%
X142900000Y-81646000D03*
%TO.P,J2,12,Pin_12*%
%TO.N,Net-(J1-Pin_12)*%
X142900000Y-79106000D03*
%TO.P,J2,13,Pin_13*%
%TO.N,Net-(J1-Pin_13)*%
X142900000Y-76566000D03*
%TO.P,J2,14,Pin_14*%
%TO.N,Net-(J1-Pin_14)*%
X142900000Y-74026000D03*
%TO.P,J2,15,Pin_15*%
%TO.N,Net-(J1-Pin_15)*%
X142900000Y-71486000D03*
%TO.P,J2,16,Pin_16*%
%TO.N,Net-(J1-Pin_16)*%
X142900000Y-68946000D03*
%TO.P,J2,17,Pin_17*%
%TO.N,Net-(J1-Pin_17)*%
X142900000Y-66406000D03*
%TO.P,J2,18,Pin_18*%
%TO.N,/GND*%
X142900000Y-63866000D03*
%TD*%
D13*
%TO.N,/3V3*%
X141300000Y-61640000D03*
%TO.N,Net-(J1-Pin_16)*%
X153954031Y-54040059D03*
%TO.N,Net-(J1-Pin_17)*%
X153500000Y-45500000D03*
%TO.N,Net-(J1-Pin_3)*%
X153045969Y-111752558D03*
%TO.N,/3V3*%
X153500000Y-122712500D03*
%TO.N,Net-(J1-Pin_2)*%
X153500000Y-120172500D03*
%TO.N,Net-(J1-Pin_4)*%
X153850000Y-101972500D03*
%TO.N,Net-(J1-Pin_10)*%
X153924000Y-82931000D03*
%TO.N,/3V3*%
X153924000Y-85471000D03*
%TO.N,Net-(J1-Pin_15)*%
X153560000Y-64787500D03*
%TD*%
D14*
%TO.N,Net-(J1-Pin_2)*%
X214500000Y-91500000D02*
X159000000Y-91500000D01*
X159000000Y-91500000D02*
X159000000Y-114672500D01*
X159000000Y-114672500D02*
X153500000Y-120172500D01*
%TO.N,Net-(J1-Pin_3)*%
X214500000Y-90500000D02*
X158550000Y-90500000D01*
X158550000Y-90500000D02*
X158550000Y-106248527D01*
X158550000Y-106248527D02*
X153045969Y-111752558D01*
%TO.N,Net-(J1-Pin_4)*%
X153850000Y-101972500D02*
X155176500Y-101972500D01*
X155176500Y-101972500D02*
X158149000Y-99000000D01*
X142900000Y-99426000D02*
X145446500Y-101972500D01*
X145446500Y-101972500D02*
X153850000Y-101972500D01*
%TO.N,Net-(J1-Pin_3)*%
X142900000Y-101966000D02*
X152686558Y-111752558D01*
X152686558Y-111752558D02*
X153045969Y-111752558D01*
%TO.N,Net-(J1-Pin_2)*%
X144760000Y-106366000D02*
X144760000Y-118300000D01*
X142900000Y-104506000D02*
X144760000Y-106366000D01*
X144760000Y-118300000D02*
X146632500Y-120172500D01*
X146632500Y-120172500D02*
X153500000Y-120172500D01*
%TO.N,/3V3*%
X159424000Y-106200000D02*
X159424000Y-121966000D01*
X159424000Y-121966000D02*
X158677500Y-122712500D01*
X158677500Y-122712500D02*
X153500000Y-122712500D01*
%TO.N,/GND*%
X142900000Y-63866000D02*
X142900000Y-45100000D01*
%TO.N,/3V3*%
X141300000Y-61640000D02*
X141300000Y-63320000D01*
X141300000Y-63320000D02*
X140589000Y-64031000D01*
X140589000Y-64031000D02*
X140589000Y-85471000D01*
%TO.N,Net-(J1-Pin_15)*%
X153560000Y-64787500D02*
X154694250Y-64787500D01*
X154694250Y-64787500D02*
X157263000Y-67356250D01*
X157263000Y-67356250D02*
X157263000Y-76263000D01*
X157263000Y-76263000D02*
X157500000Y-76500000D01*
%TO.N,/3V3*%
X140589000Y-85471000D02*
X140589000Y-108510000D01*
X142900000Y-107046000D02*
X142053000Y-107046000D01*
X142053000Y-107046000D02*
X140589000Y-108510000D01*
%TO.N,Net-(J1-Pin_11)*%
X214500000Y-82500000D02*
X157740000Y-82500000D01*
X157740000Y-82500000D02*
X156886000Y-81646000D01*
X156886000Y-81646000D02*
X142900000Y-81646000D01*
%TO.N,Net-(J1-Pin_12)*%
X214500000Y-81500000D02*
X157660000Y-81500000D01*
X157660000Y-81500000D02*
X155266000Y-79106000D01*
X155266000Y-79106000D02*
X142900000Y-79106000D01*
%TO.N,Net-(J1-Pin_13)*%
X214500000Y-80500000D02*
X157920000Y-80500000D01*
X157920000Y-80500000D02*
X153986000Y-76566000D01*
X153986000Y-76566000D02*
X142900000Y-76566000D01*
%TO.N,Net-(J1-Pin_14)*%
X214500000Y-79500000D02*
X158660000Y-79500000D01*
X158660000Y-79500000D02*
X153186000Y-74026000D01*
X153186000Y-74026000D02*
X142900000Y-74026000D01*
%TO.N,Net-(J1-Pin_15)*%
X157500000Y-76500000D02*
X159500000Y-78500000D01*
X214500000Y-78500000D02*
X159500000Y-78500000D01*
X142663000Y-72208000D02*
X150083500Y-64787500D01*
X150083500Y-64787500D02*
X153560000Y-64787500D01*
%TO.N,Net-(J1-Pin_16)*%
X158413972Y-58500000D02*
X158500000Y-58500000D01*
X153954031Y-54040059D02*
X158413972Y-58500000D01*
X214500000Y-77500000D02*
X159500000Y-77500000D01*
X158500000Y-58500000D02*
X158500000Y-76500000D01*
X158500000Y-76500000D02*
X159500000Y-77500000D01*
X142900000Y-68946000D02*
X145500000Y-66346000D01*
X145500000Y-55500000D02*
X146959941Y-54040059D01*
X146959941Y-54040059D02*
X147040059Y-54040059D01*
X145500000Y-66346000D02*
X145500000Y-55500000D01*
X147040059Y-54040059D02*
X153954031Y-54040059D01*
%TO.N,Net-(J1-Pin_17)*%
X214500000Y-76500000D02*
X159500000Y-76500000D01*
X159000000Y-46500000D02*
X159000000Y-76000000D01*
X153500000Y-45500000D02*
X158000000Y-45500000D01*
X159000000Y-76000000D02*
X159500000Y-76500000D01*
X158000000Y-45500000D02*
X159000000Y-46500000D01*
X142900000Y-66406000D02*
X144500000Y-64806000D01*
X144500000Y-47000000D02*
X146000000Y-45500000D01*
X144500000Y-64806000D02*
X144500000Y-47000000D01*
X146000000Y-45500000D02*
X153500000Y-45500000D01*
%TO.N,/3V3*%
X140589000Y-108510000D02*
X140589000Y-117089000D01*
X140589000Y-117089000D02*
X146212500Y-122712500D01*
X146212500Y-122712500D02*
X153500000Y-122712500D01*
%TO.N,Net-(J1-Pin_8)*%
X214500000Y-85500000D02*
X160000000Y-85500000D01*
X160000000Y-85500000D02*
X156234000Y-89266000D01*
X156234000Y-89266000D02*
X142900000Y-89266000D01*
%TO.N,Net-(J1-Pin_9)*%
X214500000Y-84500000D02*
X160000000Y-84500000D01*
X160000000Y-84500000D02*
X157000000Y-87500000D01*
X143674000Y-87500000D02*
X142900000Y-86726000D01*
X157000000Y-87500000D02*
X143674000Y-87500000D01*
%TO.N,Net-(J1-Pin_7)*%
X142900000Y-91806000D02*
X156794000Y-91806000D01*
X156794000Y-91806000D02*
X156850000Y-91750000D01*
X160000000Y-86500000D02*
X214500000Y-86500000D01*
X156850000Y-91750000D02*
X156850000Y-89650000D01*
X156850000Y-89650000D02*
X160000000Y-86500000D01*
%TO.N,Net-(J1-Pin_6)*%
X142900000Y-94346000D02*
X157001000Y-94346000D01*
X157001000Y-94346000D02*
X157347000Y-94000000D01*
X157347000Y-90153000D02*
X160000000Y-87500000D01*
X160000000Y-87500000D02*
X214500000Y-87500000D01*
X157347000Y-94000000D02*
X157347000Y-90153000D01*
%TO.N,Net-(J1-Pin_5)*%
X142900000Y-96886000D02*
X157562000Y-96886000D01*
X157562000Y-96886000D02*
X157748000Y-96700000D01*
X157748000Y-96700000D02*
X157748000Y-90252000D01*
X157748000Y-90252000D02*
X159500000Y-88500000D01*
X159500000Y-88500000D02*
X214500000Y-88500000D01*
%TO.N,Net-(J1-Pin_4)*%
X158149000Y-99000000D02*
X158149000Y-90351000D01*
X158149000Y-90351000D02*
X159000000Y-89500000D01*
X159000000Y-89500000D02*
X214500000Y-89500000D01*
D15*
%TO.N,/3V3*%
X159424000Y-93076000D02*
X160000000Y-92500000D01*
X159424000Y-106200000D02*
X159424000Y-93076000D01*
X160000000Y-92500000D02*
X214500000Y-92500000D01*
D14*
%TO.N,Net-(J1-Pin_10)*%
X153924000Y-82931000D02*
X156031000Y-82931000D01*
X156031000Y-82931000D02*
X156600000Y-83500000D01*
X156600000Y-83500000D02*
X214500000Y-83500000D01*
%TO.N,Net-(J1-Pin_17)*%
X143673700Y-66406000D02*
X142900000Y-66406000D01*
%TO.N,Net-(J1-Pin_10)*%
X142900000Y-84186000D02*
X144155000Y-82931000D01*
X144155000Y-82931000D02*
X153924000Y-82931000D01*
%TO.N,/3V3*%
X140589000Y-85471000D02*
X153924000Y-85471000D01*
%TO.N,/GND*%
X142900000Y-45100000D02*
X144500000Y-43500000D01*
X160000000Y-75500000D02*
X214500000Y-75500000D01*
X144500000Y-43500000D02*
X157000000Y-43500000D01*
X157000000Y-43500000D02*
X159500000Y-46000000D01*
X159500000Y-46000000D02*
X159500000Y-75000000D01*
X159500000Y-75000000D02*
X160000000Y-75500000D01*
%TD*%
M02*
