G04 #@! TF.GenerationSoftware,KiCad,Pcbnew,9.0.7*
G04 #@! TF.CreationDate,2026-02-26T12:58:45-06:00*
G04 #@! TF.ProjectId,ImpactInsole_v1,496d7061-6374-4496-9e73-6f6c655f7631,rev?*
G04 #@! TF.SameCoordinates,Original*
G04 #@! TF.FileFunction,Copper,L1,Top*
G04 #@! TF.FilePolarity,Positive*
%FSLAX46Y46*%
G04 Gerber Fmt 4.6, Leading zero omitted, Abs format (unit mm)*
G04 Created by KiCad (PCBNEW 9.0.7) date 2026-02-26 12:58:45*
%MOMM*%
%LPD*%
G01*
G04 APERTURE LIST*
G04 Aperture macros list*
%AMRoundRect*
0 Rectangle with rounded corners*
0 $1 Rounding radius*
0 $2 $3 $4 $5 $6 $7 $8 $9 X,Y pos of 4 corners*
0 Add a 4 corners polygon primitive as box body*
4,1,4,$2,$3,$4,$5,$6,$7,$8,$9,$2,$3,0*
0 Add four circle primitives for the rounded corners*
1,1,$1+$1,$2,$3*
1,1,$1+$1,$4,$5*
1,1,$1+$1,$6,$7*
1,1,$1+$1,$8,$9*
0 Add four rect primitives between the rounded corners*
20,1,$1+$1,$2,$3,$4,$5,0*
20,1,$1+$1,$4,$5,$6,$7,0*
20,1,$1+$1,$6,$7,$8,$9,0*
20,1,$1+$1,$8,$9,$2,$3,0*%
G04 Aperture macros list end*
G04 #@! TA.AperFunction,SMDPad,CuDef*
%ADD10R,1.500000X0.900000*%
G04 #@! TD*
G04 #@! TA.AperFunction,SMDPad,CuDef*
%ADD11R,0.900000X1.500000*%
G04 #@! TD*
G04 #@! TA.AperFunction,HeatsinkPad*
%ADD12C,0.600000*%
G04 #@! TD*
G04 #@! TA.AperFunction,HeatsinkPad*
%ADD13R,3.900000X3.900000*%
G04 #@! TD*
G04 #@! TA.AperFunction,ComponentPad*
%ADD14R,1.000000X1.000000*%
G04 #@! TD*
G04 #@! TA.AperFunction,SMDPad,CuDef*
%ADD15RoundRect,0.237500X-0.250000X-0.237500X0.250000X-0.237500X0.250000X0.237500X-0.250000X0.237500X0*%
G04 #@! TD*
G04 #@! TA.AperFunction,SMDPad,CuDef*
%ADD16RoundRect,0.072500X-0.532500X-0.217500X0.532500X-0.217500X0.532500X0.217500X-0.532500X0.217500X0*%
G04 #@! TD*
G04 #@! TA.AperFunction,ComponentPad*
%ADD17R,1.308000X1.308000*%
G04 #@! TD*
G04 #@! TA.AperFunction,ComponentPad*
%ADD18C,1.308000*%
G04 #@! TD*
G04 #@! TA.AperFunction,SMDPad,CuDef*
%ADD19RoundRect,0.237500X0.300000X0.237500X-0.300000X0.237500X-0.300000X-0.237500X0.300000X-0.237500X0*%
G04 #@! TD*
G04 #@! TA.AperFunction,SMDPad,CuDef*
%ADD20RoundRect,0.150000X-0.587500X-0.150000X0.587500X-0.150000X0.587500X0.150000X-0.587500X0.150000X0*%
G04 #@! TD*
G04 #@! TA.AperFunction,SMDPad,CuDef*
%ADD21R,0.610000X0.350000*%
G04 #@! TD*
G04 #@! TA.AperFunction,SMDPad,CuDef*
%ADD22R,0.350000X0.610000*%
G04 #@! TD*
G04 #@! TA.AperFunction,SMDPad,CuDef*
%ADD23R,0.700000X0.300000*%
G04 #@! TD*
G04 #@! TA.AperFunction,SMDPad,CuDef*
%ADD24R,1.000000X0.300000*%
G04 #@! TD*
G04 #@! TA.AperFunction,ComponentPad*
%ADD25R,1.700000X1.700000*%
G04 #@! TD*
G04 #@! TA.AperFunction,ComponentPad*
%ADD26C,1.700000*%
G04 #@! TD*
G04 #@! TA.AperFunction,SMDPad,CuDef*
%ADD27RoundRect,0.032500X0.397500X0.097500X-0.397500X0.097500X-0.397500X-0.097500X0.397500X-0.097500X0*%
G04 #@! TD*
G04 #@! TA.AperFunction,SMDPad,CuDef*
%ADD28RoundRect,0.032500X0.097500X0.397500X-0.097500X0.397500X-0.097500X-0.397500X0.097500X-0.397500X0*%
G04 #@! TD*
G04 #@! TA.AperFunction,SMDPad,CuDef*
%ADD29R,1.680000X1.680000*%
G04 #@! TD*
G04 #@! TA.AperFunction,ComponentPad*
%ADD30C,0.400000*%
G04 #@! TD*
G04 #@! TA.AperFunction,SMDPad,CuDef*
%ADD31RoundRect,0.237500X0.250000X0.237500X-0.250000X0.237500X-0.250000X-0.237500X0.250000X-0.237500X0*%
G04 #@! TD*
G04 #@! TA.AperFunction,SMDPad,CuDef*
%ADD32RoundRect,0.060000X-0.890000X-0.180000X0.890000X-0.180000X0.890000X0.180000X-0.890000X0.180000X0*%
G04 #@! TD*
G04 #@! TA.AperFunction,SMDPad,CuDef*
%ADD33RoundRect,0.250001X-0.624999X0.462499X-0.624999X-0.462499X0.624999X-0.462499X0.624999X0.462499X0*%
G04 #@! TD*
G04 #@! TA.AperFunction,SMDPad,CuDef*
%ADD34RoundRect,0.237500X-0.237500X0.250000X-0.237500X-0.250000X0.237500X-0.250000X0.237500X0.250000X0*%
G04 #@! TD*
G04 #@! TA.AperFunction,SMDPad,CuDef*
%ADD35R,0.600000X1.240000*%
G04 #@! TD*
G04 #@! TA.AperFunction,SMDPad,CuDef*
%ADD36R,0.300000X1.240000*%
G04 #@! TD*
G04 #@! TA.AperFunction,HeatsinkPad*
%ADD37O,1.000000X2.100000*%
G04 #@! TD*
G04 #@! TA.AperFunction,HeatsinkPad*
%ADD38O,1.000000X1.800000*%
G04 #@! TD*
G04 #@! TA.AperFunction,SMDPad,CuDef*
%ADD39RoundRect,0.250000X-0.450000X0.325000X-0.450000X-0.325000X0.450000X-0.325000X0.450000X0.325000X0*%
G04 #@! TD*
G04 #@! TA.AperFunction,ComponentPad*
%ADD40C,2.000000*%
G04 #@! TD*
G04 #@! TA.AperFunction,SMDPad,CuDef*
%ADD41RoundRect,0.237500X-0.237500X0.300000X-0.237500X-0.300000X0.237500X-0.300000X0.237500X0.300000X0*%
G04 #@! TD*
G04 #@! TA.AperFunction,SMDPad,CuDef*
%ADD42RoundRect,0.237500X0.237500X-0.300000X0.237500X0.300000X-0.237500X0.300000X-0.237500X-0.300000X0*%
G04 #@! TD*
G04 #@! TA.AperFunction,SMDPad,CuDef*
%ADD43RoundRect,0.150000X-0.825000X-0.150000X0.825000X-0.150000X0.825000X0.150000X-0.825000X0.150000X0*%
G04 #@! TD*
G04 #@! TA.AperFunction,ViaPad*
%ADD44C,0.600000*%
G04 #@! TD*
G04 #@! TA.AperFunction,Conductor*
%ADD45C,0.200000*%
G04 #@! TD*
G04 #@! TA.AperFunction,Conductor*
%ADD46C,0.400000*%
G04 #@! TD*
G04 APERTURE END LIST*
D10*
G04 #@! TO.P,U6,1,GND*
G04 #@! TO.N,GND*
X89320000Y-67490000D03*
G04 #@! TO.P,U6,2,3V3*
G04 #@! TO.N,+3V3*
X89320000Y-68760000D03*
G04 #@! TO.P,U6,3,EN*
G04 #@! TO.N,Net-(U6-EN)*
X89320000Y-70030000D03*
G04 #@! TO.P,U6,4,IO4*
G04 #@! TO.N,/MCU/S0*
X89320000Y-71300000D03*
G04 #@! TO.P,U6,5,IO5*
G04 #@! TO.N,/MCU/S1*
X89320000Y-72570000D03*
G04 #@! TO.P,U6,6,IO6*
G04 #@! TO.N,/MCU/S2*
X89320000Y-73840000D03*
G04 #@! TO.P,U6,7,IO7*
G04 #@! TO.N,/MCU/IMU_INT*
X89320000Y-75110000D03*
G04 #@! TO.P,U6,8,IO15*
G04 #@! TO.N,/MCU/S3*
X89320000Y-76380000D03*
G04 #@! TO.P,U6,9,IO16*
G04 #@! TO.N,unconnected-(U6-IO16-Pad9)*
X89320000Y-77650000D03*
G04 #@! TO.P,U6,10,IO17*
G04 #@! TO.N,unconnected-(U6-IO17-Pad10)*
X89320000Y-78920000D03*
G04 #@! TO.P,U6,11,IO18*
G04 #@! TO.N,unconnected-(U6-IO18-Pad11)*
X89320000Y-80190000D03*
G04 #@! TO.P,U6,12,IO8*
G04 #@! TO.N,/MCU/IMU_Data*
X89320000Y-81460000D03*
G04 #@! TO.P,U6,13,USB_D-*
G04 #@! TO.N,/MCU/USB_D_N*
X89320000Y-82730000D03*
G04 #@! TO.P,U6,14,USB_D+*
G04 #@! TO.N,/MCU/USB_D_P*
X89320000Y-84000000D03*
D11*
G04 #@! TO.P,U6,15,IO3*
G04 #@! TO.N,unconnected-(U6-IO3-Pad15)*
X91085000Y-85250000D03*
G04 #@! TO.P,U6,16,IO46*
G04 #@! TO.N,unconnected-(U6-IO46-Pad16)*
X92355000Y-85250000D03*
G04 #@! TO.P,U6,17,IO9*
G04 #@! TO.N,/MCU/IMU_Clk*
X93625000Y-85250000D03*
G04 #@! TO.P,U6,18,IO10*
G04 #@! TO.N,/MCU/ADC_CS*
X94895000Y-85250000D03*
G04 #@! TO.P,U6,19,IO11*
G04 #@! TO.N,unconnected-(U6-IO11-Pad19)*
X96165000Y-85250000D03*
G04 #@! TO.P,U6,20,IO12*
G04 #@! TO.N,/MCU/ADC_CLK*
X97435000Y-85250000D03*
G04 #@! TO.P,U6,21,IO13*
G04 #@! TO.N,/MCU/ADC_SDATA*
X98705000Y-85250000D03*
G04 #@! TO.P,U6,22,IO14*
G04 #@! TO.N,unconnected-(U6-IO14-Pad22)*
X99975000Y-85250000D03*
G04 #@! TO.P,U6,23,IO21*
G04 #@! TO.N,unconnected-(U6-IO21-Pad23)*
X101245000Y-85250000D03*
G04 #@! TO.P,U6,24,IO47*
G04 #@! TO.N,unconnected-(U6-IO47-Pad24)*
X102515000Y-85250000D03*
G04 #@! TO.P,U6,25,IO48*
G04 #@! TO.N,unconnected-(U6-IO48-Pad25)*
X103785000Y-85250000D03*
G04 #@! TO.P,U6,26,IO45*
G04 #@! TO.N,unconnected-(U6-IO45-Pad26)*
X105055000Y-85250000D03*
D10*
G04 #@! TO.P,U6,27,IO0*
G04 #@! TO.N,unconnected-(U6-IO0-Pad27)*
X106820000Y-84000000D03*
G04 #@! TO.P,U6,28,IO35*
G04 #@! TO.N,unconnected-(U6-IO35-Pad28)*
X106820000Y-82730000D03*
G04 #@! TO.P,U6,29,IO36*
G04 #@! TO.N,unconnected-(U6-IO36-Pad29)*
X106820000Y-81460000D03*
G04 #@! TO.P,U6,30,IO37*
G04 #@! TO.N,unconnected-(U6-IO37-Pad30)*
X106820000Y-80190000D03*
G04 #@! TO.P,U6,31,IO38*
G04 #@! TO.N,unconnected-(U6-IO38-Pad31)*
X106820000Y-78920000D03*
G04 #@! TO.P,U6,32,IO39*
G04 #@! TO.N,unconnected-(U6-IO39-Pad32)*
X106820000Y-77650000D03*
G04 #@! TO.P,U6,33,IO40*
G04 #@! TO.N,unconnected-(U6-IO40-Pad33)*
X106820000Y-76380000D03*
G04 #@! TO.P,U6,34,IO41*
G04 #@! TO.N,unconnected-(U6-IO41-Pad34)*
X106820000Y-75110000D03*
G04 #@! TO.P,U6,35,IO42*
G04 #@! TO.N,unconnected-(U6-IO42-Pad35)*
X106820000Y-73840000D03*
G04 #@! TO.P,U6,36,RXD0*
G04 #@! TO.N,/MCU/Rx_D*
X106820000Y-72570000D03*
G04 #@! TO.P,U6,37,TXD0*
G04 #@! TO.N,/MCU/Tx_D*
X106820000Y-71300000D03*
G04 #@! TO.P,U6,38,IO2*
G04 #@! TO.N,unconnected-(U6-IO2-Pad38)*
X106820000Y-70030000D03*
G04 #@! TO.P,U6,39,IO1*
G04 #@! TO.N,unconnected-(U6-IO1-Pad39)*
X106820000Y-68760000D03*
G04 #@! TO.P,U6,40,GND*
G04 #@! TO.N,GND*
X106820000Y-67490000D03*
D12*
G04 #@! TO.P,U6,41,GND*
X95170000Y-74510000D03*
X95170000Y-75910000D03*
X95870000Y-73810000D03*
X95870000Y-75210000D03*
X95870000Y-76610000D03*
X96570000Y-74510000D03*
D13*
X96570000Y-75210000D03*
D12*
X96570000Y-75910000D03*
X97270000Y-73810000D03*
X97270000Y-75210000D03*
X97270000Y-76610000D03*
X97970000Y-74510000D03*
X97970000Y-75910000D03*
G04 #@! TD*
D14*
G04 #@! TO.P,+5V,1,1*
G04 #@! TO.N,/MCU/VDD5V*
X108250000Y-104090000D03*
G04 #@! TD*
G04 #@! TO.P,GND,1,1*
G04 #@! TO.N,GND*
X105445000Y-104090000D03*
G04 #@! TD*
D15*
G04 #@! TO.P,R12,1*
G04 #@! TO.N,Net-(D2-K)*
X123180000Y-82200000D03*
G04 #@! TO.P,R12,2*
G04 #@! TO.N,/MCU/VDD5V*
X125005000Y-82200000D03*
G04 #@! TD*
D16*
G04 #@! TO.P,U2,1,VA*
G04 #@! TO.N,+3V3*
X101645000Y-92550000D03*
G04 #@! TO.P,U2,2,GND*
G04 #@! TO.N,GND*
X101645000Y-93500000D03*
G04 #@! TO.P,U2,3,VIN*
G04 #@! TO.N,Net-(U2-VIN)*
X101645000Y-94450000D03*
G04 #@! TO.P,U2,4,SCLK*
G04 #@! TO.N,/MCU/ADC_CS*
X104155000Y-94450000D03*
G04 #@! TO.P,U2,5,SDATA*
G04 #@! TO.N,/MCU/ADC_SDATA*
X104155000Y-93500000D03*
G04 #@! TO.P,U2,6,~{CS}*
G04 #@! TO.N,/MCU/ADC_CLK*
X104155000Y-92550000D03*
G04 #@! TD*
D17*
G04 #@! TO.P,J2,1,Pin_1*
G04 #@! TO.N,Net-(J2-Pin_1)*
X123880000Y-99127500D03*
D18*
G04 #@! TO.P,J2,2,Pin_2*
G04 #@! TO.N,GND*
X125880000Y-99127500D03*
G04 #@! TD*
D15*
G04 #@! TO.P,R10,1*
G04 #@! TO.N,/MCU/VDD5V*
X118867500Y-83460000D03*
G04 #@! TO.P,R10,2*
G04 #@! TO.N,Net-(D1-K)*
X120692500Y-83460000D03*
G04 #@! TD*
G04 #@! TO.P,R6,1*
G04 #@! TO.N,Net-(U3A--)*
X94845000Y-96450000D03*
G04 #@! TO.P,R6,2*
G04 #@! TO.N,Net-(U2-VIN)*
X96670000Y-96450000D03*
G04 #@! TD*
D19*
G04 #@! TO.P,C9,1*
G04 #@! TO.N,Net-(U5-OUT_10)*
X118182500Y-88042500D03*
G04 #@! TO.P,C9,2*
G04 #@! TO.N,GND*
X116457500Y-88042500D03*
G04 #@! TD*
D20*
G04 #@! TO.P,U7,1,GND*
G04 #@! TO.N,GND*
X116502500Y-90160000D03*
G04 #@! TO.P,U7,2,VO*
G04 #@! TO.N,+3V3*
X116502500Y-92060000D03*
G04 #@! TO.P,U7,3,VI*
G04 #@! TO.N,Net-(U5-OUT_10)*
X118377500Y-91110000D03*
G04 #@! TD*
D21*
G04 #@! TO.P,U4,1,SDO/SA0*
G04 #@! TO.N,unconnected-(U4-SDO{slash}SA0-Pad1)*
X80580000Y-87207500D03*
G04 #@! TO.P,U4,2,SDX*
G04 #@! TO.N,unconnected-(U4-SDX-Pad2)*
X80580000Y-87707500D03*
G04 #@! TO.P,U4,3,SCX*
G04 #@! TO.N,unconnected-(U4-SCX-Pad3)*
X80580000Y-88207500D03*
G04 #@! TO.P,U4,4,INT1*
G04 #@! TO.N,/MCU/IMU_INT*
X80580000Y-88707500D03*
D22*
G04 #@! TO.P,U4,5,VDDIO*
G04 #@! TO.N,+3V3*
X81240000Y-88867500D03*
G04 #@! TO.P,U4,6,GND*
G04 #@! TO.N,GND*
X81740000Y-88867500D03*
G04 #@! TO.P,U4,7,GND*
X82240000Y-88867500D03*
D21*
G04 #@! TO.P,U4,8,VDD*
G04 #@! TO.N,+3V3*
X82900000Y-88707500D03*
G04 #@! TO.P,U4,9,INT2*
G04 #@! TO.N,unconnected-(U4-INT2-Pad9)*
X82900000Y-88207500D03*
G04 #@! TO.P,U4,10,OCS_AUX*
G04 #@! TO.N,unconnected-(U4-OCS_AUX-Pad10)*
X82900000Y-87707500D03*
G04 #@! TO.P,U4,11,SDO_AUX*
G04 #@! TO.N,unconnected-(U4-SDO_AUX-Pad11)*
X82900000Y-87207500D03*
D22*
G04 #@! TO.P,U4,12,CS*
G04 #@! TO.N,+3V3*
X82240000Y-87047500D03*
G04 #@! TO.P,U4,13,SCL*
G04 #@! TO.N,/MCU/IMU_Clk*
X81740000Y-87047500D03*
G04 #@! TO.P,U4,14,SDA*
G04 #@! TO.N,/MCU/IMU_Data*
X81240000Y-87047500D03*
G04 #@! TD*
D14*
G04 #@! TO.P,+3v3,1,1*
G04 #@! TO.N,+3V3*
X102640000Y-104090000D03*
G04 #@! TD*
D23*
G04 #@! TO.P,J1,1,1*
G04 #@! TO.N,GND*
X78090000Y-102220000D03*
G04 #@! TO.P,J1,2,2*
G04 #@! TO.N,/Sensor/sense16*
X78090000Y-101720000D03*
G04 #@! TO.P,J1,3,3*
G04 #@! TO.N,/Sensor/sense15*
X78090000Y-101220000D03*
G04 #@! TO.P,J1,4,4*
G04 #@! TO.N,/Sensor/sense14*
X78090000Y-100720000D03*
G04 #@! TO.P,J1,5,5*
G04 #@! TO.N,/Sensor/sense13*
X78090000Y-100220000D03*
G04 #@! TO.P,J1,6,6*
G04 #@! TO.N,/Sensor/sense12*
X78090000Y-99720000D03*
G04 #@! TO.P,J1,7,7*
G04 #@! TO.N,/Sensor/sense11*
X78090000Y-99220000D03*
G04 #@! TO.P,J1,8,8*
G04 #@! TO.N,/Sensor/sense10*
X78090000Y-98720000D03*
G04 #@! TO.P,J1,9,9*
G04 #@! TO.N,/Sensor/sense9*
X78090000Y-98220000D03*
G04 #@! TO.P,J1,10,10*
G04 #@! TO.N,/Sensor/sense8*
X78090000Y-97720000D03*
G04 #@! TO.P,J1,11,11*
G04 #@! TO.N,/Sensor/sense7*
X78090000Y-97220000D03*
G04 #@! TO.P,J1,12,12*
G04 #@! TO.N,/Sensor/sense6*
X78090000Y-96720000D03*
G04 #@! TO.P,J1,13,13*
G04 #@! TO.N,/Sensor/sense5*
X78090000Y-96220000D03*
G04 #@! TO.P,J1,14,14*
G04 #@! TO.N,/Sensor/sense4*
X78090000Y-95720000D03*
G04 #@! TO.P,J1,15,15*
G04 #@! TO.N,/Sensor/sense3*
X78090000Y-95220000D03*
G04 #@! TO.P,J1,16,16*
G04 #@! TO.N,/Sensor/sense2*
X78090000Y-94720000D03*
G04 #@! TO.P,J1,17,17*
G04 #@! TO.N,/Sensor/sense1*
X78090000Y-94220000D03*
G04 #@! TO.P,J1,18,18*
G04 #@! TO.N,+3V3*
X78090000Y-93720000D03*
D24*
G04 #@! TO.P,J1,SH1*
G04 #@! TO.N,N/C*
X80740000Y-103010000D03*
G04 #@! TO.P,J1,SH2*
X80740000Y-92930000D03*
G04 #@! TD*
D25*
G04 #@! TO.P,J4,1,Pin_1*
G04 #@! TO.N,GND*
X124740000Y-69020000D03*
D26*
G04 #@! TO.P,J4,2,Pin_2*
G04 #@! TO.N,/MCU/Rx_D*
X124740000Y-71560000D03*
G04 #@! TO.P,J4,3,Pin_3*
G04 #@! TO.N,/MCU/Tx_D*
X124740000Y-74100000D03*
G04 #@! TO.P,J4,4,Pin_4*
G04 #@! TO.N,+3V3*
X124740000Y-76640000D03*
G04 #@! TD*
D27*
G04 #@! TO.P,U5,1,TS*
G04 #@! TO.N,Net-(U5-TS)*
X124085000Y-92960000D03*
G04 #@! TO.P,U5,2,BAT_2*
G04 #@! TO.N,Net-(J2-Pin_1)*
X124085000Y-92460000D03*
G04 #@! TO.P,U5,3,BAT_3*
X124085000Y-91960000D03*
G04 #@! TO.P,U5,4,~{CE}*
G04 #@! TO.N,GND*
X124085000Y-91460000D03*
D28*
G04 #@! TO.P,U5,5,EN2*
X123400000Y-90775000D03*
G04 #@! TO.P,U5,6,EN1*
G04 #@! TO.N,+3V3*
X122900000Y-90775000D03*
G04 #@! TO.P,U5,7,~{PGOOD}*
G04 #@! TO.N,Net-(D2-A)*
X122400000Y-90775000D03*
G04 #@! TO.P,U5,8,VSS*
G04 #@! TO.N,GND*
X121900000Y-90775000D03*
D27*
G04 #@! TO.P,U5,9,~{CHG}*
G04 #@! TO.N,Net-(D1-A)*
X121215000Y-91460000D03*
G04 #@! TO.P,U5,10,OUT_10*
G04 #@! TO.N,Net-(U5-OUT_10)*
X121215000Y-91960000D03*
G04 #@! TO.P,U5,11,OUT_11*
X121215000Y-92460000D03*
G04 #@! TO.P,U5,12,ILIM*
G04 #@! TO.N,Net-(U5-ILIM)*
X121215000Y-92960000D03*
D28*
G04 #@! TO.P,U5,13,IN*
G04 #@! TO.N,/MCU/VDD5V*
X121900000Y-93645000D03*
G04 #@! TO.P,U5,14,TMR*
G04 #@! TO.N,unconnected-(U5-TMR-Pad14)*
X122400000Y-93645000D03*
G04 #@! TO.P,U5,15,SYSOFF*
G04 #@! TO.N,GND*
X122900000Y-93645000D03*
G04 #@! TO.P,U5,16,ISET*
G04 #@! TO.N,Net-(U5-ISET)*
X123400000Y-93645000D03*
D29*
G04 #@! TO.P,U5,17,EXP*
G04 #@! TO.N,GND*
X122650000Y-92210000D03*
D30*
G04 #@! TO.P,U5,18*
G04 #@! TO.N,N/C*
X122650000Y-92210000D03*
G04 #@! TO.P,U5,19*
X123230000Y-92790000D03*
G04 #@! TO.P,U5,20*
X122070000Y-92790000D03*
G04 #@! TO.P,U5,21*
X123230000Y-91630000D03*
G04 #@! TO.P,U5,22*
X122070000Y-91630000D03*
G04 #@! TD*
D31*
G04 #@! TO.P,R9,1*
G04 #@! TO.N,GND*
X126102500Y-95770000D03*
G04 #@! TO.P,R9,2*
G04 #@! TO.N,Net-(U5-ISET)*
X124277500Y-95770000D03*
G04 #@! TD*
D32*
G04 #@! TO.P,U1,1,COMMON_I/O*
G04 #@! TO.N,/Sensor/Mux_Out*
X83430000Y-93610000D03*
G04 #@! TO.P,U1,2,I7*
G04 #@! TO.N,/Sensor/sense1*
X83430000Y-94260000D03*
G04 #@! TO.P,U1,3,I6*
G04 #@! TO.N,/Sensor/sense2*
X83430000Y-94910000D03*
G04 #@! TO.P,U1,4,I5*
G04 #@! TO.N,/Sensor/sense3*
X83430000Y-95560000D03*
G04 #@! TO.P,U1,5,I4*
G04 #@! TO.N,/Sensor/sense4*
X83430000Y-96210000D03*
G04 #@! TO.P,U1,6,I3*
G04 #@! TO.N,/Sensor/sense5*
X83430000Y-96860000D03*
G04 #@! TO.P,U1,7,I2*
G04 #@! TO.N,/Sensor/sense6*
X83430000Y-97510000D03*
G04 #@! TO.P,U1,8,I1*
G04 #@! TO.N,/Sensor/sense7*
X83430000Y-98160000D03*
G04 #@! TO.P,U1,9,I0*
G04 #@! TO.N,/Sensor/sense8*
X83430000Y-98810000D03*
G04 #@! TO.P,U1,10,S0*
G04 #@! TO.N,/MCU/S2*
X83430000Y-99460000D03*
G04 #@! TO.P,U1,11,S1*
G04 #@! TO.N,/MCU/S1*
X83430000Y-100110000D03*
G04 #@! TO.P,U1,12,GND*
G04 #@! TO.N,GND*
X83430000Y-100760000D03*
G04 #@! TO.P,U1,13,S3*
G04 #@! TO.N,/MCU/S3*
X90440000Y-100760000D03*
G04 #@! TO.P,U1,14,S2*
G04 #@! TO.N,/MCU/S0*
X90440000Y-100110000D03*
G04 #@! TO.P,U1,15,~{E}*
G04 #@! TO.N,GND*
X90440000Y-99460000D03*
G04 #@! TO.P,U1,16,I15*
G04 #@! TO.N,/Sensor/sense16*
X90440000Y-98810000D03*
G04 #@! TO.P,U1,17,I14*
G04 #@! TO.N,/Sensor/sense15*
X90440000Y-98160000D03*
G04 #@! TO.P,U1,18,I13*
G04 #@! TO.N,/Sensor/sense14*
X90440000Y-97510000D03*
G04 #@! TO.P,U1,19,I12*
G04 #@! TO.N,/Sensor/sense13*
X90440000Y-96860000D03*
G04 #@! TO.P,U1,20,I11*
G04 #@! TO.N,/Sensor/sense12*
X90440000Y-96210000D03*
G04 #@! TO.P,U1,21,I10*
G04 #@! TO.N,/Sensor/sense11*
X90440000Y-95560000D03*
G04 #@! TO.P,U1,22,I9*
G04 #@! TO.N,/Sensor/sense10*
X90440000Y-94910000D03*
G04 #@! TO.P,U1,23,I8*
G04 #@! TO.N,/Sensor/sense9*
X90440000Y-94260000D03*
G04 #@! TO.P,U1,24,VCC*
G04 #@! TO.N,+3V3*
X90440000Y-93610000D03*
G04 #@! TD*
D33*
G04 #@! TO.P,D2,1,K*
G04 #@! TO.N,Net-(D2-K)*
X124140000Y-85422500D03*
G04 #@! TO.P,D2,2,A*
G04 #@! TO.N,Net-(D2-A)*
X124140000Y-88397500D03*
G04 #@! TD*
D34*
G04 #@! TO.P,R1,1*
G04 #@! TO.N,+3V3*
X79980000Y-82697500D03*
G04 #@! TO.P,R1,2*
G04 #@! TO.N,/MCU/IMU_Data*
X79980000Y-84522500D03*
G04 #@! TD*
D19*
G04 #@! TO.P,C5,1*
G04 #@! TO.N,Net-(U2-VIN)*
X96532500Y-94920000D03*
G04 #@! TO.P,C5,2*
G04 #@! TO.N,GND*
X94807500Y-94920000D03*
G04 #@! TD*
D35*
G04 #@! TO.P,J3,A1,GND*
G04 #@! TO.N,GND*
X111980000Y-97730000D03*
G04 #@! TO.P,J3,A4,VBUS*
G04 #@! TO.N,/MCU/VDD5V*
X112780000Y-97730000D03*
D36*
G04 #@! TO.P,J3,A5,CC1*
G04 #@! TO.N,Net-(J3-CC1)*
X113930000Y-97730000D03*
G04 #@! TO.P,J3,A6,D+*
G04 #@! TO.N,/MCU/USB_D_P*
X114930000Y-97730000D03*
G04 #@! TO.P,J3,A7,D-*
G04 #@! TO.N,/MCU/USB_D_N*
X115430000Y-97730000D03*
G04 #@! TO.P,J3,A8,SBU1*
G04 #@! TO.N,unconnected-(J3-SBU1-PadA8)*
X116430000Y-97730000D03*
D35*
G04 #@! TO.P,J3,A9,VBUS*
G04 #@! TO.N,/MCU/VDD5V*
X117580000Y-97730000D03*
G04 #@! TO.P,J3,A12,GND*
G04 #@! TO.N,GND*
X118380000Y-97730000D03*
G04 #@! TO.P,J3,B1,GND*
X118380000Y-97730000D03*
G04 #@! TO.P,J3,B4,VBUS*
G04 #@! TO.N,/MCU/VDD5V*
X117580000Y-97730000D03*
D36*
G04 #@! TO.P,J3,B5,CC2*
G04 #@! TO.N,Net-(J3-CC2)*
X116930000Y-97730000D03*
G04 #@! TO.P,J3,B6,D+*
G04 #@! TO.N,/MCU/USB_D_P*
X115930000Y-97730000D03*
G04 #@! TO.P,J3,B7,D-*
G04 #@! TO.N,/MCU/USB_D_N*
X114430000Y-97730000D03*
G04 #@! TO.P,J3,B8,SBU2*
G04 #@! TO.N,unconnected-(J3-SBU2-PadB8)*
X113430000Y-97730000D03*
D35*
G04 #@! TO.P,J3,B9,VBUS*
G04 #@! TO.N,/MCU/VDD5V*
X112780000Y-97730000D03*
G04 #@! TO.P,J3,B12,GND*
G04 #@! TO.N,GND*
X111980000Y-97730000D03*
D37*
G04 #@! TO.P,J3,S1,SHIELD*
G04 #@! TO.N,unconnected-(J3-SHIELD-PadS1)*
X110860000Y-98330000D03*
D38*
G04 #@! TO.N,unconnected-(J3-SHIELD-PadS1)_3*
X110860000Y-102530000D03*
D37*
G04 #@! TO.N,unconnected-(J3-SHIELD-PadS1)_2*
X119500000Y-98330000D03*
D38*
G04 #@! TO.N,unconnected-(J3-SHIELD-PadS1)_1*
X119500000Y-102530000D03*
G04 #@! TD*
D39*
G04 #@! TO.P,D1,1,K*
G04 #@! TO.N,Net-(D1-K)*
X120780000Y-86185000D03*
G04 #@! TO.P,D1,2,A*
G04 #@! TO.N,Net-(D1-A)*
X120780000Y-88235000D03*
G04 #@! TD*
D40*
G04 #@! TO.P,SW1,1,1*
G04 #@! TO.N,GND*
X78680000Y-68690000D03*
X85180000Y-68690000D03*
G04 #@! TO.P,SW1,2,2*
G04 #@! TO.N,Net-(U6-EN)*
X78680000Y-73190000D03*
X85180000Y-73190000D03*
G04 #@! TD*
D31*
G04 #@! TO.P,R11,1*
G04 #@! TO.N,+3V3*
X80582500Y-77280000D03*
G04 #@! TO.P,R11,2*
G04 #@! TO.N,Net-(U6-EN)*
X78757500Y-77280000D03*
G04 #@! TD*
D41*
G04 #@! TO.P,C4,1*
G04 #@! TO.N,+3V3*
X103600000Y-98385000D03*
G04 #@! TO.P,C4,2*
G04 #@! TO.N,GND*
X103600000Y-100110000D03*
G04 #@! TD*
D15*
G04 #@! TO.P,R8,1*
G04 #@! TO.N,GND*
X118907500Y-95620000D03*
G04 #@! TO.P,R8,2*
G04 #@! TO.N,Net-(U5-ILIM)*
X120732500Y-95620000D03*
G04 #@! TD*
D42*
G04 #@! TO.P,C10,1*
G04 #@! TO.N,+3V3*
X113840000Y-91732500D03*
G04 #@! TO.P,C10,2*
G04 #@! TO.N,GND*
X113840000Y-90007500D03*
G04 #@! TD*
D34*
G04 #@! TO.P,R2,1*
G04 #@! TO.N,+3V3*
X81702500Y-83562500D03*
G04 #@! TO.P,R2,2*
G04 #@! TO.N,/MCU/IMU_Clk*
X81702500Y-85387500D03*
G04 #@! TD*
D43*
G04 #@! TO.P,U3,1*
G04 #@! TO.N,Net-(U3A--)*
X95115000Y-98255000D03*
G04 #@! TO.P,U3,2,-*
X95115000Y-99525000D03*
G04 #@! TO.P,U3,3,+*
G04 #@! TO.N,/Sensor/Mux_Out*
X95115000Y-100795000D03*
G04 #@! TO.P,U3,4,V-*
G04 #@! TO.N,GND*
X95115000Y-102065000D03*
G04 #@! TO.P,U3,5*
G04 #@! TO.N,N/C*
X100065000Y-102065000D03*
G04 #@! TO.P,U3,6*
X100065000Y-100795000D03*
G04 #@! TO.P,U3,7*
X100065000Y-99525000D03*
G04 #@! TO.P,U3,8,V+*
G04 #@! TO.N,+3V3*
X100065000Y-98255000D03*
G04 #@! TD*
D15*
G04 #@! TO.P,R5,1*
G04 #@! TO.N,/Sensor/Mux_Out*
X90550000Y-104300000D03*
G04 #@! TO.P,R5,2*
G04 #@! TO.N,GND*
X92375000Y-104300000D03*
G04 #@! TD*
D44*
G04 #@! TO.N,/MCU/VDD5V*
X121960000Y-95130000D03*
X118750000Y-84890000D03*
G04 #@! TO.N,/Sensor/sense13*
X81860000Y-101590000D03*
X86910000Y-97040000D03*
G04 #@! TO.N,/Sensor/sense11*
X81224423Y-99907820D03*
X87920000Y-95620000D03*
G04 #@! TO.N,/Sensor/sense14*
X80620000Y-102160000D03*
X88017675Y-97535960D03*
G04 #@! TO.N,/Sensor/sense9*
X88050000Y-94230000D03*
X80590000Y-98440000D03*
G04 #@! TO.N,/Sensor/sense10*
X87300000Y-94830000D03*
X80932471Y-99162993D03*
G04 #@! TO.N,/Sensor/sense12*
X87130000Y-96270000D03*
X80946978Y-100658172D03*
G04 #@! TO.N,Net-(J2-Pin_1)*
X125530000Y-92030000D03*
G04 #@! TO.N,/MCU/USB_D_N*
X88009479Y-85740521D03*
X94510000Y-90440000D03*
G04 #@! TO.N,Net-(J3-CC1)*
X113910000Y-99150000D03*
G04 #@! TO.N,/MCU/USB_D_P*
X89260000Y-84940000D03*
X94720000Y-89600000D03*
G04 #@! TO.N,Net-(J3-CC2)*
X116340000Y-99090000D03*
G04 #@! TO.N,/MCU/IMU_Data*
X86620000Y-83850000D03*
X80160000Y-85540000D03*
G04 #@! TO.N,/MCU/IMU_Clk*
X82710000Y-85387500D03*
X89470000Y-88280000D03*
G04 #@! TO.N,/Sensor/Mux_Out*
X90470000Y-102520000D03*
X88330000Y-103030000D03*
X86310000Y-99880000D03*
X93290000Y-100960000D03*
G04 #@! TO.N,Net-(U5-TS)*
X126400000Y-92960000D03*
G04 #@! TO.N,+3V3*
X124000000Y-89930000D03*
X85710000Y-89210000D03*
X84410000Y-89020000D03*
X78310000Y-91790000D03*
X80935000Y-89527500D03*
X87995000Y-69020000D03*
X79490000Y-91210000D03*
G04 #@! TO.N,/MCU/S3*
X87460000Y-76530000D03*
X85590000Y-87800000D03*
X93470000Y-97920000D03*
X85130000Y-83920000D03*
G04 #@! TO.N,/MCU/S2*
X92230000Y-73720000D03*
X86870000Y-91100000D03*
X85350000Y-93380000D03*
X87110000Y-78870000D03*
G04 #@! TO.N,/MCU/S0*
X92300000Y-91400000D03*
X92810000Y-88020000D03*
X93230000Y-83050000D03*
X92680000Y-98760000D03*
G04 #@! TO.N,/MCU/ADC_CLK*
X97490000Y-86760000D03*
X104010000Y-91660000D03*
G04 #@! TO.N,GND*
X94730000Y-93420000D03*
X126110000Y-96910000D03*
X111990000Y-95950000D03*
X83580000Y-102620000D03*
X91340000Y-67520000D03*
X100150000Y-93540000D03*
X92100000Y-99470000D03*
X121520000Y-89640000D03*
X102430000Y-100130000D03*
X95400000Y-103470000D03*
X82660000Y-89527500D03*
X108530000Y-67580000D03*
X117670000Y-95630000D03*
X93820000Y-104280000D03*
X78090000Y-104250000D03*
X122810000Y-95140000D03*
X125140000Y-90700000D03*
X112580000Y-89910000D03*
G04 #@! TO.N,/MCU/ADC_CS*
X95020000Y-87480000D03*
X104200000Y-95490000D03*
G04 #@! TO.N,/MCU/ADC_SDATA*
X105590000Y-93490000D03*
X98720000Y-86990000D03*
G04 #@! TO.N,/MCU/IMU_INT*
X91520000Y-74950000D03*
X78960000Y-88190000D03*
G04 #@! TO.N,/MCU/S1*
X86520000Y-71580000D03*
X81970000Y-103620000D03*
G04 #@! TO.N,/MCU/Rx_D*
X120550000Y-72220000D03*
G04 #@! TD*
D45*
G04 #@! TO.N,Net-(U2-VIN)*
X100340000Y-96470000D02*
X101645000Y-95165000D01*
X96670000Y-95057500D02*
X96532500Y-94920000D01*
X101645000Y-95165000D02*
X101645000Y-94450000D01*
X96670000Y-96450000D02*
X96670000Y-95057500D01*
X96670000Y-96450000D02*
X96690000Y-96470000D01*
X96690000Y-96470000D02*
X100340000Y-96470000D01*
G04 #@! TO.N,/MCU/VDD5V*
X118867500Y-83460000D02*
X118867500Y-82562500D01*
X121960000Y-93705000D02*
X121900000Y-93645000D01*
X112966000Y-97916000D02*
X112780000Y-97730000D01*
X118867500Y-82562500D02*
X120870000Y-80560000D01*
X118750000Y-83577500D02*
X118867500Y-83460000D01*
X121960000Y-95130000D02*
X121960000Y-93705000D01*
X125040000Y-80810000D02*
X125005000Y-80845000D01*
X112966000Y-99816000D02*
X112966000Y-97916000D01*
X117580000Y-97730000D02*
X117394000Y-97916000D01*
X117150000Y-100460000D02*
X113610000Y-100460000D01*
X113610000Y-100460000D02*
X112966000Y-99816000D01*
X120870000Y-80560000D02*
X124790000Y-80560000D01*
X125005000Y-80845000D02*
X125005000Y-82200000D01*
X124790000Y-80560000D02*
X125040000Y-80810000D01*
X118750000Y-84890000D02*
X118750000Y-83577500D01*
X117394000Y-100216000D02*
X117150000Y-100460000D01*
X117394000Y-97916000D02*
X117394000Y-100216000D01*
G04 #@! TO.N,Net-(U5-OUT_10)*
X120060000Y-91960000D02*
X121215000Y-91960000D01*
X118182500Y-88042500D02*
X118182500Y-90915000D01*
X118377500Y-91110000D02*
X119210000Y-91110000D01*
X119210000Y-91110000D02*
X120060000Y-91960000D01*
X118182500Y-90915000D02*
X118377500Y-91110000D01*
X121215000Y-92460000D02*
X121215000Y-91960000D01*
G04 #@! TO.N,/Sensor/sense8*
X78090000Y-97720000D02*
X80880000Y-97720000D01*
X80880000Y-97720000D02*
X81970000Y-98810000D01*
X81970000Y-98810000D02*
X83430000Y-98810000D01*
G04 #@! TO.N,/Sensor/sense16*
X80592900Y-104790000D02*
X86780000Y-104790000D01*
X78090000Y-101720000D02*
X78890000Y-101720000D01*
X87690000Y-98810000D02*
X90440000Y-98810000D01*
X80472900Y-104670000D02*
X80592900Y-104790000D01*
X79210000Y-104180000D02*
X79700000Y-104670000D01*
X79700000Y-104670000D02*
X80472900Y-104670000D01*
X87480000Y-99020000D02*
X87690000Y-98810000D01*
X87480000Y-104090000D02*
X86780000Y-104790000D01*
X87480000Y-104090000D02*
X87480000Y-99020000D01*
X79210000Y-102040000D02*
X79210000Y-104180000D01*
X78890000Y-101720000D02*
X79210000Y-102040000D01*
G04 #@! TO.N,/Sensor/sense5*
X81960000Y-96860000D02*
X83430000Y-96860000D01*
X78090000Y-96220000D02*
X81320000Y-96220000D01*
X81320000Y-96220000D02*
X81960000Y-96860000D01*
G04 #@! TO.N,/Sensor/sense3*
X82100000Y-95560000D02*
X83430000Y-95560000D01*
X81760000Y-95220000D02*
X82100000Y-95560000D01*
X78090000Y-95220000D02*
X81760000Y-95220000D01*
G04 #@! TO.N,/Sensor/sense7*
X82125800Y-98160000D02*
X83430000Y-98160000D01*
X78090000Y-97220000D02*
X81185800Y-97220000D01*
X81185800Y-97220000D02*
X82125800Y-98160000D01*
G04 #@! TO.N,/Sensor/sense13*
X87680000Y-97040000D02*
X87860000Y-96860000D01*
X86910000Y-97040000D02*
X87680000Y-97040000D01*
X81028863Y-101590000D02*
X81860000Y-101590000D01*
X79658863Y-100220000D02*
X81028863Y-101590000D01*
X87860000Y-96860000D02*
X90440000Y-96860000D01*
X78090000Y-100220000D02*
X79658863Y-100220000D01*
G04 #@! TO.N,/Sensor/sense2*
X81990000Y-94720000D02*
X82180000Y-94910000D01*
X78090000Y-94720000D02*
X81990000Y-94720000D01*
X82180000Y-94910000D02*
X83430000Y-94910000D01*
G04 #@! TO.N,/Sensor/sense11*
X78090000Y-99220000D02*
X79952957Y-99220000D01*
X79952957Y-99220000D02*
X80640777Y-99907820D01*
X87920000Y-95620000D02*
X87980000Y-95560000D01*
X80640777Y-99907820D02*
X81224423Y-99907820D01*
X87980000Y-95560000D02*
X90440000Y-95560000D01*
G04 #@! TO.N,/Sensor/sense14*
X88017675Y-97535960D02*
X88043635Y-97510000D01*
X80620000Y-102132900D02*
X79207100Y-100720000D01*
X80620000Y-102160000D02*
X80620000Y-102132900D01*
X88043635Y-97510000D02*
X90440000Y-97510000D01*
X79207100Y-100720000D02*
X78090000Y-100720000D01*
G04 #@! TO.N,/Sensor/sense15*
X80759000Y-104389000D02*
X86471000Y-104389000D01*
X79670000Y-103300000D02*
X80759000Y-104389000D01*
X86471000Y-104389000D02*
X86970000Y-103890000D01*
X78090000Y-101220000D02*
X79140000Y-101220000D01*
X79140000Y-101220000D02*
X79670000Y-101750000D01*
X86970000Y-103890000D02*
X86970000Y-98770000D01*
X86970000Y-98770000D02*
X87580000Y-98160000D01*
X79670000Y-101750000D02*
X79670000Y-103300000D01*
X87580000Y-98160000D02*
X90440000Y-98160000D01*
G04 #@! TO.N,/Sensor/sense4*
X81490000Y-95720000D02*
X81980000Y-96210000D01*
X78090000Y-95720000D02*
X81490000Y-95720000D01*
X81980000Y-96210000D02*
X83430000Y-96210000D01*
G04 #@! TO.N,/Sensor/sense9*
X78090000Y-98220000D02*
X80370000Y-98220000D01*
X88080000Y-94260000D02*
X90440000Y-94260000D01*
X80370000Y-98220000D02*
X80590000Y-98440000D01*
X88050000Y-94230000D02*
X88080000Y-94260000D01*
G04 #@! TO.N,/Sensor/sense6*
X82042900Y-97510000D02*
X81252900Y-96720000D01*
X81252900Y-96720000D02*
X78090000Y-96720000D01*
X83430000Y-97510000D02*
X82042900Y-97510000D01*
G04 #@! TO.N,/Sensor/sense10*
X78090000Y-98720000D02*
X80020057Y-98720000D01*
X80020057Y-98720000D02*
X80463050Y-99162993D01*
X80463050Y-99162993D02*
X80932471Y-99162993D01*
X87380000Y-94910000D02*
X90440000Y-94910000D01*
X87300000Y-94830000D02*
X87380000Y-94910000D01*
G04 #@! TO.N,/Sensor/sense1*
X78090000Y-94220000D02*
X83390000Y-94220000D01*
X83390000Y-94220000D02*
X83430000Y-94260000D01*
G04 #@! TO.N,/Sensor/sense12*
X78090000Y-99720000D02*
X79885857Y-99720000D01*
X79885857Y-99720000D02*
X80824029Y-100658172D01*
X90380000Y-96270000D02*
X90440000Y-96210000D01*
X87130000Y-96270000D02*
X90380000Y-96270000D01*
D46*
G04 #@! TO.N,Net-(J2-Pin_1)*
X124085000Y-91960000D02*
X125460000Y-91960000D01*
D45*
X125460000Y-91960000D02*
X125530000Y-92030000D01*
X124085000Y-91960000D02*
X124085000Y-92460000D01*
G04 #@! TO.N,/MCU/USB_D_N*
X114430000Y-98680000D02*
X114690000Y-98940000D01*
X95293716Y-90600000D02*
X109101802Y-90600000D01*
X115430000Y-98660000D02*
X115430000Y-97730000D01*
X114690000Y-98940000D02*
X115150000Y-98940000D01*
X114455000Y-95953198D02*
X114455000Y-96774999D01*
X114455000Y-96774999D02*
X114430000Y-96799999D01*
X95133716Y-90440000D02*
X95293716Y-90600000D01*
X87300000Y-85031042D02*
X88009479Y-85740521D01*
X109101802Y-90600000D02*
X114455000Y-95953198D01*
X115150000Y-98940000D02*
X115430000Y-98660000D01*
X88370000Y-82730000D02*
X87300000Y-83800000D01*
X94510000Y-90440000D02*
X95133716Y-90440000D01*
X89320000Y-82730000D02*
X88370000Y-82730000D01*
X87300000Y-83800000D02*
X87300000Y-85031042D01*
X114430000Y-97730000D02*
X114430000Y-98680000D01*
X114430000Y-96799999D02*
X114430000Y-97730000D01*
G04 #@! TO.N,Net-(J3-CC1)*
X113930000Y-99130000D02*
X113910000Y-99150000D01*
X113930000Y-97730000D02*
X113930000Y-99130000D01*
G04 #@! TO.N,/MCU/USB_D_P*
X94982402Y-89600000D02*
X95282402Y-89900000D01*
X114930000Y-96799999D02*
X114930000Y-97730000D01*
X109038198Y-89900000D02*
X114905000Y-95766802D01*
X115258000Y-96530000D02*
X115650000Y-96530000D01*
X114930000Y-97730000D02*
X114930000Y-96858000D01*
X114905000Y-96774999D02*
X114930000Y-96799999D01*
X114905000Y-95766802D02*
X114905000Y-96774999D01*
X115930000Y-96810000D02*
X115930000Y-97730000D01*
X114930000Y-96858000D02*
X115258000Y-96530000D01*
X89260000Y-84940000D02*
X89260000Y-84060000D01*
X89260000Y-84060000D02*
X89320000Y-84000000D01*
X94720000Y-89600000D02*
X94982402Y-89600000D01*
X95282402Y-89900000D02*
X109038198Y-89900000D01*
X115650000Y-96530000D02*
X115930000Y-96810000D01*
G04 #@! TO.N,Net-(J3-CC2)*
X116340000Y-99090000D02*
X116880000Y-99090000D01*
X116930000Y-99040000D02*
X116930000Y-97730000D01*
X116880000Y-99090000D02*
X116930000Y-99040000D01*
G04 #@! TO.N,/MCU/IMU_Data*
X86610000Y-83840000D02*
X86610000Y-82241000D01*
X81240000Y-86542500D02*
X81240000Y-87047500D01*
X80160000Y-85540000D02*
X80160000Y-84702500D01*
X80842500Y-85385000D02*
X80842500Y-86145000D01*
X87391000Y-81460000D02*
X89320000Y-81460000D01*
X86620000Y-83850000D02*
X86610000Y-83840000D01*
X80160000Y-84702500D02*
X79980000Y-84522500D01*
X79980000Y-84522500D02*
X80842500Y-85385000D01*
X80842500Y-86145000D02*
X81240000Y-86542500D01*
X86610000Y-82241000D02*
X87391000Y-81460000D01*
G04 #@! TO.N,/MCU/IMU_Clk*
X90000000Y-87750000D02*
X92080000Y-87750000D01*
X81740000Y-87047500D02*
X81740000Y-85425000D01*
X89470000Y-88280000D02*
X90000000Y-87750000D01*
X93625000Y-86205000D02*
X93625000Y-85250000D01*
X82710000Y-85387500D02*
X81702500Y-85387500D01*
X81740000Y-85425000D02*
X81702500Y-85387500D01*
X92080000Y-87750000D02*
X93625000Y-86205000D01*
G04 #@! TO.N,/Sensor/Mux_Out*
X86310000Y-99190000D02*
X86300000Y-99180000D01*
X90470000Y-102520000D02*
X90470000Y-104220000D01*
X85810000Y-92690000D02*
X83750000Y-92690000D01*
X89000000Y-104300000D02*
X90550000Y-104300000D01*
X93445000Y-100805000D02*
X93290000Y-100960000D01*
X95105000Y-100805000D02*
X93445000Y-100805000D01*
X86300000Y-93180000D02*
X85810000Y-92690000D01*
X83430000Y-93010000D02*
X83430000Y-93610000D01*
X83750000Y-92690000D02*
X83430000Y-93010000D01*
X95115000Y-100795000D02*
X95105000Y-100805000D01*
X86300000Y-99180000D02*
X86300000Y-93180000D01*
X88330000Y-103630000D02*
X89000000Y-104300000D01*
X86310000Y-99880000D02*
X86310000Y-99190000D01*
X90470000Y-104220000D02*
X90550000Y-104300000D01*
X88330000Y-103030000D02*
X88330000Y-103630000D01*
G04 #@! TO.N,Net-(U3A--)*
X95115000Y-99525000D02*
X95115000Y-98255000D01*
X94845000Y-97985000D02*
X95115000Y-98255000D01*
X95115000Y-98255000D02*
X94825000Y-97965000D01*
X94845000Y-96450000D02*
X94845000Y-97985000D01*
G04 #@! TO.N,Net-(U5-TS)*
X124085000Y-92960000D02*
X126400000Y-92960000D01*
G04 #@! TO.N,Net-(U5-ISET)*
X123427500Y-95680000D02*
X123517500Y-95770000D01*
X123400000Y-95012500D02*
X123427500Y-95040000D01*
X123427500Y-95040000D02*
X123427500Y-95680000D01*
X123400000Y-93645000D02*
X123400000Y-95012500D01*
X123517500Y-95770000D02*
X124277500Y-95770000D01*
G04 #@! TO.N,+3V3*
X78090000Y-92010000D02*
X78310000Y-91790000D01*
X81240000Y-89222500D02*
X80935000Y-89527500D01*
X82240000Y-87560000D02*
X82240000Y-87047500D01*
X89320000Y-68760000D02*
X88255000Y-68760000D01*
X84097500Y-88707500D02*
X84410000Y-89020000D01*
X81240000Y-88285500D02*
X81535500Y-87990000D01*
X122900000Y-90307458D02*
X123277458Y-89930000D01*
X122900000Y-90775000D02*
X122900000Y-90307458D01*
X82900000Y-88707500D02*
X84097500Y-88707500D01*
X78090000Y-93720000D02*
X78090000Y-92010000D01*
X81535500Y-87990000D02*
X81810000Y-87990000D01*
X88255000Y-68760000D02*
X87995000Y-69020000D01*
X81810000Y-87990000D02*
X82240000Y-87560000D01*
X123277458Y-89930000D02*
X124000000Y-89930000D01*
X81240000Y-88867500D02*
X81240000Y-88285500D01*
X81240000Y-88867500D02*
X81240000Y-89222500D01*
G04 #@! TO.N,Net-(D1-K)*
X120780000Y-86185000D02*
X120790000Y-86175000D01*
X120790000Y-83557500D02*
X120692500Y-83460000D01*
X120790000Y-86175000D02*
X120790000Y-83557500D01*
G04 #@! TO.N,Net-(D1-A)*
X120780000Y-88535000D02*
X120780000Y-88235000D01*
X121215000Y-91460000D02*
X120790000Y-91035000D01*
X120790000Y-88545000D02*
X120780000Y-88535000D01*
X120790000Y-91035000D02*
X120790000Y-88545000D01*
G04 #@! TO.N,Net-(D2-A)*
X122735000Y-88545000D02*
X123992500Y-88545000D01*
X122400000Y-88880000D02*
X122735000Y-88545000D01*
X122400000Y-90775000D02*
X122400000Y-88880000D01*
X123992500Y-88545000D02*
X124140000Y-88397500D01*
G04 #@! TO.N,/MCU/S3*
X92410000Y-100760000D02*
X93470000Y-99700000D01*
X93470000Y-99700000D02*
X93470000Y-97920000D01*
X85130000Y-86100000D02*
X85590000Y-86560000D01*
X85590000Y-87800000D02*
X85590000Y-86560000D01*
X89170000Y-76530000D02*
X89320000Y-76380000D01*
X87460000Y-76530000D02*
X89170000Y-76530000D01*
X85130000Y-83920000D02*
X85130000Y-86100000D01*
X90440000Y-100760000D02*
X92410000Y-100760000D01*
G04 #@! TO.N,/MCU/S2*
X84379999Y-99460000D02*
X83430000Y-99460000D01*
X86870000Y-91100000D02*
X86870000Y-89030000D01*
X85000000Y-93730000D02*
X85000000Y-98839999D01*
X86600000Y-88760000D02*
X86600000Y-85300000D01*
X86870000Y-89030000D02*
X86600000Y-88760000D01*
X92230000Y-73720000D02*
X92110000Y-73840000D01*
X85931000Y-84631000D02*
X85931000Y-80049000D01*
X85350000Y-93380000D02*
X85000000Y-93730000D01*
X85931000Y-80049000D02*
X87110000Y-78870000D01*
X85000000Y-98839999D02*
X84379999Y-99460000D01*
X86600000Y-85300000D02*
X85931000Y-84631000D01*
X92110000Y-73840000D02*
X89320000Y-73840000D01*
G04 #@! TO.N,/MCU/S0*
X92700597Y-98780597D02*
X92700597Y-99719346D01*
X92680000Y-98760000D02*
X92700597Y-98780597D01*
X92700597Y-99719346D02*
X92309943Y-100110000D01*
X92300000Y-91400000D02*
X92300000Y-88530000D01*
X92309943Y-100110000D02*
X90440000Y-100110000D01*
X91270000Y-71300000D02*
X89320000Y-71300000D01*
X92300000Y-88530000D02*
X92810000Y-88020000D01*
X93230000Y-83050000D02*
X93230000Y-73260000D01*
X93230000Y-73260000D02*
X91270000Y-71300000D01*
G04 #@! TO.N,/MCU/ADC_CLK*
X97435000Y-85250000D02*
X97435000Y-86705000D01*
X104010000Y-91660000D02*
X104010000Y-92405000D01*
X97435000Y-86705000D02*
X97490000Y-86760000D01*
X104010000Y-92405000D02*
X104155000Y-92550000D01*
G04 #@! TO.N,GND*
X90440000Y-99460000D02*
X92090000Y-99460000D01*
X92375000Y-104300000D02*
X93800000Y-104300000D01*
X82240000Y-88867500D02*
X82240000Y-89107500D01*
X126102500Y-96902500D02*
X126110000Y-96910000D01*
X116457500Y-89857500D02*
X116457500Y-88042500D01*
X95115000Y-102065000D02*
X94825000Y-102355000D01*
X112677500Y-90007500D02*
X112580000Y-89910000D01*
X116502500Y-89902500D02*
X116457500Y-89857500D01*
X116502500Y-90160000D02*
X113992500Y-90160000D01*
X117680000Y-95620000D02*
X117670000Y-95630000D01*
X101645000Y-93500000D02*
X100190000Y-93500000D01*
X123400000Y-90775000D02*
X125065000Y-90775000D01*
X78090000Y-102220000D02*
X78090000Y-104250000D01*
X111980000Y-97730000D02*
X111980000Y-95960000D01*
X126102500Y-95770000D02*
X126102500Y-96902500D01*
X108440000Y-67490000D02*
X108530000Y-67580000D01*
X111980000Y-95960000D02*
X111990000Y-95950000D01*
X122900000Y-94388565D02*
X122900000Y-93645000D01*
X83580000Y-102620000D02*
X83580000Y-101640000D01*
X122900000Y-93645000D02*
X122900000Y-93168521D01*
X121900000Y-90775000D02*
X121900000Y-90020000D01*
X93800000Y-104300000D02*
X93820000Y-104280000D01*
X125140000Y-91220000D02*
X125140000Y-90700000D01*
X118907500Y-95620000D02*
X118340000Y-96187500D01*
X121900000Y-90020000D02*
X121520000Y-89640000D01*
X113840000Y-90007500D02*
X112677500Y-90007500D01*
X124900000Y-91460000D02*
X125140000Y-91220000D01*
X94825000Y-102355000D02*
X94825000Y-102895000D01*
X122810000Y-94478565D02*
X122900000Y-94388565D01*
X91310000Y-67490000D02*
X91340000Y-67520000D01*
X125065000Y-90775000D02*
X125140000Y-90700000D01*
X118340000Y-97690000D02*
X118380000Y-97730000D01*
X89320000Y-67490000D02*
X91310000Y-67490000D01*
X122810000Y-95140000D02*
X122810000Y-94478565D01*
X100190000Y-93500000D02*
X100150000Y-93540000D01*
X102450000Y-100110000D02*
X102430000Y-100130000D01*
X81740000Y-88867500D02*
X82240000Y-88867500D01*
X94730000Y-93420000D02*
X94807500Y-93497500D01*
X122729000Y-92927458D02*
X122650000Y-92927458D01*
X124085000Y-91460000D02*
X124900000Y-91460000D01*
X116502500Y-90160000D02*
X116502500Y-89902500D01*
X122900000Y-93168521D02*
X122729000Y-92997521D01*
X103600000Y-100110000D02*
X102450000Y-100110000D01*
X118340000Y-96187500D02*
X118340000Y-97690000D01*
X113992500Y-90160000D02*
X113840000Y-90007500D01*
X83430000Y-101490000D02*
X83430000Y-100760000D01*
X94825000Y-102895000D02*
X95400000Y-103470000D01*
X122729000Y-92997521D02*
X122729000Y-92927458D01*
X83580000Y-101640000D02*
X83430000Y-101490000D01*
X118907500Y-95620000D02*
X117680000Y-95620000D01*
X92090000Y-99460000D02*
X92100000Y-99470000D01*
X94807500Y-93497500D02*
X94807500Y-94920000D01*
X82240000Y-89107500D02*
X82660000Y-89527500D01*
X106820000Y-67490000D02*
X108440000Y-67490000D01*
G04 #@! TO.N,/MCU/ADC_CS*
X104155000Y-94450000D02*
X104155000Y-95445000D01*
X95020000Y-87480000D02*
X94895000Y-87355000D01*
X104155000Y-95445000D02*
X104200000Y-95490000D01*
X94895000Y-87355000D02*
X94895000Y-85250000D01*
G04 #@! TO.N,/MCU/ADC_SDATA*
X98720000Y-86990000D02*
X98720000Y-85265000D01*
X104155000Y-93500000D02*
X105580000Y-93500000D01*
X98720000Y-85265000D02*
X98705000Y-85250000D01*
X105580000Y-93500000D02*
X105590000Y-93490000D01*
G04 #@! TO.N,/MCU/IMU_INT*
X79477500Y-88707500D02*
X78960000Y-88190000D01*
X89320000Y-75110000D02*
X91360000Y-75110000D01*
X80580000Y-88707500D02*
X79477500Y-88707500D01*
X91360000Y-75110000D02*
X91520000Y-74950000D01*
G04 #@! TO.N,/MCU/S1*
X86520000Y-71580000D02*
X87510000Y-72570000D01*
X84770000Y-100517808D02*
X84362192Y-100110000D01*
X84770000Y-103120000D02*
X84770000Y-100517808D01*
X84270000Y-103620000D02*
X84770000Y-103120000D01*
X84362192Y-100110000D02*
X83430000Y-100110000D01*
X87510000Y-72570000D02*
X89320000Y-72570000D01*
X81970000Y-103620000D02*
X84270000Y-103620000D01*
G04 #@! TO.N,Net-(D2-K)*
X124140000Y-85422500D02*
X123310000Y-84592500D01*
X123310000Y-82330000D02*
X123180000Y-82200000D01*
X123310000Y-84592500D02*
X123310000Y-82330000D01*
G04 #@! TO.N,/MCU/Rx_D*
X120200000Y-72570000D02*
X120550000Y-72220000D01*
X106820000Y-72570000D02*
X120200000Y-72570000D01*
G04 #@! TO.N,Net-(U5-ILIM)*
X120732500Y-94697500D02*
X121250000Y-94180000D01*
X121250000Y-92995000D02*
X121215000Y-92960000D01*
X121250000Y-94180000D02*
X121250000Y-92995000D01*
X120732500Y-95620000D02*
X120732500Y-94697500D01*
G04 #@! TO.N,/MCU/Tx_D*
X106820000Y-71300000D02*
X121940000Y-71300000D01*
X121940000Y-71300000D02*
X124740000Y-74100000D01*
G04 #@! TO.N,Net-(U6-EN)*
X85180000Y-71440000D02*
X86590000Y-70030000D01*
X85180000Y-73190000D02*
X85180000Y-71440000D01*
X85180000Y-73190000D02*
X78680000Y-73190000D01*
X86590000Y-70030000D02*
X89320000Y-70030000D01*
X78680000Y-77202500D02*
X78757500Y-77280000D01*
X78680000Y-73190000D02*
X78680000Y-77202500D01*
G04 #@! TD*
G04 #@! TA.AperFunction,Conductor*
G04 #@! TO.N,Net-(J2-Pin_1)*
G36*
X127712539Y-90899685D02*
G01*
X127758294Y-90952489D01*
X127769500Y-91004000D01*
X127769500Y-105055500D01*
X127749815Y-105122539D01*
X127697011Y-105168294D01*
X127645500Y-105179500D01*
X122928413Y-105179500D01*
X122861374Y-105159815D01*
X122815619Y-105107011D01*
X122804421Y-105056880D01*
X122777660Y-102652100D01*
X122751486Y-100299953D01*
X122770423Y-100232701D01*
X122822715Y-100186362D01*
X122891758Y-100175649D01*
X122949789Y-100199310D01*
X122983906Y-100224850D01*
X122983913Y-100224854D01*
X123118620Y-100275096D01*
X123118627Y-100275098D01*
X123178155Y-100281499D01*
X123178172Y-100281500D01*
X123630000Y-100281500D01*
X123630000Y-99443186D01*
X123634394Y-99447580D01*
X123725606Y-99500241D01*
X123827339Y-99527500D01*
X123932661Y-99527500D01*
X124034394Y-99500241D01*
X124125606Y-99447580D01*
X124130000Y-99443186D01*
X124130000Y-100281500D01*
X124581828Y-100281500D01*
X124581844Y-100281499D01*
X124641372Y-100275098D01*
X124641379Y-100275096D01*
X124776086Y-100224854D01*
X124776093Y-100224850D01*
X124891186Y-100138690D01*
X124964638Y-100040573D01*
X125020572Y-99998702D01*
X125090264Y-99993718D01*
X125136787Y-100014564D01*
X125274910Y-100114917D01*
X125436826Y-100197417D01*
X125436828Y-100197418D01*
X125545419Y-100232701D01*
X125609654Y-100253572D01*
X125789139Y-100282000D01*
X125789140Y-100282000D01*
X125970860Y-100282000D01*
X125970861Y-100282000D01*
X126150346Y-100253572D01*
X126150349Y-100253571D01*
X126150350Y-100253571D01*
X126323171Y-100197418D01*
X126323171Y-100197417D01*
X126323174Y-100197417D01*
X126485090Y-100114917D01*
X126632106Y-100008103D01*
X126760603Y-99879606D01*
X126867417Y-99732590D01*
X126949917Y-99570674D01*
X127006072Y-99397846D01*
X127034500Y-99218361D01*
X127034500Y-99036639D01*
X127006072Y-98857154D01*
X127006071Y-98857150D01*
X127006071Y-98857149D01*
X126949918Y-98684328D01*
X126949916Y-98684325D01*
X126867416Y-98522409D01*
X126760603Y-98375394D01*
X126632106Y-98246897D01*
X126485090Y-98140083D01*
X126323174Y-98057583D01*
X126323171Y-98057581D01*
X126150348Y-98001428D01*
X126014444Y-97979903D01*
X125970861Y-97973000D01*
X125789139Y-97973000D01*
X125745556Y-97979903D01*
X125609652Y-98001428D01*
X125609649Y-98001428D01*
X125436828Y-98057581D01*
X125436825Y-98057583D01*
X125274909Y-98140083D01*
X125136791Y-98240433D01*
X125070984Y-98263913D01*
X125002930Y-98248088D01*
X124964639Y-98214427D01*
X124891187Y-98116309D01*
X124776093Y-98030149D01*
X124776086Y-98030145D01*
X124641379Y-97979903D01*
X124641372Y-97979901D01*
X124581844Y-97973500D01*
X124130000Y-97973500D01*
X124130000Y-98811814D01*
X124125606Y-98807420D01*
X124034394Y-98754759D01*
X123932661Y-98727500D01*
X123827339Y-98727500D01*
X123725606Y-98754759D01*
X123634394Y-98807420D01*
X123630000Y-98811814D01*
X123630000Y-97973500D01*
X123178155Y-97973500D01*
X123118627Y-97979901D01*
X123118620Y-97979903D01*
X122983913Y-98030145D01*
X122983906Y-98030149D01*
X122923941Y-98075039D01*
X122858477Y-98099456D01*
X122790204Y-98084604D01*
X122740799Y-98035199D01*
X122725639Y-97977154D01*
X122704675Y-96093165D01*
X122723611Y-96025915D01*
X122775903Y-95979576D01*
X122844946Y-95968863D01*
X122908821Y-95997179D01*
X122936053Y-96029789D01*
X122946980Y-96048716D01*
X123036980Y-96138716D01*
X123148784Y-96250520D01*
X123235595Y-96300639D01*
X123285715Y-96329577D01*
X123334819Y-96342734D01*
X123343200Y-96346365D01*
X123363310Y-96363112D01*
X123385663Y-96376737D01*
X123395726Y-96390107D01*
X123396890Y-96391076D01*
X123397202Y-96392068D01*
X123399447Y-96395050D01*
X123444657Y-96468346D01*
X123444660Y-96468350D01*
X123566650Y-96590340D01*
X123713484Y-96680908D01*
X123877247Y-96735174D01*
X123978323Y-96745500D01*
X124576676Y-96745499D01*
X124576684Y-96745498D01*
X124576687Y-96745498D01*
X124632030Y-96739844D01*
X124677753Y-96735174D01*
X124841516Y-96680908D01*
X124988350Y-96590340D01*
X125102319Y-96476371D01*
X125110264Y-96472032D01*
X125115690Y-96464785D01*
X125140449Y-96455550D01*
X125163642Y-96442886D01*
X125172671Y-96443531D01*
X125181154Y-96440368D01*
X125206974Y-96445984D01*
X125233334Y-96447870D01*
X125242387Y-96453688D01*
X125249427Y-96455220D01*
X125277681Y-96476371D01*
X125321963Y-96520653D01*
X125355448Y-96581976D01*
X125350464Y-96651668D01*
X125348845Y-96655781D01*
X125340264Y-96676498D01*
X125340260Y-96676511D01*
X125309500Y-96831153D01*
X125309500Y-96988846D01*
X125340261Y-97143489D01*
X125340264Y-97143501D01*
X125400602Y-97289172D01*
X125400609Y-97289185D01*
X125488210Y-97420288D01*
X125488213Y-97420292D01*
X125599707Y-97531786D01*
X125599711Y-97531789D01*
X125730814Y-97619390D01*
X125730827Y-97619397D01*
X125876498Y-97679735D01*
X125876503Y-97679737D01*
X126031153Y-97710499D01*
X126031156Y-97710500D01*
X126031158Y-97710500D01*
X126188844Y-97710500D01*
X126188845Y-97710499D01*
X126343497Y-97679737D01*
X126489179Y-97619394D01*
X126620289Y-97531789D01*
X126731789Y-97420289D01*
X126819394Y-97289179D01*
X126879737Y-97143497D01*
X126910500Y-96988842D01*
X126910500Y-96831158D01*
X126910500Y-96831155D01*
X126910499Y-96831153D01*
X126880613Y-96680907D01*
X126879737Y-96676503D01*
X126866763Y-96645180D01*
X126859294Y-96575711D01*
X126890569Y-96513232D01*
X126893644Y-96510046D01*
X126935337Y-96468353D01*
X126935337Y-96468352D01*
X126935340Y-96468350D01*
X127025908Y-96321516D01*
X127080174Y-96157753D01*
X127090500Y-96056677D01*
X127090499Y-95483324D01*
X127080174Y-95382247D01*
X127025908Y-95218484D01*
X126935340Y-95071650D01*
X126813350Y-94949660D01*
X126666516Y-94859092D01*
X126502753Y-94804826D01*
X126502751Y-94804825D01*
X126401678Y-94794500D01*
X125803330Y-94794500D01*
X125803312Y-94794501D01*
X125702247Y-94804825D01*
X125538484Y-94859092D01*
X125538481Y-94859093D01*
X125391648Y-94949661D01*
X125277681Y-95063629D01*
X125216358Y-95097114D01*
X125146666Y-95092130D01*
X125102319Y-95063629D01*
X124988351Y-94949661D01*
X124988350Y-94949660D01*
X124841516Y-94859092D01*
X124677753Y-94804826D01*
X124677751Y-94804825D01*
X124576684Y-94794500D01*
X124576677Y-94794500D01*
X124124500Y-94794500D01*
X124057461Y-94774815D01*
X124011706Y-94722011D01*
X124000500Y-94670500D01*
X124000500Y-94243438D01*
X124009145Y-94197950D01*
X124020214Y-94169882D01*
X124030500Y-94084228D01*
X124030500Y-93714500D01*
X124050185Y-93647461D01*
X124102989Y-93601706D01*
X124154500Y-93590500D01*
X124524222Y-93590500D01*
X124524228Y-93590500D01*
X124609882Y-93580214D01*
X124637948Y-93569145D01*
X124683439Y-93560500D01*
X125820234Y-93560500D01*
X125887273Y-93580185D01*
X125889125Y-93581398D01*
X126020814Y-93669390D01*
X126020827Y-93669397D01*
X126129717Y-93714500D01*
X126166503Y-93729737D01*
X126321153Y-93760499D01*
X126321156Y-93760500D01*
X126321158Y-93760500D01*
X126478844Y-93760500D01*
X126478845Y-93760499D01*
X126633497Y-93729737D01*
X126779179Y-93669394D01*
X126910289Y-93581789D01*
X127021789Y-93470289D01*
X127109394Y-93339179D01*
X127169737Y-93193497D01*
X127200500Y-93038842D01*
X127200500Y-92881158D01*
X127200500Y-92881155D01*
X127200499Y-92881153D01*
X127169738Y-92726510D01*
X127169737Y-92726503D01*
X127169735Y-92726498D01*
X127109397Y-92580827D01*
X127109390Y-92580814D01*
X127021789Y-92449711D01*
X127021786Y-92449707D01*
X126910292Y-92338213D01*
X126910288Y-92338210D01*
X126779185Y-92250609D01*
X126779172Y-92250602D01*
X126633501Y-92190264D01*
X126633489Y-92190261D01*
X126478845Y-92159500D01*
X126478842Y-92159500D01*
X126321158Y-92159500D01*
X126321155Y-92159500D01*
X126166510Y-92190261D01*
X126166498Y-92190264D01*
X126020827Y-92250602D01*
X126020814Y-92250609D01*
X125889125Y-92338602D01*
X125822447Y-92359480D01*
X125820234Y-92359500D01*
X125129645Y-92359500D01*
X125129015Y-92359315D01*
X125128383Y-92359494D01*
X125095527Y-92349481D01*
X125062606Y-92339815D01*
X125062175Y-92339318D01*
X125061547Y-92339127D01*
X125039311Y-92312932D01*
X125016851Y-92287011D01*
X125016615Y-92286194D01*
X125016332Y-92285860D01*
X125012234Y-92270987D01*
X125006734Y-92251897D01*
X125003332Y-92226395D01*
X125006030Y-92208892D01*
X125006031Y-92192926D01*
X125003775Y-92192656D01*
X125010994Y-92132543D01*
X125038531Y-92068329D01*
X125096414Y-92029196D01*
X125101988Y-92027561D01*
X125131785Y-92019577D01*
X125203424Y-91978216D01*
X125268716Y-91940520D01*
X125380520Y-91828716D01*
X125380520Y-91828714D01*
X125390723Y-91818512D01*
X125390727Y-91818506D01*
X125498506Y-91710728D01*
X125498511Y-91710724D01*
X125508714Y-91700520D01*
X125508716Y-91700520D01*
X125620520Y-91588716D01*
X125624202Y-91582338D01*
X125689211Y-91469740D01*
X125689212Y-91469738D01*
X125693417Y-91462452D01*
X125699577Y-91451785D01*
X125740500Y-91299058D01*
X125740500Y-91279765D01*
X125760185Y-91212726D01*
X125761398Y-91210874D01*
X125849390Y-91079185D01*
X125849390Y-91079184D01*
X125849394Y-91079179D01*
X125900189Y-90956547D01*
X125944029Y-90902144D01*
X126010323Y-90880079D01*
X126014750Y-90880000D01*
X127645500Y-90880000D01*
X127712539Y-90899685D01*
G37*
G04 #@! TD.AperFunction*
G04 #@! TD*
G04 #@! TA.AperFunction,Conductor*
G04 #@! TO.N,/MCU/VDD5V*
G36*
X111695811Y-94093954D02*
G01*
X111762743Y-94113990D01*
X111782838Y-94130271D01*
X113818181Y-96165614D01*
X113832884Y-96192541D01*
X113849477Y-96218360D01*
X113850368Y-96224560D01*
X113851666Y-96226937D01*
X113854500Y-96253295D01*
X113854500Y-96485500D01*
X113834815Y-96552539D01*
X113782011Y-96598294D01*
X113735390Y-96608450D01*
X113735426Y-96609136D01*
X113735428Y-96609146D01*
X113735427Y-96609146D01*
X113735437Y-96609324D01*
X113732118Y-96609501D01*
X113693253Y-96613679D01*
X113666748Y-96613679D01*
X113627874Y-96609500D01*
X113232132Y-96609500D01*
X113232117Y-96609501D01*
X113190904Y-96613931D01*
X113164402Y-96613931D01*
X113127834Y-96610000D01*
X113030000Y-96610000D01*
X113029948Y-96610051D01*
X113010315Y-96676914D01*
X112993667Y-96697571D01*
X112987402Y-96703833D01*
X112922454Y-96752454D01*
X112873946Y-96817251D01*
X112867667Y-96823529D01*
X112844476Y-96836186D01*
X112823332Y-96852015D01*
X112814294Y-96852661D01*
X112806338Y-96857004D01*
X112779985Y-96855114D01*
X112753640Y-96856999D01*
X112745686Y-96852656D01*
X112736647Y-96852008D01*
X112715502Y-96836173D01*
X112692317Y-96823513D01*
X112680734Y-96810145D01*
X112637546Y-96752454D01*
X112637540Y-96752449D01*
X112630187Y-96746944D01*
X112627451Y-96743289D01*
X112623297Y-96741392D01*
X112606704Y-96715572D01*
X112588317Y-96691009D01*
X112587301Y-96685381D01*
X112585523Y-96682614D01*
X112580500Y-96647679D01*
X112580500Y-96542783D01*
X112600185Y-96475744D01*
X112608647Y-96464118D01*
X112611789Y-96460289D01*
X112699390Y-96329185D01*
X112699390Y-96329184D01*
X112699394Y-96329179D01*
X112703880Y-96318350D01*
X112716882Y-96286960D01*
X112759737Y-96183497D01*
X112790500Y-96028842D01*
X112790500Y-95871158D01*
X112790500Y-95871155D01*
X112790499Y-95871153D01*
X112780536Y-95821067D01*
X112759737Y-95716503D01*
X112744812Y-95680471D01*
X112699397Y-95570827D01*
X112699390Y-95570814D01*
X112611789Y-95439711D01*
X112611786Y-95439707D01*
X112500292Y-95328213D01*
X112500288Y-95328210D01*
X112369185Y-95240609D01*
X112369172Y-95240602D01*
X112223501Y-95180264D01*
X112223489Y-95180261D01*
X112068845Y-95149500D01*
X112068842Y-95149500D01*
X111911158Y-95149500D01*
X111911155Y-95149500D01*
X111756510Y-95180261D01*
X111756498Y-95180264D01*
X111610827Y-95240602D01*
X111610814Y-95240609D01*
X111479711Y-95328210D01*
X111479707Y-95328213D01*
X111368213Y-95439707D01*
X111368210Y-95439711D01*
X111280609Y-95570814D01*
X111280602Y-95570827D01*
X111220264Y-95716498D01*
X111220261Y-95716510D01*
X111189500Y-95871153D01*
X111189500Y-96028846D01*
X111220261Y-96183489D01*
X111220264Y-96183501D01*
X111280602Y-96329172D01*
X111280609Y-96329185D01*
X111327112Y-96398780D01*
X111354881Y-96440340D01*
X111358602Y-96445908D01*
X111364252Y-96463954D01*
X111374477Y-96479864D01*
X111378928Y-96510823D01*
X111379480Y-96512585D01*
X111379500Y-96514799D01*
X111379500Y-96647679D01*
X111359815Y-96714718D01*
X111329813Y-96746944D01*
X111322453Y-96752453D01*
X111302369Y-96779282D01*
X111246435Y-96821152D01*
X111176743Y-96826135D01*
X111155650Y-96819529D01*
X111151839Y-96817950D01*
X111151829Y-96817947D01*
X110958543Y-96779500D01*
X110958541Y-96779500D01*
X110761459Y-96779500D01*
X110761457Y-96779500D01*
X110568170Y-96817947D01*
X110568160Y-96817950D01*
X110386092Y-96893364D01*
X110386079Y-96893371D01*
X110222218Y-97002860D01*
X110222214Y-97002863D01*
X110082863Y-97142214D01*
X110082860Y-97142218D01*
X109973371Y-97306079D01*
X109973364Y-97306092D01*
X109897950Y-97488160D01*
X109897947Y-97488170D01*
X109859500Y-97681456D01*
X109859500Y-97681459D01*
X109859500Y-98978541D01*
X109859500Y-98978543D01*
X109859499Y-98978543D01*
X109897947Y-99171829D01*
X109897950Y-99171839D01*
X109973364Y-99353907D01*
X109973371Y-99353920D01*
X110082860Y-99517781D01*
X110082863Y-99517785D01*
X110222214Y-99657136D01*
X110222218Y-99657139D01*
X110386079Y-99766628D01*
X110386092Y-99766635D01*
X110513825Y-99819543D01*
X110568165Y-99842051D01*
X110568169Y-99842051D01*
X110568170Y-99842052D01*
X110761456Y-99880500D01*
X110761459Y-99880500D01*
X110958543Y-99880500D01*
X111107142Y-99850941D01*
X111151835Y-99842051D01*
X111333914Y-99766632D01*
X111497782Y-99657139D01*
X111637139Y-99517782D01*
X111746632Y-99353914D01*
X111746635Y-99353906D01*
X111749446Y-99348648D01*
X111798405Y-99298800D01*
X111866542Y-99283335D01*
X111932223Y-99307163D01*
X111934300Y-99308722D01*
X111936632Y-99310512D01*
X111936635Y-99310515D01*
X111947795Y-99316958D01*
X112049245Y-99375531D01*
X112067865Y-99386281D01*
X112214234Y-99425500D01*
X112214236Y-99425500D01*
X112365764Y-99425500D01*
X112365766Y-99425500D01*
X112512135Y-99386281D01*
X112643365Y-99310515D01*
X112750515Y-99203365D01*
X112826281Y-99072135D01*
X112861175Y-98941906D01*
X112875668Y-98918129D01*
X112887237Y-98892797D01*
X112893602Y-98888706D01*
X112897540Y-98882246D01*
X112922587Y-98870078D01*
X112946015Y-98855023D01*
X112956762Y-98853477D01*
X112960387Y-98851717D01*
X112980950Y-98850000D01*
X113002397Y-98850000D01*
X113069436Y-98869685D01*
X113115191Y-98922489D01*
X113125135Y-98991647D01*
X113124014Y-98998192D01*
X113109500Y-99071155D01*
X113109500Y-99228846D01*
X113140261Y-99383489D01*
X113140264Y-99383501D01*
X113200602Y-99529172D01*
X113200609Y-99529185D01*
X113288210Y-99660288D01*
X113288213Y-99660292D01*
X113399707Y-99771786D01*
X113399711Y-99771789D01*
X113530814Y-99859390D01*
X113530827Y-99859397D01*
X113676498Y-99919735D01*
X113676503Y-99919737D01*
X113831153Y-99950499D01*
X113831156Y-99950500D01*
X113831158Y-99950500D01*
X113988844Y-99950500D01*
X113988845Y-99950499D01*
X114143497Y-99919737D01*
X114267934Y-99868194D01*
X114289172Y-99859397D01*
X114289172Y-99859396D01*
X114289179Y-99859394D01*
X114420289Y-99771789D01*
X114531789Y-99660289D01*
X114575006Y-99595609D01*
X114581096Y-99590520D01*
X114584394Y-99583299D01*
X114607523Y-99568434D01*
X114628618Y-99550805D01*
X114637991Y-99548853D01*
X114643172Y-99545524D01*
X114678104Y-99540501D01*
X114678107Y-99540501D01*
X114769058Y-99540501D01*
X114769061Y-99540500D01*
X114776669Y-99540500D01*
X115063331Y-99540500D01*
X115063347Y-99540501D01*
X115070943Y-99540501D01*
X115229054Y-99540501D01*
X115229057Y-99540501D01*
X115381785Y-99499577D01*
X115456176Y-99456627D01*
X115475418Y-99445518D01*
X115475422Y-99445516D01*
X115496255Y-99440462D01*
X115543315Y-99429046D01*
X115543319Y-99429047D01*
X115543323Y-99429047D01*
X115574953Y-99439996D01*
X115609342Y-99451898D01*
X115609344Y-99451900D01*
X115609348Y-99451902D01*
X115609357Y-99451913D01*
X115640518Y-99484015D01*
X115718210Y-99600288D01*
X115718213Y-99600292D01*
X115829707Y-99711786D01*
X115829711Y-99711789D01*
X115960814Y-99799390D01*
X115960827Y-99799397D01*
X116100477Y-99857241D01*
X116106503Y-99859737D01*
X116261153Y-99890499D01*
X116261156Y-99890500D01*
X116261158Y-99890500D01*
X116418844Y-99890500D01*
X116418845Y-99890499D01*
X116573497Y-99859737D01*
X116698320Y-99808034D01*
X116719172Y-99799397D01*
X116719172Y-99799396D01*
X116719179Y-99799394D01*
X116727331Y-99793947D01*
X116850873Y-99711399D01*
X116917550Y-99690521D01*
X116919764Y-99690501D01*
X116959054Y-99690501D01*
X116959057Y-99690501D01*
X117111785Y-99649577D01*
X117179433Y-99610520D01*
X117248716Y-99570520D01*
X117360520Y-99458716D01*
X117410520Y-99408716D01*
X117477711Y-99292335D01*
X117528274Y-99244123D01*
X117596881Y-99230899D01*
X117661746Y-99256866D01*
X117672777Y-99266657D01*
X117716635Y-99310515D01*
X117847865Y-99386281D01*
X117994234Y-99425500D01*
X117994236Y-99425500D01*
X118145764Y-99425500D01*
X118145766Y-99425500D01*
X118292135Y-99386281D01*
X118423365Y-99310515D01*
X118423372Y-99310507D01*
X118425694Y-99308726D01*
X118428021Y-99307825D01*
X118430403Y-99306451D01*
X118430617Y-99306822D01*
X118490861Y-99283525D01*
X118559307Y-99297556D01*
X118609302Y-99346365D01*
X118610551Y-99348644D01*
X118613369Y-99353916D01*
X118722860Y-99517781D01*
X118722863Y-99517785D01*
X118862214Y-99657136D01*
X118862218Y-99657139D01*
X119026079Y-99766628D01*
X119026092Y-99766635D01*
X119153825Y-99819543D01*
X119208165Y-99842051D01*
X119208169Y-99842051D01*
X119208170Y-99842052D01*
X119401456Y-99880500D01*
X119401459Y-99880500D01*
X119598543Y-99880500D01*
X119747142Y-99850941D01*
X119791835Y-99842051D01*
X119973914Y-99766632D01*
X120137782Y-99657139D01*
X120277139Y-99517782D01*
X120386632Y-99353914D01*
X120398592Y-99325041D01*
X120415788Y-99283525D01*
X120462051Y-99171835D01*
X120494143Y-99010500D01*
X120500500Y-98978543D01*
X120500500Y-97681456D01*
X120462052Y-97488170D01*
X120462051Y-97488169D01*
X120462051Y-97488165D01*
X120454571Y-97470106D01*
X120386635Y-97306092D01*
X120386628Y-97306079D01*
X120277139Y-97142218D01*
X120277136Y-97142214D01*
X120137785Y-97002863D01*
X120137781Y-97002860D01*
X119973920Y-96893371D01*
X119973907Y-96893364D01*
X119791839Y-96817950D01*
X119791829Y-96817947D01*
X119598543Y-96779500D01*
X119598541Y-96779500D01*
X119489739Y-96779500D01*
X119422700Y-96759815D01*
X119376945Y-96707011D01*
X119367001Y-96637853D01*
X119396026Y-96574297D01*
X119450732Y-96537795D01*
X119471516Y-96530908D01*
X119618350Y-96440340D01*
X119732319Y-96326371D01*
X119793642Y-96292886D01*
X119863334Y-96297870D01*
X119907681Y-96326371D01*
X120021650Y-96440340D01*
X120168484Y-96530908D01*
X120332247Y-96585174D01*
X120433323Y-96595500D01*
X121031676Y-96595499D01*
X121031684Y-96595498D01*
X121031687Y-96595498D01*
X121087976Y-96589748D01*
X121132753Y-96585174D01*
X121296516Y-96530908D01*
X121443350Y-96440340D01*
X121565340Y-96318350D01*
X121655908Y-96171516D01*
X121710174Y-96007753D01*
X121720500Y-95906677D01*
X121720499Y-95333324D01*
X121720026Y-95328697D01*
X121710174Y-95232247D01*
X121699919Y-95201301D01*
X121655908Y-95068484D01*
X121565340Y-94921650D01*
X121549143Y-94905453D01*
X121544805Y-94897508D01*
X121537557Y-94892083D01*
X121528320Y-94867320D01*
X121515658Y-94844130D01*
X121516303Y-94835101D01*
X121513140Y-94826619D01*
X121518756Y-94800799D01*
X121520642Y-94774438D01*
X121526461Y-94765383D01*
X121527992Y-94758346D01*
X121549137Y-94730097D01*
X121668006Y-94611228D01*
X121729322Y-94577748D01*
X121757105Y-94575597D01*
X121757105Y-94575000D01*
X121770000Y-94574998D01*
X121770000Y-94557267D01*
X121773902Y-94543977D01*
X121773000Y-94530156D01*
X121783552Y-94511113D01*
X121789685Y-94490228D01*
X121800150Y-94481159D01*
X121806865Y-94469043D01*
X121826038Y-94458727D01*
X121842489Y-94444473D01*
X121856196Y-94442502D01*
X121868395Y-94435939D01*
X121890100Y-94437627D01*
X121911647Y-94434529D01*
X121925684Y-94440394D01*
X121938055Y-94441357D01*
X121968926Y-94458464D01*
X121980926Y-94467564D01*
X122022449Y-94523756D01*
X122030000Y-94566367D01*
X122030000Y-94574999D01*
X122045360Y-94590359D01*
X122060087Y-94594684D01*
X122105842Y-94647488D01*
X122115786Y-94716646D01*
X122102407Y-94757451D01*
X122100604Y-94760823D01*
X122040264Y-94906498D01*
X122040261Y-94906510D01*
X122009500Y-95061153D01*
X122009500Y-95218846D01*
X122040261Y-95373489D01*
X122040264Y-95373501D01*
X122100602Y-95519172D01*
X122100609Y-95519185D01*
X122188210Y-95650288D01*
X122188213Y-95650292D01*
X122235167Y-95697245D01*
X122268653Y-95758568D01*
X122263669Y-95828259D01*
X122260848Y-95835179D01*
X122237035Y-95888896D01*
X122237030Y-95888910D01*
X122218097Y-95956147D01*
X122199205Y-96098797D01*
X122209185Y-96995691D01*
X122190248Y-97062946D01*
X122137956Y-97109285D01*
X122083928Y-97121065D01*
X121119669Y-97111227D01*
X120966621Y-104017511D01*
X120943557Y-105058247D01*
X120922392Y-105124834D01*
X120868587Y-105169408D01*
X120819587Y-105179500D01*
X109169418Y-105179500D01*
X109102379Y-105159815D01*
X109056624Y-105107011D01*
X109046680Y-105037853D01*
X109075705Y-104974297D01*
X109095107Y-104956234D01*
X109107187Y-104947190D01*
X109107190Y-104947187D01*
X109193350Y-104832093D01*
X109193354Y-104832086D01*
X109243596Y-104697379D01*
X109243598Y-104697372D01*
X109249999Y-104637844D01*
X109250000Y-104637827D01*
X109250000Y-104340000D01*
X108374000Y-104340000D01*
X108330538Y-104327238D01*
X108391614Y-104301940D01*
X108461940Y-104231614D01*
X108500000Y-104139728D01*
X108500000Y-104040272D01*
X108461940Y-103948386D01*
X108391614Y-103878060D01*
X108299728Y-103840000D01*
X108500000Y-103840000D01*
X109250000Y-103840000D01*
X109250000Y-103542172D01*
X109249999Y-103542155D01*
X109243598Y-103482627D01*
X109243596Y-103482620D01*
X109193354Y-103347913D01*
X109193350Y-103347906D01*
X109107190Y-103232812D01*
X109107187Y-103232809D01*
X108992093Y-103146649D01*
X108992086Y-103146645D01*
X108857379Y-103096403D01*
X108857372Y-103096401D01*
X108797844Y-103090000D01*
X108500000Y-103090000D01*
X108500000Y-103840000D01*
X108299728Y-103840000D01*
X108200272Y-103840000D01*
X108108386Y-103878060D01*
X108038060Y-103948386D01*
X108010593Y-104014696D01*
X108000000Y-103966000D01*
X108000000Y-103090000D01*
X107702155Y-103090000D01*
X107642627Y-103096401D01*
X107642620Y-103096403D01*
X107507913Y-103146645D01*
X107507906Y-103146649D01*
X107392812Y-103232809D01*
X107392809Y-103232812D01*
X107387755Y-103239564D01*
X107331820Y-103281433D01*
X107262129Y-103286415D01*
X107200807Y-103252928D01*
X107167324Y-103191604D01*
X107164493Y-103166021D01*
X107164060Y-103096403D01*
X107163638Y-103028543D01*
X109859499Y-103028543D01*
X109897947Y-103221829D01*
X109897950Y-103221839D01*
X109973364Y-103403907D01*
X109973371Y-103403920D01*
X110082860Y-103567781D01*
X110082863Y-103567785D01*
X110222214Y-103707136D01*
X110222218Y-103707139D01*
X110386079Y-103816628D01*
X110386092Y-103816635D01*
X110536374Y-103878883D01*
X110568165Y-103892051D01*
X110568169Y-103892051D01*
X110568170Y-103892052D01*
X110761456Y-103930500D01*
X110761459Y-103930500D01*
X110958543Y-103930500D01*
X111088582Y-103904632D01*
X111151835Y-103892051D01*
X111333914Y-103816632D01*
X111497782Y-103707139D01*
X111637139Y-103567782D01*
X111746632Y-103403914D01*
X111822051Y-103221835D01*
X111840871Y-103127220D01*
X111860500Y-103028543D01*
X118499499Y-103028543D01*
X118537947Y-103221829D01*
X118537950Y-103221839D01*
X118613364Y-103403907D01*
X118613371Y-103403920D01*
X118722860Y-103567781D01*
X118722863Y-103567785D01*
X118862214Y-103707136D01*
X118862218Y-103707139D01*
X119026079Y-103816628D01*
X119026092Y-103816635D01*
X119176374Y-103878883D01*
X119208165Y-103892051D01*
X119208169Y-103892051D01*
X119208170Y-103892052D01*
X119401456Y-103930500D01*
X119401459Y-103930500D01*
X119598543Y-103930500D01*
X119728582Y-103904632D01*
X119791835Y-103892051D01*
X119973914Y-103816632D01*
X120137782Y-103707139D01*
X120277139Y-103567782D01*
X120386632Y-103403914D01*
X120462051Y-103221835D01*
X120480871Y-103127220D01*
X120500500Y-103028543D01*
X120500500Y-102031456D01*
X120462052Y-101838170D01*
X120462051Y-101838169D01*
X120462051Y-101838165D01*
X120434005Y-101770455D01*
X120386635Y-101656092D01*
X120386628Y-101656079D01*
X120277139Y-101492218D01*
X120277136Y-101492214D01*
X120137785Y-101352863D01*
X120137781Y-101352860D01*
X119973920Y-101243371D01*
X119973907Y-101243364D01*
X119791839Y-101167950D01*
X119791829Y-101167947D01*
X119598543Y-101129500D01*
X119598541Y-101129500D01*
X119401459Y-101129500D01*
X119401457Y-101129500D01*
X119208170Y-101167947D01*
X119208160Y-101167950D01*
X119026092Y-101243364D01*
X119026079Y-101243371D01*
X118862218Y-101352860D01*
X118862214Y-101352863D01*
X118722863Y-101492214D01*
X118722860Y-101492218D01*
X118613371Y-101656079D01*
X118613364Y-101656092D01*
X118537950Y-101838160D01*
X118537947Y-101838170D01*
X118499500Y-102031456D01*
X118499500Y-102031459D01*
X118499500Y-103028541D01*
X118499500Y-103028543D01*
X118499499Y-103028543D01*
X111860500Y-103028543D01*
X111860500Y-102031456D01*
X111822052Y-101838170D01*
X111822051Y-101838169D01*
X111822051Y-101838165D01*
X111794005Y-101770455D01*
X111746635Y-101656092D01*
X111746628Y-101656079D01*
X111637139Y-101492218D01*
X111637136Y-101492214D01*
X111497785Y-101352863D01*
X111497781Y-101352860D01*
X111333920Y-101243371D01*
X111333907Y-101243364D01*
X111151839Y-101167950D01*
X111151829Y-101167947D01*
X110958543Y-101129500D01*
X110958541Y-101129500D01*
X110761459Y-101129500D01*
X110761457Y-101129500D01*
X110568170Y-101167947D01*
X110568160Y-101167950D01*
X110386092Y-101243364D01*
X110386079Y-101243371D01*
X110222218Y-101352860D01*
X110222214Y-101352863D01*
X110082863Y-101492214D01*
X110082860Y-101492218D01*
X109973371Y-101656079D01*
X109973364Y-101656092D01*
X109897950Y-101838160D01*
X109897947Y-101838170D01*
X109859500Y-102031456D01*
X109859500Y-102031459D01*
X109859500Y-103028541D01*
X109859500Y-103028543D01*
X109859499Y-103028543D01*
X107163638Y-103028543D01*
X107120003Y-96010482D01*
X107120003Y-96009418D01*
X107128600Y-94341554D01*
X107148628Y-94274622D01*
X107201668Y-94229140D01*
X107253722Y-94218204D01*
X111095269Y-94253286D01*
X111115633Y-94253062D01*
X111125611Y-94252751D01*
X111145926Y-94251708D01*
X111286518Y-94221124D01*
X111351982Y-94196707D01*
X111447549Y-94144524D01*
X111478252Y-94127759D01*
X111478253Y-94127758D01*
X111478257Y-94127756D01*
X111478259Y-94127753D01*
X111485353Y-94122443D01*
X111486559Y-94124054D01*
X111537738Y-94096101D01*
X111564748Y-94093267D01*
X111695811Y-94093954D01*
G37*
G04 #@! TD.AperFunction*
G04 #@! TD*
G04 #@! TA.AperFunction,Conductor*
G04 #@! TO.N,+3V3*
G36*
X127712397Y-60580295D02*
G01*
X127758224Y-60633037D01*
X127769500Y-60684702D01*
X127769500Y-90250500D01*
X127749815Y-90317539D01*
X127697011Y-90363294D01*
X127645500Y-90374500D01*
X126014739Y-90374500D01*
X126005723Y-90374580D01*
X126001278Y-90374659D01*
X125992281Y-90374900D01*
X125976979Y-90377661D01*
X125907510Y-90370189D01*
X125853109Y-90326346D01*
X125851866Y-90324520D01*
X125761792Y-90189715D01*
X125761786Y-90189707D01*
X125650292Y-90078213D01*
X125650288Y-90078210D01*
X125519185Y-89990609D01*
X125519172Y-89990602D01*
X125373501Y-89930264D01*
X125373489Y-89930261D01*
X125218845Y-89899500D01*
X125218842Y-89899500D01*
X125061158Y-89899500D01*
X125061155Y-89899500D01*
X124906510Y-89930261D01*
X124906498Y-89930264D01*
X124760827Y-89990602D01*
X124760814Y-89990609D01*
X124629712Y-90078209D01*
X124599727Y-90108195D01*
X124569739Y-90138182D01*
X124508419Y-90171666D01*
X124482060Y-90174500D01*
X124073120Y-90174500D01*
X124006081Y-90154815D01*
X123972879Y-90119594D01*
X123971588Y-90120574D01*
X123966463Y-90113816D01*
X123966463Y-90113815D01*
X123877931Y-89997069D01*
X123761185Y-89908537D01*
X123761184Y-89908536D01*
X123624874Y-89854783D01*
X123624615Y-89854718D01*
X123624427Y-89854607D01*
X123617486Y-89851870D01*
X123617920Y-89850767D01*
X123564444Y-89819204D01*
X123533026Y-89756797D01*
X123540335Y-89687310D01*
X123584051Y-89632806D01*
X123650295Y-89610589D01*
X123655005Y-89610500D01*
X124815003Y-89610500D01*
X124815008Y-89610500D01*
X124917797Y-89599999D01*
X125084334Y-89544814D01*
X125233655Y-89452711D01*
X125357711Y-89328655D01*
X125449814Y-89179334D01*
X125504999Y-89012797D01*
X125515500Y-88910008D01*
X125515500Y-87884992D01*
X125504999Y-87782203D01*
X125449814Y-87615666D01*
X125444896Y-87607693D01*
X125357713Y-87466348D01*
X125357710Y-87466344D01*
X125233655Y-87342289D01*
X125233651Y-87342286D01*
X125084337Y-87250187D01*
X125084335Y-87250186D01*
X124991304Y-87219359D01*
X124917797Y-87195001D01*
X124917795Y-87195000D01*
X124815015Y-87184500D01*
X124815008Y-87184500D01*
X123464992Y-87184500D01*
X123464984Y-87184500D01*
X123362204Y-87195000D01*
X123362203Y-87195001D01*
X123195664Y-87250186D01*
X123195662Y-87250187D01*
X123046348Y-87342286D01*
X123046344Y-87342289D01*
X122922289Y-87466344D01*
X122922286Y-87466348D01*
X122830187Y-87615662D01*
X122830186Y-87615664D01*
X122775001Y-87782203D01*
X122775000Y-87782205D01*
X122769782Y-87833285D01*
X122743385Y-87897977D01*
X122686204Y-87938128D01*
X122662613Y-87943621D01*
X122655944Y-87944499D01*
X122655943Y-87944499D01*
X122611118Y-87956510D01*
X122503214Y-87985423D01*
X122503209Y-87985426D01*
X122366290Y-88064475D01*
X122366282Y-88064481D01*
X122192180Y-88238583D01*
X122130857Y-88272068D01*
X122061165Y-88267084D01*
X122005232Y-88225212D01*
X121980815Y-88159748D01*
X121980499Y-88150902D01*
X121980499Y-87859998D01*
X121980498Y-87859981D01*
X121969999Y-87757203D01*
X121969998Y-87757200D01*
X121958053Y-87721153D01*
X121914814Y-87590666D01*
X121822712Y-87441344D01*
X121698656Y-87317288D01*
X121695819Y-87315538D01*
X121694283Y-87313830D01*
X121692989Y-87312807D01*
X121693163Y-87312585D01*
X121649096Y-87263594D01*
X121637872Y-87194632D01*
X121665713Y-87130549D01*
X121695817Y-87104462D01*
X121698656Y-87102712D01*
X121822712Y-86978656D01*
X121914814Y-86829334D01*
X121969999Y-86662797D01*
X121980500Y-86560009D01*
X121980499Y-85809992D01*
X121976771Y-85773501D01*
X121969999Y-85707203D01*
X121969998Y-85707200D01*
X121954914Y-85661679D01*
X121914814Y-85540666D01*
X121822712Y-85391344D01*
X121698656Y-85267288D01*
X121549334Y-85175186D01*
X121475494Y-85150717D01*
X121418051Y-85110945D01*
X121391228Y-85046429D01*
X121390500Y-85033012D01*
X121390500Y-84344552D01*
X121410185Y-84277513D01*
X121426819Y-84256871D01*
X121474190Y-84209500D01*
X121525340Y-84158350D01*
X121615908Y-84011516D01*
X121670174Y-83847753D01*
X121680500Y-83746677D01*
X121680499Y-83173324D01*
X121679666Y-83165174D01*
X121670174Y-83072247D01*
X121653726Y-83022611D01*
X121615908Y-82908484D01*
X121525340Y-82761650D01*
X121403350Y-82639660D01*
X121256516Y-82549092D01*
X121092753Y-82494826D01*
X121092751Y-82494825D01*
X120991678Y-82484500D01*
X120393330Y-82484500D01*
X120393312Y-82484501D01*
X120292247Y-82494825D01*
X120128484Y-82549092D01*
X120128477Y-82549095D01*
X119991883Y-82633347D01*
X119924491Y-82651787D01*
X119857827Y-82630864D01*
X119813058Y-82577222D01*
X119804397Y-82507891D01*
X119834594Y-82444884D01*
X119839081Y-82440152D01*
X121082417Y-81196819D01*
X121143740Y-81163334D01*
X121170098Y-81160500D01*
X122389576Y-81160500D01*
X122456615Y-81180185D01*
X122502370Y-81232989D01*
X122512314Y-81302147D01*
X122483289Y-81365703D01*
X122474146Y-81374442D01*
X122474257Y-81374553D01*
X122347161Y-81501648D01*
X122256593Y-81648481D01*
X122256592Y-81648484D01*
X122202326Y-81812247D01*
X122202326Y-81812248D01*
X122202325Y-81812248D01*
X122192000Y-81913315D01*
X122192000Y-82486669D01*
X122192001Y-82486687D01*
X122202325Y-82587752D01*
X122223545Y-82651787D01*
X122249480Y-82730055D01*
X122256592Y-82751515D01*
X122256593Y-82751518D01*
X122290895Y-82807129D01*
X122347160Y-82898350D01*
X122469150Y-83020340D01*
X122615984Y-83110908D01*
X122624503Y-83113731D01*
X122681945Y-83153498D01*
X122708771Y-83218013D01*
X122709500Y-83231436D01*
X122709500Y-84505830D01*
X122709499Y-84505848D01*
X122709499Y-84671554D01*
X122709498Y-84671554D01*
X122726794Y-84736102D01*
X122734728Y-84765713D01*
X122750423Y-84824284D01*
X122753532Y-84831789D01*
X122752022Y-84832414D01*
X122766249Y-84891071D01*
X122765748Y-84897764D01*
X122764501Y-84909972D01*
X122764500Y-84909997D01*
X122764500Y-85935015D01*
X122775000Y-86037795D01*
X122775001Y-86037797D01*
X122794583Y-86096890D01*
X122830186Y-86204335D01*
X122830187Y-86204337D01*
X122922286Y-86353651D01*
X122922289Y-86353655D01*
X123046344Y-86477710D01*
X123046348Y-86477713D01*
X123195662Y-86569812D01*
X123195664Y-86569813D01*
X123195666Y-86569814D01*
X123362203Y-86624999D01*
X123464992Y-86635500D01*
X123464997Y-86635500D01*
X124815003Y-86635500D01*
X124815008Y-86635500D01*
X124917797Y-86624999D01*
X125084334Y-86569814D01*
X125233655Y-86477711D01*
X125357711Y-86353655D01*
X125449814Y-86204334D01*
X125504999Y-86037797D01*
X125515500Y-85935008D01*
X125515500Y-84909992D01*
X125504999Y-84807203D01*
X125449814Y-84640666D01*
X125435687Y-84617763D01*
X125357713Y-84491348D01*
X125357710Y-84491344D01*
X125233655Y-84367289D01*
X125233651Y-84367286D01*
X125084337Y-84275187D01*
X125084335Y-84275186D01*
X124951400Y-84231136D01*
X124917797Y-84220001D01*
X124917795Y-84220000D01*
X124815015Y-84209500D01*
X124815008Y-84209500D01*
X124034500Y-84209500D01*
X123967461Y-84189815D01*
X123921706Y-84137011D01*
X123910500Y-84085500D01*
X123910500Y-83052052D01*
X123919144Y-83022611D01*
X123925668Y-82992625D01*
X123929422Y-82987609D01*
X123930185Y-82985013D01*
X123946819Y-82964371D01*
X124004819Y-82906371D01*
X124066142Y-82872886D01*
X124135834Y-82877870D01*
X124180181Y-82906371D01*
X124294150Y-83020340D01*
X124440984Y-83110908D01*
X124604747Y-83165174D01*
X124705823Y-83175500D01*
X125304176Y-83175499D01*
X125304184Y-83175498D01*
X125304187Y-83175498D01*
X125359530Y-83169844D01*
X125405253Y-83165174D01*
X125569016Y-83110908D01*
X125715850Y-83020340D01*
X125837840Y-82898350D01*
X125928408Y-82751516D01*
X125982674Y-82587753D01*
X125993000Y-82486677D01*
X125992999Y-81913324D01*
X125982674Y-81812247D01*
X125928408Y-81648484D01*
X125837840Y-81501650D01*
X125715850Y-81379660D01*
X125715849Y-81379659D01*
X125664402Y-81347926D01*
X125657578Y-81340339D01*
X125648297Y-81336101D01*
X125634609Y-81314802D01*
X125617678Y-81295978D01*
X125615033Y-81284341D01*
X125610523Y-81277323D01*
X125605500Y-81242388D01*
X125605500Y-81036002D01*
X125609725Y-81003908D01*
X125616271Y-80979480D01*
X125640500Y-80889058D01*
X125640500Y-80730943D01*
X125619469Y-80652454D01*
X125619469Y-80652453D01*
X125619469Y-80652452D01*
X125599577Y-80578218D01*
X125599576Y-80578215D01*
X125520519Y-80441284D01*
X125277590Y-80198355D01*
X125277588Y-80198352D01*
X125158717Y-80079481D01*
X125158716Y-80079480D01*
X125071904Y-80029360D01*
X125071904Y-80029359D01*
X125071900Y-80029358D01*
X125021785Y-80000423D01*
X124869057Y-79959499D01*
X124710943Y-79959499D01*
X124703347Y-79959499D01*
X124703331Y-79959500D01*
X120956670Y-79959500D01*
X120956654Y-79959499D01*
X120949058Y-79959499D01*
X120790943Y-79959499D01*
X120714579Y-79979961D01*
X120638214Y-80000423D01*
X120638209Y-80000426D01*
X120501290Y-80079475D01*
X120501282Y-80079481D01*
X118386979Y-82193784D01*
X118364849Y-82232116D01*
X118354813Y-82249500D01*
X118345458Y-82265703D01*
X118307923Y-82330714D01*
X118307923Y-82330715D01*
X118266999Y-82483443D01*
X118266999Y-82483445D01*
X118266999Y-82502389D01*
X118247314Y-82569428D01*
X118208096Y-82607927D01*
X118156653Y-82639657D01*
X118156649Y-82639660D01*
X118034661Y-82761648D01*
X117944093Y-82908481D01*
X117944091Y-82908486D01*
X117931163Y-82947500D01*
X117889826Y-83072247D01*
X117889826Y-83072248D01*
X117889825Y-83072248D01*
X117879500Y-83173315D01*
X117879500Y-83746669D01*
X117879501Y-83746687D01*
X117889825Y-83847752D01*
X117919988Y-83938775D01*
X117940702Y-84001287D01*
X117944092Y-84011515D01*
X117944093Y-84011518D01*
X117958466Y-84034820D01*
X118014891Y-84126300D01*
X118034661Y-84158351D01*
X118107446Y-84231136D01*
X118140931Y-84292459D01*
X118135947Y-84362151D01*
X118122867Y-84387708D01*
X118040609Y-84510814D01*
X118040602Y-84510827D01*
X117980264Y-84656498D01*
X117980261Y-84656510D01*
X117949500Y-84811153D01*
X117949500Y-84968846D01*
X117980261Y-85123489D01*
X117980264Y-85123501D01*
X118040602Y-85269172D01*
X118040609Y-85269185D01*
X118128210Y-85400288D01*
X118128213Y-85400292D01*
X118239707Y-85511786D01*
X118239711Y-85511789D01*
X118370814Y-85599390D01*
X118370827Y-85599397D01*
X118516498Y-85659735D01*
X118516503Y-85659737D01*
X118671153Y-85690499D01*
X118671156Y-85690500D01*
X118671158Y-85690500D01*
X118828844Y-85690500D01*
X118828845Y-85690499D01*
X118983497Y-85659737D01*
X119129179Y-85599394D01*
X119260289Y-85511789D01*
X119371789Y-85400289D01*
X119459394Y-85269179D01*
X119519737Y-85123497D01*
X119550500Y-84968842D01*
X119550500Y-84811158D01*
X119550500Y-84811155D01*
X119550499Y-84811153D01*
X119526864Y-84692335D01*
X119519737Y-84656503D01*
X119513176Y-84640664D01*
X119459397Y-84510827D01*
X119459393Y-84510820D01*
X119456498Y-84506487D01*
X119435620Y-84439809D01*
X119454104Y-84372429D01*
X119494502Y-84332057D01*
X119578350Y-84280340D01*
X119692319Y-84166371D01*
X119753642Y-84132886D01*
X119823334Y-84137870D01*
X119867681Y-84166371D01*
X119981650Y-84280340D01*
X120128484Y-84370908D01*
X120128486Y-84370908D01*
X120130596Y-84372210D01*
X120177321Y-84424158D01*
X120189500Y-84477749D01*
X120189500Y-85026385D01*
X120169815Y-85093424D01*
X120117011Y-85139179D01*
X120104508Y-85144089D01*
X120074607Y-85153998D01*
X120010666Y-85175186D01*
X120010663Y-85175187D01*
X119861342Y-85267289D01*
X119737289Y-85391342D01*
X119645187Y-85540663D01*
X119645185Y-85540668D01*
X119627871Y-85592920D01*
X119590001Y-85707203D01*
X119590001Y-85707204D01*
X119590000Y-85707204D01*
X119579500Y-85809983D01*
X119579500Y-86560001D01*
X119579501Y-86560019D01*
X119590000Y-86662796D01*
X119590001Y-86662799D01*
X119645185Y-86829331D01*
X119645187Y-86829336D01*
X119651053Y-86838846D01*
X119731768Y-86969707D01*
X119737289Y-86978657D01*
X119861346Y-87102714D01*
X119864182Y-87104463D01*
X119865717Y-87106170D01*
X119867011Y-87107193D01*
X119866836Y-87107414D01*
X119910905Y-87156411D01*
X119922126Y-87225374D01*
X119894282Y-87289456D01*
X119864182Y-87315537D01*
X119861346Y-87317285D01*
X119737289Y-87441342D01*
X119645187Y-87590663D01*
X119645185Y-87590668D01*
X119628566Y-87640821D01*
X119590001Y-87757203D01*
X119590001Y-87757204D01*
X119590000Y-87757204D01*
X119579500Y-87859983D01*
X119579500Y-88610001D01*
X119579501Y-88610019D01*
X119590000Y-88712796D01*
X119590001Y-88712799D01*
X119645185Y-88879331D01*
X119645187Y-88879336D01*
X119657559Y-88899394D01*
X119737288Y-89028656D01*
X119861344Y-89152712D01*
X120010666Y-89244814D01*
X120104506Y-89275909D01*
X120161949Y-89315680D01*
X120188772Y-89380196D01*
X120189500Y-89393614D01*
X120189500Y-90940903D01*
X120169815Y-91007942D01*
X120117011Y-91053697D01*
X120047853Y-91063641D01*
X119984297Y-91034616D01*
X119977819Y-91028584D01*
X119697590Y-90748355D01*
X119697588Y-90748352D01*
X119578718Y-90629482D01*
X119578716Y-90629480D01*
X119525738Y-90598893D01*
X119489499Y-90563027D01*
X119487861Y-90564298D01*
X119483076Y-90558129D01*
X119366870Y-90441923D01*
X119366862Y-90441917D01*
X119253543Y-90374901D01*
X119225398Y-90358256D01*
X119225397Y-90358255D01*
X119225396Y-90358255D01*
X119225393Y-90358254D01*
X119067573Y-90312402D01*
X119067567Y-90312401D01*
X119030701Y-90309500D01*
X119030694Y-90309500D01*
X118907000Y-90309500D01*
X118839961Y-90289815D01*
X118794206Y-90237011D01*
X118783000Y-90185500D01*
X118783000Y-89030951D01*
X118802685Y-88963912D01*
X118841902Y-88925413D01*
X118943350Y-88862840D01*
X119065340Y-88740850D01*
X119155908Y-88594016D01*
X119210174Y-88430253D01*
X119220500Y-88329177D01*
X119220499Y-87755824D01*
X119216957Y-87721153D01*
X119210174Y-87654747D01*
X119205974Y-87642073D01*
X119155908Y-87490984D01*
X119065340Y-87344150D01*
X118943350Y-87222160D01*
X118836754Y-87156411D01*
X118796518Y-87131593D01*
X118796513Y-87131591D01*
X118793368Y-87130549D01*
X118632753Y-87077326D01*
X118632751Y-87077325D01*
X118531678Y-87067000D01*
X117833330Y-87067000D01*
X117833312Y-87067001D01*
X117732247Y-87077325D01*
X117568484Y-87131592D01*
X117568481Y-87131593D01*
X117421648Y-87222161D01*
X117407681Y-87236129D01*
X117346358Y-87269614D01*
X117276666Y-87264630D01*
X117232319Y-87236129D01*
X117218351Y-87222161D01*
X117218350Y-87222160D01*
X117111754Y-87156411D01*
X117071518Y-87131593D01*
X117071513Y-87131591D01*
X117068368Y-87130549D01*
X116907753Y-87077326D01*
X116907751Y-87077325D01*
X116806678Y-87067000D01*
X116108330Y-87067000D01*
X116108312Y-87067001D01*
X116007247Y-87077325D01*
X115843484Y-87131592D01*
X115843481Y-87131593D01*
X115696648Y-87222161D01*
X115574661Y-87344148D01*
X115484093Y-87490981D01*
X115484091Y-87490986D01*
X115459069Y-87566498D01*
X115429826Y-87654747D01*
X115429826Y-87654748D01*
X115429825Y-87654748D01*
X115419500Y-87755815D01*
X115419500Y-88329169D01*
X115419501Y-88329187D01*
X115429825Y-88430252D01*
X115462975Y-88530289D01*
X115483309Y-88591654D01*
X115484092Y-88594015D01*
X115484093Y-88594018D01*
X115493956Y-88610008D01*
X115574660Y-88740850D01*
X115696650Y-88862840D01*
X115798096Y-88925412D01*
X115804919Y-88932998D01*
X115814203Y-88937238D01*
X115827891Y-88958538D01*
X115844821Y-88977360D01*
X115847465Y-88988995D01*
X115851977Y-88996016D01*
X115857000Y-89030951D01*
X115857000Y-89256351D01*
X115837315Y-89323390D01*
X115784511Y-89369145D01*
X115767596Y-89375427D01*
X115654604Y-89408254D01*
X115654603Y-89408255D01*
X115513137Y-89491917D01*
X115513129Y-89491923D01*
X115481874Y-89523180D01*
X115420552Y-89556666D01*
X115394192Y-89559500D01*
X114895461Y-89559500D01*
X114828422Y-89539815D01*
X114782667Y-89487011D01*
X114777758Y-89474512D01*
X114750908Y-89393484D01*
X114660340Y-89246650D01*
X114538350Y-89124660D01*
X114416881Y-89049737D01*
X114391518Y-89034093D01*
X114391513Y-89034091D01*
X114375111Y-89028656D01*
X114227753Y-88979826D01*
X114227751Y-88979825D01*
X114126678Y-88969500D01*
X113553330Y-88969500D01*
X113553312Y-88969501D01*
X113452247Y-88979825D01*
X113288484Y-89034092D01*
X113288481Y-89034093D01*
X113141650Y-89124659D01*
X113093088Y-89173221D01*
X113031764Y-89206705D01*
X112962072Y-89201719D01*
X112957956Y-89200099D01*
X112813501Y-89140264D01*
X112813489Y-89140261D01*
X112658845Y-89109500D01*
X112658842Y-89109500D01*
X112501158Y-89109500D01*
X112501155Y-89109500D01*
X112346510Y-89140261D01*
X112346498Y-89140264D01*
X112200827Y-89200602D01*
X112200814Y-89200609D01*
X112069711Y-89288210D01*
X112069707Y-89288213D01*
X111958213Y-89399707D01*
X111958210Y-89399711D01*
X111870609Y-89530814D01*
X111870602Y-89530827D01*
X111810264Y-89676498D01*
X111810261Y-89676510D01*
X111779500Y-89831153D01*
X111779500Y-89988846D01*
X111810261Y-90143489D01*
X111810264Y-90143501D01*
X111870602Y-90289172D01*
X111870609Y-90289185D01*
X111958210Y-90420288D01*
X111958213Y-90420292D01*
X112069707Y-90531786D01*
X112069711Y-90531789D01*
X112200814Y-90619390D01*
X112200827Y-90619397D01*
X112331419Y-90673489D01*
X112346503Y-90679737D01*
X112501153Y-90710499D01*
X112501156Y-90710500D01*
X112501158Y-90710500D01*
X112658844Y-90710500D01*
X112658845Y-90710499D01*
X112813497Y-90679737D01*
X112836613Y-90670161D01*
X112865840Y-90667019D01*
X112894660Y-90661175D01*
X112900186Y-90663325D01*
X112906082Y-90662692D01*
X112932372Y-90675851D01*
X112959773Y-90686515D01*
X112964781Y-90692073D01*
X112968562Y-90693966D01*
X112984374Y-90711822D01*
X112987144Y-90715634D01*
X113019660Y-90768350D01*
X113040875Y-90789565D01*
X113046608Y-90797453D01*
X113055208Y-90821544D01*
X113067467Y-90843995D01*
X113066758Y-90853901D01*
X113070098Y-90863256D01*
X113064307Y-90888173D01*
X113062483Y-90913687D01*
X113056053Y-90923691D01*
X113054283Y-90931312D01*
X113045951Y-90939411D01*
X113033985Y-90958032D01*
X113020052Y-90971965D01*
X112929551Y-91118688D01*
X112929546Y-91118699D01*
X112875319Y-91282347D01*
X112865000Y-91383345D01*
X112865000Y-91482500D01*
X114814999Y-91482500D01*
X114814999Y-91383360D01*
X114814998Y-91383345D01*
X114804680Y-91282347D01*
X114750453Y-91118699D01*
X114750448Y-91118688D01*
X114659947Y-90971965D01*
X114655467Y-90966299D01*
X114656504Y-90965478D01*
X114626679Y-90910858D01*
X114631663Y-90841166D01*
X114673535Y-90785233D01*
X114738999Y-90760816D01*
X114747845Y-90760500D01*
X115394192Y-90760500D01*
X115461231Y-90780185D01*
X115481874Y-90796820D01*
X115513129Y-90828076D01*
X115513133Y-90828079D01*
X115513135Y-90828081D01*
X115654602Y-90911744D01*
X115661290Y-90913687D01*
X115812426Y-90957597D01*
X115812429Y-90957597D01*
X115812431Y-90957598D01*
X115849306Y-90960500D01*
X117015500Y-90960500D01*
X117024185Y-90963050D01*
X117033147Y-90961762D01*
X117057187Y-90972740D01*
X117082539Y-90980185D01*
X117088466Y-90987025D01*
X117096703Y-90990787D01*
X117110992Y-91013021D01*
X117128294Y-91032989D01*
X117130581Y-91043503D01*
X117134477Y-91049565D01*
X117139500Y-91084500D01*
X117139500Y-91136000D01*
X117119815Y-91203039D01*
X117067011Y-91248794D01*
X117015500Y-91260000D01*
X116752500Y-91260000D01*
X116752500Y-91810000D01*
X117408185Y-91810000D01*
X117471306Y-91827268D01*
X117529602Y-91861744D01*
X117557107Y-91869735D01*
X117687426Y-91907597D01*
X117687429Y-91907597D01*
X117687431Y-91907598D01*
X117724306Y-91910500D01*
X117724314Y-91910500D01*
X119030686Y-91910500D01*
X119030694Y-91910500D01*
X119067569Y-91907598D01*
X119067572Y-91907597D01*
X119073799Y-91906460D01*
X119074014Y-91907637D01*
X119137367Y-91907816D01*
X119189777Y-91939013D01*
X119385274Y-92134510D01*
X119418759Y-92195833D01*
X119413775Y-92265525D01*
X119371903Y-92321458D01*
X119355346Y-92331921D01*
X116597888Y-93783215D01*
X116539003Y-93797480D01*
X113810228Y-93772560D01*
X113743371Y-93752264D01*
X113723679Y-93736246D01*
X112069087Y-92081654D01*
X112865001Y-92081654D01*
X112875319Y-92182652D01*
X112929546Y-92346300D01*
X112929551Y-92346311D01*
X113020052Y-92493034D01*
X113020055Y-92493038D01*
X113141961Y-92614944D01*
X113141965Y-92614947D01*
X113288688Y-92705448D01*
X113288699Y-92705453D01*
X113452347Y-92759680D01*
X113553352Y-92769999D01*
X113590000Y-92769999D01*
X114090000Y-92769999D01*
X114126640Y-92769999D01*
X114126654Y-92769998D01*
X114227652Y-92759680D01*
X114391300Y-92705453D01*
X114391311Y-92705448D01*
X114538034Y-92614947D01*
X114538038Y-92614944D01*
X114659944Y-92493038D01*
X114659947Y-92493034D01*
X114750448Y-92346311D01*
X114750453Y-92346300D01*
X114762481Y-92310001D01*
X115267704Y-92310001D01*
X115267899Y-92312486D01*
X115313718Y-92470198D01*
X115397314Y-92611552D01*
X115397321Y-92611561D01*
X115513438Y-92727678D01*
X115513447Y-92727685D01*
X115654803Y-92811282D01*
X115654806Y-92811283D01*
X115812504Y-92857099D01*
X115812510Y-92857100D01*
X115849350Y-92859999D01*
X115849366Y-92860000D01*
X116252500Y-92860000D01*
X116752500Y-92860000D01*
X117155634Y-92860000D01*
X117155649Y-92859999D01*
X117192489Y-92857100D01*
X117192495Y-92857099D01*
X117350193Y-92811283D01*
X117350196Y-92811282D01*
X117491552Y-92727685D01*
X117491561Y-92727678D01*
X117607678Y-92611561D01*
X117607685Y-92611552D01*
X117691281Y-92470198D01*
X117737100Y-92312486D01*
X117737295Y-92310001D01*
X117737295Y-92310000D01*
X116752500Y-92310000D01*
X116752500Y-92860000D01*
X116252500Y-92860000D01*
X116252500Y-92310000D01*
X115267705Y-92310000D01*
X115267704Y-92310001D01*
X114762481Y-92310001D01*
X114790101Y-92226652D01*
X114804680Y-92182652D01*
X114814999Y-92081654D01*
X114815000Y-92081641D01*
X114815000Y-91982500D01*
X114090000Y-91982500D01*
X114090000Y-92769999D01*
X113590000Y-92769999D01*
X113590000Y-91982500D01*
X112865001Y-91982500D01*
X112865001Y-92081654D01*
X112069087Y-92081654D01*
X111797431Y-91809998D01*
X115267704Y-91809998D01*
X115267705Y-91810000D01*
X116252500Y-91810000D01*
X116252500Y-91260000D01*
X115849350Y-91260000D01*
X115812510Y-91262899D01*
X115812504Y-91262900D01*
X115654806Y-91308716D01*
X115654803Y-91308717D01*
X115513447Y-91392314D01*
X115513438Y-91392321D01*
X115397321Y-91508438D01*
X115397314Y-91508447D01*
X115313718Y-91649801D01*
X115267899Y-91807513D01*
X115267704Y-91809998D01*
X111797431Y-91809998D01*
X109525788Y-89538355D01*
X109525786Y-89538352D01*
X109406915Y-89419481D01*
X109406910Y-89419477D01*
X109283141Y-89348020D01*
X109283141Y-89348019D01*
X109283138Y-89348018D01*
X109269983Y-89340423D01*
X109117255Y-89299499D01*
X108959141Y-89299499D01*
X108951545Y-89299499D01*
X108951529Y-89299500D01*
X95582499Y-89299500D01*
X95553058Y-89290855D01*
X95523072Y-89284332D01*
X95518056Y-89280577D01*
X95515460Y-89279815D01*
X95494818Y-89263181D01*
X95469992Y-89238355D01*
X95469990Y-89238352D01*
X95391585Y-89159947D01*
X95376163Y-89141156D01*
X95375566Y-89140263D01*
X95341789Y-89089711D01*
X95341787Y-89089708D01*
X95230292Y-88978213D01*
X95230288Y-88978210D01*
X95099185Y-88890609D01*
X95099172Y-88890602D01*
X94953501Y-88830264D01*
X94953489Y-88830261D01*
X94798845Y-88799500D01*
X94798842Y-88799500D01*
X94641158Y-88799500D01*
X94641155Y-88799500D01*
X94486510Y-88830261D01*
X94486498Y-88830264D01*
X94340827Y-88890602D01*
X94340814Y-88890609D01*
X94209711Y-88978210D01*
X94209707Y-88978213D01*
X94098213Y-89089707D01*
X94098210Y-89089711D01*
X94010609Y-89220814D01*
X94010602Y-89220827D01*
X93950264Y-89366498D01*
X93950261Y-89366510D01*
X93919500Y-89521153D01*
X93919500Y-89678846D01*
X93942999Y-89796985D01*
X93936772Y-89866577D01*
X93909067Y-89908854D01*
X93888209Y-89929713D01*
X93888208Y-89929714D01*
X93800609Y-90060814D01*
X93800602Y-90060827D01*
X93740264Y-90206498D01*
X93740261Y-90206510D01*
X93709500Y-90361153D01*
X93709500Y-90518846D01*
X93740261Y-90673489D01*
X93740264Y-90673501D01*
X93800602Y-90819172D01*
X93800609Y-90819185D01*
X93888210Y-90950288D01*
X93888213Y-90950292D01*
X93999707Y-91061786D01*
X93999711Y-91061789D01*
X94130814Y-91149390D01*
X94130827Y-91149397D01*
X94260332Y-91203039D01*
X94276503Y-91209737D01*
X94428659Y-91240003D01*
X94431153Y-91240499D01*
X94431156Y-91240500D01*
X94431158Y-91240500D01*
X94588844Y-91240500D01*
X94588845Y-91240499D01*
X94743497Y-91209737D01*
X94889179Y-91149394D01*
X94896963Y-91144192D01*
X94963635Y-91123312D01*
X95027857Y-91139905D01*
X95061927Y-91159575D01*
X95061928Y-91159575D01*
X95061931Y-91159577D01*
X95214659Y-91200500D01*
X95372773Y-91200500D01*
X103148297Y-91200500D01*
X103215336Y-91220185D01*
X103261091Y-91272989D01*
X103271035Y-91342147D01*
X103262858Y-91371952D01*
X103240264Y-91426498D01*
X103240261Y-91426510D01*
X103209500Y-91581153D01*
X103209500Y-91738846D01*
X103228652Y-91835129D01*
X103222425Y-91904720D01*
X103205411Y-91934806D01*
X103121986Y-92043527D01*
X103121983Y-92043532D01*
X103064250Y-92182913D01*
X103064249Y-92182917D01*
X103049500Y-92294939D01*
X103049500Y-92805054D01*
X103064247Y-92917079D01*
X103089294Y-92977548D01*
X103092830Y-93010442D01*
X103097392Y-93043183D01*
X103096641Y-93045895D01*
X103096762Y-93047018D01*
X103095798Y-93048943D01*
X103089294Y-93072451D01*
X103064249Y-93132916D01*
X103064249Y-93132917D01*
X103049500Y-93244939D01*
X103049500Y-93755054D01*
X103064247Y-93867079D01*
X103089294Y-93927548D01*
X103092802Y-93960186D01*
X103097470Y-93992647D01*
X103096623Y-93995731D01*
X103096762Y-93997018D01*
X103095675Y-93999188D01*
X103089294Y-94022451D01*
X103064249Y-94082916D01*
X103064249Y-94082917D01*
X103049500Y-94194939D01*
X103049500Y-94705054D01*
X103064247Y-94817075D01*
X103064250Y-94817086D01*
X103121983Y-94956467D01*
X103121983Y-94956468D01*
X103121985Y-94956471D01*
X103121986Y-94956472D01*
X103213832Y-95076168D01*
X103333528Y-95168014D01*
X103345143Y-95172825D01*
X103399546Y-95216666D01*
X103421611Y-95282960D01*
X103419307Y-95311577D01*
X103399500Y-95411153D01*
X103399500Y-95568846D01*
X103430261Y-95723489D01*
X103430264Y-95723501D01*
X103490602Y-95869172D01*
X103490609Y-95869185D01*
X103578210Y-96000288D01*
X103578213Y-96000292D01*
X103689707Y-96111786D01*
X103689711Y-96111789D01*
X103820814Y-96199390D01*
X103820827Y-96199397D01*
X103966498Y-96259735D01*
X103966503Y-96259737D01*
X104121153Y-96290499D01*
X104121156Y-96290500D01*
X104121158Y-96290500D01*
X104278844Y-96290500D01*
X104278845Y-96290499D01*
X104433497Y-96259737D01*
X104579179Y-96199394D01*
X104710289Y-96111789D01*
X104821789Y-96000289D01*
X104909394Y-95869179D01*
X104969737Y-95723497D01*
X105000500Y-95568842D01*
X105000500Y-95411158D01*
X105000500Y-95411155D01*
X104970401Y-95259842D01*
X104976628Y-95190250D01*
X105016530Y-95137276D01*
X105096168Y-95076168D01*
X105188014Y-94956472D01*
X105245751Y-94817083D01*
X105260500Y-94705053D01*
X105260499Y-94391733D01*
X105280183Y-94324696D01*
X105332987Y-94278941D01*
X105402146Y-94268997D01*
X105408691Y-94270118D01*
X105511155Y-94290500D01*
X105511158Y-94290500D01*
X105668844Y-94290500D01*
X105668845Y-94290499D01*
X105823497Y-94259737D01*
X105936166Y-94213067D01*
X105969172Y-94199397D01*
X105969172Y-94199396D01*
X105969179Y-94199394D01*
X106100289Y-94111789D01*
X106175819Y-94036258D01*
X106237140Y-94002775D01*
X106306832Y-94007759D01*
X106362766Y-94049630D01*
X106387183Y-94115094D01*
X106387484Y-94121992D01*
X106529611Y-103161288D01*
X106510982Y-103228628D01*
X106458904Y-103275208D01*
X106389911Y-103286237D01*
X106325907Y-103258215D01*
X106306361Y-103237550D01*
X106302546Y-103232454D01*
X106302544Y-103232452D01*
X106187335Y-103146206D01*
X106187328Y-103146202D01*
X106052482Y-103095908D01*
X106052483Y-103095908D01*
X105992883Y-103089501D01*
X105992881Y-103089500D01*
X105992873Y-103089500D01*
X105992864Y-103089500D01*
X104897129Y-103089500D01*
X104897123Y-103089501D01*
X104837516Y-103095908D01*
X104702671Y-103146202D01*
X104702664Y-103146206D01*
X104587455Y-103232452D01*
X104587452Y-103232455D01*
X104501206Y-103347664D01*
X104501202Y-103347671D01*
X104450908Y-103482517D01*
X104444501Y-103542116D01*
X104444500Y-103542135D01*
X104444500Y-104637870D01*
X104444501Y-104637876D01*
X104450908Y-104697483D01*
X104501202Y-104832328D01*
X104501206Y-104832335D01*
X104587452Y-104947544D01*
X104587453Y-104947544D01*
X104587454Y-104947546D01*
X104599060Y-104956234D01*
X104640930Y-105012168D01*
X104645914Y-105081860D01*
X104612428Y-105143182D01*
X104551105Y-105176667D01*
X104524748Y-105179500D01*
X103559418Y-105179500D01*
X103492379Y-105159815D01*
X103446624Y-105107011D01*
X103436680Y-105037853D01*
X103465705Y-104974297D01*
X103485107Y-104956234D01*
X103497187Y-104947190D01*
X103497190Y-104947187D01*
X103583350Y-104832093D01*
X103583354Y-104832086D01*
X103633596Y-104697379D01*
X103633598Y-104697372D01*
X103639999Y-104637844D01*
X103640000Y-104637827D01*
X103640000Y-104340000D01*
X102689728Y-104340000D01*
X102781614Y-104301940D01*
X102851940Y-104231614D01*
X102890000Y-104139728D01*
X102890000Y-104040272D01*
X102851940Y-103948386D01*
X102781614Y-103878060D01*
X102689728Y-103840000D01*
X102890000Y-103840000D01*
X103640000Y-103840000D01*
X103640000Y-103542172D01*
X103639999Y-103542155D01*
X103633598Y-103482627D01*
X103633596Y-103482620D01*
X103583354Y-103347913D01*
X103583350Y-103347906D01*
X103497190Y-103232812D01*
X103497187Y-103232809D01*
X103382093Y-103146649D01*
X103382086Y-103146645D01*
X103247379Y-103096403D01*
X103247372Y-103096401D01*
X103187844Y-103090000D01*
X102890000Y-103090000D01*
X102890000Y-103840000D01*
X102689728Y-103840000D01*
X102590272Y-103840000D01*
X102498386Y-103878060D01*
X102428060Y-103948386D01*
X102390000Y-104040272D01*
X102390000Y-104139728D01*
X102428060Y-104231614D01*
X102498386Y-104301940D01*
X102590272Y-104340000D01*
X101640000Y-104340000D01*
X101640000Y-104637844D01*
X101646401Y-104697372D01*
X101646403Y-104697379D01*
X101696645Y-104832086D01*
X101696649Y-104832093D01*
X101782809Y-104947187D01*
X101782812Y-104947190D01*
X101794893Y-104956234D01*
X101836764Y-105012168D01*
X101841748Y-105081859D01*
X101808262Y-105143182D01*
X101746939Y-105176666D01*
X101720582Y-105179500D01*
X94323439Y-105179500D01*
X94256400Y-105159815D01*
X94210645Y-105107011D01*
X94200701Y-105037853D01*
X94229726Y-104974297D01*
X94254548Y-104952398D01*
X94302757Y-104920185D01*
X94330289Y-104901789D01*
X94441789Y-104790289D01*
X94529394Y-104659179D01*
X94589737Y-104513497D01*
X94620500Y-104358842D01*
X94620500Y-104201158D01*
X94620500Y-104201155D01*
X94606245Y-104129495D01*
X94612472Y-104059904D01*
X94655334Y-104004726D01*
X94721224Y-103981481D01*
X94789221Y-103997548D01*
X94815543Y-104017622D01*
X94889707Y-104091786D01*
X94889711Y-104091789D01*
X95020814Y-104179390D01*
X95020827Y-104179397D01*
X95111398Y-104216912D01*
X95166503Y-104239737D01*
X95321153Y-104270499D01*
X95321156Y-104270500D01*
X95321158Y-104270500D01*
X95478844Y-104270500D01*
X95478845Y-104270499D01*
X95633497Y-104239737D01*
X95779179Y-104179394D01*
X95910289Y-104091789D01*
X96021789Y-103980289D01*
X96109394Y-103849179D01*
X96169737Y-103703497D01*
X96200500Y-103548842D01*
X96200500Y-103542155D01*
X101640000Y-103542155D01*
X101640000Y-103840000D01*
X102390000Y-103840000D01*
X102390000Y-103090000D01*
X102092155Y-103090000D01*
X102032627Y-103096401D01*
X102032620Y-103096403D01*
X101897913Y-103146645D01*
X101897906Y-103146649D01*
X101782812Y-103232809D01*
X101782809Y-103232812D01*
X101696649Y-103347906D01*
X101696645Y-103347913D01*
X101646403Y-103482620D01*
X101646401Y-103482627D01*
X101640000Y-103542155D01*
X96200500Y-103542155D01*
X96200500Y-103391158D01*
X96200500Y-103391155D01*
X96200499Y-103391153D01*
X96191898Y-103347913D01*
X96169737Y-103236503D01*
X96163661Y-103221835D01*
X96109397Y-103090827D01*
X96109395Y-103090823D01*
X96109394Y-103090821D01*
X96064868Y-103024183D01*
X96043990Y-102957506D01*
X96062474Y-102890126D01*
X96114453Y-102843435D01*
X96133366Y-102836218D01*
X96200398Y-102816744D01*
X96341865Y-102733081D01*
X96458081Y-102616865D01*
X96541744Y-102475398D01*
X96587598Y-102317569D01*
X96590500Y-102280694D01*
X96590500Y-101849306D01*
X96587598Y-101812431D01*
X96579695Y-101785230D01*
X96546042Y-101669397D01*
X96541744Y-101654602D01*
X96458081Y-101513135D01*
X96458078Y-101513132D01*
X96453298Y-101506969D01*
X96455750Y-101505066D01*
X96429155Y-101456421D01*
X96434104Y-101386726D01*
X96454940Y-101354304D01*
X96453298Y-101353031D01*
X96458075Y-101346870D01*
X96458081Y-101346865D01*
X96541744Y-101205398D01*
X96587598Y-101047569D01*
X96590500Y-101010694D01*
X96590500Y-100579306D01*
X96587598Y-100542431D01*
X96577937Y-100509179D01*
X96541745Y-100384606D01*
X96541744Y-100384603D01*
X96541744Y-100384602D01*
X96458081Y-100243135D01*
X96458078Y-100243132D01*
X96453298Y-100236969D01*
X96455750Y-100235066D01*
X96429155Y-100186421D01*
X96434104Y-100116726D01*
X96454940Y-100084304D01*
X96453298Y-100083031D01*
X96458075Y-100076870D01*
X96458081Y-100076865D01*
X96541744Y-99935398D01*
X96581257Y-99799394D01*
X96587597Y-99777573D01*
X96587598Y-99777567D01*
X96588287Y-99768815D01*
X96590500Y-99740694D01*
X96590500Y-99309306D01*
X96590499Y-99309298D01*
X98589500Y-99309298D01*
X98589500Y-99740701D01*
X98592401Y-99777567D01*
X98592402Y-99777573D01*
X98638254Y-99935393D01*
X98638255Y-99935396D01*
X98721917Y-100076862D01*
X98726702Y-100083031D01*
X98724256Y-100084927D01*
X98750857Y-100133642D01*
X98745873Y-100203334D01*
X98725069Y-100235703D01*
X98726702Y-100236969D01*
X98721917Y-100243137D01*
X98638255Y-100384603D01*
X98638254Y-100384606D01*
X98592402Y-100542426D01*
X98592401Y-100542432D01*
X98589500Y-100579298D01*
X98589500Y-101010701D01*
X98592401Y-101047567D01*
X98592402Y-101047573D01*
X98638254Y-101205393D01*
X98638255Y-101205396D01*
X98638256Y-101205398D01*
X98648470Y-101222669D01*
X98721917Y-101346862D01*
X98726702Y-101353031D01*
X98724256Y-101354927D01*
X98750857Y-101403642D01*
X98745873Y-101473334D01*
X98725069Y-101505703D01*
X98726702Y-101506969D01*
X98721917Y-101513137D01*
X98638255Y-101654603D01*
X98638254Y-101654606D01*
X98592402Y-101812426D01*
X98592401Y-101812432D01*
X98589500Y-101849298D01*
X98589500Y-102280701D01*
X98592401Y-102317567D01*
X98592402Y-102317573D01*
X98638254Y-102475393D01*
X98638255Y-102475396D01*
X98721917Y-102616862D01*
X98721923Y-102616870D01*
X98838129Y-102733076D01*
X98838133Y-102733079D01*
X98838135Y-102733081D01*
X98979602Y-102816744D01*
X98993408Y-102820755D01*
X99137426Y-102862597D01*
X99137429Y-102862597D01*
X99137431Y-102862598D01*
X99174306Y-102865500D01*
X99174314Y-102865500D01*
X100955686Y-102865500D01*
X100955694Y-102865500D01*
X100992569Y-102862598D01*
X100992571Y-102862597D01*
X100992573Y-102862597D01*
X101034191Y-102850505D01*
X101150398Y-102816744D01*
X101291865Y-102733081D01*
X101408081Y-102616865D01*
X101491744Y-102475398D01*
X101537598Y-102317569D01*
X101540500Y-102280694D01*
X101540500Y-101849306D01*
X101537598Y-101812431D01*
X101529695Y-101785230D01*
X101496042Y-101669397D01*
X101491744Y-101654602D01*
X101408081Y-101513135D01*
X101408078Y-101513132D01*
X101403298Y-101506969D01*
X101405750Y-101505066D01*
X101379155Y-101456421D01*
X101384104Y-101386726D01*
X101404940Y-101354304D01*
X101403298Y-101353031D01*
X101408075Y-101346870D01*
X101408081Y-101346865D01*
X101491744Y-101205398D01*
X101537598Y-101047569D01*
X101540500Y-101010694D01*
X101540500Y-100648405D01*
X101560185Y-100581366D01*
X101612989Y-100535611D01*
X101682147Y-100525667D01*
X101745703Y-100554692D01*
X101767602Y-100579514D01*
X101808210Y-100640288D01*
X101808213Y-100640292D01*
X101919707Y-100751786D01*
X101919711Y-100751789D01*
X102050814Y-100839390D01*
X102050827Y-100839397D01*
X102196498Y-100899735D01*
X102196503Y-100899737D01*
X102351153Y-100930499D01*
X102351156Y-100930500D01*
X102351158Y-100930500D01*
X102508844Y-100930500D01*
X102508845Y-100930499D01*
X102663497Y-100899737D01*
X102689515Y-100888959D01*
X102758982Y-100881490D01*
X102821462Y-100912763D01*
X102824649Y-100915839D01*
X102901650Y-100992840D01*
X103048484Y-101083408D01*
X103212247Y-101137674D01*
X103313323Y-101148000D01*
X103886676Y-101147999D01*
X103886684Y-101147998D01*
X103886687Y-101147998D01*
X103942030Y-101142344D01*
X103987753Y-101137674D01*
X104151516Y-101083408D01*
X104298350Y-100992840D01*
X104420340Y-100870850D01*
X104510908Y-100724016D01*
X104565174Y-100560253D01*
X104575500Y-100459177D01*
X104575499Y-99760824D01*
X104574451Y-99750568D01*
X104565174Y-99659747D01*
X104560088Y-99644399D01*
X104510908Y-99495984D01*
X104420340Y-99349150D01*
X104406017Y-99334827D01*
X104372532Y-99273504D01*
X104377516Y-99203812D01*
X104406021Y-99159460D01*
X104419947Y-99145535D01*
X104510448Y-98998811D01*
X104510453Y-98998800D01*
X104564680Y-98835152D01*
X104574999Y-98734154D01*
X104575000Y-98734141D01*
X104575000Y-98635000D01*
X102625001Y-98635000D01*
X102625001Y-98734154D01*
X102635319Y-98835152D01*
X102689546Y-98998800D01*
X102689551Y-98998811D01*
X102780052Y-99145534D01*
X102780055Y-99145538D01*
X102788989Y-99154472D01*
X102822474Y-99215795D01*
X102817490Y-99285487D01*
X102775618Y-99341420D01*
X102710154Y-99365837D01*
X102669505Y-99361283D01*
X102669472Y-99361451D01*
X102667501Y-99361059D01*
X102665314Y-99360814D01*
X102663493Y-99360261D01*
X102508845Y-99329500D01*
X102508842Y-99329500D01*
X102351158Y-99329500D01*
X102351155Y-99329500D01*
X102196510Y-99360261D01*
X102196498Y-99360264D01*
X102050827Y-99420602D01*
X102050814Y-99420609D01*
X101919711Y-99508210D01*
X101919707Y-99508213D01*
X101808213Y-99619707D01*
X101767602Y-99680486D01*
X101713989Y-99725290D01*
X101644664Y-99733997D01*
X101581637Y-99703842D01*
X101544918Y-99644399D01*
X101540500Y-99611594D01*
X101540500Y-99309313D01*
X101540499Y-99309298D01*
X101539482Y-99296380D01*
X101537598Y-99272431D01*
X101537389Y-99271712D01*
X101491745Y-99114606D01*
X101491744Y-99114603D01*
X101491744Y-99114602D01*
X101408081Y-98973135D01*
X101408078Y-98973132D01*
X101403298Y-98966969D01*
X101405635Y-98965155D01*
X101378798Y-98916050D01*
X101383756Y-98846356D01*
X101404554Y-98813998D01*
X101402903Y-98812717D01*
X101407686Y-98806550D01*
X101491281Y-98665198D01*
X101537100Y-98507486D01*
X101537295Y-98505001D01*
X101537295Y-98505000D01*
X98592705Y-98505000D01*
X98592704Y-98505001D01*
X98592899Y-98507486D01*
X98638718Y-98665198D01*
X98722314Y-98806552D01*
X98727100Y-98812722D01*
X98724640Y-98814629D01*
X98751210Y-98863288D01*
X98746226Y-98932980D01*
X98725162Y-98965781D01*
X98726699Y-98966974D01*
X98721915Y-98973140D01*
X98638255Y-99114603D01*
X98638254Y-99114606D01*
X98592402Y-99272426D01*
X98592401Y-99272432D01*
X98589500Y-99309298D01*
X96590499Y-99309298D01*
X96587598Y-99272431D01*
X96587389Y-99271712D01*
X96541745Y-99114606D01*
X96541744Y-99114603D01*
X96541744Y-99114602D01*
X96458081Y-98973135D01*
X96458078Y-98973132D01*
X96453298Y-98966969D01*
X96455750Y-98965066D01*
X96429155Y-98916421D01*
X96434104Y-98846726D01*
X96454940Y-98814304D01*
X96453298Y-98813031D01*
X96458075Y-98806870D01*
X96458081Y-98806865D01*
X96541744Y-98665398D01*
X96587598Y-98507569D01*
X96590500Y-98470694D01*
X96590500Y-98039306D01*
X96590228Y-98035845D01*
X102625000Y-98035845D01*
X102625000Y-98135000D01*
X103350000Y-98135000D01*
X103850000Y-98135000D01*
X104574999Y-98135000D01*
X104574999Y-98035860D01*
X104574998Y-98035845D01*
X104564680Y-97934847D01*
X104510453Y-97771199D01*
X104510448Y-97771188D01*
X104419947Y-97624465D01*
X104419944Y-97624461D01*
X104298038Y-97502555D01*
X104298034Y-97502552D01*
X104151311Y-97412051D01*
X104151300Y-97412046D01*
X103987652Y-97357819D01*
X103886654Y-97347500D01*
X103850000Y-97347500D01*
X103850000Y-98135000D01*
X103350000Y-98135000D01*
X103350000Y-97347500D01*
X103313361Y-97347500D01*
X103313343Y-97347501D01*
X103212347Y-97357819D01*
X103048699Y-97412046D01*
X103048688Y-97412051D01*
X102901965Y-97502552D01*
X102901961Y-97502555D01*
X102780055Y-97624461D01*
X102780052Y-97624465D01*
X102689551Y-97771188D01*
X102689546Y-97771199D01*
X102635319Y-97934847D01*
X102625000Y-98035845D01*
X96590228Y-98035845D01*
X96587800Y-98004998D01*
X98592704Y-98004998D01*
X98592705Y-98005000D01*
X99815000Y-98005000D01*
X100315000Y-98005000D01*
X101537295Y-98005000D01*
X101537295Y-98004998D01*
X101537100Y-98002513D01*
X101491281Y-97844801D01*
X101407685Y-97703447D01*
X101407678Y-97703438D01*
X101291561Y-97587321D01*
X101291552Y-97587314D01*
X101150196Y-97503717D01*
X101150193Y-97503716D01*
X100992495Y-97457900D01*
X100992489Y-97457899D01*
X100955649Y-97455000D01*
X100315000Y-97455000D01*
X100315000Y-98005000D01*
X99815000Y-98005000D01*
X99815000Y-97455000D01*
X99174350Y-97455000D01*
X99137510Y-97457899D01*
X99137504Y-97457900D01*
X98979806Y-97503716D01*
X98979803Y-97503717D01*
X98838447Y-97587314D01*
X98838438Y-97587321D01*
X98722321Y-97703438D01*
X98722314Y-97703447D01*
X98638718Y-97844801D01*
X98592899Y-98002513D01*
X98592704Y-98004998D01*
X96587800Y-98004998D01*
X96587598Y-98002431D01*
X96584063Y-97990265D01*
X96542495Y-97847188D01*
X96541744Y-97844602D01*
X96458081Y-97703135D01*
X96458079Y-97703133D01*
X96458076Y-97703129D01*
X96392127Y-97637180D01*
X96358642Y-97575857D01*
X96363626Y-97506165D01*
X96405498Y-97450232D01*
X96470962Y-97425815D01*
X96479785Y-97425499D01*
X96969176Y-97425499D01*
X96969184Y-97425498D01*
X96969187Y-97425498D01*
X97024530Y-97419844D01*
X97070253Y-97415174D01*
X97234016Y-97360908D01*
X97380850Y-97270340D01*
X97502840Y-97148350D01*
X97514526Y-97129404D01*
X97566474Y-97082679D01*
X97620065Y-97070500D01*
X100253331Y-97070500D01*
X100253347Y-97070501D01*
X100260943Y-97070501D01*
X100419054Y-97070501D01*
X100419057Y-97070501D01*
X100571785Y-97029577D01*
X100629858Y-96996048D01*
X100708716Y-96950520D01*
X100820520Y-96838716D01*
X100820520Y-96838714D01*
X100830724Y-96828511D01*
X100830727Y-96828506D01*
X102125520Y-95533716D01*
X102204577Y-95396784D01*
X102226158Y-95316242D01*
X102262522Y-95256585D01*
X102319507Y-95228903D01*
X102319227Y-95227856D01*
X102324661Y-95226399D01*
X102325369Y-95226056D01*
X102326671Y-95225860D01*
X102327074Y-95225752D01*
X102327083Y-95225751D01*
X102466467Y-95168016D01*
X102466468Y-95168016D01*
X102466468Y-95168015D01*
X102466472Y-95168014D01*
X102586168Y-95076168D01*
X102678014Y-94956472D01*
X102735751Y-94817083D01*
X102750500Y-94705053D01*
X102750499Y-94194948D01*
X102746133Y-94161786D01*
X102735752Y-94082924D01*
X102735751Y-94082920D01*
X102735751Y-94082917D01*
X102710704Y-94022449D01*
X102707196Y-93989821D01*
X102702528Y-93957353D01*
X102703481Y-93955265D01*
X102703236Y-93952984D01*
X102710702Y-93927556D01*
X102735751Y-93867083D01*
X102750500Y-93755053D01*
X102750499Y-93244948D01*
X102739423Y-93160814D01*
X102735752Y-93132924D01*
X102735751Y-93132920D01*
X102735751Y-93132917D01*
X102710433Y-93071795D01*
X102706898Y-93038912D01*
X102702335Y-93006163D01*
X102703180Y-93004333D01*
X102702965Y-93002331D01*
X102710435Y-92976891D01*
X102735263Y-92916952D01*
X102735263Y-92916951D01*
X102749999Y-92805030D01*
X102750000Y-92805016D01*
X102750000Y-92800000D01*
X102530899Y-92800000D01*
X102474111Y-92784782D01*
X102473982Y-92785096D01*
X102471601Y-92784110D01*
X102468896Y-92783385D01*
X102466471Y-92781984D01*
X102327086Y-92724250D01*
X102327084Y-92724249D01*
X102327083Y-92724249D01*
X102313079Y-92722405D01*
X102215060Y-92709500D01*
X101074945Y-92709500D01*
X100962924Y-92724247D01*
X100962913Y-92724250D01*
X100823528Y-92781984D01*
X100821104Y-92783385D01*
X100818398Y-92784110D01*
X100816018Y-92785096D01*
X100815888Y-92784782D01*
X100759101Y-92800000D01*
X100488639Y-92800000D01*
X100488639Y-92798007D01*
X100442739Y-92794716D01*
X100438644Y-92793105D01*
X100402695Y-92778215D01*
X100383497Y-92770263D01*
X100383493Y-92770262D01*
X100383489Y-92770261D01*
X100228845Y-92739500D01*
X100228842Y-92739500D01*
X100071158Y-92739500D01*
X100071155Y-92739500D01*
X99916510Y-92770261D01*
X99916498Y-92770264D01*
X99770827Y-92830602D01*
X99770814Y-92830609D01*
X99639711Y-92918210D01*
X99639707Y-92918213D01*
X99528213Y-93029707D01*
X99528210Y-93029711D01*
X99440609Y-93160814D01*
X99440602Y-93160827D01*
X99380264Y-93306498D01*
X99380261Y-93306510D01*
X99349500Y-93461153D01*
X99349500Y-93618846D01*
X99380261Y-93773489D01*
X99380264Y-93773501D01*
X99440602Y-93919172D01*
X99440609Y-93919185D01*
X99528210Y-94050288D01*
X99528213Y-94050292D01*
X99639707Y-94161786D01*
X99639711Y-94161789D01*
X99770814Y-94249390D01*
X99770827Y-94249397D01*
X99870060Y-94290500D01*
X99916503Y-94309737D01*
X100071153Y-94340499D01*
X100071156Y-94340500D01*
X100071158Y-94340500D01*
X100228844Y-94340500D01*
X100228845Y-94340499D01*
X100308294Y-94324696D01*
X100389472Y-94308549D01*
X100389932Y-94310863D01*
X100449327Y-94310311D01*
X100508454Y-94347537D01*
X100538068Y-94410820D01*
X100539500Y-94429608D01*
X100539500Y-94705054D01*
X100554247Y-94817075D01*
X100554250Y-94817086D01*
X100611983Y-94956467D01*
X100611983Y-94956468D01*
X100611985Y-94956471D01*
X100611986Y-94956472D01*
X100703832Y-95076168D01*
X100703834Y-95076169D01*
X100703836Y-95076172D01*
X100706533Y-95078869D01*
X100708081Y-95081704D01*
X100708780Y-95082615D01*
X100708637Y-95082723D01*
X100740018Y-95140192D01*
X100735034Y-95209884D01*
X100706533Y-95254231D01*
X100127584Y-95833181D01*
X100066261Y-95866666D01*
X100039903Y-95869500D01*
X97644737Y-95869500D01*
X97641062Y-95868421D01*
X97637329Y-95869279D01*
X97607795Y-95858652D01*
X97577698Y-95849815D01*
X97574144Y-95846544D01*
X97571585Y-95845624D01*
X97562694Y-95836009D01*
X97546340Y-95820959D01*
X97542509Y-95815964D01*
X97502840Y-95751650D01*
X97461434Y-95710244D01*
X97456480Y-95703784D01*
X97446706Y-95678482D01*
X97433711Y-95654683D01*
X97434304Y-95646377D01*
X97431304Y-95638608D01*
X97436760Y-95612041D01*
X97438695Y-95584991D01*
X97444938Y-95572225D01*
X97445361Y-95570167D01*
X97446530Y-95568970D01*
X97449334Y-95563236D01*
X97505908Y-95471516D01*
X97560174Y-95307753D01*
X97570500Y-95206677D01*
X97570499Y-94633324D01*
X97560174Y-94532247D01*
X97505908Y-94368484D01*
X97415340Y-94221650D01*
X97293350Y-94099660D01*
X97168179Y-94022454D01*
X97146518Y-94009093D01*
X97146513Y-94009091D01*
X97132999Y-94004613D01*
X96982753Y-93954826D01*
X96982751Y-93954825D01*
X96881678Y-93944500D01*
X96183330Y-93944500D01*
X96183312Y-93944501D01*
X96082247Y-93954825D01*
X95918484Y-94009092D01*
X95918481Y-94009093D01*
X95771648Y-94099661D01*
X95757681Y-94113629D01*
X95696358Y-94147114D01*
X95626666Y-94142130D01*
X95599990Y-94128293D01*
X95590472Y-94121782D01*
X95568350Y-94099660D01*
X95464422Y-94035556D01*
X95461990Y-94033893D01*
X95441663Y-94009024D01*
X95420178Y-93985138D01*
X95419423Y-93981815D01*
X95417772Y-93979796D01*
X95416560Y-93969217D01*
X95408000Y-93931548D01*
X95408000Y-93883777D01*
X95427685Y-93816738D01*
X95428842Y-93814970D01*
X95439394Y-93799179D01*
X95499737Y-93653497D01*
X95530500Y-93498842D01*
X95530500Y-93341158D01*
X95530500Y-93341155D01*
X95530499Y-93341153D01*
X95519067Y-93283680D01*
X95499737Y-93186503D01*
X95489096Y-93160814D01*
X95439397Y-93040827D01*
X95439390Y-93040814D01*
X95351789Y-92909711D01*
X95351786Y-92909707D01*
X95240292Y-92798213D01*
X95240288Y-92798210D01*
X95109185Y-92710609D01*
X95109172Y-92710602D01*
X94963501Y-92650264D01*
X94963489Y-92650261D01*
X94808845Y-92619500D01*
X94808842Y-92619500D01*
X94651158Y-92619500D01*
X94651155Y-92619500D01*
X94496510Y-92650261D01*
X94496498Y-92650264D01*
X94350827Y-92710602D01*
X94350814Y-92710609D01*
X94219711Y-92798210D01*
X94219707Y-92798213D01*
X94108213Y-92909707D01*
X94108210Y-92909711D01*
X94020609Y-93040814D01*
X94020602Y-93040827D01*
X93960264Y-93186498D01*
X93960261Y-93186510D01*
X93929500Y-93341153D01*
X93929500Y-93498846D01*
X93960261Y-93653489D01*
X93960264Y-93653501D01*
X94020602Y-93799172D01*
X94020609Y-93799185D01*
X94098942Y-93916418D01*
X94119820Y-93983096D01*
X94101335Y-94050476D01*
X94060938Y-94090847D01*
X94046650Y-94099659D01*
X93924661Y-94221648D01*
X93834093Y-94368481D01*
X93834092Y-94368484D01*
X93779826Y-94532247D01*
X93779826Y-94532248D01*
X93779825Y-94532248D01*
X93769500Y-94633315D01*
X93769500Y-95206669D01*
X93769501Y-95206687D01*
X93779825Y-95307752D01*
X93814090Y-95411153D01*
X93834092Y-95471516D01*
X93894940Y-95570167D01*
X93924661Y-95618351D01*
X93960303Y-95653993D01*
X93993788Y-95715316D01*
X93988804Y-95785008D01*
X93978161Y-95806770D01*
X93921595Y-95898477D01*
X93921591Y-95898486D01*
X93911314Y-95929500D01*
X93867326Y-96062247D01*
X93867326Y-96062248D01*
X93867325Y-96062248D01*
X93857000Y-96163315D01*
X93857000Y-96736669D01*
X93857001Y-96736687D01*
X93867325Y-96837752D01*
X93873502Y-96856392D01*
X93919781Y-96996052D01*
X93921592Y-97001515D01*
X93924646Y-97008064D01*
X93921924Y-97009332D01*
X93936762Y-97063681D01*
X93915802Y-97130333D01*
X93862135Y-97175072D01*
X93792799Y-97183694D01*
X93765334Y-97175876D01*
X93703497Y-97150263D01*
X93703489Y-97150261D01*
X93548845Y-97119500D01*
X93548842Y-97119500D01*
X93391158Y-97119500D01*
X93391155Y-97119500D01*
X93236510Y-97150261D01*
X93236498Y-97150264D01*
X93090827Y-97210602D01*
X93090814Y-97210609D01*
X92959711Y-97298210D01*
X92959707Y-97298213D01*
X92848213Y-97409707D01*
X92848210Y-97409711D01*
X92760609Y-97540814D01*
X92760602Y-97540827D01*
X92700264Y-97686498D01*
X92700261Y-97686510D01*
X92669500Y-97841153D01*
X92669500Y-97844141D01*
X92669057Y-97845647D01*
X92668903Y-97847218D01*
X92668605Y-97847188D01*
X92649815Y-97911180D01*
X92597011Y-97956935D01*
X92569692Y-97965758D01*
X92446508Y-97990261D01*
X92446498Y-97990264D01*
X92300827Y-98050602D01*
X92300814Y-98050609D01*
X92169711Y-98138210D01*
X92102180Y-98205741D01*
X92040856Y-98239225D01*
X91971165Y-98234240D01*
X91915231Y-98192369D01*
X91890815Y-98126904D01*
X91890499Y-98118059D01*
X91890499Y-97943257D01*
X91878378Y-97851184D01*
X91878378Y-97818814D01*
X91890499Y-97726748D01*
X91890500Y-97726741D01*
X91890499Y-97293260D01*
X91887482Y-97270340D01*
X91878378Y-97201184D01*
X91878378Y-97168814D01*
X91883567Y-97129404D01*
X91890500Y-97076741D01*
X91890499Y-96643260D01*
X91890499Y-96643258D01*
X91878378Y-96551184D01*
X91878378Y-96518814D01*
X91890499Y-96426748D01*
X91890500Y-96426741D01*
X91890499Y-95993260D01*
X91887493Y-95970423D01*
X91878378Y-95901184D01*
X91878378Y-95868814D01*
X91890499Y-95776748D01*
X91890500Y-95776741D01*
X91890499Y-95343260D01*
X91885825Y-95307752D01*
X91878378Y-95251184D01*
X91878378Y-95218814D01*
X91890499Y-95126748D01*
X91890500Y-95126741D01*
X91890499Y-94693260D01*
X91890499Y-94693258D01*
X91878378Y-94601184D01*
X91878378Y-94568814D01*
X91890499Y-94476748D01*
X91890500Y-94476741D01*
X91890499Y-94043260D01*
X91889068Y-94032391D01*
X91880989Y-93971018D01*
X91876074Y-93933680D01*
X91819596Y-93797331D01*
X91729754Y-93680246D01*
X91729752Y-93680245D01*
X91729752Y-93680244D01*
X91615239Y-93592376D01*
X91574036Y-93535948D01*
X91569881Y-93466202D01*
X91604093Y-93405282D01*
X91665811Y-93372529D01*
X91690725Y-93370000D01*
X91888058Y-93370000D01*
X91879193Y-93296166D01*
X91822718Y-93152956D01*
X91729703Y-93030296D01*
X91607043Y-92937281D01*
X91463833Y-92880806D01*
X91373837Y-92870000D01*
X90680000Y-92870000D01*
X90680000Y-93395500D01*
X90677449Y-93404185D01*
X90678738Y-93413147D01*
X90667759Y-93437187D01*
X90660315Y-93462539D01*
X90653474Y-93468466D01*
X90649713Y-93476703D01*
X90627478Y-93490992D01*
X90607511Y-93508294D01*
X90596996Y-93510581D01*
X90590935Y-93514477D01*
X90556000Y-93519500D01*
X90324000Y-93519500D01*
X90256961Y-93499815D01*
X90211206Y-93447011D01*
X90200000Y-93395500D01*
X90200000Y-92870000D01*
X89506163Y-92870000D01*
X89416167Y-92880806D01*
X89272956Y-92937281D01*
X89150296Y-93030296D01*
X89057281Y-93152956D01*
X89000806Y-93296166D01*
X89000806Y-93296167D01*
X88991939Y-93370000D01*
X89189276Y-93370000D01*
X89218036Y-93378445D01*
X89247405Y-93384469D01*
X89251212Y-93388186D01*
X89256315Y-93389685D01*
X89275939Y-93412332D01*
X89297394Y-93433283D01*
X89298586Y-93438469D01*
X89302070Y-93442489D01*
X89306336Y-93472161D01*
X89313056Y-93501375D01*
X89311256Y-93506380D01*
X89312014Y-93511647D01*
X89299560Y-93538916D01*
X89289420Y-93567125D01*
X89284269Y-93572399D01*
X89282989Y-93575203D01*
X89264766Y-93592371D01*
X89212601Y-93632400D01*
X89210676Y-93633877D01*
X89145507Y-93659070D01*
X89135191Y-93659500D01*
X88662941Y-93659500D01*
X88595902Y-93639815D01*
X88575260Y-93623181D01*
X88560292Y-93608213D01*
X88560288Y-93608210D01*
X88429185Y-93520609D01*
X88429172Y-93520602D01*
X88283501Y-93460264D01*
X88283489Y-93460261D01*
X88128845Y-93429500D01*
X88128842Y-93429500D01*
X87971158Y-93429500D01*
X87971155Y-93429500D01*
X87816510Y-93460261D01*
X87816498Y-93460264D01*
X87670827Y-93520602D01*
X87670814Y-93520609D01*
X87539711Y-93608210D01*
X87539707Y-93608213D01*
X87428213Y-93719707D01*
X87428210Y-93719711D01*
X87340609Y-93850814D01*
X87340604Y-93850824D01*
X87296038Y-93958416D01*
X87291359Y-93964221D01*
X87289700Y-93971493D01*
X87269732Y-93991058D01*
X87252197Y-94012819D01*
X87243883Y-94016387D01*
X87239795Y-94020394D01*
X87208599Y-94031533D01*
X87206602Y-94032391D01*
X87206053Y-94032504D01*
X87066503Y-94060263D01*
X87061116Y-94062494D01*
X87049625Y-94064872D01*
X87025817Y-94062925D01*
X87002056Y-94065396D01*
X86991628Y-94060130D01*
X86979988Y-94059179D01*
X86961010Y-94044669D01*
X86939687Y-94033902D01*
X86933762Y-94023836D01*
X86924483Y-94016742D01*
X86916362Y-93994275D01*
X86904245Y-93973689D01*
X86901808Y-93954011D01*
X86900732Y-93951033D01*
X86901190Y-93949022D01*
X86900500Y-93943444D01*
X86900500Y-93269060D01*
X86900501Y-93269047D01*
X86900501Y-93100944D01*
X86892692Y-93071800D01*
X86859577Y-92948216D01*
X86841526Y-92916951D01*
X86780524Y-92811290D01*
X86780518Y-92811282D01*
X86264205Y-92294969D01*
X100540000Y-92294969D01*
X100540000Y-92300000D01*
X101395000Y-92300000D01*
X101895000Y-92300000D01*
X102749999Y-92300000D01*
X102749999Y-92294977D01*
X102735264Y-92183050D01*
X102735262Y-92183045D01*
X102677579Y-92043782D01*
X102585811Y-91924188D01*
X102466217Y-91832420D01*
X102326955Y-91774737D01*
X102326951Y-91774736D01*
X102215030Y-91760000D01*
X101895000Y-91760000D01*
X101895000Y-92300000D01*
X101395000Y-92300000D01*
X101395000Y-91760000D01*
X101074977Y-91760000D01*
X100963050Y-91774735D01*
X100963045Y-91774737D01*
X100823782Y-91832420D01*
X100704188Y-91924188D01*
X100612420Y-92043782D01*
X100554737Y-92183044D01*
X100554736Y-92183048D01*
X100540000Y-92294969D01*
X86264205Y-92294969D01*
X86178717Y-92209481D01*
X86178716Y-92209480D01*
X86091904Y-92159360D01*
X86091904Y-92159359D01*
X86091900Y-92159358D01*
X86041785Y-92130423D01*
X85889057Y-92089499D01*
X85730943Y-92089499D01*
X85723347Y-92089499D01*
X85723331Y-92089500D01*
X83670940Y-92089500D01*
X83630019Y-92100464D01*
X83630019Y-92100465D01*
X83596711Y-92109390D01*
X83518214Y-92130423D01*
X83518209Y-92130426D01*
X83381290Y-92209475D01*
X83381282Y-92209481D01*
X82949479Y-92641284D01*
X82916913Y-92697691D01*
X82916902Y-92697710D01*
X82915881Y-92699480D01*
X82870423Y-92778215D01*
X82866904Y-92791347D01*
X82860197Y-92803908D01*
X82845290Y-92819094D01*
X82834215Y-92837262D01*
X82821306Y-92843530D01*
X82811255Y-92853772D01*
X82790506Y-92858489D01*
X82771365Y-92867785D01*
X82750814Y-92869500D01*
X82503257Y-92869500D01*
X82393688Y-92883924D01*
X82393679Y-92883926D01*
X82257331Y-92940403D01*
X82140246Y-93030246D01*
X82050403Y-93147331D01*
X81993926Y-93283679D01*
X81993925Y-93283681D01*
X81979500Y-93393258D01*
X81979500Y-93495500D01*
X81976949Y-93504185D01*
X81978238Y-93513147D01*
X81967259Y-93537187D01*
X81959815Y-93562539D01*
X81952974Y-93568466D01*
X81949213Y-93576703D01*
X81926978Y-93590992D01*
X81907011Y-93608294D01*
X81896496Y-93610581D01*
X81890435Y-93614477D01*
X81855500Y-93619500D01*
X81709057Y-93619500D01*
X81642018Y-93599815D01*
X81596263Y-93547011D01*
X81586319Y-93477853D01*
X81609790Y-93421189D01*
X81683796Y-93322331D01*
X81734091Y-93187483D01*
X81740500Y-93127873D01*
X81740499Y-92732128D01*
X81734091Y-92672517D01*
X81725791Y-92650264D01*
X81683797Y-92537671D01*
X81683793Y-92537664D01*
X81597547Y-92422455D01*
X81597544Y-92422452D01*
X81482335Y-92336206D01*
X81482328Y-92336202D01*
X81347482Y-92285908D01*
X81347483Y-92285908D01*
X81287883Y-92279501D01*
X81287881Y-92279500D01*
X81287873Y-92279500D01*
X81287864Y-92279500D01*
X80192129Y-92279500D01*
X80192123Y-92279501D01*
X80132516Y-92285908D01*
X79997671Y-92336202D01*
X79997664Y-92336206D01*
X79882455Y-92422452D01*
X79882452Y-92422455D01*
X79796206Y-92537664D01*
X79796202Y-92537671D01*
X79745910Y-92672513D01*
X79745909Y-92672517D01*
X79739500Y-92732127D01*
X79739500Y-92732134D01*
X79739500Y-92732135D01*
X79739500Y-93127870D01*
X79739501Y-93127876D01*
X79745908Y-93187483D01*
X79796202Y-93322328D01*
X79796204Y-93322331D01*
X79870209Y-93421189D01*
X79894627Y-93486653D01*
X79879776Y-93554926D01*
X79830371Y-93604332D01*
X79770943Y-93619500D01*
X79061847Y-93619500D01*
X78994808Y-93599815D01*
X78949053Y-93547011D01*
X78938558Y-93508756D01*
X78933598Y-93462626D01*
X78933596Y-93462620D01*
X78883354Y-93327913D01*
X78883350Y-93327906D01*
X78797190Y-93212812D01*
X78797187Y-93212809D01*
X78682093Y-93126649D01*
X78682086Y-93126645D01*
X78547379Y-93076403D01*
X78547372Y-93076401D01*
X78487844Y-93070000D01*
X78240000Y-93070000D01*
X78240000Y-93445500D01*
X78237449Y-93454185D01*
X78238738Y-93463147D01*
X78227759Y-93487187D01*
X78220315Y-93512539D01*
X78213474Y-93518466D01*
X78209713Y-93526703D01*
X78187478Y-93540992D01*
X78167511Y-93558294D01*
X78156996Y-93560581D01*
X78150935Y-93564477D01*
X78116000Y-93569500D01*
X78064000Y-93569500D01*
X77996961Y-93549815D01*
X77951206Y-93497011D01*
X77940000Y-93445500D01*
X77940000Y-93070000D01*
X77692155Y-93070000D01*
X77632627Y-93076401D01*
X77632616Y-93076403D01*
X77577832Y-93096837D01*
X77508141Y-93101821D01*
X77446818Y-93068335D01*
X77413333Y-93007012D01*
X77410500Y-92980655D01*
X77410500Y-88111153D01*
X78159500Y-88111153D01*
X78159500Y-88268846D01*
X78190261Y-88423489D01*
X78190264Y-88423501D01*
X78250602Y-88569172D01*
X78250609Y-88569185D01*
X78338210Y-88700288D01*
X78338213Y-88700292D01*
X78449707Y-88811786D01*
X78449711Y-88811789D01*
X78580814Y-88899390D01*
X78580827Y-88899397D01*
X78711223Y-88953408D01*
X78726503Y-88959737D01*
X78881158Y-88990500D01*
X78881847Y-88990637D01*
X78943758Y-89023022D01*
X78945337Y-89024573D01*
X79108784Y-89188020D01*
X79108786Y-89188021D01*
X79108790Y-89188024D01*
X79210335Y-89246650D01*
X79245716Y-89267077D01*
X79398443Y-89308001D01*
X79398445Y-89308001D01*
X79564154Y-89308001D01*
X79564170Y-89308000D01*
X79967513Y-89308000D01*
X80026942Y-89323169D01*
X80032669Y-89326296D01*
X80167517Y-89376591D01*
X80227127Y-89383000D01*
X80535930Y-89382999D01*
X80602968Y-89402683D01*
X80635195Y-89432688D01*
X80707809Y-89529687D01*
X80707812Y-89529690D01*
X80822906Y-89615850D01*
X80822913Y-89615854D01*
X80957620Y-89666096D01*
X80957627Y-89666098D01*
X81017155Y-89672499D01*
X81017172Y-89672500D01*
X81065000Y-89672500D01*
X81065000Y-89671127D01*
X81066987Y-89664357D01*
X81065761Y-89657408D01*
X81076703Y-89631268D01*
X81084685Y-89604088D01*
X81090016Y-89599468D01*
X81092742Y-89592958D01*
X81116080Y-89576883D01*
X81137489Y-89558333D01*
X81144472Y-89557328D01*
X81150284Y-89553326D01*
X81178603Y-89552421D01*
X81206647Y-89548389D01*
X81214754Y-89551266D01*
X81220118Y-89551095D01*
X81236603Y-89559020D01*
X81252674Y-89564724D01*
X81258176Y-89568016D01*
X81322669Y-89616296D01*
X81365629Y-89632319D01*
X81375353Y-89638138D01*
X81382845Y-89646246D01*
X81399360Y-89656860D01*
X81415000Y-89672500D01*
X81462819Y-89672500D01*
X81462831Y-89672499D01*
X81474394Y-89671256D01*
X81500906Y-89671256D01*
X81517127Y-89673000D01*
X81771604Y-89672999D01*
X81838643Y-89692683D01*
X81884398Y-89745487D01*
X81890261Y-89760992D01*
X81950602Y-89906672D01*
X81950609Y-89906685D01*
X82038210Y-90037788D01*
X82038213Y-90037792D01*
X82149707Y-90149286D01*
X82149711Y-90149289D01*
X82280814Y-90236890D01*
X82280827Y-90236897D01*
X82426498Y-90297235D01*
X82426503Y-90297237D01*
X82545067Y-90320821D01*
X82581153Y-90327999D01*
X82581156Y-90328000D01*
X82581158Y-90328000D01*
X82738844Y-90328000D01*
X82738845Y-90327999D01*
X82893497Y-90297237D01*
X83039179Y-90236894D01*
X83170289Y-90149289D01*
X83281789Y-90037789D01*
X83369394Y-89906679D01*
X83429737Y-89760997D01*
X83460500Y-89606342D01*
X83460500Y-89448658D01*
X83452743Y-89409662D01*
X83458969Y-89340074D01*
X83500050Y-89286204D01*
X83562191Y-89239685D01*
X83648350Y-89124593D01*
X83648354Y-89124586D01*
X83698596Y-88989879D01*
X83698598Y-88989872D01*
X83704999Y-88930344D01*
X83705000Y-88930327D01*
X83705000Y-88882500D01*
X83703627Y-88882500D01*
X83696857Y-88880512D01*
X83689909Y-88881739D01*
X83663768Y-88870796D01*
X83636588Y-88862815D01*
X83631968Y-88857484D01*
X83625459Y-88854759D01*
X83609383Y-88831419D01*
X83590833Y-88810011D01*
X83589829Y-88803028D01*
X83585826Y-88797217D01*
X83584921Y-88768896D01*
X83580889Y-88740853D01*
X83583766Y-88732745D01*
X83583595Y-88727383D01*
X83591519Y-88710898D01*
X83597224Y-88694826D01*
X83600516Y-88689324D01*
X83648796Y-88624831D01*
X83664820Y-88581868D01*
X83670638Y-88572146D01*
X83678748Y-88564651D01*
X83689361Y-88548138D01*
X83705000Y-88532499D01*
X83705000Y-88484682D01*
X83704999Y-88484664D01*
X83703756Y-88473103D01*
X83703756Y-88446590D01*
X83705500Y-88430373D01*
X83705499Y-87984628D01*
X83704008Y-87970758D01*
X83704008Y-87944249D01*
X83705500Y-87930373D01*
X83705499Y-87484628D01*
X83704884Y-87478911D01*
X83704008Y-87470758D01*
X83704008Y-87444248D01*
X83705500Y-87430373D01*
X83705499Y-86984628D01*
X83699091Y-86925017D01*
X83674877Y-86860097D01*
X83648797Y-86790171D01*
X83648793Y-86790164D01*
X83562547Y-86674955D01*
X83562544Y-86674952D01*
X83447335Y-86588706D01*
X83447328Y-86588702D01*
X83312482Y-86538408D01*
X83312483Y-86538408D01*
X83252883Y-86532001D01*
X83252881Y-86532000D01*
X83252873Y-86532000D01*
X83252865Y-86532000D01*
X82944070Y-86532000D01*
X82940052Y-86530820D01*
X82935967Y-86531735D01*
X82906809Y-86521058D01*
X82877031Y-86512315D01*
X82873170Y-86508742D01*
X82870357Y-86507712D01*
X82847431Y-86484923D01*
X82845251Y-86482905D01*
X82763278Y-86374762D01*
X82753766Y-86349720D01*
X82740931Y-86326215D01*
X82741549Y-86317559D01*
X82738468Y-86309446D01*
X82744004Y-86283239D01*
X82745915Y-86256523D01*
X82751116Y-86249574D01*
X82752910Y-86241085D01*
X82771735Y-86222031D01*
X82787787Y-86200590D01*
X82796965Y-86196497D01*
X82802017Y-86191384D01*
X82814894Y-86188501D01*
X82837901Y-86178241D01*
X82943497Y-86157237D01*
X83089179Y-86096894D01*
X83220289Y-86009289D01*
X83331789Y-85897789D01*
X83419394Y-85766679D01*
X83479737Y-85620997D01*
X83510500Y-85466342D01*
X83510500Y-85308658D01*
X83510500Y-85308655D01*
X83510499Y-85308653D01*
X83495520Y-85233350D01*
X83479737Y-85154003D01*
X83465653Y-85120001D01*
X83419397Y-85008327D01*
X83419390Y-85008314D01*
X83331789Y-84877211D01*
X83331786Y-84877207D01*
X83220292Y-84765713D01*
X83220288Y-84765710D01*
X83089185Y-84678109D01*
X83089172Y-84678102D01*
X82943501Y-84617764D01*
X82943489Y-84617761D01*
X82788845Y-84587000D01*
X82788842Y-84587000D01*
X82631158Y-84587000D01*
X82631153Y-84587000D01*
X82531040Y-84606914D01*
X82523133Y-84606206D01*
X82515695Y-84608981D01*
X82488831Y-84603137D01*
X82461449Y-84600687D01*
X82453439Y-84595438D01*
X82447422Y-84594129D01*
X82419168Y-84572978D01*
X82408517Y-84562327D01*
X82375032Y-84501004D01*
X82380016Y-84431312D01*
X82408517Y-84386964D01*
X82522448Y-84273033D01*
X82612948Y-84126311D01*
X82612953Y-84126300D01*
X82667180Y-83962652D01*
X82677499Y-83861654D01*
X82677500Y-83861641D01*
X82677500Y-83812500D01*
X81826500Y-83812500D01*
X81759461Y-83792815D01*
X81713706Y-83740011D01*
X81702500Y-83688500D01*
X81702500Y-83562500D01*
X81576500Y-83562500D01*
X81509461Y-83542815D01*
X81463706Y-83490011D01*
X81452500Y-83438500D01*
X81452500Y-83312500D01*
X81952500Y-83312500D01*
X82677499Y-83312500D01*
X82677499Y-83263360D01*
X82677498Y-83263345D01*
X82667180Y-83162347D01*
X82612953Y-82998699D01*
X82612948Y-82998688D01*
X82522447Y-82851965D01*
X82522444Y-82851961D01*
X82400538Y-82730055D01*
X82400534Y-82730052D01*
X82253811Y-82639551D01*
X82253800Y-82639546D01*
X82090152Y-82585319D01*
X81989154Y-82575000D01*
X81952500Y-82575000D01*
X81952500Y-83312500D01*
X81452500Y-83312500D01*
X81452500Y-82575000D01*
X81415861Y-82575000D01*
X81415843Y-82575001D01*
X81314847Y-82585319D01*
X81151199Y-82639546D01*
X81151187Y-82639552D01*
X81144093Y-82643928D01*
X81076700Y-82662367D01*
X81010037Y-82641443D01*
X80965269Y-82587800D01*
X80954999Y-82538388D01*
X80954999Y-82398360D01*
X80954998Y-82398345D01*
X80944680Y-82297347D01*
X80890453Y-82133699D01*
X80890448Y-82133688D01*
X80799947Y-81986965D01*
X80799944Y-81986961D01*
X80678038Y-81865055D01*
X80678034Y-81865052D01*
X80531311Y-81774551D01*
X80531300Y-81774546D01*
X80367652Y-81720319D01*
X80266654Y-81710000D01*
X80230000Y-81710000D01*
X80230000Y-82573500D01*
X80210315Y-82640539D01*
X80157511Y-82686294D01*
X80106000Y-82697500D01*
X79980000Y-82697500D01*
X79980000Y-82823500D01*
X79960315Y-82890539D01*
X79907511Y-82936294D01*
X79856000Y-82947500D01*
X79005001Y-82947500D01*
X79005001Y-82996654D01*
X79015319Y-83097652D01*
X79069546Y-83261300D01*
X79069551Y-83261311D01*
X79160052Y-83408034D01*
X79160055Y-83408038D01*
X79273982Y-83521965D01*
X79307467Y-83583288D01*
X79302483Y-83652980D01*
X79273983Y-83697327D01*
X79159659Y-83811651D01*
X79069093Y-83958481D01*
X79069091Y-83958486D01*
X79055500Y-83999501D01*
X79014826Y-84122247D01*
X79014826Y-84122248D01*
X79014825Y-84122248D01*
X79004500Y-84223315D01*
X79004500Y-84821669D01*
X79004501Y-84821687D01*
X79014825Y-84922752D01*
X79069092Y-85086515D01*
X79069093Y-85086518D01*
X79101575Y-85139179D01*
X79159660Y-85233350D01*
X79281650Y-85355340D01*
X79300595Y-85367025D01*
X79347320Y-85418970D01*
X79359500Y-85472564D01*
X79359500Y-85618846D01*
X79390261Y-85773489D01*
X79390264Y-85773501D01*
X79450602Y-85919172D01*
X79450609Y-85919185D01*
X79538210Y-86050288D01*
X79538213Y-86050292D01*
X79649707Y-86161786D01*
X79649711Y-86161789D01*
X79780814Y-86249390D01*
X79780827Y-86249397D01*
X79893203Y-86295944D01*
X79926503Y-86309737D01*
X80009343Y-86326215D01*
X80055242Y-86335345D01*
X80117153Y-86367730D01*
X80151727Y-86428445D01*
X80147988Y-86498215D01*
X80107122Y-86554887D01*
X80074386Y-86573143D01*
X80032674Y-86588701D01*
X80032664Y-86588706D01*
X79917455Y-86674952D01*
X79917452Y-86674955D01*
X79831206Y-86790164D01*
X79831202Y-86790171D01*
X79780910Y-86925013D01*
X79780909Y-86925017D01*
X79774500Y-86984627D01*
X79774500Y-86984634D01*
X79774500Y-86984635D01*
X79774500Y-87430366D01*
X79774501Y-87430373D01*
X79775992Y-87444248D01*
X79776679Y-87459855D01*
X79776574Y-87465322D01*
X79774500Y-87484627D01*
X79774500Y-87574254D01*
X79774478Y-87575420D01*
X79764330Y-87607693D01*
X79754815Y-87640098D01*
X79753888Y-87640900D01*
X79753520Y-87642073D01*
X79727527Y-87663742D01*
X79702011Y-87685853D01*
X79700797Y-87686027D01*
X79699854Y-87686814D01*
X79666288Y-87690989D01*
X79632853Y-87695797D01*
X79631737Y-87695287D01*
X79630519Y-87695439D01*
X79600040Y-87680811D01*
X79569297Y-87666772D01*
X79567714Y-87665298D01*
X79567528Y-87665209D01*
X79567406Y-87665011D01*
X79562819Y-87660740D01*
X79470292Y-87568213D01*
X79470288Y-87568210D01*
X79339185Y-87480609D01*
X79339172Y-87480602D01*
X79193501Y-87420264D01*
X79193489Y-87420261D01*
X79038845Y-87389500D01*
X79038842Y-87389500D01*
X78881158Y-87389500D01*
X78881155Y-87389500D01*
X78726510Y-87420261D01*
X78726498Y-87420264D01*
X78580827Y-87480602D01*
X78580814Y-87480609D01*
X78449711Y-87568210D01*
X78449707Y-87568213D01*
X78338213Y-87679707D01*
X78338210Y-87679711D01*
X78250609Y-87810814D01*
X78250602Y-87810827D01*
X78190264Y-87956498D01*
X78190261Y-87956510D01*
X78159500Y-88111153D01*
X77410500Y-88111153D01*
X77410500Y-82398345D01*
X79005000Y-82398345D01*
X79005000Y-82447500D01*
X79730000Y-82447500D01*
X79730000Y-81710000D01*
X79693361Y-81710000D01*
X79693343Y-81710001D01*
X79592347Y-81720319D01*
X79428699Y-81774546D01*
X79428688Y-81774551D01*
X79281965Y-81865052D01*
X79281961Y-81865055D01*
X79160055Y-81986961D01*
X79160052Y-81986965D01*
X79069551Y-82133688D01*
X79069546Y-82133699D01*
X79015319Y-82297347D01*
X79005000Y-82398345D01*
X77410500Y-82398345D01*
X77410500Y-74341889D01*
X77430185Y-74274850D01*
X77482989Y-74229095D01*
X77552147Y-74219151D01*
X77615703Y-74248176D01*
X77622181Y-74254208D01*
X77702490Y-74334517D01*
X77814976Y-74416243D01*
X77893568Y-74473344D01*
X77964530Y-74509500D01*
X78011794Y-74533582D01*
X78062590Y-74581556D01*
X78079500Y-74644067D01*
X78079500Y-76375447D01*
X78059815Y-76442486D01*
X78043182Y-76463128D01*
X77924659Y-76581651D01*
X77834093Y-76728481D01*
X77834091Y-76728486D01*
X77828206Y-76746246D01*
X77779826Y-76892247D01*
X77779826Y-76892248D01*
X77779825Y-76892248D01*
X77769500Y-76993315D01*
X77769500Y-77566669D01*
X77769501Y-77566687D01*
X77779825Y-77667752D01*
X77793166Y-77708011D01*
X77834092Y-77831516D01*
X77924660Y-77978350D01*
X78046650Y-78100340D01*
X78193484Y-78190908D01*
X78357247Y-78245174D01*
X78458323Y-78255500D01*
X79056676Y-78255499D01*
X79056684Y-78255498D01*
X79056687Y-78255498D01*
X79112030Y-78249844D01*
X79157753Y-78245174D01*
X79321516Y-78190908D01*
X79468350Y-78100340D01*
X79582675Y-77986014D01*
X79643994Y-77952532D01*
X79713686Y-77957516D01*
X79758034Y-77986017D01*
X79871961Y-78099944D01*
X79871965Y-78099947D01*
X80018688Y-78190448D01*
X80018699Y-78190453D01*
X80182347Y-78244680D01*
X80283351Y-78254999D01*
X80832500Y-78254999D01*
X80881640Y-78254999D01*
X80881654Y-78254998D01*
X80982652Y-78244680D01*
X81146300Y-78190453D01*
X81146311Y-78190448D01*
X81293034Y-78099947D01*
X81293038Y-78099944D01*
X81414944Y-77978038D01*
X81414947Y-77978034D01*
X81505448Y-77831311D01*
X81505453Y-77831300D01*
X81559680Y-77667652D01*
X81569999Y-77566654D01*
X81570000Y-77566641D01*
X81570000Y-77530000D01*
X80832500Y-77530000D01*
X80832500Y-78254999D01*
X80283351Y-78254999D01*
X80332499Y-78254998D01*
X80332500Y-78254998D01*
X80332500Y-77030000D01*
X80832500Y-77030000D01*
X81569999Y-77030000D01*
X81569999Y-76993360D01*
X81569998Y-76993345D01*
X81559680Y-76892347D01*
X81505453Y-76728699D01*
X81505448Y-76728688D01*
X81414947Y-76581965D01*
X81414944Y-76581961D01*
X81293038Y-76460055D01*
X81293034Y-76460052D01*
X81146311Y-76369551D01*
X81146300Y-76369546D01*
X80982652Y-76315319D01*
X80881654Y-76305000D01*
X80832500Y-76305000D01*
X80832500Y-77030000D01*
X80332500Y-77030000D01*
X80332500Y-76305000D01*
X80332499Y-76304999D01*
X80283361Y-76305000D01*
X80283343Y-76305001D01*
X80182347Y-76315319D01*
X80018699Y-76369546D01*
X80018688Y-76369551D01*
X79871965Y-76460052D01*
X79758034Y-76573983D01*
X79696711Y-76607467D01*
X79627019Y-76602483D01*
X79582672Y-76573982D01*
X79468351Y-76459661D01*
X79468350Y-76459660D01*
X79339402Y-76380124D01*
X79292678Y-76328177D01*
X79280500Y-76274586D01*
X79280500Y-74644067D01*
X79300185Y-74577028D01*
X79348205Y-74533582D01*
X79466433Y-74473343D01*
X79657510Y-74334517D01*
X79824517Y-74167510D01*
X79963343Y-73976433D01*
X80023583Y-73858204D01*
X80071558Y-73807409D01*
X80134068Y-73790500D01*
X83725932Y-73790500D01*
X83792971Y-73810185D01*
X83836416Y-73858203D01*
X83896657Y-73976433D01*
X84035483Y-74167510D01*
X84202490Y-74334517D01*
X84393567Y-74473343D01*
X84492991Y-74524002D01*
X84604003Y-74580566D01*
X84604005Y-74580566D01*
X84604008Y-74580568D01*
X84720486Y-74618414D01*
X84828631Y-74653553D01*
X85061903Y-74690500D01*
X85061908Y-74690500D01*
X85298097Y-74690500D01*
X85531368Y-74653553D01*
X85560563Y-74644067D01*
X85755992Y-74580568D01*
X85966433Y-74473343D01*
X86157510Y-74334517D01*
X86324517Y-74167510D01*
X86463343Y-73976433D01*
X86570568Y-73765992D01*
X86643553Y-73541368D01*
X86680500Y-73308097D01*
X86680500Y-73071902D01*
X86649460Y-72875928D01*
X86653501Y-72844652D01*
X86655751Y-72813196D01*
X86657944Y-72810265D01*
X86658414Y-72806635D01*
X86678725Y-72782506D01*
X86697623Y-72757263D01*
X86701052Y-72755983D01*
X86703410Y-72753183D01*
X86733537Y-72743867D01*
X86763087Y-72732846D01*
X86766664Y-72733624D01*
X86770162Y-72732543D01*
X86800541Y-72740993D01*
X86831360Y-72747698D01*
X86835332Y-72750671D01*
X86837476Y-72751268D01*
X86859614Y-72768849D01*
X87025139Y-72934374D01*
X87025149Y-72934385D01*
X87029479Y-72938715D01*
X87029480Y-72938716D01*
X87141284Y-73050520D01*
X87141286Y-73050521D01*
X87141290Y-73050524D01*
X87274589Y-73127483D01*
X87278216Y-73129577D01*
X87390019Y-73159534D01*
X87430942Y-73170500D01*
X87430943Y-73170500D01*
X87949906Y-73170500D01*
X88016945Y-73190185D01*
X88062700Y-73242989D01*
X88073195Y-73307752D01*
X88069500Y-73342127D01*
X88069500Y-73342128D01*
X88069500Y-73342132D01*
X88069500Y-74337870D01*
X88069501Y-74337876D01*
X88075908Y-74397481D01*
X88088659Y-74431669D01*
X88093642Y-74501361D01*
X88088659Y-74518331D01*
X88075908Y-74552518D01*
X88070099Y-74606555D01*
X88069501Y-74612123D01*
X88069500Y-74612135D01*
X88069500Y-75607870D01*
X88069501Y-75607876D01*
X88075908Y-75667481D01*
X88088659Y-75701669D01*
X88090543Y-75728027D01*
X88096160Y-75753845D01*
X88093322Y-75766889D01*
X88093642Y-75771361D01*
X88088658Y-75788331D01*
X88088658Y-75788332D01*
X88084019Y-75800770D01*
X88042148Y-75856704D01*
X87976684Y-75881122D01*
X87908411Y-75866271D01*
X87898947Y-75860540D01*
X87839190Y-75820612D01*
X87839172Y-75820602D01*
X87693501Y-75760264D01*
X87693489Y-75760261D01*
X87538845Y-75729500D01*
X87538842Y-75729500D01*
X87381158Y-75729500D01*
X87381155Y-75729500D01*
X87226510Y-75760261D01*
X87226498Y-75760264D01*
X87080827Y-75820602D01*
X87080814Y-75820609D01*
X86949711Y-75908210D01*
X86949707Y-75908213D01*
X86838213Y-76019707D01*
X86838210Y-76019711D01*
X86750609Y-76150814D01*
X86750602Y-76150827D01*
X86690264Y-76296498D01*
X86690261Y-76296510D01*
X86659500Y-76451153D01*
X86659500Y-76608846D01*
X86690261Y-76763489D01*
X86690264Y-76763501D01*
X86750602Y-76909172D01*
X86750609Y-76909185D01*
X86838210Y-77040288D01*
X86838213Y-77040292D01*
X86949707Y-77151786D01*
X86949711Y-77151789D01*
X87080814Y-77239390D01*
X87080827Y-77239397D01*
X87148634Y-77267483D01*
X87226503Y-77299737D01*
X87315733Y-77317486D01*
X87381153Y-77330499D01*
X87381156Y-77330500D01*
X87381158Y-77330500D01*
X87538844Y-77330500D01*
X87538845Y-77330499D01*
X87693497Y-77299737D01*
X87839179Y-77239394D01*
X87839184Y-77239390D01*
X87839187Y-77239389D01*
X87876608Y-77214385D01*
X87943285Y-77193506D01*
X88010666Y-77211990D01*
X88057356Y-77263968D01*
X88069500Y-77317486D01*
X88069500Y-78147870D01*
X88069501Y-78147876D01*
X88075908Y-78207481D01*
X88088659Y-78241669D01*
X88095195Y-78302775D01*
X88093292Y-78315906D01*
X88075909Y-78362517D01*
X88069500Y-78422127D01*
X88069500Y-78480170D01*
X88068219Y-78489015D01*
X88057242Y-78512985D01*
X88049815Y-78538279D01*
X88042925Y-78544249D01*
X88039128Y-78552541D01*
X88016930Y-78566773D01*
X87997011Y-78584034D01*
X87987987Y-78585331D01*
X87980310Y-78590254D01*
X87953944Y-78590226D01*
X87927853Y-78593978D01*
X87919559Y-78590190D01*
X87910441Y-78590181D01*
X87888276Y-78575904D01*
X87864297Y-78564953D01*
X87858244Y-78556559D01*
X87851702Y-78552345D01*
X87845696Y-78539157D01*
X87830939Y-78518692D01*
X87819397Y-78490827D01*
X87819390Y-78490814D01*
X87731789Y-78359711D01*
X87731786Y-78359707D01*
X87620292Y-78248213D01*
X87620288Y-78248210D01*
X87489185Y-78160609D01*
X87489172Y-78160602D01*
X87343501Y-78100264D01*
X87343489Y-78100261D01*
X87188845Y-78069500D01*
X87188842Y-78069500D01*
X87031158Y-78069500D01*
X87031155Y-78069500D01*
X86876510Y-78100261D01*
X86876498Y-78100264D01*
X86730827Y-78160602D01*
X86730814Y-78160609D01*
X86599711Y-78248210D01*
X86599707Y-78248213D01*
X86488213Y-78359707D01*
X86488210Y-78359711D01*
X86400609Y-78490814D01*
X86400602Y-78490827D01*
X86340264Y-78636498D01*
X86340261Y-78636508D01*
X86309362Y-78791848D01*
X86276977Y-78853759D01*
X86275426Y-78855337D01*
X85565593Y-79565170D01*
X85565586Y-79565177D01*
X85562286Y-79568478D01*
X85562284Y-79568480D01*
X85450480Y-79680284D01*
X85423194Y-79727546D01*
X85417402Y-79737577D01*
X85417400Y-79737580D01*
X85371423Y-79817214D01*
X85371423Y-79817215D01*
X85330499Y-79969943D01*
X85330499Y-79969945D01*
X85330499Y-80138046D01*
X85330500Y-80138059D01*
X85330500Y-82995500D01*
X85310815Y-83062539D01*
X85258011Y-83108294D01*
X85206500Y-83119500D01*
X85051155Y-83119500D01*
X84896510Y-83150261D01*
X84896498Y-83150264D01*
X84750827Y-83210602D01*
X84750814Y-83210609D01*
X84619711Y-83298210D01*
X84619707Y-83298213D01*
X84508213Y-83409707D01*
X84508210Y-83409711D01*
X84420609Y-83540814D01*
X84420602Y-83540827D01*
X84360264Y-83686498D01*
X84360261Y-83686510D01*
X84329500Y-83841153D01*
X84329500Y-83998846D01*
X84360261Y-84153489D01*
X84360264Y-84153501D01*
X84420602Y-84299172D01*
X84420609Y-84299185D01*
X84508602Y-84430874D01*
X84529480Y-84497551D01*
X84529500Y-84499765D01*
X84529500Y-86013330D01*
X84529499Y-86013348D01*
X84529499Y-86179054D01*
X84529498Y-86179054D01*
X84570424Y-86331789D01*
X84570425Y-86331790D01*
X84588435Y-86362983D01*
X84596404Y-86376785D01*
X84638627Y-86449918D01*
X84649479Y-86468714D01*
X84649481Y-86468717D01*
X84768349Y-86587585D01*
X84768355Y-86587590D01*
X84953181Y-86772416D01*
X84986666Y-86833739D01*
X84989500Y-86860097D01*
X84989500Y-87220234D01*
X84969815Y-87287273D01*
X84968602Y-87289125D01*
X84880609Y-87420814D01*
X84880602Y-87420827D01*
X84820264Y-87566498D01*
X84820261Y-87566510D01*
X84789500Y-87721153D01*
X84789500Y-87878846D01*
X84820261Y-88033489D01*
X84820264Y-88033501D01*
X84880602Y-88179172D01*
X84880609Y-88179185D01*
X84968210Y-88310288D01*
X84968213Y-88310292D01*
X85079707Y-88421786D01*
X85079711Y-88421789D01*
X85210814Y-88509390D01*
X85210827Y-88509397D01*
X85333918Y-88560382D01*
X85356503Y-88569737D01*
X85478546Y-88594013D01*
X85511153Y-88600499D01*
X85511156Y-88600500D01*
X85511158Y-88600500D01*
X85668844Y-88600500D01*
X85668845Y-88600499D01*
X85823497Y-88569737D01*
X85828043Y-88567853D01*
X85897510Y-88560382D01*
X85959991Y-88591654D01*
X85995646Y-88651741D01*
X85999499Y-88682413D01*
X85999499Y-88839054D01*
X85999498Y-88839054D01*
X86040423Y-88991786D01*
X86040424Y-88991787D01*
X86055680Y-89018211D01*
X86117138Y-89124660D01*
X86119481Y-89128717D01*
X86233181Y-89242417D01*
X86266666Y-89303740D01*
X86269500Y-89330098D01*
X86269500Y-90520234D01*
X86249815Y-90587273D01*
X86248602Y-90589125D01*
X86160609Y-90720814D01*
X86160602Y-90720827D01*
X86100264Y-90866498D01*
X86100261Y-90866510D01*
X86069500Y-91021153D01*
X86069500Y-91178846D01*
X86100261Y-91333489D01*
X86100264Y-91333501D01*
X86160602Y-91479172D01*
X86160609Y-91479185D01*
X86248210Y-91610288D01*
X86248213Y-91610292D01*
X86359707Y-91721786D01*
X86359711Y-91721789D01*
X86490814Y-91809390D01*
X86490827Y-91809397D01*
X86617206Y-91861744D01*
X86636503Y-91869737D01*
X86755952Y-91893497D01*
X86791153Y-91900499D01*
X86791156Y-91900500D01*
X86791158Y-91900500D01*
X86948844Y-91900500D01*
X86948845Y-91900499D01*
X87103497Y-91869737D01*
X87249179Y-91809394D01*
X87380289Y-91721789D01*
X87491789Y-91610289D01*
X87579394Y-91479179D01*
X87639737Y-91333497D01*
X87670500Y-91178842D01*
X87670500Y-91021158D01*
X87670500Y-91021155D01*
X87670499Y-91021153D01*
X87659424Y-90965478D01*
X87639737Y-90866503D01*
X87620572Y-90820234D01*
X87579397Y-90720827D01*
X87579390Y-90720814D01*
X87491398Y-90589125D01*
X87470520Y-90522447D01*
X87470500Y-90520234D01*
X87470500Y-89119060D01*
X87470501Y-89119047D01*
X87470501Y-88950944D01*
X87470501Y-88950943D01*
X87429577Y-88798216D01*
X87380261Y-88712797D01*
X87350524Y-88661290D01*
X87350518Y-88661282D01*
X87236819Y-88547583D01*
X87203334Y-88486260D01*
X87200500Y-88459902D01*
X87200500Y-86362983D01*
X87220185Y-86295944D01*
X87272989Y-86250189D01*
X87342147Y-86240245D01*
X87405703Y-86269270D01*
X87412181Y-86275302D01*
X87499186Y-86362307D01*
X87499190Y-86362310D01*
X87630293Y-86449911D01*
X87630306Y-86449918D01*
X87752424Y-86500500D01*
X87775982Y-86510258D01*
X87885286Y-86532000D01*
X87930632Y-86541020D01*
X87930635Y-86541021D01*
X87930637Y-86541021D01*
X88088323Y-86541021D01*
X88088324Y-86541020D01*
X88242976Y-86510258D01*
X88388658Y-86449915D01*
X88519768Y-86362310D01*
X88631268Y-86250810D01*
X88718873Y-86119700D01*
X88728320Y-86096894D01*
X88735533Y-86079478D01*
X88779216Y-85974018D01*
X88809979Y-85819363D01*
X88809979Y-85805628D01*
X88829664Y-85738589D01*
X88882468Y-85692834D01*
X88951626Y-85682890D01*
X88981429Y-85691066D01*
X89005107Y-85700874D01*
X89026497Y-85709735D01*
X89026499Y-85709735D01*
X89026503Y-85709737D01*
X89171551Y-85738589D01*
X89181153Y-85740499D01*
X89181156Y-85740500D01*
X89181158Y-85740500D01*
X89338844Y-85740500D01*
X89338845Y-85740499D01*
X89493497Y-85709737D01*
X89639179Y-85649394D01*
X89770289Y-85561789D01*
X89881789Y-85450289D01*
X89907398Y-85411961D01*
X89961009Y-85367158D01*
X90030334Y-85358449D01*
X90093362Y-85388604D01*
X90130081Y-85448046D01*
X90134500Y-85480853D01*
X90134500Y-86047870D01*
X90134501Y-86047876D01*
X90140908Y-86107483D01*
X90191202Y-86242328D01*
X90191206Y-86242335D01*
X90277452Y-86357544D01*
X90277455Y-86357547D01*
X90392664Y-86443793D01*
X90392671Y-86443797D01*
X90527517Y-86494091D01*
X90527516Y-86494091D01*
X90534444Y-86494835D01*
X90587127Y-86500500D01*
X91582872Y-86500499D01*
X91642483Y-86494091D01*
X91676667Y-86481340D01*
X91746358Y-86476357D01*
X91763327Y-86481338D01*
X91797517Y-86494091D01*
X91857127Y-86500500D01*
X92180903Y-86500499D01*
X92247941Y-86520183D01*
X92293696Y-86572987D01*
X92303640Y-86642146D01*
X92274615Y-86705701D01*
X92268583Y-86712180D01*
X91867584Y-87113181D01*
X91806261Y-87146666D01*
X91779903Y-87149500D01*
X90079057Y-87149500D01*
X89920943Y-87149500D01*
X89768215Y-87190423D01*
X89768214Y-87190423D01*
X89768212Y-87190424D01*
X89768209Y-87190425D01*
X89718096Y-87219359D01*
X89718095Y-87219360D01*
X89689050Y-87236129D01*
X89631285Y-87269479D01*
X89631282Y-87269481D01*
X89519480Y-87381283D01*
X89519480Y-87381284D01*
X89519478Y-87381286D01*
X89480677Y-87420087D01*
X89455337Y-87445427D01*
X89394013Y-87478911D01*
X89391848Y-87479362D01*
X89236508Y-87510261D01*
X89236498Y-87510264D01*
X89090827Y-87570602D01*
X89090814Y-87570609D01*
X88959711Y-87658210D01*
X88959707Y-87658213D01*
X88848213Y-87769707D01*
X88848210Y-87769711D01*
X88760609Y-87900814D01*
X88760602Y-87900827D01*
X88700264Y-88046498D01*
X88700261Y-88046510D01*
X88669500Y-88201153D01*
X88669500Y-88358846D01*
X88700261Y-88513489D01*
X88700264Y-88513501D01*
X88760602Y-88659172D01*
X88760609Y-88659185D01*
X88848210Y-88790288D01*
X88848213Y-88790292D01*
X88959707Y-88901786D01*
X88959711Y-88901789D01*
X89090814Y-88989390D01*
X89090827Y-88989397D01*
X89236498Y-89049735D01*
X89236503Y-89049737D01*
X89391153Y-89080499D01*
X89391156Y-89080500D01*
X89391158Y-89080500D01*
X89548844Y-89080500D01*
X89548845Y-89080499D01*
X89703497Y-89049737D01*
X89849179Y-88989394D01*
X89980289Y-88901789D01*
X90091789Y-88790289D01*
X90179394Y-88659179D01*
X90239737Y-88513497D01*
X90245469Y-88484682D01*
X90252307Y-88450308D01*
X90284692Y-88388397D01*
X90345408Y-88353823D01*
X90373924Y-88350500D01*
X91575499Y-88350500D01*
X91584184Y-88353050D01*
X91593145Y-88351762D01*
X91617186Y-88362740D01*
X91642538Y-88370185D01*
X91648464Y-88377024D01*
X91656701Y-88380786D01*
X91670991Y-88403021D01*
X91688293Y-88422989D01*
X91690580Y-88433501D01*
X91694476Y-88439564D01*
X91699498Y-88474497D01*
X91699499Y-88474499D01*
X91699499Y-88609057D01*
X91699499Y-88609059D01*
X91699500Y-88619053D01*
X91699500Y-90820234D01*
X91679815Y-90887273D01*
X91678602Y-90889125D01*
X91590609Y-91020814D01*
X91590602Y-91020827D01*
X91530264Y-91166498D01*
X91530261Y-91166510D01*
X91499500Y-91321153D01*
X91499500Y-91478846D01*
X91530261Y-91633489D01*
X91530264Y-91633501D01*
X91590602Y-91779172D01*
X91590609Y-91779185D01*
X91678210Y-91910288D01*
X91678213Y-91910292D01*
X91789707Y-92021786D01*
X91789711Y-92021789D01*
X91920814Y-92109390D01*
X91920827Y-92109397D01*
X92066498Y-92169735D01*
X92066503Y-92169737D01*
X92197696Y-92195833D01*
X92221153Y-92200499D01*
X92221156Y-92200500D01*
X92221158Y-92200500D01*
X92378844Y-92200500D01*
X92533492Y-92169738D01*
X92533492Y-92169737D01*
X92533497Y-92169737D01*
X92679179Y-92109394D01*
X92810289Y-92021789D01*
X92921789Y-91910289D01*
X93009394Y-91779179D01*
X93069737Y-91633497D01*
X93100500Y-91478842D01*
X93100500Y-91321158D01*
X93100500Y-91321155D01*
X93100499Y-91321153D01*
X93092476Y-91280821D01*
X93069737Y-91166503D01*
X93062649Y-91149390D01*
X93009397Y-91020827D01*
X93009390Y-91020814D01*
X92921398Y-90889125D01*
X92900520Y-90822447D01*
X92900500Y-90820234D01*
X92900500Y-88919945D01*
X92920185Y-88852906D01*
X92972989Y-88807151D01*
X93000309Y-88798328D01*
X93015894Y-88795227D01*
X93043497Y-88789737D01*
X93189179Y-88729394D01*
X93320289Y-88641789D01*
X93431789Y-88530289D01*
X93519394Y-88399179D01*
X93579737Y-88253497D01*
X93610500Y-88098842D01*
X93610500Y-87941158D01*
X93610500Y-87941155D01*
X93610499Y-87941153D01*
X93608355Y-87930373D01*
X93579737Y-87786503D01*
X93568650Y-87759737D01*
X93519397Y-87640827D01*
X93519390Y-87640814D01*
X93431789Y-87509711D01*
X93431786Y-87509707D01*
X93388337Y-87466258D01*
X93354852Y-87404935D01*
X93359836Y-87335243D01*
X93388335Y-87290898D01*
X93993713Y-86685521D01*
X93993716Y-86685520D01*
X94082822Y-86596413D01*
X94140491Y-86564925D01*
X94144142Y-86562932D01*
X94144144Y-86562931D01*
X94182598Y-86565682D01*
X94213834Y-86567916D01*
X94260008Y-86602482D01*
X94269768Y-86609789D01*
X94276235Y-86627128D01*
X94294184Y-86675252D01*
X94294500Y-86684098D01*
X94294500Y-87115040D01*
X94285061Y-87162492D01*
X94250263Y-87246501D01*
X94250260Y-87246511D01*
X94219500Y-87401153D01*
X94219500Y-87558846D01*
X94250261Y-87713489D01*
X94250264Y-87713501D01*
X94310602Y-87859172D01*
X94310609Y-87859185D01*
X94398210Y-87990288D01*
X94398213Y-87990292D01*
X94509707Y-88101786D01*
X94509711Y-88101789D01*
X94640814Y-88189390D01*
X94640827Y-88189397D01*
X94786498Y-88249735D01*
X94786503Y-88249737D01*
X94898768Y-88272068D01*
X94941153Y-88280499D01*
X94941156Y-88280500D01*
X94941158Y-88280500D01*
X95098844Y-88280500D01*
X95098845Y-88280499D01*
X95253497Y-88249737D01*
X95399179Y-88189394D01*
X95530289Y-88101789D01*
X95641789Y-87990289D01*
X95729394Y-87859179D01*
X95789737Y-87713497D01*
X95820500Y-87558842D01*
X95820500Y-87401158D01*
X95820500Y-87401155D01*
X95820499Y-87401153D01*
X95814139Y-87369179D01*
X95789737Y-87246503D01*
X95780208Y-87223497D01*
X95729397Y-87100827D01*
X95729390Y-87100814D01*
X95641789Y-86969711D01*
X95641786Y-86969707D01*
X95531819Y-86859740D01*
X95517115Y-86832812D01*
X95500523Y-86806994D01*
X95499631Y-86800793D01*
X95498334Y-86798417D01*
X95495500Y-86772059D01*
X95495500Y-86620093D01*
X95515185Y-86553054D01*
X95567989Y-86507299D01*
X95632754Y-86496804D01*
X95667127Y-86500500D01*
X96574340Y-86500499D01*
X96641379Y-86520183D01*
X96687134Y-86572987D01*
X96697078Y-86642146D01*
X96695958Y-86648688D01*
X96689500Y-86681157D01*
X96689500Y-86838846D01*
X96720261Y-86993489D01*
X96720264Y-86993501D01*
X96780602Y-87139172D01*
X96780609Y-87139185D01*
X96868210Y-87270288D01*
X96868213Y-87270292D01*
X96979707Y-87381786D01*
X96979711Y-87381789D01*
X97110814Y-87469390D01*
X97110827Y-87469397D01*
X97256498Y-87529735D01*
X97256503Y-87529737D01*
X97402823Y-87558842D01*
X97411153Y-87560499D01*
X97411156Y-87560500D01*
X97411158Y-87560500D01*
X97568844Y-87560500D01*
X97568845Y-87560499D01*
X97723497Y-87529737D01*
X97869179Y-87469394D01*
X97869184Y-87469390D01*
X97869187Y-87469389D01*
X97910143Y-87442023D01*
X97976820Y-87421144D01*
X98044201Y-87439628D01*
X98082137Y-87476233D01*
X98098210Y-87500289D01*
X98209707Y-87611786D01*
X98209711Y-87611789D01*
X98340814Y-87699390D01*
X98340827Y-87699397D01*
X98480378Y-87757200D01*
X98486503Y-87759737D01*
X98599457Y-87782205D01*
X98641153Y-87790499D01*
X98641156Y-87790500D01*
X98641158Y-87790500D01*
X98798844Y-87790500D01*
X98798845Y-87790499D01*
X98953497Y-87759737D01*
X99099179Y-87699394D01*
X99230289Y-87611789D01*
X99341789Y-87500289D01*
X99429394Y-87369179D01*
X99489737Y-87223497D01*
X99520500Y-87068842D01*
X99520500Y-86911158D01*
X99520500Y-86911155D01*
X99520499Y-86911153D01*
X99504223Y-86829331D01*
X99489737Y-86756503D01*
X99471378Y-86712180D01*
X99454715Y-86671951D01*
X99447246Y-86602482D01*
X99478521Y-86540003D01*
X99538610Y-86504351D01*
X99569268Y-86500499D01*
X100472872Y-86500499D01*
X100532483Y-86494091D01*
X100566667Y-86481340D01*
X100636358Y-86476357D01*
X100653327Y-86481338D01*
X100687517Y-86494091D01*
X100747127Y-86500500D01*
X101742872Y-86500499D01*
X101802483Y-86494091D01*
X101836667Y-86481340D01*
X101906358Y-86476357D01*
X101923327Y-86481338D01*
X101957517Y-86494091D01*
X102017127Y-86500500D01*
X103012872Y-86500499D01*
X103072483Y-86494091D01*
X103106667Y-86481340D01*
X103176358Y-86476357D01*
X103193327Y-86481338D01*
X103227517Y-86494091D01*
X103287127Y-86500500D01*
X104282872Y-86500499D01*
X104342483Y-86494091D01*
X104376667Y-86481340D01*
X104446358Y-86476357D01*
X104463327Y-86481338D01*
X104497517Y-86494091D01*
X104557127Y-86500500D01*
X105552872Y-86500499D01*
X105612483Y-86494091D01*
X105747331Y-86443796D01*
X105862546Y-86357546D01*
X105948796Y-86242331D01*
X105999091Y-86107483D01*
X106005500Y-86047873D01*
X106005499Y-85074498D01*
X106025183Y-85007460D01*
X106077987Y-84961705D01*
X106129494Y-84950499D01*
X107617872Y-84950499D01*
X107677483Y-84944091D01*
X107812331Y-84893796D01*
X107927546Y-84807546D01*
X108013796Y-84692331D01*
X108064091Y-84557483D01*
X108070500Y-84497873D01*
X108070499Y-83502128D01*
X108064091Y-83442517D01*
X108051340Y-83408332D01*
X108046357Y-83338642D01*
X108051340Y-83321669D01*
X108064091Y-83287483D01*
X108070500Y-83227873D01*
X108070499Y-82232128D01*
X108064091Y-82172517D01*
X108051340Y-82138332D01*
X108046357Y-82068642D01*
X108051340Y-82051669D01*
X108064091Y-82017483D01*
X108070500Y-81957873D01*
X108070499Y-80962128D01*
X108064091Y-80902517D01*
X108051340Y-80868332D01*
X108046357Y-80798642D01*
X108051340Y-80781669D01*
X108064091Y-80747483D01*
X108070500Y-80687873D01*
X108070499Y-79692128D01*
X108064091Y-79632517D01*
X108051340Y-79598332D01*
X108046357Y-79528642D01*
X108051340Y-79511669D01*
X108064091Y-79477483D01*
X108070500Y-79417873D01*
X108070499Y-78422128D01*
X108064091Y-78362517D01*
X108051340Y-78328332D01*
X108046357Y-78258642D01*
X108051340Y-78241669D01*
X108064091Y-78207483D01*
X108070500Y-78147873D01*
X108070499Y-77603797D01*
X108070499Y-77152129D01*
X108070498Y-77152123D01*
X108070497Y-77152116D01*
X108064091Y-77092517D01*
X108051340Y-77058332D01*
X108046357Y-76988642D01*
X108051340Y-76971669D01*
X108064091Y-76937483D01*
X108070500Y-76877873D01*
X108070499Y-76375447D01*
X108070499Y-75882129D01*
X108070498Y-75882123D01*
X108070497Y-75882116D01*
X108064091Y-75822517D01*
X108051340Y-75788332D01*
X108046357Y-75718642D01*
X108051340Y-75701669D01*
X108064091Y-75667483D01*
X108070500Y-75607873D01*
X108070499Y-74612128D01*
X108064091Y-74552517D01*
X108051340Y-74518332D01*
X108046357Y-74448642D01*
X108051340Y-74431669D01*
X108064091Y-74397483D01*
X108070500Y-74337873D01*
X108070499Y-73342128D01*
X108066804Y-73307753D01*
X108079211Y-73238994D01*
X108126822Y-73187857D01*
X108190094Y-73170500D01*
X120113331Y-73170500D01*
X120113347Y-73170501D01*
X120120943Y-73170501D01*
X120279054Y-73170501D01*
X120279057Y-73170501D01*
X120431785Y-73129577D01*
X120492541Y-73094499D01*
X120568716Y-73050520D01*
X120575144Y-73044091D01*
X120587791Y-73036381D01*
X120607786Y-73031020D01*
X120625949Y-73021096D01*
X120628152Y-73020637D01*
X120628841Y-73020500D01*
X120628842Y-73020500D01*
X120783497Y-72989737D01*
X120929179Y-72929394D01*
X121060289Y-72841789D01*
X121171789Y-72730289D01*
X121259394Y-72599179D01*
X121319737Y-72453497D01*
X121350500Y-72298842D01*
X121350500Y-72141158D01*
X121350500Y-72141155D01*
X121350499Y-72141153D01*
X121332108Y-72048691D01*
X121333985Y-72027707D01*
X121330987Y-72006853D01*
X121337036Y-71993605D01*
X121338335Y-71979099D01*
X121351260Y-71962460D01*
X121360012Y-71943297D01*
X121372263Y-71935423D01*
X121381198Y-71923922D01*
X121401066Y-71916912D01*
X121418790Y-71905523D01*
X121443373Y-71901988D01*
X121447088Y-71900678D01*
X121453725Y-71900500D01*
X121639903Y-71900500D01*
X121706942Y-71920185D01*
X121727584Y-71936819D01*
X123406241Y-73615476D01*
X123439726Y-73676799D01*
X123436492Y-73741473D01*
X123422753Y-73783757D01*
X123392237Y-73976433D01*
X123389500Y-73993713D01*
X123389500Y-74206287D01*
X123396135Y-74248176D01*
X123419782Y-74397483D01*
X123422754Y-74416243D01*
X123486403Y-74612135D01*
X123488444Y-74618414D01*
X123584951Y-74807820D01*
X123709890Y-74979786D01*
X123860213Y-75130109D01*
X124032179Y-75255048D01*
X124032181Y-75255049D01*
X124032184Y-75255051D01*
X124041493Y-75259794D01*
X124092290Y-75307766D01*
X124109087Y-75375587D01*
X124086552Y-75441722D01*
X124041505Y-75480760D01*
X124032446Y-75485376D01*
X124032440Y-75485380D01*
X123978282Y-75524727D01*
X123978282Y-75524728D01*
X124610591Y-76157037D01*
X124547007Y-76174075D01*
X124432993Y-76239901D01*
X124339901Y-76332993D01*
X124274075Y-76447007D01*
X124257037Y-76510591D01*
X123624728Y-75878282D01*
X123624727Y-75878282D01*
X123585380Y-75932439D01*
X123488904Y-76121782D01*
X123423242Y-76323869D01*
X123423242Y-76323872D01*
X123390000Y-76533753D01*
X123390000Y-76746246D01*
X123423242Y-76956127D01*
X123423242Y-76956130D01*
X123488904Y-77158217D01*
X123585375Y-77347550D01*
X123624728Y-77401716D01*
X124257037Y-76769408D01*
X124274075Y-76832993D01*
X124339901Y-76947007D01*
X124432993Y-77040099D01*
X124547007Y-77105925D01*
X124610590Y-77122962D01*
X123978282Y-77755269D01*
X123978282Y-77755270D01*
X124032449Y-77794624D01*
X124221782Y-77891095D01*
X124423870Y-77956757D01*
X124633754Y-77990000D01*
X124846246Y-77990000D01*
X125056127Y-77956757D01*
X125056130Y-77956757D01*
X125258217Y-77891095D01*
X125447554Y-77794622D01*
X125501716Y-77755270D01*
X125501717Y-77755270D01*
X124869408Y-77122962D01*
X124932993Y-77105925D01*
X125047007Y-77040099D01*
X125140099Y-76947007D01*
X125205925Y-76832993D01*
X125222962Y-76769408D01*
X125855270Y-77401717D01*
X125855270Y-77401716D01*
X125894622Y-77347554D01*
X125991095Y-77158217D01*
X126056757Y-76956130D01*
X126056757Y-76956127D01*
X126090000Y-76746246D01*
X126090000Y-76533753D01*
X126056757Y-76323872D01*
X126056757Y-76323869D01*
X125991095Y-76121782D01*
X125894624Y-75932449D01*
X125855270Y-75878282D01*
X125855269Y-75878282D01*
X125222962Y-76510590D01*
X125205925Y-76447007D01*
X125140099Y-76332993D01*
X125047007Y-76239901D01*
X124932993Y-76174075D01*
X124869409Y-76157037D01*
X125501716Y-75524728D01*
X125447547Y-75485373D01*
X125447547Y-75485372D01*
X125438500Y-75480763D01*
X125387706Y-75432788D01*
X125370912Y-75364966D01*
X125393451Y-75298832D01*
X125438508Y-75259793D01*
X125447816Y-75255051D01*
X125546297Y-75183501D01*
X125619786Y-75130109D01*
X125619788Y-75130106D01*
X125619792Y-75130104D01*
X125770104Y-74979792D01*
X125770106Y-74979788D01*
X125770109Y-74979786D01*
X125895048Y-74807820D01*
X125895047Y-74807820D01*
X125895051Y-74807816D01*
X125991557Y-74618412D01*
X126057246Y-74416243D01*
X126090500Y-74206287D01*
X126090500Y-73993713D01*
X126057246Y-73783757D01*
X125991557Y-73581588D01*
X125895051Y-73392184D01*
X125895049Y-73392181D01*
X125895048Y-73392179D01*
X125770109Y-73220213D01*
X125619786Y-73069890D01*
X125447820Y-72944951D01*
X125447115Y-72944591D01*
X125439054Y-72940485D01*
X125388259Y-72892512D01*
X125371463Y-72824692D01*
X125393999Y-72758556D01*
X125439054Y-72719515D01*
X125447816Y-72715051D01*
X125586891Y-72614008D01*
X125619786Y-72590109D01*
X125619788Y-72590106D01*
X125619792Y-72590104D01*
X125770104Y-72439792D01*
X125770106Y-72439788D01*
X125770109Y-72439786D01*
X125895048Y-72267820D01*
X125895047Y-72267820D01*
X125895051Y-72267816D01*
X125991557Y-72078412D01*
X126057246Y-71876243D01*
X126090500Y-71666287D01*
X126090500Y-71453713D01*
X126057246Y-71243757D01*
X125991557Y-71041588D01*
X125895051Y-70852184D01*
X125895049Y-70852181D01*
X125895048Y-70852179D01*
X125770109Y-70680213D01*
X125656569Y-70566673D01*
X125623084Y-70505350D01*
X125628068Y-70435658D01*
X125669940Y-70379725D01*
X125700915Y-70362810D01*
X125832331Y-70313796D01*
X125947546Y-70227546D01*
X126033796Y-70112331D01*
X126084091Y-69977483D01*
X126090500Y-69917873D01*
X126090499Y-68122128D01*
X126084091Y-68062517D01*
X126072070Y-68030288D01*
X126033797Y-67927671D01*
X126033793Y-67927664D01*
X125947547Y-67812455D01*
X125947544Y-67812452D01*
X125832335Y-67726206D01*
X125832328Y-67726202D01*
X125697482Y-67675908D01*
X125697483Y-67675908D01*
X125637883Y-67669501D01*
X125637881Y-67669500D01*
X125637873Y-67669500D01*
X125637864Y-67669500D01*
X123842129Y-67669500D01*
X123842123Y-67669501D01*
X123782516Y-67675908D01*
X123647671Y-67726202D01*
X123647664Y-67726206D01*
X123532455Y-67812452D01*
X123532452Y-67812455D01*
X123446206Y-67927664D01*
X123446202Y-67927671D01*
X123395908Y-68062517D01*
X123391034Y-68107860D01*
X123389501Y-68122123D01*
X123389500Y-68122135D01*
X123389500Y-69917870D01*
X123389501Y-69917876D01*
X123395908Y-69977483D01*
X123446202Y-70112328D01*
X123446206Y-70112335D01*
X123532452Y-70227544D01*
X123532455Y-70227547D01*
X123647664Y-70313793D01*
X123647671Y-70313797D01*
X123779082Y-70362810D01*
X123835016Y-70404681D01*
X123859433Y-70470145D01*
X123844582Y-70538418D01*
X123823431Y-70566673D01*
X123709889Y-70680215D01*
X123584951Y-70852179D01*
X123488444Y-71041585D01*
X123422753Y-71243760D01*
X123389500Y-71453713D01*
X123389500Y-71600903D01*
X123369815Y-71667942D01*
X123317011Y-71713697D01*
X123247853Y-71723641D01*
X123184297Y-71694616D01*
X123177819Y-71688584D01*
X122427590Y-70938355D01*
X122427588Y-70938352D01*
X122308717Y-70819481D01*
X122308716Y-70819480D01*
X122221904Y-70769360D01*
X122221904Y-70769359D01*
X122221900Y-70769358D01*
X122171785Y-70740423D01*
X122019057Y-70699499D01*
X121860943Y-70699499D01*
X121853347Y-70699499D01*
X121853331Y-70699500D01*
X108190094Y-70699500D01*
X108123055Y-70679815D01*
X108077300Y-70627011D01*
X108066804Y-70562246D01*
X108070500Y-70527873D01*
X108070499Y-69532128D01*
X108064091Y-69472517D01*
X108051340Y-69438332D01*
X108046357Y-69368642D01*
X108051340Y-69351669D01*
X108064091Y-69317483D01*
X108070500Y-69257873D01*
X108070499Y-68441701D01*
X108090183Y-68374663D01*
X108142987Y-68328908D01*
X108212146Y-68318964D01*
X108241949Y-68327140D01*
X108296503Y-68349737D01*
X108421814Y-68374663D01*
X108451153Y-68380499D01*
X108451156Y-68380500D01*
X108451158Y-68380500D01*
X108608844Y-68380500D01*
X108608845Y-68380499D01*
X108763497Y-68349737D01*
X108909179Y-68289394D01*
X109040289Y-68201789D01*
X109151789Y-68090289D01*
X109239394Y-67959179D01*
X109299737Y-67813497D01*
X109330500Y-67658842D01*
X109330500Y-67501158D01*
X109330500Y-67501155D01*
X109330499Y-67501153D01*
X109318565Y-67441158D01*
X109299737Y-67346503D01*
X109280240Y-67299432D01*
X109239397Y-67200827D01*
X109239390Y-67200814D01*
X109151789Y-67069711D01*
X109151786Y-67069707D01*
X109040292Y-66958213D01*
X109040288Y-66958210D01*
X108909185Y-66870609D01*
X108909172Y-66870602D01*
X108763501Y-66810264D01*
X108763489Y-66810261D01*
X108608845Y-66779500D01*
X108608842Y-66779500D01*
X108451158Y-66779500D01*
X108451155Y-66779500D01*
X108296510Y-66810261D01*
X108296498Y-66810264D01*
X108174420Y-66860830D01*
X108104950Y-66868299D01*
X108042471Y-66837023D01*
X108020524Y-66804094D01*
X108018044Y-66805449D01*
X108013794Y-66797665D01*
X107927547Y-66682455D01*
X107927544Y-66682452D01*
X107812335Y-66596206D01*
X107812328Y-66596202D01*
X107677482Y-66545908D01*
X107677483Y-66545908D01*
X107617883Y-66539501D01*
X107617881Y-66539500D01*
X107617873Y-66539500D01*
X107617864Y-66539500D01*
X106022129Y-66539500D01*
X106022123Y-66539501D01*
X105962516Y-66545908D01*
X105827671Y-66596202D01*
X105827664Y-66596206D01*
X105712455Y-66682452D01*
X105712452Y-66682455D01*
X105626206Y-66797664D01*
X105626202Y-66797671D01*
X105575908Y-66932517D01*
X105569501Y-66992116D01*
X105569500Y-66992135D01*
X105569500Y-67987870D01*
X105569501Y-67987876D01*
X105575908Y-68047481D01*
X105588659Y-68081669D01*
X105593642Y-68151361D01*
X105588659Y-68168331D01*
X105575908Y-68202518D01*
X105569501Y-68262116D01*
X105569500Y-68262135D01*
X105569500Y-69257870D01*
X105569501Y-69257876D01*
X105575908Y-69317481D01*
X105588659Y-69351669D01*
X105593642Y-69421361D01*
X105588659Y-69438331D01*
X105575908Y-69472518D01*
X105573439Y-69495486D01*
X105569501Y-69532123D01*
X105569500Y-69532135D01*
X105569500Y-70527870D01*
X105569501Y-70527876D01*
X105575908Y-70587481D01*
X105588659Y-70621669D01*
X105593642Y-70691361D01*
X105588659Y-70708331D01*
X105575908Y-70742518D01*
X105569501Y-70802116D01*
X105569500Y-70802135D01*
X105569500Y-71797870D01*
X105569501Y-71797876D01*
X105575908Y-71857481D01*
X105588659Y-71891669D01*
X105593642Y-71961361D01*
X105588659Y-71978331D01*
X105575908Y-72012518D01*
X105569501Y-72072116D01*
X105569501Y-72072123D01*
X105569500Y-72072135D01*
X105569500Y-73067870D01*
X105569501Y-73067876D01*
X105575908Y-73127481D01*
X105588659Y-73161669D01*
X105593642Y-73231361D01*
X105588659Y-73248331D01*
X105575908Y-73282518D01*
X105569501Y-73342116D01*
X105569501Y-73342123D01*
X105569500Y-73342135D01*
X105569500Y-74337870D01*
X105569501Y-74337876D01*
X105575908Y-74397481D01*
X105588659Y-74431669D01*
X105593642Y-74501361D01*
X105588659Y-74518331D01*
X105575908Y-74552518D01*
X105570099Y-74606555D01*
X105569501Y-74612123D01*
X105569500Y-74612135D01*
X105569500Y-75607870D01*
X105569501Y-75607876D01*
X105575908Y-75667481D01*
X105588659Y-75701669D01*
X105593642Y-75771361D01*
X105588659Y-75788331D01*
X105575908Y-75822518D01*
X105569913Y-75878282D01*
X105569501Y-75882123D01*
X105569500Y-75882135D01*
X105569500Y-76877870D01*
X105569501Y-76877876D01*
X105575908Y-76937481D01*
X105588659Y-76971669D01*
X105593642Y-77041361D01*
X105588659Y-77058331D01*
X105575908Y-77092518D01*
X105569536Y-77151789D01*
X105569501Y-77152123D01*
X105569500Y-77152135D01*
X105569500Y-78147870D01*
X105569501Y-78147876D01*
X105575908Y-78207481D01*
X105588659Y-78241669D01*
X105593642Y-78311361D01*
X105588659Y-78328331D01*
X105575908Y-78362518D01*
X105569501Y-78422116D01*
X105569501Y-78422123D01*
X105569500Y-78422135D01*
X105569500Y-79417870D01*
X105569501Y-79417876D01*
X105575908Y-79477481D01*
X105588659Y-79511669D01*
X105593642Y-79581361D01*
X105588659Y-79598331D01*
X105575908Y-79632518D01*
X105571762Y-79671088D01*
X105569501Y-79692123D01*
X105569500Y-79692135D01*
X105569500Y-80687870D01*
X105569501Y-80687876D01*
X105575908Y-80747481D01*
X105588659Y-80781669D01*
X105593642Y-80851361D01*
X105588659Y-80868331D01*
X105575908Y-80902518D01*
X105569501Y-80962116D01*
X105569501Y-80962123D01*
X105569500Y-80962135D01*
X105569500Y-81957870D01*
X105569501Y-81957876D01*
X105575908Y-82017481D01*
X105588659Y-82051669D01*
X105593642Y-82121361D01*
X105588659Y-82138331D01*
X105575908Y-82172518D01*
X105569501Y-82232116D01*
X105569501Y-82232123D01*
X105569500Y-82232135D01*
X105569500Y-83227870D01*
X105569501Y-83227876D01*
X105575908Y-83287481D01*
X105588659Y-83321669D01*
X105593642Y-83391361D01*
X105588659Y-83408331D01*
X105575908Y-83442518D01*
X105569501Y-83502116D01*
X105569501Y-83502123D01*
X105569500Y-83502135D01*
X105569500Y-83875500D01*
X105549815Y-83942539D01*
X105497011Y-83988294D01*
X105445500Y-83999500D01*
X104557129Y-83999500D01*
X104557123Y-83999501D01*
X104497518Y-84005908D01*
X104463331Y-84018659D01*
X104393639Y-84023642D01*
X104376669Y-84018659D01*
X104342480Y-84005908D01*
X104342482Y-84005908D01*
X104282883Y-83999501D01*
X104282881Y-83999500D01*
X104282873Y-83999500D01*
X104282864Y-83999500D01*
X103287129Y-83999500D01*
X103287123Y-83999501D01*
X103227518Y-84005908D01*
X103193331Y-84018659D01*
X103123639Y-84023642D01*
X103106669Y-84018659D01*
X103072480Y-84005908D01*
X103072482Y-84005908D01*
X103012883Y-83999501D01*
X103012881Y-83999500D01*
X103012873Y-83999500D01*
X103012864Y-83999500D01*
X102017129Y-83999500D01*
X102017123Y-83999501D01*
X101957518Y-84005908D01*
X101923331Y-84018659D01*
X101853639Y-84023642D01*
X101836669Y-84018659D01*
X101802480Y-84005908D01*
X101802482Y-84005908D01*
X101742883Y-83999501D01*
X101742881Y-83999500D01*
X101742873Y-83999500D01*
X101742864Y-83999500D01*
X100747129Y-83999500D01*
X100747123Y-83999501D01*
X100687518Y-84005908D01*
X100653331Y-84018659D01*
X100583639Y-84023642D01*
X100566669Y-84018659D01*
X100532480Y-84005908D01*
X100532482Y-84005908D01*
X100472883Y-83999501D01*
X100472881Y-83999500D01*
X100472873Y-83999500D01*
X100472864Y-83999500D01*
X99477129Y-83999500D01*
X99477123Y-83999501D01*
X99417518Y-84005908D01*
X99383331Y-84018659D01*
X99313639Y-84023642D01*
X99296669Y-84018659D01*
X99262480Y-84005908D01*
X99262482Y-84005908D01*
X99202883Y-83999501D01*
X99202881Y-83999500D01*
X99202873Y-83999500D01*
X99202864Y-83999500D01*
X98207129Y-83999500D01*
X98207123Y-83999501D01*
X98147518Y-84005908D01*
X98113331Y-84018659D01*
X98043639Y-84023642D01*
X98026669Y-84018659D01*
X97992480Y-84005908D01*
X97992482Y-84005908D01*
X97932883Y-83999501D01*
X97932881Y-83999500D01*
X97932873Y-83999500D01*
X97932864Y-83999500D01*
X96937129Y-83999500D01*
X96937123Y-83999501D01*
X96877518Y-84005908D01*
X96843331Y-84018659D01*
X96773639Y-84023642D01*
X96756669Y-84018659D01*
X96722480Y-84005908D01*
X96722482Y-84005908D01*
X96662883Y-83999501D01*
X96662881Y-83999500D01*
X96662873Y-83999500D01*
X96662864Y-83999500D01*
X95667129Y-83999500D01*
X95667123Y-83999501D01*
X95607518Y-84005908D01*
X95573331Y-84018659D01*
X95503639Y-84023642D01*
X95486669Y-84018659D01*
X95452480Y-84005908D01*
X95452482Y-84005908D01*
X95392883Y-83999501D01*
X95392881Y-83999500D01*
X95392873Y-83999500D01*
X95392864Y-83999500D01*
X94397129Y-83999500D01*
X94397123Y-83999501D01*
X94337518Y-84005908D01*
X94303331Y-84018659D01*
X94233639Y-84023642D01*
X94216669Y-84018659D01*
X94182480Y-84005908D01*
X94182482Y-84005908D01*
X94122883Y-83999501D01*
X94122881Y-83999500D01*
X94122873Y-83999500D01*
X94122865Y-83999500D01*
X93652901Y-83999500D01*
X93585862Y-83979815D01*
X93540107Y-83927011D01*
X93530163Y-83857853D01*
X93559188Y-83794297D01*
X93605453Y-83760937D01*
X93609179Y-83759394D01*
X93740289Y-83671789D01*
X93851789Y-83560289D01*
X93939394Y-83429179D01*
X93948153Y-83408034D01*
X93983927Y-83321666D01*
X93999737Y-83283497D01*
X94030500Y-83128842D01*
X94030500Y-82971158D01*
X94030500Y-82971155D01*
X94030499Y-82971153D01*
X94014464Y-82890539D01*
X93999737Y-82816503D01*
X93980144Y-82769200D01*
X93939397Y-82670827D01*
X93939390Y-82670814D01*
X93851398Y-82539125D01*
X93830520Y-82472447D01*
X93830500Y-82470234D01*
X93830500Y-73349059D01*
X93830500Y-73339060D01*
X93830501Y-73339058D01*
X93830501Y-73212135D01*
X94119500Y-73212135D01*
X94119500Y-77207870D01*
X94119501Y-77207876D01*
X94125908Y-77267483D01*
X94176202Y-77402328D01*
X94176206Y-77402335D01*
X94262452Y-77517544D01*
X94262455Y-77517547D01*
X94377664Y-77603793D01*
X94377671Y-77603797D01*
X94512517Y-77654091D01*
X94512516Y-77654091D01*
X94519444Y-77654835D01*
X94572127Y-77660500D01*
X98567872Y-77660499D01*
X98627483Y-77654091D01*
X98762331Y-77603796D01*
X98877546Y-77517546D01*
X98963796Y-77402331D01*
X99014091Y-77267483D01*
X99020500Y-77207873D01*
X99020499Y-73212128D01*
X99014091Y-73152517D01*
X99005533Y-73129573D01*
X98963797Y-73017671D01*
X98963793Y-73017664D01*
X98877547Y-72902455D01*
X98877544Y-72902452D01*
X98762335Y-72816206D01*
X98762328Y-72816202D01*
X98627482Y-72765908D01*
X98627483Y-72765908D01*
X98567883Y-72759501D01*
X98567881Y-72759500D01*
X98567873Y-72759500D01*
X98567864Y-72759500D01*
X94572129Y-72759500D01*
X94572123Y-72759501D01*
X94512516Y-72765908D01*
X94377671Y-72816202D01*
X94377664Y-72816206D01*
X94262455Y-72902452D01*
X94262452Y-72902455D01*
X94176206Y-73017664D01*
X94176202Y-73017671D01*
X94125908Y-73152517D01*
X94122109Y-73187857D01*
X94119501Y-73212123D01*
X94119500Y-73212135D01*
X93830501Y-73212135D01*
X93830501Y-73180943D01*
X93789577Y-73028216D01*
X93767362Y-72989738D01*
X93710524Y-72891290D01*
X93710518Y-72891282D01*
X92736148Y-71916912D01*
X91757589Y-70938354D01*
X91757588Y-70938352D01*
X91638717Y-70819481D01*
X91638716Y-70819480D01*
X91551904Y-70769360D01*
X91551904Y-70769359D01*
X91551900Y-70769358D01*
X91501785Y-70740423D01*
X91349057Y-70699499D01*
X91190943Y-70699499D01*
X91183347Y-70699499D01*
X91183331Y-70699500D01*
X90690094Y-70699500D01*
X90623055Y-70679815D01*
X90577300Y-70627011D01*
X90566804Y-70562246D01*
X90570500Y-70527873D01*
X90570499Y-69532128D01*
X90564091Y-69472517D01*
X90551073Y-69437616D01*
X90546090Y-69367926D01*
X90551075Y-69350949D01*
X90563597Y-69317375D01*
X90563598Y-69317372D01*
X90569999Y-69257844D01*
X90570000Y-69257827D01*
X90570000Y-69010000D01*
X88070000Y-69010000D01*
X88070000Y-69257839D01*
X88073700Y-69292242D01*
X88061296Y-69361002D01*
X88013687Y-69412140D01*
X87950411Y-69429500D01*
X86688112Y-69429500D01*
X86621073Y-69409815D01*
X86575318Y-69357011D01*
X86565374Y-69287853D01*
X86570181Y-69267181D01*
X86570566Y-69265995D01*
X86570568Y-69265992D01*
X86643553Y-69041368D01*
X86648521Y-69010000D01*
X86680500Y-68808097D01*
X86680500Y-68571902D01*
X86643553Y-68338631D01*
X86599362Y-68202627D01*
X86570568Y-68114008D01*
X86570566Y-68114005D01*
X86570566Y-68114003D01*
X86514002Y-68002991D01*
X86463343Y-67903567D01*
X86324517Y-67712490D01*
X86157510Y-67545483D01*
X85966433Y-67406657D01*
X85755996Y-67299433D01*
X85531368Y-67226446D01*
X85298097Y-67189500D01*
X85298092Y-67189500D01*
X85061908Y-67189500D01*
X85061903Y-67189500D01*
X84828631Y-67226446D01*
X84604003Y-67299433D01*
X84393566Y-67406657D01*
X84284550Y-67485862D01*
X84202490Y-67545483D01*
X84202488Y-67545485D01*
X84202487Y-67545485D01*
X84035485Y-67712487D01*
X84035485Y-67712488D01*
X84035483Y-67712490D01*
X84005690Y-67753497D01*
X83896657Y-67903566D01*
X83789433Y-68114003D01*
X83716446Y-68338631D01*
X83679500Y-68571902D01*
X83679500Y-68808097D01*
X83716446Y-69041368D01*
X83789433Y-69265996D01*
X83894662Y-69472517D01*
X83896657Y-69476433D01*
X84035483Y-69667510D01*
X84202490Y-69834517D01*
X84393567Y-69973343D01*
X84492991Y-70024002D01*
X84604003Y-70080566D01*
X84604005Y-70080566D01*
X84604008Y-70080568D01*
X84724412Y-70119689D01*
X84828631Y-70153553D01*
X85061903Y-70190500D01*
X85280902Y-70190500D01*
X85347941Y-70210185D01*
X85393696Y-70262989D01*
X85403640Y-70332147D01*
X85374615Y-70395703D01*
X85368583Y-70402181D01*
X84699482Y-71071281D01*
X84699480Y-71071283D01*
X84690082Y-71087562D01*
X84683201Y-71099481D01*
X84620423Y-71208215D01*
X84579499Y-71360943D01*
X84579499Y-71360945D01*
X84579499Y-71529046D01*
X84579500Y-71529059D01*
X84579500Y-71735931D01*
X84559815Y-71802970D01*
X84511796Y-71846415D01*
X84393568Y-71906655D01*
X84273894Y-71993605D01*
X84202490Y-72045483D01*
X84202488Y-72045485D01*
X84202487Y-72045485D01*
X84035485Y-72212487D01*
X84035485Y-72212488D01*
X84035483Y-72212490D01*
X83995286Y-72267816D01*
X83896657Y-72403566D01*
X83836417Y-72521795D01*
X83788442Y-72572591D01*
X83725932Y-72589500D01*
X80134068Y-72589500D01*
X80067029Y-72569815D01*
X80023583Y-72521795D01*
X79963343Y-72403567D01*
X79824517Y-72212490D01*
X79657510Y-72045483D01*
X79466433Y-71906657D01*
X79454349Y-71900500D01*
X79255996Y-71799433D01*
X79031368Y-71726446D01*
X78798097Y-71689500D01*
X78798092Y-71689500D01*
X78561908Y-71689500D01*
X78561903Y-71689500D01*
X78328631Y-71726446D01*
X78104003Y-71799433D01*
X77893566Y-71906657D01*
X77793859Y-71979099D01*
X77702490Y-72045483D01*
X77702488Y-72045485D01*
X77702487Y-72045485D01*
X77622181Y-72125792D01*
X77560858Y-72159277D01*
X77491166Y-72154293D01*
X77435233Y-72112421D01*
X77410816Y-72046957D01*
X77410500Y-72038111D01*
X77410500Y-69841889D01*
X77430185Y-69774850D01*
X77482989Y-69729095D01*
X77552147Y-69719151D01*
X77615703Y-69748176D01*
X77622181Y-69754208D01*
X77702490Y-69834517D01*
X77893567Y-69973343D01*
X77992991Y-70024002D01*
X78104003Y-70080566D01*
X78104005Y-70080566D01*
X78104008Y-70080568D01*
X78224412Y-70119689D01*
X78328631Y-70153553D01*
X78561903Y-70190500D01*
X78561908Y-70190500D01*
X78798097Y-70190500D01*
X79031368Y-70153553D01*
X79255992Y-70080568D01*
X79466433Y-69973343D01*
X79657510Y-69834517D01*
X79824517Y-69667510D01*
X79963343Y-69476433D01*
X80070568Y-69265992D01*
X80143553Y-69041368D01*
X80148521Y-69010000D01*
X80180500Y-68808097D01*
X80180500Y-68571902D01*
X80143553Y-68338631D01*
X80099362Y-68202627D01*
X80070568Y-68114008D01*
X80070566Y-68114005D01*
X80070566Y-68114003D01*
X80014002Y-68002991D01*
X79963343Y-67903567D01*
X79824517Y-67712490D01*
X79657510Y-67545483D01*
X79466433Y-67406657D01*
X79255996Y-67299433D01*
X79031368Y-67226446D01*
X78798097Y-67189500D01*
X78798092Y-67189500D01*
X78561908Y-67189500D01*
X78561903Y-67189500D01*
X78328631Y-67226446D01*
X78104003Y-67299433D01*
X77893566Y-67406657D01*
X77784550Y-67485862D01*
X77702490Y-67545483D01*
X77702488Y-67545485D01*
X77702487Y-67545485D01*
X77622181Y-67625792D01*
X77560858Y-67659277D01*
X77491166Y-67654293D01*
X77435233Y-67612421D01*
X77410816Y-67546957D01*
X77410500Y-67538111D01*
X77410500Y-66992135D01*
X88069500Y-66992135D01*
X88069500Y-67987870D01*
X88069501Y-67987876D01*
X88075908Y-68047483D01*
X88088925Y-68082381D01*
X88093909Y-68152072D01*
X88088925Y-68169047D01*
X88076403Y-68202619D01*
X88076401Y-68202627D01*
X88070000Y-68262155D01*
X88070000Y-68510000D01*
X90570000Y-68510000D01*
X90570000Y-68262172D01*
X90569999Y-68262160D01*
X90566300Y-68227758D01*
X90569079Y-68212350D01*
X90566851Y-68196853D01*
X90575155Y-68178668D01*
X90578704Y-68158998D01*
X90589371Y-68147539D01*
X90595876Y-68133297D01*
X90612693Y-68122489D01*
X90626313Y-68107860D01*
X90642268Y-68103482D01*
X90654654Y-68095523D01*
X90689589Y-68090500D01*
X90727059Y-68090500D01*
X90794098Y-68110185D01*
X90814740Y-68126819D01*
X90829707Y-68141786D01*
X90829711Y-68141789D01*
X90960814Y-68229390D01*
X90960827Y-68229397D01*
X91105665Y-68289390D01*
X91106503Y-68289737D01*
X91253436Y-68318964D01*
X91261153Y-68320499D01*
X91261156Y-68320500D01*
X91261158Y-68320500D01*
X91418844Y-68320500D01*
X91418845Y-68320499D01*
X91573497Y-68289737D01*
X91719179Y-68229394D01*
X91850289Y-68141789D01*
X91961789Y-68030289D01*
X92049394Y-67899179D01*
X92109737Y-67753497D01*
X92140500Y-67598842D01*
X92140500Y-67441158D01*
X92140500Y-67441155D01*
X92140499Y-67441153D01*
X92112309Y-67299433D01*
X92109737Y-67286503D01*
X92074244Y-67200814D01*
X92049397Y-67140827D01*
X92049390Y-67140814D01*
X91961789Y-67009711D01*
X91961786Y-67009707D01*
X91850292Y-66898213D01*
X91850288Y-66898210D01*
X91719185Y-66810609D01*
X91719172Y-66810602D01*
X91573501Y-66750264D01*
X91573489Y-66750261D01*
X91418845Y-66719500D01*
X91418842Y-66719500D01*
X91261158Y-66719500D01*
X91261155Y-66719500D01*
X91106510Y-66750261D01*
X91106498Y-66750264D01*
X90960827Y-66810602D01*
X90960815Y-66810609D01*
X90874024Y-66868602D01*
X90855977Y-66874252D01*
X90840068Y-66884477D01*
X90809108Y-66888928D01*
X90807347Y-66889480D01*
X90805133Y-66889500D01*
X90634141Y-66889500D01*
X90567102Y-66869815D01*
X90521347Y-66817011D01*
X90517969Y-66808859D01*
X90513796Y-66797669D01*
X90513793Y-66797665D01*
X90513793Y-66797664D01*
X90427547Y-66682455D01*
X90427544Y-66682452D01*
X90312335Y-66596206D01*
X90312328Y-66596202D01*
X90177482Y-66545908D01*
X90177483Y-66545908D01*
X90117883Y-66539501D01*
X90117881Y-66539500D01*
X90117873Y-66539500D01*
X90117864Y-66539500D01*
X88522129Y-66539500D01*
X88522123Y-66539501D01*
X88462516Y-66545908D01*
X88327671Y-66596202D01*
X88327664Y-66596206D01*
X88212455Y-66682452D01*
X88212452Y-66682455D01*
X88126206Y-66797664D01*
X88126202Y-66797671D01*
X88075908Y-66932517D01*
X88069501Y-66992116D01*
X88069500Y-66992135D01*
X77410500Y-66992135D01*
X77410500Y-66124000D01*
X77430185Y-66056961D01*
X77482989Y-66011206D01*
X77534500Y-66000000D01*
X122070000Y-66000000D01*
X122070000Y-60692148D01*
X122089685Y-60625109D01*
X122142489Y-60579354D01*
X122193826Y-60568148D01*
X127645334Y-60560702D01*
X127712397Y-60580295D01*
G37*
G04 #@! TD.AperFunction*
G04 #@! TD*
M02*
