G04 #@! TF.GenerationSoftware,KiCad,Pcbnew,9.0.7*
G04 #@! TF.CreationDate,2026-02-26T12:58:45-06:00*
G04 #@! TF.ProjectId,ImpactInsole_v1,496d7061-6374-4496-9e73-6f6c655f7631,rev?*
G04 #@! TF.SameCoordinates,Original*
G04 #@! TF.FileFunction,Copper,L2,Bot*
G04 #@! TF.FilePolarity,Positive*
%FSLAX46Y46*%
G04 Gerber Fmt 4.6, Leading zero omitted, Abs format (unit mm)*
G04 Created by KiCad (PCBNEW 9.0.7) date 2026-02-26 12:58:45*
%MOMM*%
%LPD*%
G01*
G04 APERTURE LIST*
G04 Aperture macros list*
%AMRoundRect*
0 Rectangle with rounded corners*
0 $1 Rounding radius*
0 $2 $3 $4 $5 $6 $7 $8 $9 X,Y pos of 4 corners*
0 Add a 4 corners polygon primitive as box body*
4,1,4,$2,$3,$4,$5,$6,$7,$8,$9,$2,$3,0*
0 Add four circle primitives for the rounded corners*
1,1,$1+$1,$2,$3*
1,1,$1+$1,$4,$5*
1,1,$1+$1,$6,$7*
1,1,$1+$1,$8,$9*
0 Add four rect primitives between the rounded corners*
20,1,$1+$1,$2,$3,$4,$5,0*
20,1,$1+$1,$4,$5,$6,$7,0*
20,1,$1+$1,$6,$7,$8,$9,0*
20,1,$1+$1,$8,$9,$2,$3,0*%
G04 Aperture macros list end*
G04 #@! TA.AperFunction,HeatsinkPad*
%ADD10C,0.600000*%
G04 #@! TD*
G04 #@! TA.AperFunction,ComponentPad*
%ADD11R,1.000000X1.000000*%
G04 #@! TD*
G04 #@! TA.AperFunction,ComponentPad*
%ADD12R,1.308000X1.308000*%
G04 #@! TD*
G04 #@! TA.AperFunction,ComponentPad*
%ADD13C,1.308000*%
G04 #@! TD*
G04 #@! TA.AperFunction,ComponentPad*
%ADD14R,1.700000X1.700000*%
G04 #@! TD*
G04 #@! TA.AperFunction,ComponentPad*
%ADD15C,1.700000*%
G04 #@! TD*
G04 #@! TA.AperFunction,ComponentPad*
%ADD16C,0.400000*%
G04 #@! TD*
G04 #@! TA.AperFunction,HeatsinkPad*
%ADD17O,1.000000X2.100000*%
G04 #@! TD*
G04 #@! TA.AperFunction,HeatsinkPad*
%ADD18O,1.000000X1.800000*%
G04 #@! TD*
G04 #@! TA.AperFunction,ComponentPad*
%ADD19C,2.000000*%
G04 #@! TD*
G04 #@! TA.AperFunction,SMDPad,CuDef*
%ADD20RoundRect,0.237500X-0.300000X-0.237500X0.300000X-0.237500X0.300000X0.237500X-0.300000X0.237500X0*%
G04 #@! TD*
G04 #@! TA.AperFunction,SMDPad,CuDef*
%ADD21RoundRect,0.237500X-0.237500X0.250000X-0.237500X-0.250000X0.237500X-0.250000X0.237500X0.250000X0*%
G04 #@! TD*
G04 #@! TA.AperFunction,SMDPad,CuDef*
%ADD22RoundRect,0.237500X0.237500X-0.300000X0.237500X0.300000X-0.237500X0.300000X-0.237500X-0.300000X0*%
G04 #@! TD*
G04 #@! TA.AperFunction,SMDPad,CuDef*
%ADD23RoundRect,0.237500X0.237500X-0.250000X0.237500X0.250000X-0.237500X0.250000X-0.237500X-0.250000X0*%
G04 #@! TD*
G04 #@! TA.AperFunction,SMDPad,CuDef*
%ADD24RoundRect,0.237500X0.300000X0.237500X-0.300000X0.237500X-0.300000X-0.237500X0.300000X-0.237500X0*%
G04 #@! TD*
G04 #@! TA.AperFunction,ViaPad*
%ADD25C,0.600000*%
G04 #@! TD*
G04 #@! TA.AperFunction,Conductor*
%ADD26C,0.200000*%
G04 #@! TD*
G04 APERTURE END LIST*
D10*
G04 #@! TO.P,U6,41,GND*
G04 #@! TO.N,GND*
X95170000Y-74510000D03*
X95170000Y-75910000D03*
X95870000Y-73810000D03*
X95870000Y-75210000D03*
X95870000Y-76610000D03*
X96570000Y-74510000D03*
X96570000Y-75910000D03*
X97270000Y-73810000D03*
X97270000Y-75210000D03*
X97270000Y-76610000D03*
X97970000Y-74510000D03*
X97970000Y-75910000D03*
G04 #@! TD*
D11*
G04 #@! TO.P,+5V,1,1*
G04 #@! TO.N,/MCU/VDD5V*
X108250000Y-104090000D03*
G04 #@! TD*
G04 #@! TO.P,GND,1,1*
G04 #@! TO.N,GND*
X105445000Y-104090000D03*
G04 #@! TD*
D12*
G04 #@! TO.P,J2,1,Pin_1*
G04 #@! TO.N,Net-(J2-Pin_1)*
X123880000Y-99127500D03*
D13*
G04 #@! TO.P,J2,2,Pin_2*
G04 #@! TO.N,GND*
X125880000Y-99127500D03*
G04 #@! TD*
D11*
G04 #@! TO.P,+3v3,1,1*
G04 #@! TO.N,+3V3*
X102640000Y-104090000D03*
G04 #@! TD*
D14*
G04 #@! TO.P,J4,1,Pin_1*
G04 #@! TO.N,GND*
X124740000Y-69020000D03*
D15*
G04 #@! TO.P,J4,2,Pin_2*
G04 #@! TO.N,/MCU/Rx_D*
X124740000Y-71560000D03*
G04 #@! TO.P,J4,3,Pin_3*
G04 #@! TO.N,/MCU/Tx_D*
X124740000Y-74100000D03*
G04 #@! TO.P,J4,4,Pin_4*
G04 #@! TO.N,+3V3*
X124740000Y-76640000D03*
G04 #@! TD*
D16*
G04 #@! TO.P,U5,18*
G04 #@! TO.N,N/C*
X122650000Y-92210000D03*
G04 #@! TO.P,U5,19*
X123230000Y-92790000D03*
G04 #@! TO.P,U5,20*
X122070000Y-92790000D03*
G04 #@! TO.P,U5,21*
X123230000Y-91630000D03*
G04 #@! TO.P,U5,22*
X122070000Y-91630000D03*
G04 #@! TD*
D17*
G04 #@! TO.P,J3,S1,SHIELD*
G04 #@! TO.N,unconnected-(J3-SHIELD-PadS1)*
X110860000Y-98330000D03*
D18*
G04 #@! TO.N,unconnected-(J3-SHIELD-PadS1)_3*
X110860000Y-102530000D03*
D17*
G04 #@! TO.N,unconnected-(J3-SHIELD-PadS1)_2*
X119500000Y-98330000D03*
D18*
G04 #@! TO.N,unconnected-(J3-SHIELD-PadS1)_1*
X119500000Y-102530000D03*
G04 #@! TD*
D19*
G04 #@! TO.P,SW1,1,1*
G04 #@! TO.N,GND*
X78680000Y-68690000D03*
X85180000Y-68690000D03*
G04 #@! TO.P,SW1,2,2*
G04 #@! TO.N,Net-(U6-EN)*
X78680000Y-73190000D03*
X85180000Y-73190000D03*
G04 #@! TD*
D20*
G04 #@! TO.P,C15,1*
G04 #@! TO.N,+3V3*
X80935000Y-89527500D03*
G04 #@! TO.P,C15,2*
G04 #@! TO.N,GND*
X82660000Y-89527500D03*
G04 #@! TD*
G04 #@! TO.P,C14,1*
G04 #@! TO.N,+3V3*
X80897500Y-91277500D03*
G04 #@! TO.P,C14,2*
G04 #@! TO.N,GND*
X82622500Y-91277500D03*
G04 #@! TD*
D21*
G04 #@! TO.P,R4,1*
G04 #@! TO.N,Net-(J3-CC2)*
X116880000Y-100327500D03*
G04 #@! TO.P,R4,2*
G04 #@! TO.N,GND*
X116880000Y-102152500D03*
G04 #@! TD*
D20*
G04 #@! TO.P,C17,1*
G04 #@! TO.N,+3V3*
X87977500Y-73560000D03*
G04 #@! TO.P,C17,2*
G04 #@! TO.N,GND*
X89702500Y-73560000D03*
G04 #@! TD*
D22*
G04 #@! TO.P,C13,1*
G04 #@! TO.N,+3V3*
X84410000Y-89020000D03*
G04 #@! TO.P,C13,2*
G04 #@! TO.N,GND*
X84410000Y-87295000D03*
G04 #@! TD*
D23*
G04 #@! TO.P,R7,1*
G04 #@! TO.N,GND*
X125490000Y-95102500D03*
G04 #@! TO.P,R7,2*
G04 #@! TO.N,Net-(U5-TS)*
X125490000Y-93277500D03*
G04 #@! TD*
D20*
G04 #@! TO.P,C8,1*
G04 #@! TO.N,+3V3*
X87955000Y-72080000D03*
G04 #@! TO.P,C8,2*
G04 #@! TO.N,GND*
X89680000Y-72080000D03*
G04 #@! TD*
G04 #@! TO.P,C16,1*
G04 #@! TO.N,+3V3*
X87995000Y-69020000D03*
G04 #@! TO.P,C16,2*
G04 #@! TO.N,GND*
X89720000Y-69020000D03*
G04 #@! TD*
D24*
G04 #@! TO.P,C6,1*
G04 #@! TO.N,/MCU/VDD5V*
X121222500Y-93950000D03*
G04 #@! TO.P,C6,2*
G04 #@! TO.N,GND*
X119497500Y-93950000D03*
G04 #@! TD*
D23*
G04 #@! TO.P,R3,1*
G04 #@! TO.N,GND*
X113910000Y-102282500D03*
G04 #@! TO.P,R3,2*
G04 #@! TO.N,Net-(J3-CC1)*
X113910000Y-100457500D03*
G04 #@! TD*
D25*
G04 #@! TO.N,/MCU/VDD5V*
X121960000Y-95130000D03*
X118750000Y-84890000D03*
G04 #@! TO.N,/Sensor/sense13*
X81860000Y-101590000D03*
X86910000Y-97040000D03*
G04 #@! TO.N,/Sensor/sense11*
X81224423Y-99907820D03*
X87920000Y-95620000D03*
G04 #@! TO.N,/Sensor/sense14*
X80620000Y-102160000D03*
X88017675Y-97535960D03*
G04 #@! TO.N,/Sensor/sense9*
X88050000Y-94230000D03*
X80590000Y-98440000D03*
G04 #@! TO.N,/Sensor/sense10*
X87300000Y-94830000D03*
X80932471Y-99162993D03*
G04 #@! TO.N,/Sensor/sense12*
X87130000Y-96270000D03*
X80946978Y-100658172D03*
G04 #@! TO.N,Net-(J2-Pin_1)*
X125530000Y-92030000D03*
G04 #@! TO.N,/MCU/USB_D_N*
X88009479Y-85740521D03*
X94510000Y-90440000D03*
G04 #@! TO.N,Net-(J3-CC1)*
X113910000Y-99150000D03*
G04 #@! TO.N,/MCU/USB_D_P*
X89260000Y-84940000D03*
X94720000Y-89600000D03*
G04 #@! TO.N,Net-(J3-CC2)*
X116340000Y-99090000D03*
G04 #@! TO.N,/MCU/IMU_Data*
X86620000Y-83850000D03*
X80160000Y-85540000D03*
G04 #@! TO.N,/MCU/IMU_Clk*
X82710000Y-85387500D03*
X89470000Y-88280000D03*
G04 #@! TO.N,/Sensor/Mux_Out*
X90470000Y-102520000D03*
X88330000Y-103030000D03*
X86310000Y-99880000D03*
X93290000Y-100960000D03*
G04 #@! TO.N,Net-(U5-TS)*
X126400000Y-92960000D03*
G04 #@! TO.N,+3V3*
X124000000Y-89930000D03*
X85710000Y-89210000D03*
X84410000Y-89020000D03*
X78310000Y-91790000D03*
X80935000Y-89527500D03*
X87995000Y-69020000D03*
X79490000Y-91210000D03*
G04 #@! TO.N,/MCU/S3*
X87460000Y-76530000D03*
X85590000Y-87800000D03*
X93470000Y-97920000D03*
X85130000Y-83920000D03*
G04 #@! TO.N,/MCU/S2*
X92230000Y-73720000D03*
X86870000Y-91100000D03*
X85350000Y-93380000D03*
X87110000Y-78870000D03*
G04 #@! TO.N,/MCU/S0*
X92300000Y-91400000D03*
X92810000Y-88020000D03*
X93230000Y-83050000D03*
X92680000Y-98760000D03*
G04 #@! TO.N,/MCU/ADC_CLK*
X97490000Y-86760000D03*
X104010000Y-91660000D03*
G04 #@! TO.N,GND*
X94730000Y-93420000D03*
X126110000Y-96910000D03*
X111990000Y-95950000D03*
X83580000Y-102620000D03*
X91340000Y-67520000D03*
X100150000Y-93540000D03*
X92100000Y-99470000D03*
X121520000Y-89640000D03*
X102430000Y-100130000D03*
X95400000Y-103470000D03*
X82660000Y-89527500D03*
X108530000Y-67580000D03*
X117670000Y-95630000D03*
X93820000Y-104280000D03*
X78090000Y-104250000D03*
X122810000Y-95140000D03*
X125140000Y-90700000D03*
X112580000Y-89910000D03*
G04 #@! TO.N,/MCU/ADC_CS*
X95020000Y-87480000D03*
X104200000Y-95490000D03*
G04 #@! TO.N,/MCU/ADC_SDATA*
X105590000Y-93490000D03*
X98720000Y-86990000D03*
G04 #@! TO.N,/MCU/IMU_INT*
X91520000Y-74950000D03*
X78960000Y-88190000D03*
G04 #@! TO.N,/MCU/S1*
X86520000Y-71580000D03*
X81970000Y-103620000D03*
G04 #@! TO.N,/MCU/Rx_D*
X120550000Y-72220000D03*
G04 #@! TD*
D26*
G04 #@! TO.N,/MCU/VDD5V*
X121222500Y-94762500D02*
X121590000Y-95130000D01*
X121590000Y-95130000D02*
X121960000Y-95130000D01*
X121222500Y-93950000D02*
X121222500Y-94762500D01*
X121222500Y-93950000D02*
X118750000Y-91477500D01*
X118750000Y-91477500D02*
X118750000Y-84890000D01*
G04 #@! TO.N,/Sensor/sense13*
X85050000Y-97040000D02*
X83080000Y-99010000D01*
X83080000Y-100980000D02*
X82470000Y-101590000D01*
X83080000Y-99010000D02*
X83080000Y-100980000D01*
X82470000Y-101590000D02*
X81860000Y-101590000D01*
X86910000Y-97040000D02*
X85050000Y-97040000D01*
G04 #@! TO.N,/Sensor/sense11*
X81700000Y-98560000D02*
X84710000Y-95550000D01*
X81224423Y-99907820D02*
X81482180Y-99907820D01*
X84710000Y-95550000D02*
X87850000Y-95550000D01*
X81700000Y-99690000D02*
X81700000Y-98560000D01*
X87850000Y-95550000D02*
X87920000Y-95620000D01*
X81482180Y-99907820D02*
X81700000Y-99690000D01*
G04 #@! TO.N,/Sensor/sense14*
X86450000Y-97920000D02*
X86450000Y-98177100D01*
X86450000Y-98177100D02*
X82436100Y-102191000D01*
X80651000Y-102191000D02*
X80620000Y-102160000D01*
X86730000Y-97640000D02*
X86450000Y-97920000D01*
X87913635Y-97640000D02*
X86730000Y-97640000D01*
X82436100Y-102191000D02*
X80651000Y-102191000D01*
X88017675Y-97535960D02*
X87913635Y-97640000D01*
G04 #@! TO.N,/Sensor/sense9*
X84800000Y-94230000D02*
X88050000Y-94230000D01*
X80590000Y-98440000D02*
X84800000Y-94230000D01*
G04 #@! TO.N,/Sensor/sense10*
X81191000Y-98688943D02*
X81191000Y-98406100D01*
X81457100Y-98140000D02*
X81470000Y-98140000D01*
X84780000Y-94830000D02*
X87300000Y-94830000D01*
X81470000Y-98140000D02*
X84780000Y-94830000D01*
X80932471Y-99162993D02*
X80932471Y-98947472D01*
X80932471Y-98947472D02*
X81191000Y-98688943D01*
X81191000Y-98406100D02*
X81457100Y-98140000D01*
G04 #@! TO.N,/Sensor/sense12*
X82100000Y-99100000D02*
X82100000Y-100320000D01*
X81761828Y-100658172D02*
X80946978Y-100658172D01*
X87130000Y-96270000D02*
X87100000Y-96300000D01*
X84900000Y-96300000D02*
X82100000Y-99100000D01*
X87100000Y-96300000D02*
X84900000Y-96300000D01*
X82100000Y-100320000D02*
X81761828Y-100658172D01*
G04 #@! TO.N,/MCU/USB_D_N*
X94145331Y-89960980D02*
X92512781Y-89960980D01*
X92512781Y-89960980D02*
X88292322Y-85740521D01*
X94510000Y-90440000D02*
X94510000Y-90325649D01*
X94510000Y-90325649D02*
X94145331Y-89960980D01*
X88292322Y-85740521D02*
X88009479Y-85740521D01*
G04 #@! TO.N,Net-(J3-CC1)*
X113910000Y-99150000D02*
X113910000Y-100457500D01*
G04 #@! TO.N,/MCU/USB_D_P*
X94351451Y-89600000D02*
X94311431Y-89559980D01*
X93958943Y-89511000D02*
X92699199Y-89511000D01*
X89260000Y-86071801D02*
X89260000Y-84940000D01*
X94007923Y-89559980D02*
X93958943Y-89511000D01*
X94311431Y-89559980D02*
X94007923Y-89559980D01*
X94720000Y-89600000D02*
X94351451Y-89600000D01*
X92699199Y-89511000D02*
X89260000Y-86071801D01*
G04 #@! TO.N,Net-(J3-CC2)*
X116880000Y-99630000D02*
X116880000Y-100327500D01*
X116340000Y-99090000D02*
X116880000Y-99630000D01*
G04 #@! TO.N,/MCU/IMU_Data*
X85800000Y-84670000D02*
X81030000Y-84670000D01*
X86620000Y-83850000D02*
X85800000Y-84670000D01*
X81030000Y-84670000D02*
X80160000Y-85540000D01*
G04 #@! TO.N,/MCU/IMU_Clk*
X86550000Y-85360000D02*
X89470000Y-88280000D01*
X82710000Y-85387500D02*
X83250000Y-85387500D01*
X83250000Y-85387500D02*
X83277500Y-85360000D01*
X83277500Y-85360000D02*
X86550000Y-85360000D01*
G04 #@! TO.N,/Sensor/Mux_Out*
X93290000Y-100960000D02*
X91730000Y-102520000D01*
X88330000Y-101900000D02*
X88330000Y-103030000D01*
X91730000Y-102520000D02*
X90470000Y-102520000D01*
X86310000Y-99880000D02*
X88330000Y-101900000D01*
G04 #@! TO.N,Net-(U5-TS)*
X126400000Y-92960000D02*
X125807500Y-92960000D01*
X125807500Y-92960000D02*
X125490000Y-93277500D01*
G04 #@! TO.N,+3V3*
X88047500Y-72172500D02*
X87955000Y-72080000D01*
X80897500Y-89565000D02*
X80935000Y-89527500D01*
X87995000Y-69020000D02*
X87995000Y-72040000D01*
X84600000Y-89210000D02*
X84410000Y-89020000D01*
X85710000Y-89210000D02*
X84600000Y-89210000D01*
X80897500Y-91277500D02*
X80897500Y-89565000D01*
X87977500Y-73560000D02*
X87977500Y-73932500D01*
X79557500Y-91277500D02*
X79490000Y-91210000D01*
X80897500Y-91277500D02*
X79557500Y-91277500D01*
X87995000Y-72040000D02*
X87955000Y-72080000D01*
X88047500Y-73490000D02*
X88047500Y-72172500D01*
G04 #@! TO.N,/MCU/S3*
X85130000Y-83920000D02*
X85130000Y-79210000D01*
X85130000Y-79210000D02*
X85380000Y-78960000D01*
X93470000Y-95390000D02*
X92901735Y-94821735D01*
X92901735Y-94455290D02*
X92902735Y-94454290D01*
X92902735Y-91152792D02*
X90630943Y-88881000D01*
X93470000Y-97920000D02*
X93470000Y-95390000D01*
X92902735Y-94454290D02*
X92902735Y-91152792D01*
X85380000Y-78960000D02*
X87460000Y-76880000D01*
X87740000Y-87940000D02*
X85730000Y-87940000D01*
X85730000Y-87940000D02*
X85590000Y-87800000D01*
X88681000Y-88881000D02*
X87740000Y-87940000D01*
X87460000Y-76880000D02*
X87460000Y-76530000D01*
X90630943Y-88881000D02*
X88681000Y-88881000D01*
X92901735Y-94821735D02*
X92901735Y-94455290D01*
G04 #@! TO.N,/MCU/S2*
X87110000Y-78870000D02*
X91290000Y-78870000D01*
X86870000Y-91100000D02*
X86290000Y-91680000D01*
X93071000Y-74561000D02*
X92230000Y-73720000D01*
X85350000Y-92730000D02*
X85350000Y-93380000D01*
X86290000Y-91790000D02*
X85350000Y-92730000D01*
X93071000Y-77089000D02*
X93071000Y-74561000D01*
X91290000Y-78870000D02*
X92480000Y-77680000D01*
X92480000Y-77680000D02*
X93071000Y-77089000D01*
X86290000Y-91680000D02*
X86290000Y-91790000D01*
G04 #@! TO.N,/MCU/S0*
X93230000Y-83050000D02*
X93230000Y-87600000D01*
X92300000Y-91400000D02*
X92300000Y-94203612D01*
X93230000Y-87600000D02*
X92810000Y-88020000D01*
X92300000Y-94203612D02*
X92320000Y-94223612D01*
X92320000Y-98400000D02*
X92680000Y-98760000D01*
X92320000Y-94223612D02*
X92320000Y-98400000D01*
G04 #@! TO.N,/MCU/ADC_CLK*
X100600000Y-91390000D02*
X97490000Y-88280000D01*
X104010000Y-91660000D02*
X103870000Y-91660000D01*
X97490000Y-88280000D02*
X97490000Y-86760000D01*
X103870000Y-91660000D02*
X103600000Y-91390000D01*
X103600000Y-91390000D02*
X100600000Y-91390000D01*
G04 #@! TO.N,/MCU/ADC_CS*
X103030000Y-95490000D02*
X95020000Y-87480000D01*
X104200000Y-95490000D02*
X103030000Y-95490000D01*
G04 #@! TO.N,/MCU/ADC_SDATA*
X104060000Y-89820000D02*
X104000000Y-89760000D01*
X98720000Y-87940000D02*
X98720000Y-86990000D01*
X100540000Y-89760000D02*
X98720000Y-87940000D01*
X104000000Y-89760000D02*
X100540000Y-89760000D01*
X105590000Y-91350000D02*
X104060000Y-89820000D01*
X105590000Y-93490000D02*
X105590000Y-91350000D01*
G04 #@! TO.N,/MCU/IMU_INT*
X91430000Y-75040000D02*
X87980000Y-75040000D01*
X91520000Y-74950000D02*
X91430000Y-75040000D01*
X87980000Y-75040000D02*
X78960000Y-84060000D01*
X78960000Y-84060000D02*
X78960000Y-88190000D01*
G04 #@! TO.N,/MCU/S1*
X81970000Y-103620000D02*
X81230057Y-103620000D01*
X83250000Y-71580000D02*
X86520000Y-71580000D01*
X77630000Y-100019943D02*
X77630000Y-77200000D01*
X77630000Y-77200000D02*
X83250000Y-71580000D01*
X81230057Y-103620000D02*
X77630000Y-100019943D01*
G04 #@! TO.N,/MCU/Rx_D*
X120550000Y-72220000D02*
X121210000Y-71560000D01*
X121210000Y-71560000D02*
X124740000Y-71560000D01*
G04 #@! TD*
G04 #@! TA.AperFunction,Conductor*
G04 #@! TO.N,GND*
G36*
X127646323Y-66336394D02*
G01*
X127713230Y-66356522D01*
X127758633Y-66409629D01*
X127769500Y-66460391D01*
X127769500Y-105055500D01*
X127749815Y-105122539D01*
X127697011Y-105168294D01*
X127645500Y-105179500D01*
X109170252Y-105179500D01*
X109103213Y-105159815D01*
X109057458Y-105107011D01*
X109047514Y-105037853D01*
X109076539Y-104974297D01*
X109095940Y-104956234D01*
X109107546Y-104947546D01*
X109193796Y-104832331D01*
X109244091Y-104697483D01*
X109250500Y-104637873D01*
X109250499Y-103542128D01*
X109244091Y-103482517D01*
X109214776Y-103403920D01*
X109193797Y-103347671D01*
X109193793Y-103347664D01*
X109107547Y-103232455D01*
X109107544Y-103232452D01*
X108992335Y-103146206D01*
X108992328Y-103146202D01*
X108857482Y-103095908D01*
X108857483Y-103095908D01*
X108797883Y-103089501D01*
X108797881Y-103089500D01*
X108797873Y-103089500D01*
X108797864Y-103089500D01*
X107702129Y-103089500D01*
X107702123Y-103089501D01*
X107642516Y-103095908D01*
X107507671Y-103146202D01*
X107507664Y-103146206D01*
X107392455Y-103232452D01*
X107392452Y-103232455D01*
X107306206Y-103347664D01*
X107306202Y-103347671D01*
X107255908Y-103482517D01*
X107249604Y-103541158D01*
X107249501Y-103542123D01*
X107249500Y-103542135D01*
X107249500Y-104637870D01*
X107249501Y-104637876D01*
X107255908Y-104697483D01*
X107306202Y-104832328D01*
X107306206Y-104832335D01*
X107392452Y-104947544D01*
X107392453Y-104947544D01*
X107392454Y-104947546D01*
X107404060Y-104956234D01*
X107445930Y-105012168D01*
X107450914Y-105081860D01*
X107417428Y-105143182D01*
X107356105Y-105176667D01*
X107329748Y-105179500D01*
X106364418Y-105179500D01*
X106297379Y-105159815D01*
X106251624Y-105107011D01*
X106241680Y-105037853D01*
X106270705Y-104974297D01*
X106290107Y-104956234D01*
X106302187Y-104947190D01*
X106302190Y-104947187D01*
X106388350Y-104832093D01*
X106388354Y-104832086D01*
X106438596Y-104697379D01*
X106438598Y-104697372D01*
X106444999Y-104637844D01*
X106445000Y-104637827D01*
X106445000Y-104340000D01*
X105494728Y-104340000D01*
X105586614Y-104301940D01*
X105656940Y-104231614D01*
X105695000Y-104139728D01*
X105695000Y-104040272D01*
X105656940Y-103948386D01*
X105586614Y-103878060D01*
X105494728Y-103840000D01*
X105695000Y-103840000D01*
X106445000Y-103840000D01*
X106445000Y-103542172D01*
X106444999Y-103542155D01*
X106438598Y-103482627D01*
X106438596Y-103482620D01*
X106388354Y-103347913D01*
X106388350Y-103347906D01*
X106302190Y-103232812D01*
X106302187Y-103232809D01*
X106187093Y-103146649D01*
X106187086Y-103146645D01*
X106052379Y-103096403D01*
X106052372Y-103096401D01*
X105992844Y-103090000D01*
X105695000Y-103090000D01*
X105695000Y-103840000D01*
X105494728Y-103840000D01*
X105395272Y-103840000D01*
X105303386Y-103878060D01*
X105233060Y-103948386D01*
X105195000Y-104040272D01*
X105195000Y-104139728D01*
X105233060Y-104231614D01*
X105303386Y-104301940D01*
X105395272Y-104340000D01*
X104445000Y-104340000D01*
X104445000Y-104637844D01*
X104451401Y-104697372D01*
X104451403Y-104697379D01*
X104501645Y-104832086D01*
X104501649Y-104832093D01*
X104587809Y-104947187D01*
X104587812Y-104947190D01*
X104599893Y-104956234D01*
X104641764Y-105012168D01*
X104646748Y-105081859D01*
X104613262Y-105143182D01*
X104551939Y-105176666D01*
X104525582Y-105179500D01*
X103560252Y-105179500D01*
X103493213Y-105159815D01*
X103447458Y-105107011D01*
X103437514Y-105037853D01*
X103466539Y-104974297D01*
X103485940Y-104956234D01*
X103497546Y-104947546D01*
X103583796Y-104832331D01*
X103634091Y-104697483D01*
X103640500Y-104637873D01*
X103640499Y-103542155D01*
X104445000Y-103542155D01*
X104445000Y-103840000D01*
X105195000Y-103840000D01*
X105195000Y-103090000D01*
X104897155Y-103090000D01*
X104837627Y-103096401D01*
X104837620Y-103096403D01*
X104702913Y-103146645D01*
X104702906Y-103146649D01*
X104587812Y-103232809D01*
X104587809Y-103232812D01*
X104501649Y-103347906D01*
X104501645Y-103347913D01*
X104451403Y-103482620D01*
X104451401Y-103482627D01*
X104445000Y-103542155D01*
X103640499Y-103542155D01*
X103640499Y-103542128D01*
X103634091Y-103482517D01*
X103604776Y-103403920D01*
X103583797Y-103347671D01*
X103583793Y-103347664D01*
X103497547Y-103232455D01*
X103497544Y-103232452D01*
X103382335Y-103146206D01*
X103382328Y-103146202D01*
X103247482Y-103095908D01*
X103247483Y-103095908D01*
X103187883Y-103089501D01*
X103187881Y-103089500D01*
X103187873Y-103089500D01*
X103187864Y-103089500D01*
X102092129Y-103089500D01*
X102092123Y-103089501D01*
X102032516Y-103095908D01*
X101897671Y-103146202D01*
X101897664Y-103146206D01*
X101782455Y-103232452D01*
X101782452Y-103232455D01*
X101696206Y-103347664D01*
X101696202Y-103347671D01*
X101645908Y-103482517D01*
X101639604Y-103541158D01*
X101639501Y-103542123D01*
X101639500Y-103542135D01*
X101639500Y-104637870D01*
X101639501Y-104637876D01*
X101645908Y-104697483D01*
X101696202Y-104832328D01*
X101696206Y-104832335D01*
X101782452Y-104947544D01*
X101782453Y-104947544D01*
X101782454Y-104947546D01*
X101794060Y-104956234D01*
X101835930Y-105012168D01*
X101840914Y-105081860D01*
X101807428Y-105143182D01*
X101746105Y-105176667D01*
X101719748Y-105179500D01*
X77534500Y-105179500D01*
X77467461Y-105159815D01*
X77421706Y-105107011D01*
X77410500Y-105055500D01*
X77410500Y-100949040D01*
X77430185Y-100882001D01*
X77482989Y-100836246D01*
X77552147Y-100826302D01*
X77615703Y-100855327D01*
X77622181Y-100861359D01*
X80745196Y-103984374D01*
X80745206Y-103984385D01*
X80749536Y-103988715D01*
X80749537Y-103988716D01*
X80861341Y-104100520D01*
X80861343Y-104100521D01*
X80861347Y-104100524D01*
X80998266Y-104179573D01*
X80998273Y-104179577D01*
X81110076Y-104209534D01*
X81150999Y-104220500D01*
X81151000Y-104220500D01*
X81390234Y-104220500D01*
X81457273Y-104240185D01*
X81459125Y-104241398D01*
X81590814Y-104329390D01*
X81590827Y-104329397D01*
X81736498Y-104389735D01*
X81736503Y-104389737D01*
X81891153Y-104420499D01*
X81891156Y-104420500D01*
X81891158Y-104420500D01*
X82048844Y-104420500D01*
X82048845Y-104420499D01*
X82203497Y-104389737D01*
X82349179Y-104329394D01*
X82480289Y-104241789D01*
X82591789Y-104130289D01*
X82679394Y-103999179D01*
X82739737Y-103853497D01*
X82770500Y-103698842D01*
X82770500Y-103541158D01*
X82770500Y-103541155D01*
X82770499Y-103541153D01*
X82758856Y-103482620D01*
X82739737Y-103386503D01*
X82723750Y-103347906D01*
X82679397Y-103240827D01*
X82679390Y-103240814D01*
X82591789Y-103109711D01*
X82591786Y-103109707D01*
X82476499Y-102994420D01*
X82443014Y-102933097D01*
X82447998Y-102863405D01*
X82489870Y-102807472D01*
X82532082Y-102786965D01*
X82667885Y-102750577D01*
X82738609Y-102709744D01*
X82804816Y-102671520D01*
X82916620Y-102559716D01*
X82916620Y-102559714D01*
X82926824Y-102549511D01*
X82926828Y-102549506D01*
X85357073Y-100119260D01*
X85418394Y-100085777D01*
X85488086Y-100090761D01*
X85544019Y-100132633D01*
X85559313Y-100159490D01*
X85600604Y-100259175D01*
X85600609Y-100259185D01*
X85688210Y-100390288D01*
X85688213Y-100390292D01*
X85799707Y-100501786D01*
X85799711Y-100501789D01*
X85930814Y-100589390D01*
X85930827Y-100589397D01*
X86076498Y-100649735D01*
X86076503Y-100649737D01*
X86141147Y-100662595D01*
X86231849Y-100680638D01*
X86293760Y-100713023D01*
X86295339Y-100714574D01*
X87693181Y-102112416D01*
X87726666Y-102173739D01*
X87729500Y-102200097D01*
X87729500Y-102450234D01*
X87709815Y-102517273D01*
X87708602Y-102519125D01*
X87620609Y-102650814D01*
X87620602Y-102650827D01*
X87560264Y-102796498D01*
X87560261Y-102796510D01*
X87529500Y-102951153D01*
X87529500Y-103108846D01*
X87560261Y-103263489D01*
X87560264Y-103263501D01*
X87620602Y-103409172D01*
X87620609Y-103409185D01*
X87708210Y-103540288D01*
X87708213Y-103540292D01*
X87819707Y-103651786D01*
X87819711Y-103651789D01*
X87950814Y-103739390D01*
X87950827Y-103739397D01*
X88096498Y-103799735D01*
X88096503Y-103799737D01*
X88251153Y-103830499D01*
X88251156Y-103830500D01*
X88251158Y-103830500D01*
X88408844Y-103830500D01*
X88408845Y-103830499D01*
X88563497Y-103799737D01*
X88709179Y-103739394D01*
X88840289Y-103651789D01*
X88951789Y-103540289D01*
X89039394Y-103409179D01*
X89099737Y-103263497D01*
X89130500Y-103108842D01*
X89130500Y-102951158D01*
X89130500Y-102951155D01*
X89130499Y-102951153D01*
X89118079Y-102888713D01*
X89099737Y-102796503D01*
X89081925Y-102753501D01*
X89039397Y-102650827D01*
X89039390Y-102650814D01*
X88951398Y-102519125D01*
X88945747Y-102501078D01*
X88935523Y-102485169D01*
X88931071Y-102454207D01*
X88930520Y-102452447D01*
X88930500Y-102450234D01*
X88930500Y-102441153D01*
X89669500Y-102441153D01*
X89669500Y-102598846D01*
X89700261Y-102753489D01*
X89700264Y-102753501D01*
X89760602Y-102899172D01*
X89760609Y-102899185D01*
X89848210Y-103030288D01*
X89848213Y-103030292D01*
X89959707Y-103141786D01*
X89959711Y-103141789D01*
X90090814Y-103229390D01*
X90090827Y-103229397D01*
X90236498Y-103289735D01*
X90236503Y-103289737D01*
X90391153Y-103320499D01*
X90391156Y-103320500D01*
X90391158Y-103320500D01*
X90548844Y-103320500D01*
X90548845Y-103320499D01*
X90703497Y-103289737D01*
X90821592Y-103240821D01*
X90849172Y-103229397D01*
X90849172Y-103229396D01*
X90849179Y-103229394D01*
X90973016Y-103146649D01*
X90980875Y-103141398D01*
X91047553Y-103120520D01*
X91049766Y-103120500D01*
X91643331Y-103120500D01*
X91643347Y-103120501D01*
X91650943Y-103120501D01*
X91809054Y-103120501D01*
X91809057Y-103120501D01*
X91961785Y-103079577D01*
X92024211Y-103043535D01*
X92050178Y-103028543D01*
X109859499Y-103028543D01*
X109897947Y-103221829D01*
X109897950Y-103221839D01*
X109973364Y-103403907D01*
X109973371Y-103403920D01*
X110082860Y-103567781D01*
X110082863Y-103567785D01*
X110222214Y-103707136D01*
X110222218Y-103707139D01*
X110386079Y-103816628D01*
X110386092Y-103816635D01*
X110475096Y-103853501D01*
X110568165Y-103892051D01*
X110568169Y-103892051D01*
X110568170Y-103892052D01*
X110761456Y-103930500D01*
X110761459Y-103930500D01*
X110958543Y-103930500D01*
X111088582Y-103904632D01*
X111151835Y-103892051D01*
X111333914Y-103816632D01*
X111497782Y-103707139D01*
X111637139Y-103567782D01*
X111746632Y-103403914D01*
X111822051Y-103221835D01*
X111848374Y-103089501D01*
X111860500Y-103028543D01*
X111860500Y-102581654D01*
X112935001Y-102581654D01*
X112945319Y-102682652D01*
X112999546Y-102846300D01*
X112999551Y-102846311D01*
X113090052Y-102993034D01*
X113090055Y-102993038D01*
X113211961Y-103114944D01*
X113211965Y-103114947D01*
X113358688Y-103205448D01*
X113358699Y-103205453D01*
X113522347Y-103259680D01*
X113623352Y-103269999D01*
X113660000Y-103269999D01*
X114160000Y-103269999D01*
X114196640Y-103269999D01*
X114196654Y-103269998D01*
X114297652Y-103259680D01*
X114461300Y-103205453D01*
X114461311Y-103205448D01*
X114608034Y-103114947D01*
X114608038Y-103114944D01*
X114729944Y-102993038D01*
X114729947Y-102993034D01*
X114820448Y-102846311D01*
X114820453Y-102846300D01*
X114874680Y-102682652D01*
X114884999Y-102581654D01*
X114885000Y-102581641D01*
X114885000Y-102532500D01*
X114160000Y-102532500D01*
X114160000Y-103269999D01*
X113660000Y-103269999D01*
X113660000Y-102532500D01*
X112935001Y-102532500D01*
X112935001Y-102581654D01*
X111860500Y-102581654D01*
X111860500Y-102451654D01*
X115905001Y-102451654D01*
X115915319Y-102552652D01*
X115969546Y-102716300D01*
X115969551Y-102716311D01*
X116060052Y-102863034D01*
X116060055Y-102863038D01*
X116181961Y-102984944D01*
X116181965Y-102984947D01*
X116328688Y-103075448D01*
X116328699Y-103075453D01*
X116492347Y-103129680D01*
X116593352Y-103139999D01*
X116630000Y-103139999D01*
X117130000Y-103139999D01*
X117166640Y-103139999D01*
X117166654Y-103139998D01*
X117267652Y-103129680D01*
X117431300Y-103075453D01*
X117431311Y-103075448D01*
X117507355Y-103028543D01*
X118499499Y-103028543D01*
X118537947Y-103221829D01*
X118537950Y-103221839D01*
X118613364Y-103403907D01*
X118613371Y-103403920D01*
X118722860Y-103567781D01*
X118722863Y-103567785D01*
X118862214Y-103707136D01*
X118862218Y-103707139D01*
X119026079Y-103816628D01*
X119026092Y-103816635D01*
X119115096Y-103853501D01*
X119208165Y-103892051D01*
X119208169Y-103892051D01*
X119208170Y-103892052D01*
X119401456Y-103930500D01*
X119401459Y-103930500D01*
X119598543Y-103930500D01*
X119728582Y-103904632D01*
X119791835Y-103892051D01*
X119973914Y-103816632D01*
X120137782Y-103707139D01*
X120277139Y-103567782D01*
X120386632Y-103403914D01*
X120462051Y-103221835D01*
X120488374Y-103089501D01*
X120500500Y-103028543D01*
X120500500Y-102031456D01*
X120462052Y-101838170D01*
X120462051Y-101838169D01*
X120462051Y-101838165D01*
X120454918Y-101820945D01*
X120386635Y-101656092D01*
X120386628Y-101656079D01*
X120277139Y-101492218D01*
X120277136Y-101492214D01*
X120137785Y-101352863D01*
X120137781Y-101352860D01*
X119973920Y-101243371D01*
X119973907Y-101243364D01*
X119791839Y-101167950D01*
X119791829Y-101167947D01*
X119598543Y-101129500D01*
X119598541Y-101129500D01*
X119401459Y-101129500D01*
X119401457Y-101129500D01*
X119208170Y-101167947D01*
X119208160Y-101167950D01*
X119026092Y-101243364D01*
X119026079Y-101243371D01*
X118862218Y-101352860D01*
X118862214Y-101352863D01*
X118722863Y-101492214D01*
X118722860Y-101492218D01*
X118613371Y-101656079D01*
X118613364Y-101656092D01*
X118537950Y-101838160D01*
X118537947Y-101838170D01*
X118499500Y-102031456D01*
X118499500Y-102031459D01*
X118499500Y-103028541D01*
X118499500Y-103028543D01*
X118499499Y-103028543D01*
X117507355Y-103028543D01*
X117578034Y-102984947D01*
X117578038Y-102984944D01*
X117699944Y-102863038D01*
X117699947Y-102863034D01*
X117790448Y-102716311D01*
X117790453Y-102716300D01*
X117844680Y-102552652D01*
X117854999Y-102451654D01*
X117855000Y-102451641D01*
X117855000Y-102402500D01*
X117130000Y-102402500D01*
X117130000Y-103139999D01*
X116630000Y-103139999D01*
X116630000Y-102402500D01*
X115905001Y-102402500D01*
X115905001Y-102451654D01*
X111860500Y-102451654D01*
X111860500Y-102031456D01*
X111822052Y-101838170D01*
X111822051Y-101838169D01*
X111822051Y-101838165D01*
X111814918Y-101820945D01*
X111746635Y-101656092D01*
X111746628Y-101656079D01*
X111637139Y-101492218D01*
X111637136Y-101492214D01*
X111497785Y-101352863D01*
X111497781Y-101352860D01*
X111333920Y-101243371D01*
X111333907Y-101243364D01*
X111151839Y-101167950D01*
X111151829Y-101167947D01*
X110958543Y-101129500D01*
X110958541Y-101129500D01*
X110761459Y-101129500D01*
X110761457Y-101129500D01*
X110568170Y-101167947D01*
X110568160Y-101167950D01*
X110386092Y-101243364D01*
X110386079Y-101243371D01*
X110222218Y-101352860D01*
X110222214Y-101352863D01*
X110082863Y-101492214D01*
X110082860Y-101492218D01*
X109973371Y-101656079D01*
X109973364Y-101656092D01*
X109897950Y-101838160D01*
X109897947Y-101838170D01*
X109859500Y-102031456D01*
X109859500Y-102031459D01*
X109859500Y-103028541D01*
X109859500Y-103028543D01*
X109859499Y-103028543D01*
X92050178Y-103028543D01*
X92098716Y-103000520D01*
X92210520Y-102888716D01*
X92210520Y-102888714D01*
X92220724Y-102878511D01*
X92220727Y-102878506D01*
X93304662Y-101794572D01*
X93365983Y-101761089D01*
X93368150Y-101760638D01*
X93426085Y-101749113D01*
X93523497Y-101729737D01*
X93669179Y-101669394D01*
X93800289Y-101581789D01*
X93911789Y-101470289D01*
X93999394Y-101339179D01*
X94059737Y-101193497D01*
X94090500Y-101038842D01*
X94090500Y-100881158D01*
X94090500Y-100881155D01*
X94090499Y-100881153D01*
X94065737Y-100756669D01*
X94059737Y-100726503D01*
X94054796Y-100714574D01*
X93999397Y-100580827D01*
X93999390Y-100580814D01*
X93911789Y-100449711D01*
X93911786Y-100449707D01*
X93800292Y-100338213D01*
X93800288Y-100338210D01*
X93680647Y-100258268D01*
X93669185Y-100250609D01*
X93669172Y-100250602D01*
X93523501Y-100190264D01*
X93523489Y-100190261D01*
X93368845Y-100159500D01*
X93368842Y-100159500D01*
X93211158Y-100159500D01*
X93211155Y-100159500D01*
X93056510Y-100190261D01*
X93056498Y-100190264D01*
X92910827Y-100250602D01*
X92910814Y-100250609D01*
X92779711Y-100338210D01*
X92779707Y-100338213D01*
X92668213Y-100449707D01*
X92668210Y-100449711D01*
X92580609Y-100580814D01*
X92580602Y-100580827D01*
X92520264Y-100726498D01*
X92520261Y-100726508D01*
X92489361Y-100881850D01*
X92456976Y-100943761D01*
X92455425Y-100945339D01*
X91517584Y-101883181D01*
X91456261Y-101916666D01*
X91429903Y-101919500D01*
X91049766Y-101919500D01*
X90982727Y-101899815D01*
X90980875Y-101898602D01*
X90849185Y-101810609D01*
X90849172Y-101810602D01*
X90703501Y-101750264D01*
X90703489Y-101750261D01*
X90548845Y-101719500D01*
X90548842Y-101719500D01*
X90391158Y-101719500D01*
X90391155Y-101719500D01*
X90236510Y-101750261D01*
X90236498Y-101750264D01*
X90090827Y-101810602D01*
X90090814Y-101810609D01*
X89959711Y-101898210D01*
X89959707Y-101898213D01*
X89848213Y-102009707D01*
X89848210Y-102009711D01*
X89760609Y-102140814D01*
X89760602Y-102140827D01*
X89700264Y-102286498D01*
X89700261Y-102286510D01*
X89669500Y-102441153D01*
X88930500Y-102441153D01*
X88930500Y-101820945D01*
X88930500Y-101820943D01*
X88889577Y-101668216D01*
X88846911Y-101594315D01*
X88810524Y-101531290D01*
X88810521Y-101531286D01*
X88810520Y-101531284D01*
X88698716Y-101419480D01*
X88698715Y-101419479D01*
X88694385Y-101415149D01*
X88694374Y-101415139D01*
X87437563Y-100158328D01*
X112934500Y-100158328D01*
X112934500Y-100756669D01*
X112934501Y-100756687D01*
X112944825Y-100857752D01*
X112956066Y-100891673D01*
X112999092Y-101021516D01*
X113089413Y-101167950D01*
X113089661Y-101168351D01*
X113203982Y-101282672D01*
X113237467Y-101343995D01*
X113232483Y-101413687D01*
X113203983Y-101458034D01*
X113090052Y-101571965D01*
X112999551Y-101718688D01*
X112999546Y-101718699D01*
X112945319Y-101882347D01*
X112935000Y-101983345D01*
X112935000Y-102032500D01*
X114884999Y-102032500D01*
X114884999Y-101983360D01*
X114884998Y-101983345D01*
X114874680Y-101882347D01*
X114820453Y-101718699D01*
X114820448Y-101718688D01*
X114729947Y-101571965D01*
X114729944Y-101571961D01*
X114616017Y-101458034D01*
X114582532Y-101396711D01*
X114587516Y-101327019D01*
X114616013Y-101282676D01*
X114730340Y-101168350D01*
X114820908Y-101021516D01*
X114875174Y-100857753D01*
X114885500Y-100756677D01*
X114885499Y-100158324D01*
X114884432Y-100147883D01*
X114875174Y-100057247D01*
X114865586Y-100028312D01*
X114820908Y-99893484D01*
X114730340Y-99746650D01*
X114646780Y-99663090D01*
X114613295Y-99601767D01*
X114618279Y-99532075D01*
X114619888Y-99527984D01*
X114679737Y-99383497D01*
X114710500Y-99228842D01*
X114710500Y-99071158D01*
X114710500Y-99071155D01*
X114710499Y-99071153D01*
X114702166Y-99029257D01*
X114698565Y-99011153D01*
X115539500Y-99011153D01*
X115539500Y-99168846D01*
X115570261Y-99323489D01*
X115570264Y-99323501D01*
X115630602Y-99469172D01*
X115630609Y-99469185D01*
X115718210Y-99600288D01*
X115718213Y-99600292D01*
X115829708Y-99711787D01*
X115829711Y-99711789D01*
X115879330Y-99744944D01*
X115924136Y-99798556D01*
X115932843Y-99867880D01*
X115928146Y-99887048D01*
X115914828Y-99927239D01*
X115914825Y-99927253D01*
X115904500Y-100028315D01*
X115904500Y-100626669D01*
X115904501Y-100626687D01*
X115914825Y-100727752D01*
X115947482Y-100826302D01*
X115969092Y-100891516D01*
X116059039Y-101037344D01*
X116059661Y-101038351D01*
X116173982Y-101152672D01*
X116207467Y-101213995D01*
X116202483Y-101283687D01*
X116173983Y-101328034D01*
X116060052Y-101441965D01*
X115969551Y-101588688D01*
X115969546Y-101588699D01*
X115915319Y-101752347D01*
X115905000Y-101853345D01*
X115905000Y-101902500D01*
X117854999Y-101902500D01*
X117854999Y-101853360D01*
X117854998Y-101853345D01*
X117844680Y-101752347D01*
X117790453Y-101588699D01*
X117790448Y-101588688D01*
X117699947Y-101441965D01*
X117699944Y-101441961D01*
X117586017Y-101328034D01*
X117552532Y-101266711D01*
X117557516Y-101197019D01*
X117586013Y-101152676D01*
X117700340Y-101038350D01*
X117790908Y-100891516D01*
X117845174Y-100727753D01*
X117855500Y-100626677D01*
X117855499Y-100028324D01*
X117855040Y-100023835D01*
X117845174Y-99927247D01*
X117840846Y-99914185D01*
X117790908Y-99763484D01*
X117700340Y-99616650D01*
X117619762Y-99536072D01*
X117586277Y-99474749D01*
X117591261Y-99405057D01*
X117633133Y-99349124D01*
X117698597Y-99324707D01*
X117766870Y-99339559D01*
X117769417Y-99340989D01*
X117819158Y-99369707D01*
X117840084Y-99381789D01*
X117847865Y-99386281D01*
X117994234Y-99425500D01*
X117994236Y-99425500D01*
X118145764Y-99425500D01*
X118145766Y-99425500D01*
X118292135Y-99386281D01*
X118423365Y-99310515D01*
X118423372Y-99310507D01*
X118425694Y-99308726D01*
X118428021Y-99307825D01*
X118430403Y-99306451D01*
X118430617Y-99306822D01*
X118490861Y-99283525D01*
X118559307Y-99297556D01*
X118609302Y-99346365D01*
X118610551Y-99348644D01*
X118613369Y-99353916D01*
X118722860Y-99517781D01*
X118722863Y-99517785D01*
X118862214Y-99657136D01*
X118862218Y-99657139D01*
X119026079Y-99766628D01*
X119026092Y-99766635D01*
X119182125Y-99831265D01*
X119208165Y-99842051D01*
X119208169Y-99842051D01*
X119208170Y-99842052D01*
X119401456Y-99880500D01*
X119401459Y-99880500D01*
X119598543Y-99880500D01*
X119728582Y-99854632D01*
X119791835Y-99842051D01*
X119948903Y-99776992D01*
X119973907Y-99766635D01*
X119973907Y-99766634D01*
X119973914Y-99766632D01*
X120137782Y-99657139D01*
X120277139Y-99517782D01*
X120386632Y-99353914D01*
X120391980Y-99341004D01*
X120413644Y-99288701D01*
X120462051Y-99171835D01*
X120480154Y-99080826D01*
X120500500Y-98978543D01*
X120500500Y-98425635D01*
X122725500Y-98425635D01*
X122725500Y-99829370D01*
X122725501Y-99829376D01*
X122731908Y-99888983D01*
X122782202Y-100023828D01*
X122782206Y-100023835D01*
X122868452Y-100139044D01*
X122868455Y-100139047D01*
X122983664Y-100225293D01*
X122983671Y-100225297D01*
X123118517Y-100275591D01*
X123118516Y-100275591D01*
X123125444Y-100276335D01*
X123178127Y-100282000D01*
X124581872Y-100281999D01*
X124641483Y-100275591D01*
X124776331Y-100225296D01*
X124891546Y-100139046D01*
X124977796Y-100023831D01*
X125028091Y-99888983D01*
X125034500Y-99829373D01*
X125034499Y-99670804D01*
X125054183Y-99603768D01*
X125070818Y-99583125D01*
X125480000Y-99173943D01*
X125480000Y-99180161D01*
X125507259Y-99281894D01*
X125559920Y-99373106D01*
X125634394Y-99447580D01*
X125725606Y-99500241D01*
X125827339Y-99527500D01*
X125833554Y-99527500D01*
X125258602Y-100102449D01*
X125258603Y-100102450D01*
X125275165Y-100114485D01*
X125275179Y-100114493D01*
X125437012Y-100196950D01*
X125609774Y-100253084D01*
X125789179Y-100281500D01*
X125970821Y-100281500D01*
X126150225Y-100253084D01*
X126322984Y-100196951D01*
X126484831Y-100114486D01*
X126501396Y-100102449D01*
X125926447Y-99527500D01*
X125932661Y-99527500D01*
X126034394Y-99500241D01*
X126125606Y-99447580D01*
X126200080Y-99373106D01*
X126252741Y-99281894D01*
X126280000Y-99180161D01*
X126280000Y-99173946D01*
X126854949Y-99748895D01*
X126866986Y-99732331D01*
X126949451Y-99570484D01*
X127005584Y-99397725D01*
X127034000Y-99218321D01*
X127034000Y-99036678D01*
X127005584Y-98857274D01*
X126949450Y-98684512D01*
X126866993Y-98522679D01*
X126866985Y-98522665D01*
X126854950Y-98506103D01*
X126854949Y-98506102D01*
X126280000Y-99081052D01*
X126280000Y-99074839D01*
X126252741Y-98973106D01*
X126200080Y-98881894D01*
X126125606Y-98807420D01*
X126034394Y-98754759D01*
X125932661Y-98727500D01*
X125926447Y-98727500D01*
X126501396Y-98152549D01*
X126501395Y-98152548D01*
X126484834Y-98140514D01*
X126484830Y-98140512D01*
X126322984Y-98058048D01*
X126150225Y-98001915D01*
X125970821Y-97973500D01*
X125789179Y-97973500D01*
X125609774Y-98001915D01*
X125437015Y-98058048D01*
X125275170Y-98140512D01*
X125275161Y-98140518D01*
X125258603Y-98152548D01*
X125258602Y-98152549D01*
X125833554Y-98727500D01*
X125827339Y-98727500D01*
X125725606Y-98754759D01*
X125634394Y-98807420D01*
X125559920Y-98881894D01*
X125507259Y-98973106D01*
X125480000Y-99074839D01*
X125480000Y-99081054D01*
X125070818Y-98671872D01*
X125037333Y-98610549D01*
X125034499Y-98584191D01*
X125034499Y-98425629D01*
X125034498Y-98425623D01*
X125034497Y-98425616D01*
X125028091Y-98366017D01*
X125011026Y-98320264D01*
X124982262Y-98243142D01*
X124977797Y-98231171D01*
X124977793Y-98231164D01*
X124891547Y-98115955D01*
X124891544Y-98115952D01*
X124776335Y-98029706D01*
X124776328Y-98029702D01*
X124641482Y-97979408D01*
X124641483Y-97979408D01*
X124581883Y-97973001D01*
X124581881Y-97973000D01*
X124581873Y-97973000D01*
X124581864Y-97973000D01*
X123178129Y-97973000D01*
X123178123Y-97973001D01*
X123118516Y-97979408D01*
X122983671Y-98029702D01*
X122983664Y-98029706D01*
X122868455Y-98115952D01*
X122868452Y-98115955D01*
X122782206Y-98231164D01*
X122782202Y-98231171D01*
X122731908Y-98366017D01*
X122727300Y-98408885D01*
X122725501Y-98425623D01*
X122725500Y-98425635D01*
X120500500Y-98425635D01*
X120500500Y-97681456D01*
X120462052Y-97488170D01*
X120462051Y-97488169D01*
X120462051Y-97488165D01*
X120429312Y-97409125D01*
X120386635Y-97306092D01*
X120386628Y-97306079D01*
X120277139Y-97142218D01*
X120277136Y-97142214D01*
X120137785Y-97002863D01*
X120137781Y-97002860D01*
X119973920Y-96893371D01*
X119973907Y-96893364D01*
X119791839Y-96817950D01*
X119791829Y-96817947D01*
X119598543Y-96779500D01*
X119598541Y-96779500D01*
X119401459Y-96779500D01*
X119401457Y-96779500D01*
X119208170Y-96817947D01*
X119208160Y-96817950D01*
X119026092Y-96893364D01*
X119026079Y-96893371D01*
X118862218Y-97002860D01*
X118862214Y-97002863D01*
X118722863Y-97142214D01*
X118722860Y-97142218D01*
X118613371Y-97306079D01*
X118613364Y-97306092D01*
X118537950Y-97488160D01*
X118537947Y-97488170D01*
X118499500Y-97681456D01*
X118499500Y-98218666D01*
X118479815Y-98285705D01*
X118427011Y-98331460D01*
X118357853Y-98341404D01*
X118313501Y-98326054D01*
X118292137Y-98313719D01*
X118187584Y-98285705D01*
X118145766Y-98274500D01*
X117994234Y-98274500D01*
X117847863Y-98313719D01*
X117716635Y-98389485D01*
X117716632Y-98389487D01*
X117609487Y-98496632D01*
X117609485Y-98496635D01*
X117533719Y-98627863D01*
X117510575Y-98714241D01*
X117494500Y-98774234D01*
X117494500Y-98925766D01*
X117533457Y-99071158D01*
X117533720Y-99072137D01*
X117533720Y-99072138D01*
X117557758Y-99113773D01*
X117562301Y-99132500D01*
X117571537Y-99149414D01*
X117570368Y-99165752D01*
X117574231Y-99181673D01*
X117567927Y-99199884D01*
X117566553Y-99219106D01*
X117556735Y-99232220D01*
X117551378Y-99247700D01*
X117536231Y-99259611D01*
X117524682Y-99275040D01*
X117509333Y-99280764D01*
X117496457Y-99290891D01*
X117477273Y-99292722D01*
X117459218Y-99299457D01*
X117443211Y-99295974D01*
X117426904Y-99297532D01*
X117409774Y-99288701D01*
X117390945Y-99284605D01*
X117366865Y-99266580D01*
X117364801Y-99265516D01*
X117362690Y-99263455D01*
X117360521Y-99261286D01*
X117360520Y-99261284D01*
X117248716Y-99149480D01*
X117248713Y-99149478D01*
X117174574Y-99075339D01*
X117141089Y-99014016D01*
X117140638Y-99011849D01*
X117121671Y-98916498D01*
X117109737Y-98856503D01*
X117102423Y-98838846D01*
X117049397Y-98710827D01*
X117049390Y-98710814D01*
X116961789Y-98579711D01*
X116961786Y-98579707D01*
X116850292Y-98468213D01*
X116850288Y-98468210D01*
X116719185Y-98380609D01*
X116719172Y-98380602D01*
X116573501Y-98320264D01*
X116573489Y-98320261D01*
X116418845Y-98289500D01*
X116418842Y-98289500D01*
X116261158Y-98289500D01*
X116261155Y-98289500D01*
X116106510Y-98320261D01*
X116106498Y-98320264D01*
X115960827Y-98380602D01*
X115960814Y-98380609D01*
X115829711Y-98468210D01*
X115829707Y-98468213D01*
X115718213Y-98579707D01*
X115718210Y-98579711D01*
X115630609Y-98710814D01*
X115630602Y-98710827D01*
X115570264Y-98856498D01*
X115570261Y-98856510D01*
X115539500Y-99011153D01*
X114698565Y-99011153D01*
X114679738Y-98916508D01*
X114679737Y-98916507D01*
X114679737Y-98916503D01*
X114655204Y-98857274D01*
X114619397Y-98770827D01*
X114619390Y-98770814D01*
X114531789Y-98639711D01*
X114531786Y-98639707D01*
X114420292Y-98528213D01*
X114420288Y-98528210D01*
X114289185Y-98440609D01*
X114289172Y-98440602D01*
X114143501Y-98380264D01*
X114143489Y-98380261D01*
X113988845Y-98349500D01*
X113988842Y-98349500D01*
X113831158Y-98349500D01*
X113831155Y-98349500D01*
X113676510Y-98380261D01*
X113676498Y-98380264D01*
X113530827Y-98440602D01*
X113530814Y-98440609D01*
X113399711Y-98528210D01*
X113399707Y-98528213D01*
X113288213Y-98639707D01*
X113288210Y-98639711D01*
X113200609Y-98770814D01*
X113200602Y-98770827D01*
X113140264Y-98916498D01*
X113140261Y-98916510D01*
X113109500Y-99071153D01*
X113109500Y-99228846D01*
X113140261Y-99383489D01*
X113140264Y-99383501D01*
X113200099Y-99527956D01*
X113207568Y-99597425D01*
X113176293Y-99659904D01*
X113173220Y-99663088D01*
X113089661Y-99746648D01*
X112999093Y-99893481D01*
X112999091Y-99893486D01*
X112987904Y-99927247D01*
X112944826Y-100057247D01*
X112944826Y-100057248D01*
X112944825Y-100057248D01*
X112934501Y-100158311D01*
X112934500Y-100158328D01*
X87437563Y-100158328D01*
X87144574Y-99865339D01*
X87111089Y-99804016D01*
X87110638Y-99801849D01*
X87092595Y-99711147D01*
X87079737Y-99646503D01*
X87079735Y-99646498D01*
X87019397Y-99500827D01*
X87019390Y-99500814D01*
X86931789Y-99369711D01*
X86931786Y-99369707D01*
X86820292Y-99258213D01*
X86820288Y-99258210D01*
X86689185Y-99170609D01*
X86689175Y-99170604D01*
X86589490Y-99129313D01*
X86535087Y-99085472D01*
X86513022Y-99019178D01*
X86530301Y-98951478D01*
X86549258Y-98927075D01*
X86808506Y-98667828D01*
X86808511Y-98667824D01*
X86818714Y-98657620D01*
X86818716Y-98657620D01*
X86930520Y-98545816D01*
X86985595Y-98450423D01*
X87009577Y-98408885D01*
X87031760Y-98326096D01*
X87034101Y-98320008D01*
X87051509Y-98297231D01*
X87066434Y-98272746D01*
X87072461Y-98269818D01*
X87076529Y-98264496D01*
X87103488Y-98254746D01*
X87129281Y-98242217D01*
X87140790Y-98241255D01*
X87142234Y-98240734D01*
X87143522Y-98241027D01*
X87149844Y-98240500D01*
X87602113Y-98240500D01*
X87649564Y-98249938D01*
X87784178Y-98305697D01*
X87938828Y-98336459D01*
X87938831Y-98336460D01*
X87938833Y-98336460D01*
X88096519Y-98336460D01*
X88096520Y-98336459D01*
X88251172Y-98305697D01*
X88396854Y-98245354D01*
X88527964Y-98157749D01*
X88639464Y-98046249D01*
X88727069Y-97915139D01*
X88787412Y-97769457D01*
X88818175Y-97614802D01*
X88818175Y-97457118D01*
X88818175Y-97457115D01*
X88818174Y-97457113D01*
X88808745Y-97409711D01*
X88787412Y-97302463D01*
X88787410Y-97302458D01*
X88727072Y-97156787D01*
X88727065Y-97156774D01*
X88639464Y-97025671D01*
X88639461Y-97025667D01*
X88527967Y-96914173D01*
X88527963Y-96914170D01*
X88396860Y-96826569D01*
X88396847Y-96826562D01*
X88251176Y-96766224D01*
X88251164Y-96766221D01*
X88096520Y-96735460D01*
X88096517Y-96735460D01*
X87989234Y-96735460D01*
X87957924Y-96726266D01*
X87926267Y-96718283D01*
X87924572Y-96716472D01*
X87922195Y-96715775D01*
X87900831Y-96691120D01*
X87878510Y-96667283D01*
X87878062Y-96664843D01*
X87876440Y-96662971D01*
X87871795Y-96630668D01*
X87865907Y-96598560D01*
X87866718Y-96595361D01*
X87866496Y-96593813D01*
X87874537Y-96564337D01*
X87874605Y-96564170D01*
X87899737Y-96503497D01*
X87899928Y-96502534D01*
X87902554Y-96496144D01*
X87920833Y-96473326D01*
X87936843Y-96448872D01*
X87942694Y-96446038D01*
X87946238Y-96441615D01*
X87964508Y-96435475D01*
X87993060Y-96421650D01*
X87998841Y-96420500D01*
X87998842Y-96420500D01*
X88153497Y-96389737D01*
X88299179Y-96329394D01*
X88430289Y-96241789D01*
X88541789Y-96130289D01*
X88629394Y-95999179D01*
X88689737Y-95853497D01*
X88720500Y-95698842D01*
X88720500Y-95541158D01*
X88720500Y-95541155D01*
X88720499Y-95541153D01*
X88714139Y-95509179D01*
X88689737Y-95386503D01*
X88658440Y-95310945D01*
X88629397Y-95240827D01*
X88629390Y-95240814D01*
X88541789Y-95109711D01*
X88541786Y-95109707D01*
X88501426Y-95069347D01*
X88467941Y-95008024D01*
X88472925Y-94938332D01*
X88514797Y-94882399D01*
X88520177Y-94878590D01*
X88560289Y-94851789D01*
X88671789Y-94740289D01*
X88759394Y-94609179D01*
X88819737Y-94463497D01*
X88850500Y-94308842D01*
X88850500Y-94151158D01*
X88850500Y-94151155D01*
X88850499Y-94151153D01*
X88845208Y-94124555D01*
X88819737Y-93996503D01*
X88767001Y-93869185D01*
X88759397Y-93850827D01*
X88759390Y-93850814D01*
X88671789Y-93719711D01*
X88671786Y-93719707D01*
X88560292Y-93608213D01*
X88560288Y-93608210D01*
X88429185Y-93520609D01*
X88429172Y-93520602D01*
X88283501Y-93460264D01*
X88283489Y-93460261D01*
X88128845Y-93429500D01*
X88128842Y-93429500D01*
X87971158Y-93429500D01*
X87971155Y-93429500D01*
X87816510Y-93460261D01*
X87816498Y-93460264D01*
X87670827Y-93520602D01*
X87670814Y-93520609D01*
X87539125Y-93608602D01*
X87472447Y-93629480D01*
X87470234Y-93629500D01*
X86267649Y-93629500D01*
X86200610Y-93609815D01*
X86154855Y-93557011D01*
X86144911Y-93487853D01*
X86146031Y-93481310D01*
X86149557Y-93463581D01*
X86150500Y-93458842D01*
X86150500Y-93301158D01*
X86150500Y-93301155D01*
X86150499Y-93301153D01*
X86141619Y-93256510D01*
X86119737Y-93146503D01*
X86109509Y-93121811D01*
X86059397Y-93000827D01*
X86057125Y-92996577D01*
X86042878Y-92928175D01*
X86067874Y-92862929D01*
X86078789Y-92850444D01*
X86770520Y-92158716D01*
X86849577Y-92021784D01*
X86858359Y-91989009D01*
X86894722Y-91929350D01*
X86953942Y-91899486D01*
X87019370Y-91886470D01*
X87103497Y-91869737D01*
X87249179Y-91809394D01*
X87380289Y-91721789D01*
X87491789Y-91610289D01*
X87579394Y-91479179D01*
X87639737Y-91333497D01*
X87670500Y-91178842D01*
X87670500Y-91021158D01*
X87670500Y-91021155D01*
X87670499Y-91021153D01*
X87662570Y-90981290D01*
X87639737Y-90866503D01*
X87631532Y-90846695D01*
X87579397Y-90720827D01*
X87579390Y-90720814D01*
X87491789Y-90589711D01*
X87491786Y-90589707D01*
X87380292Y-90478213D01*
X87380288Y-90478210D01*
X87249185Y-90390609D01*
X87249172Y-90390602D01*
X87103501Y-90330264D01*
X87103489Y-90330261D01*
X86948845Y-90299500D01*
X86948842Y-90299500D01*
X86791158Y-90299500D01*
X86791155Y-90299500D01*
X86636510Y-90330261D01*
X86636498Y-90330264D01*
X86490827Y-90390602D01*
X86490814Y-90390609D01*
X86359711Y-90478210D01*
X86359707Y-90478213D01*
X86248213Y-90589707D01*
X86248210Y-90589711D01*
X86160609Y-90720814D01*
X86160602Y-90720827D01*
X86100264Y-90866498D01*
X86100261Y-90866508D01*
X86069362Y-91021848D01*
X86060596Y-91038605D01*
X86056577Y-91057082D01*
X86037832Y-91082123D01*
X86036977Y-91083759D01*
X86035427Y-91085337D01*
X85989102Y-91131662D01*
X85921286Y-91199478D01*
X85921285Y-91199478D01*
X85921284Y-91199479D01*
X85809479Y-91311284D01*
X85785909Y-91352110D01*
X85783342Y-91356557D01*
X85730423Y-91448215D01*
X85717064Y-91498066D01*
X85712317Y-91508133D01*
X85699784Y-91522241D01*
X85687848Y-91542915D01*
X84981286Y-92249478D01*
X84869481Y-92361282D01*
X84869479Y-92361285D01*
X84864796Y-92369397D01*
X84829959Y-92429737D01*
X84790423Y-92498215D01*
X84749499Y-92650943D01*
X84749499Y-92650945D01*
X84749499Y-92800235D01*
X84729814Y-92867274D01*
X84728601Y-92869126D01*
X84640609Y-93000814D01*
X84640602Y-93000827D01*
X84580264Y-93146498D01*
X84580261Y-93146510D01*
X84549500Y-93301153D01*
X84549500Y-93458846D01*
X84571843Y-93571170D01*
X84565616Y-93640761D01*
X84522753Y-93695939D01*
X84512226Y-93702748D01*
X84431287Y-93749477D01*
X84431282Y-93749481D01*
X80575339Y-97605425D01*
X80514016Y-97638910D01*
X80511850Y-97639361D01*
X80356508Y-97670261D01*
X80356498Y-97670264D01*
X80210827Y-97730602D01*
X80210814Y-97730609D01*
X80079711Y-97818210D01*
X80079707Y-97818213D01*
X79968213Y-97929707D01*
X79968210Y-97929711D01*
X79880609Y-98060814D01*
X79880602Y-98060827D01*
X79820264Y-98206498D01*
X79820261Y-98206510D01*
X79789500Y-98361153D01*
X79789500Y-98518846D01*
X79820261Y-98673489D01*
X79820264Y-98673501D01*
X79880602Y-98819172D01*
X79880609Y-98819185D01*
X79968210Y-98950288D01*
X79968213Y-98950292D01*
X80079707Y-99061786D01*
X80084419Y-99065653D01*
X80083059Y-99067309D01*
X80121656Y-99113473D01*
X80131971Y-99162987D01*
X80131971Y-99241839D01*
X80162732Y-99396482D01*
X80162735Y-99396494D01*
X80223073Y-99542165D01*
X80223080Y-99542178D01*
X80310680Y-99673280D01*
X80310681Y-99673281D01*
X80310682Y-99673282D01*
X80387605Y-99750205D01*
X80402232Y-99776992D01*
X80418801Y-99802614D01*
X80419735Y-99809046D01*
X80421089Y-99811526D01*
X80423923Y-99837534D01*
X80423923Y-99986662D01*
X80424350Y-99988813D01*
X80424374Y-99996983D01*
X80416208Y-100025085D01*
X80410757Y-100053828D01*
X80405930Y-100060458D01*
X80404879Y-100064078D01*
X80400550Y-100067850D01*
X80388057Y-100085014D01*
X80325186Y-100147886D01*
X80237587Y-100278986D01*
X80237580Y-100278999D01*
X80177242Y-100424670D01*
X80177239Y-100424682D01*
X80146478Y-100579325D01*
X80146478Y-100737018D01*
X80177239Y-100891661D01*
X80177242Y-100891673D01*
X80237580Y-101037344D01*
X80237587Y-101037357D01*
X80325188Y-101168460D01*
X80325191Y-101168464D01*
X80368760Y-101212033D01*
X80402245Y-101273356D01*
X80397261Y-101343048D01*
X80355389Y-101398981D01*
X80328531Y-101414275D01*
X80240827Y-101450602D01*
X80240816Y-101450608D01*
X80127059Y-101526618D01*
X80060382Y-101547495D01*
X79993002Y-101529010D01*
X79970488Y-101511196D01*
X78266819Y-99807527D01*
X78233334Y-99746204D01*
X78230500Y-99719846D01*
X78230500Y-92714500D01*
X78250185Y-92647461D01*
X78302989Y-92601706D01*
X78354500Y-92590500D01*
X78388844Y-92590500D01*
X78388845Y-92590499D01*
X78543497Y-92559737D01*
X78689179Y-92499394D01*
X78820289Y-92411789D01*
X78931789Y-92300289D01*
X79019394Y-92169179D01*
X79073643Y-92038207D01*
X79117482Y-91983807D01*
X79183776Y-91961741D01*
X79235654Y-91971101D01*
X79256503Y-91979737D01*
X79409574Y-92010185D01*
X79411153Y-92010499D01*
X79411156Y-92010500D01*
X79411158Y-92010500D01*
X79568844Y-92010500D01*
X79568845Y-92010499D01*
X79723497Y-91979737D01*
X79859764Y-91923293D01*
X79929230Y-91915825D01*
X79991710Y-91947100D01*
X80012751Y-91972755D01*
X80014660Y-91975850D01*
X80136650Y-92097840D01*
X80283484Y-92188408D01*
X80447247Y-92242674D01*
X80548323Y-92253000D01*
X81246676Y-92252999D01*
X81246684Y-92252998D01*
X81246687Y-92252998D01*
X81316309Y-92245886D01*
X81347753Y-92242674D01*
X81511516Y-92188408D01*
X81658350Y-92097840D01*
X81672671Y-92083518D01*
X81733989Y-92050033D01*
X81803681Y-92055014D01*
X81848034Y-92083517D01*
X81861961Y-92097444D01*
X81861965Y-92097447D01*
X82008688Y-92187948D01*
X82008699Y-92187953D01*
X82172347Y-92242180D01*
X82273351Y-92252499D01*
X82872500Y-92252499D01*
X82971640Y-92252499D01*
X82971654Y-92252498D01*
X83072652Y-92242180D01*
X83236300Y-92187953D01*
X83236311Y-92187948D01*
X83383034Y-92097447D01*
X83383038Y-92097444D01*
X83504944Y-91975538D01*
X83504947Y-91975534D01*
X83595448Y-91828811D01*
X83595453Y-91828800D01*
X83649680Y-91665152D01*
X83659999Y-91564154D01*
X83660000Y-91564141D01*
X83660000Y-91527500D01*
X82872500Y-91527500D01*
X82872500Y-92252499D01*
X82273351Y-92252499D01*
X82372500Y-92252498D01*
X82372500Y-90261362D01*
X82392185Y-90194323D01*
X82408819Y-90173681D01*
X82410000Y-90172500D01*
X82410000Y-88552499D01*
X82310860Y-88552500D01*
X82310844Y-88552501D01*
X82209847Y-88562819D01*
X82046199Y-88617046D01*
X82046188Y-88617051D01*
X81899465Y-88707552D01*
X81885532Y-88721485D01*
X81824208Y-88754968D01*
X81754516Y-88749982D01*
X81710172Y-88721482D01*
X81695851Y-88707161D01*
X81695850Y-88707160D01*
X81554251Y-88619821D01*
X81549018Y-88616593D01*
X81549013Y-88616591D01*
X81514601Y-88605188D01*
X81385253Y-88562326D01*
X81385251Y-88562325D01*
X81284178Y-88552000D01*
X80585830Y-88552000D01*
X80585812Y-88552001D01*
X80484747Y-88562325D01*
X80320984Y-88616592D01*
X80320981Y-88616593D01*
X80174148Y-88707161D01*
X80052161Y-88829148D01*
X79961593Y-88975981D01*
X79961591Y-88975986D01*
X79960854Y-88978210D01*
X79907326Y-89139747D01*
X79907326Y-89139748D01*
X79907325Y-89139748D01*
X79897000Y-89240815D01*
X79897000Y-89814169D01*
X79897001Y-89814187D01*
X79907325Y-89915252D01*
X79961592Y-90079015D01*
X79961593Y-90079018D01*
X79980881Y-90110289D01*
X80025326Y-90182346D01*
X80052161Y-90225851D01*
X80122378Y-90296068D01*
X80126716Y-90304013D01*
X80133964Y-90309439D01*
X80143198Y-90334198D01*
X80155863Y-90357391D01*
X80155217Y-90366420D01*
X80158381Y-90374903D01*
X80152764Y-90400723D01*
X80150879Y-90427083D01*
X80145060Y-90436136D01*
X80143529Y-90443176D01*
X80122378Y-90471430D01*
X80075430Y-90518378D01*
X80014107Y-90551863D01*
X79944415Y-90546879D01*
X79918859Y-90533800D01*
X79869183Y-90500608D01*
X79869172Y-90500602D01*
X79723501Y-90440264D01*
X79723489Y-90440261D01*
X79568845Y-90409500D01*
X79568842Y-90409500D01*
X79411158Y-90409500D01*
X79411155Y-90409500D01*
X79256510Y-90440261D01*
X79256498Y-90440264D01*
X79110827Y-90500602D01*
X79110814Y-90500609D01*
X78979711Y-90588210D01*
X78979707Y-90588213D01*
X78868213Y-90699707D01*
X78868210Y-90699711D01*
X78780609Y-90830814D01*
X78780604Y-90830824D01*
X78726357Y-90961789D01*
X78682516Y-91016192D01*
X78616222Y-91038257D01*
X78564347Y-91028898D01*
X78543505Y-91020265D01*
X78543489Y-91020261D01*
X78388845Y-90989500D01*
X78388842Y-90989500D01*
X78354500Y-90989500D01*
X78287461Y-90969815D01*
X78241706Y-90917011D01*
X78230500Y-90865500D01*
X78230500Y-88891941D01*
X78250185Y-88824902D01*
X78302989Y-88779147D01*
X78372147Y-88769203D01*
X78435703Y-88798228D01*
X78442181Y-88804260D01*
X78449707Y-88811786D01*
X78449711Y-88811789D01*
X78580814Y-88899390D01*
X78580827Y-88899397D01*
X78726498Y-88959735D01*
X78726503Y-88959737D01*
X78881153Y-88990499D01*
X78881156Y-88990500D01*
X78881158Y-88990500D01*
X79038844Y-88990500D01*
X79038845Y-88990499D01*
X79193497Y-88959737D01*
X79339179Y-88899394D01*
X79470289Y-88811789D01*
X79581789Y-88700289D01*
X79669394Y-88569179D01*
X79729737Y-88423497D01*
X79760500Y-88268842D01*
X79760500Y-88111158D01*
X79760500Y-88111155D01*
X79760499Y-88111153D01*
X79749436Y-88055538D01*
X79729737Y-87956503D01*
X79723381Y-87941158D01*
X79669397Y-87810827D01*
X79669390Y-87810814D01*
X79581398Y-87679125D01*
X79560520Y-87612447D01*
X79560500Y-87610234D01*
X79560500Y-86945845D01*
X83435000Y-86945845D01*
X83435000Y-87045000D01*
X84160000Y-87045000D01*
X84160000Y-86257500D01*
X84123361Y-86257500D01*
X84123343Y-86257501D01*
X84022347Y-86267819D01*
X83858699Y-86322046D01*
X83858688Y-86322051D01*
X83711965Y-86412552D01*
X83711961Y-86412555D01*
X83590055Y-86534461D01*
X83590052Y-86534465D01*
X83499551Y-86681188D01*
X83499546Y-86681199D01*
X83445319Y-86844847D01*
X83435000Y-86945845D01*
X79560500Y-86945845D01*
X79560500Y-86334168D01*
X79580185Y-86267129D01*
X79632989Y-86221374D01*
X79702147Y-86211430D01*
X79753392Y-86231067D01*
X79780812Y-86249389D01*
X79780827Y-86249397D01*
X79922256Y-86307978D01*
X79926503Y-86309737D01*
X80081153Y-86340499D01*
X80081156Y-86340500D01*
X80081158Y-86340500D01*
X80238844Y-86340500D01*
X80238845Y-86340499D01*
X80393497Y-86309737D01*
X80538421Y-86249708D01*
X80539172Y-86249397D01*
X80539172Y-86249396D01*
X80539179Y-86249394D01*
X80670289Y-86161789D01*
X80781789Y-86050289D01*
X80869394Y-85919179D01*
X80929737Y-85773497D01*
X80960071Y-85621001D01*
X80960638Y-85618150D01*
X80993023Y-85556239D01*
X80994461Y-85554773D01*
X81242418Y-85306816D01*
X81303740Y-85273334D01*
X81330098Y-85270500D01*
X81785500Y-85270500D01*
X81852539Y-85290185D01*
X81898294Y-85342989D01*
X81909500Y-85394500D01*
X81909500Y-85466346D01*
X81940261Y-85620989D01*
X81940264Y-85621001D01*
X82000602Y-85766672D01*
X82000609Y-85766685D01*
X82088210Y-85897788D01*
X82088213Y-85897792D01*
X82199707Y-86009286D01*
X82199711Y-86009289D01*
X82330814Y-86096890D01*
X82330827Y-86096897D01*
X82476498Y-86157235D01*
X82476503Y-86157237D01*
X82631153Y-86187999D01*
X82631156Y-86188000D01*
X82631158Y-86188000D01*
X82788844Y-86188000D01*
X82788845Y-86187999D01*
X82943497Y-86157237D01*
X83089179Y-86096894D01*
X83089185Y-86096890D01*
X83220873Y-86008899D01*
X83268533Y-85989832D01*
X83279069Y-85988001D01*
X83329057Y-85988001D01*
X83421298Y-85963284D01*
X83426785Y-85962331D01*
X83430708Y-85962778D01*
X83448016Y-85960500D01*
X86249903Y-85960500D01*
X86316942Y-85980185D01*
X86337584Y-85996819D01*
X87468583Y-87127819D01*
X87502068Y-87189142D01*
X87497084Y-87258834D01*
X87455212Y-87314767D01*
X87389748Y-87339184D01*
X87380902Y-87339500D01*
X86311298Y-87339500D01*
X86244259Y-87319815D01*
X86215445Y-87294166D01*
X86211783Y-87289704D01*
X86100292Y-87178213D01*
X86100288Y-87178210D01*
X85969185Y-87090609D01*
X85969172Y-87090602D01*
X85823501Y-87030264D01*
X85823489Y-87030261D01*
X85668845Y-86999500D01*
X85668842Y-86999500D01*
X85511158Y-86999500D01*
X85505066Y-86999500D01*
X85505066Y-86997345D01*
X85445974Y-86986129D01*
X85395271Y-86938057D01*
X85379125Y-86888354D01*
X85374681Y-86844848D01*
X85320453Y-86681199D01*
X85320448Y-86681188D01*
X85229947Y-86534465D01*
X85229944Y-86534461D01*
X85108038Y-86412555D01*
X85108034Y-86412552D01*
X84961311Y-86322051D01*
X84961300Y-86322046D01*
X84797652Y-86267819D01*
X84696654Y-86257500D01*
X84660000Y-86257500D01*
X84660000Y-87171000D01*
X84640315Y-87238039D01*
X84587511Y-87283794D01*
X84536000Y-87295000D01*
X84410000Y-87295000D01*
X84410000Y-87421000D01*
X84390315Y-87488039D01*
X84337511Y-87533794D01*
X84286000Y-87545000D01*
X83435001Y-87545000D01*
X83435001Y-87644154D01*
X83445319Y-87745152D01*
X83499546Y-87908800D01*
X83499551Y-87908811D01*
X83590052Y-88055534D01*
X83590055Y-88055538D01*
X83603982Y-88069465D01*
X83637467Y-88130788D01*
X83632483Y-88200480D01*
X83603984Y-88244825D01*
X83589661Y-88259148D01*
X83499093Y-88405981D01*
X83499092Y-88405984D01*
X83452117Y-88547744D01*
X83412344Y-88605188D01*
X83347828Y-88632011D01*
X83280425Y-88619941D01*
X83280351Y-88620101D01*
X83279750Y-88619821D01*
X83279052Y-88619696D01*
X83276820Y-88618454D01*
X83273800Y-88617046D01*
X83110152Y-88562819D01*
X83009154Y-88552500D01*
X82910000Y-88552500D01*
X82910000Y-90543638D01*
X82890315Y-90610677D01*
X82873681Y-90631319D01*
X82872500Y-90632500D01*
X82872500Y-91027500D01*
X83659999Y-91027500D01*
X83659999Y-90990860D01*
X83659998Y-90990845D01*
X83649680Y-90889847D01*
X83595453Y-90726199D01*
X83595448Y-90726188D01*
X83504947Y-90579465D01*
X83504944Y-90579461D01*
X83434414Y-90508931D01*
X83400929Y-90447608D01*
X83405913Y-90377916D01*
X83434414Y-90333569D01*
X83542444Y-90225538D01*
X83542447Y-90225534D01*
X83632948Y-90078811D01*
X83632952Y-90078801D01*
X83645391Y-90041263D01*
X83685162Y-89983817D01*
X83749678Y-89956992D01*
X83818454Y-89969306D01*
X83828185Y-89974719D01*
X83858484Y-89993408D01*
X84022247Y-90047674D01*
X84123323Y-90058000D01*
X84696676Y-90057999D01*
X84696684Y-90057998D01*
X84696687Y-90057998D01*
X84752030Y-90052344D01*
X84797753Y-90047674D01*
X84961516Y-89993408D01*
X85108350Y-89902840D01*
X85115577Y-89895612D01*
X85176895Y-89862128D01*
X85246587Y-89867109D01*
X85272149Y-89880191D01*
X85330814Y-89919390D01*
X85330827Y-89919397D01*
X85421591Y-89956992D01*
X85476503Y-89979737D01*
X85622823Y-90008842D01*
X85631153Y-90010499D01*
X85631156Y-90010500D01*
X85631158Y-90010500D01*
X85788844Y-90010500D01*
X85788845Y-90010499D01*
X85943497Y-89979737D01*
X86089179Y-89919394D01*
X86220289Y-89831789D01*
X86331789Y-89720289D01*
X86419394Y-89589179D01*
X86479737Y-89443497D01*
X86510500Y-89288842D01*
X86510500Y-89131158D01*
X86510500Y-89131155D01*
X86510499Y-89131153D01*
X86480077Y-88978213D01*
X86479737Y-88976503D01*
X86472686Y-88959480D01*
X86419397Y-88830827D01*
X86419390Y-88830814D01*
X86354294Y-88733391D01*
X86333416Y-88666713D01*
X86351901Y-88599333D01*
X86403879Y-88552643D01*
X86457396Y-88540500D01*
X87439903Y-88540500D01*
X87506942Y-88560185D01*
X87527584Y-88576819D01*
X88196139Y-89245374D01*
X88196149Y-89245385D01*
X88312285Y-89361521D01*
X88344898Y-89380349D01*
X88377512Y-89399179D01*
X88449215Y-89440577D01*
X88601943Y-89481501D01*
X88601946Y-89481501D01*
X88767653Y-89481501D01*
X88767669Y-89481500D01*
X90330846Y-89481500D01*
X90397885Y-89501185D01*
X90418527Y-89517819D01*
X91651196Y-90750488D01*
X91684681Y-90811811D01*
X91679697Y-90881503D01*
X91666618Y-90907059D01*
X91590608Y-91020816D01*
X91590602Y-91020827D01*
X91530264Y-91166498D01*
X91530261Y-91166510D01*
X91499500Y-91321153D01*
X91499500Y-91478846D01*
X91530261Y-91633489D01*
X91530264Y-91633501D01*
X91590602Y-91779172D01*
X91590609Y-91779185D01*
X91678602Y-91910874D01*
X91699480Y-91977551D01*
X91699500Y-91979765D01*
X91699500Y-94116942D01*
X91699499Y-94116960D01*
X91699499Y-94124555D01*
X91699499Y-94282669D01*
X91714232Y-94337652D01*
X91715275Y-94341544D01*
X91719500Y-94373638D01*
X91719500Y-98313330D01*
X91719499Y-98313348D01*
X91719499Y-98479054D01*
X91719498Y-98479054D01*
X91719499Y-98479057D01*
X91760423Y-98631785D01*
X91783517Y-98671785D01*
X91839480Y-98768716D01*
X91855100Y-98784336D01*
X91862431Y-98795883D01*
X91868459Y-98816845D01*
X91878911Y-98835985D01*
X91879362Y-98838151D01*
X91910261Y-98993491D01*
X91910264Y-98993501D01*
X91970602Y-99139172D01*
X91970609Y-99139185D01*
X92058210Y-99270288D01*
X92058213Y-99270292D01*
X92169707Y-99381786D01*
X92169711Y-99381789D01*
X92300814Y-99469390D01*
X92300827Y-99469397D01*
X92417648Y-99517785D01*
X92446503Y-99529737D01*
X92601153Y-99560499D01*
X92601156Y-99560500D01*
X92601158Y-99560500D01*
X92758844Y-99560500D01*
X92758845Y-99560499D01*
X92913497Y-99529737D01*
X93059179Y-99469394D01*
X93190289Y-99381789D01*
X93301789Y-99270289D01*
X93389394Y-99139179D01*
X93449737Y-98993497D01*
X93452712Y-98978543D01*
X109859499Y-98978543D01*
X109897947Y-99171829D01*
X109897950Y-99171839D01*
X109973364Y-99353907D01*
X109973371Y-99353920D01*
X110082860Y-99517781D01*
X110082863Y-99517785D01*
X110222214Y-99657136D01*
X110222218Y-99657139D01*
X110386079Y-99766628D01*
X110386092Y-99766635D01*
X110542125Y-99831265D01*
X110568165Y-99842051D01*
X110568169Y-99842051D01*
X110568170Y-99842052D01*
X110761456Y-99880500D01*
X110761459Y-99880500D01*
X110958543Y-99880500D01*
X111088582Y-99854632D01*
X111151835Y-99842051D01*
X111308903Y-99776992D01*
X111333907Y-99766635D01*
X111333907Y-99766634D01*
X111333914Y-99766632D01*
X111497782Y-99657139D01*
X111637139Y-99517782D01*
X111746632Y-99353914D01*
X111746635Y-99353906D01*
X111749446Y-99348648D01*
X111798405Y-99298800D01*
X111866542Y-99283335D01*
X111932223Y-99307163D01*
X111934300Y-99308722D01*
X111936632Y-99310512D01*
X111936635Y-99310515D01*
X111989443Y-99341004D01*
X112060084Y-99381789D01*
X112067865Y-99386281D01*
X112214234Y-99425500D01*
X112214236Y-99425500D01*
X112365764Y-99425500D01*
X112365766Y-99425500D01*
X112512135Y-99386281D01*
X112643365Y-99310515D01*
X112750515Y-99203365D01*
X112826281Y-99072135D01*
X112865500Y-98925766D01*
X112865500Y-98774234D01*
X112826281Y-98627865D01*
X112750515Y-98496635D01*
X112643365Y-98389485D01*
X112560087Y-98341404D01*
X112512136Y-98313719D01*
X112407584Y-98285705D01*
X112365766Y-98274500D01*
X112214234Y-98274500D01*
X112067862Y-98313719D01*
X112046499Y-98326054D01*
X111978598Y-98342525D01*
X111912572Y-98319673D01*
X111869382Y-98264751D01*
X111860500Y-98218666D01*
X111860500Y-97681456D01*
X111822052Y-97488170D01*
X111822051Y-97488169D01*
X111822051Y-97488165D01*
X111789312Y-97409125D01*
X111746635Y-97306092D01*
X111746628Y-97306079D01*
X111637139Y-97142218D01*
X111637136Y-97142214D01*
X111497785Y-97002863D01*
X111497781Y-97002860D01*
X111333920Y-96893371D01*
X111333907Y-96893364D01*
X111151839Y-96817950D01*
X111151829Y-96817947D01*
X110958543Y-96779500D01*
X110958541Y-96779500D01*
X110761459Y-96779500D01*
X110761457Y-96779500D01*
X110568170Y-96817947D01*
X110568160Y-96817950D01*
X110386092Y-96893364D01*
X110386079Y-96893371D01*
X110222218Y-97002860D01*
X110222214Y-97002863D01*
X110082863Y-97142214D01*
X110082860Y-97142218D01*
X109973371Y-97306079D01*
X109973364Y-97306092D01*
X109897950Y-97488160D01*
X109897947Y-97488170D01*
X109859500Y-97681456D01*
X109859500Y-97681459D01*
X109859500Y-98978541D01*
X109859500Y-98978543D01*
X109859499Y-98978543D01*
X93452712Y-98978543D01*
X93480500Y-98838842D01*
X93480500Y-98835858D01*
X93480942Y-98834351D01*
X93481097Y-98832782D01*
X93481394Y-98832811D01*
X93500185Y-98768819D01*
X93552989Y-98723064D01*
X93580309Y-98714241D01*
X93613461Y-98707646D01*
X93703497Y-98689737D01*
X93849179Y-98629394D01*
X93980289Y-98541789D01*
X94091789Y-98430289D01*
X94179394Y-98299179D01*
X94239737Y-98153497D01*
X94270500Y-97998842D01*
X94270500Y-97841158D01*
X94270500Y-97841155D01*
X94242334Y-97699559D01*
X94242333Y-97699556D01*
X94242320Y-97699490D01*
X94239737Y-97686503D01*
X94237648Y-97681459D01*
X94179397Y-97540827D01*
X94179390Y-97540814D01*
X94091398Y-97409125D01*
X94070520Y-97342447D01*
X94070500Y-97340234D01*
X94070500Y-95310945D01*
X94070500Y-95310943D01*
X94055913Y-95256503D01*
X94029577Y-95158215D01*
X94013988Y-95131216D01*
X94000639Y-95108095D01*
X94000637Y-95108092D01*
X93967767Y-95051158D01*
X93950520Y-95021284D01*
X93838716Y-94909480D01*
X93838715Y-94909479D01*
X93834385Y-94905149D01*
X93834374Y-94905139D01*
X93539554Y-94610319D01*
X93506069Y-94548996D01*
X93503235Y-94522638D01*
X93503235Y-91073736D01*
X93503234Y-91073732D01*
X93493716Y-91038211D01*
X93493715Y-91038209D01*
X93462312Y-90921007D01*
X93426801Y-90859500D01*
X93383255Y-90784076D01*
X93372340Y-90773161D01*
X93361727Y-90753724D01*
X93347227Y-90736991D01*
X93345310Y-90723659D01*
X93338855Y-90711838D01*
X93340434Y-90689751D01*
X93337283Y-90667833D01*
X93342878Y-90655581D01*
X93343839Y-90642146D01*
X93357109Y-90624419D01*
X93366308Y-90604277D01*
X93377639Y-90596994D01*
X93385711Y-90586213D01*
X93406456Y-90578475D01*
X93425086Y-90566503D01*
X93447004Y-90563351D01*
X93451175Y-90561796D01*
X93460021Y-90561480D01*
X93616217Y-90561480D01*
X93683256Y-90581165D01*
X93729011Y-90633969D01*
X93737834Y-90661288D01*
X93740261Y-90673491D01*
X93740264Y-90673501D01*
X93800602Y-90819172D01*
X93800609Y-90819185D01*
X93888210Y-90950288D01*
X93888213Y-90950292D01*
X93999707Y-91061786D01*
X93999711Y-91061789D01*
X94130814Y-91149390D01*
X94130827Y-91149397D01*
X94276498Y-91209735D01*
X94276503Y-91209737D01*
X94372163Y-91228765D01*
X94431153Y-91240499D01*
X94431156Y-91240500D01*
X94431158Y-91240500D01*
X94588844Y-91240500D01*
X94588845Y-91240499D01*
X94743497Y-91209737D01*
X94889179Y-91149394D01*
X95020289Y-91061789D01*
X95131789Y-90950289D01*
X95219394Y-90819179D01*
X95279737Y-90673497D01*
X95310500Y-90518842D01*
X95310500Y-90361158D01*
X95310500Y-90361155D01*
X95310499Y-90361153D01*
X95287000Y-90243013D01*
X95293227Y-90173422D01*
X95320936Y-90131141D01*
X95341789Y-90110289D01*
X95429021Y-89979737D01*
X95429390Y-89979185D01*
X95429390Y-89979184D01*
X95429394Y-89979179D01*
X95433484Y-89969306D01*
X95454156Y-89919397D01*
X95489737Y-89833497D01*
X95520500Y-89678842D01*
X95520500Y-89521158D01*
X95520500Y-89521155D01*
X95520499Y-89521153D01*
X95505052Y-89443497D01*
X95489737Y-89366503D01*
X95465592Y-89308211D01*
X95429397Y-89220827D01*
X95429390Y-89220814D01*
X95341789Y-89089711D01*
X95341786Y-89089707D01*
X95230292Y-88978213D01*
X95230288Y-88978210D01*
X95099185Y-88890609D01*
X95099172Y-88890602D01*
X94953501Y-88830264D01*
X94953489Y-88830261D01*
X94798845Y-88799500D01*
X94798842Y-88799500D01*
X94641158Y-88799500D01*
X94641155Y-88799500D01*
X94486510Y-88830261D01*
X94486498Y-88830264D01*
X94340822Y-88890604D01*
X94340819Y-88890606D01*
X94279607Y-88931507D01*
X94212930Y-88952385D01*
X94178626Y-88948180D01*
X94038000Y-88910499D01*
X93879886Y-88910499D01*
X93872290Y-88910499D01*
X93872274Y-88910500D01*
X93326909Y-88910500D01*
X93259870Y-88890815D01*
X93214115Y-88838011D01*
X93204171Y-88768853D01*
X93233196Y-88705297D01*
X93258018Y-88683398D01*
X93291970Y-88660711D01*
X93320289Y-88641789D01*
X93431789Y-88530289D01*
X93519394Y-88399179D01*
X93579737Y-88253497D01*
X93610500Y-88098842D01*
X93610500Y-88098840D01*
X93610637Y-88098152D01*
X93643021Y-88036241D01*
X93644574Y-88034661D01*
X93660178Y-88019057D01*
X93710520Y-87968716D01*
X93789577Y-87831784D01*
X93830501Y-87679057D01*
X93830501Y-87520942D01*
X93830501Y-87513347D01*
X93830500Y-87513329D01*
X93830500Y-87401153D01*
X94219500Y-87401153D01*
X94219500Y-87558846D01*
X94250261Y-87713489D01*
X94250264Y-87713501D01*
X94310602Y-87859172D01*
X94310609Y-87859185D01*
X94398210Y-87990288D01*
X94398213Y-87990292D01*
X94509707Y-88101786D01*
X94509711Y-88101789D01*
X94640814Y-88189390D01*
X94640827Y-88189397D01*
X94752904Y-88235820D01*
X94786503Y-88249737D01*
X94851147Y-88262595D01*
X94941849Y-88280638D01*
X95003760Y-88313023D01*
X95005338Y-88314573D01*
X102661284Y-95970520D01*
X102661286Y-95970521D01*
X102661290Y-95970524D01*
X102798209Y-96049573D01*
X102798216Y-96049577D01*
X102950943Y-96090501D01*
X102950945Y-96090501D01*
X103116654Y-96090501D01*
X103116670Y-96090500D01*
X103620234Y-96090500D01*
X103687273Y-96110185D01*
X103689125Y-96111398D01*
X103820814Y-96199390D01*
X103820827Y-96199397D01*
X103923165Y-96241786D01*
X103966503Y-96259737D01*
X104121153Y-96290499D01*
X104121156Y-96290500D01*
X104121158Y-96290500D01*
X104278844Y-96290500D01*
X104278845Y-96290499D01*
X104433497Y-96259737D01*
X104579179Y-96199394D01*
X104710289Y-96111789D01*
X104821789Y-96000289D01*
X104909394Y-95869179D01*
X104969737Y-95723497D01*
X105000500Y-95568842D01*
X105000500Y-95411158D01*
X105000500Y-95411155D01*
X105000499Y-95411153D01*
X104969737Y-95256503D01*
X104963241Y-95240821D01*
X104909397Y-95110827D01*
X104909390Y-95110814D01*
X104821789Y-94979711D01*
X104821786Y-94979707D01*
X104710292Y-94868213D01*
X104710288Y-94868210D01*
X104579185Y-94780609D01*
X104579172Y-94780602D01*
X104433501Y-94720264D01*
X104433489Y-94720261D01*
X104278845Y-94689500D01*
X104278842Y-94689500D01*
X104121158Y-94689500D01*
X104121155Y-94689500D01*
X103966510Y-94720261D01*
X103966498Y-94720264D01*
X103820827Y-94780602D01*
X103820814Y-94780609D01*
X103689125Y-94868602D01*
X103622447Y-94889480D01*
X103620234Y-94889500D01*
X103330098Y-94889500D01*
X103263059Y-94869815D01*
X103242417Y-94853181D01*
X101946247Y-93557011D01*
X100591415Y-92202180D01*
X100557931Y-92140858D01*
X100562915Y-92071166D01*
X100604787Y-92015233D01*
X100670251Y-91990816D01*
X100679097Y-91990500D01*
X103201800Y-91990500D01*
X103268839Y-92010185D01*
X103304902Y-92045609D01*
X103388210Y-92170288D01*
X103388213Y-92170292D01*
X103499707Y-92281786D01*
X103499711Y-92281789D01*
X103630814Y-92369390D01*
X103630827Y-92369397D01*
X103720920Y-92406714D01*
X103776503Y-92429737D01*
X103919505Y-92458182D01*
X103931153Y-92460499D01*
X103931156Y-92460500D01*
X103931158Y-92460500D01*
X104088844Y-92460500D01*
X104088845Y-92460499D01*
X104243497Y-92429737D01*
X104389179Y-92369394D01*
X104520289Y-92281789D01*
X104631789Y-92170289D01*
X104719394Y-92039179D01*
X104731274Y-92010499D01*
X104750939Y-91963023D01*
X104794780Y-91908619D01*
X104861074Y-91886554D01*
X104928773Y-91903833D01*
X104976384Y-91954970D01*
X104989500Y-92010475D01*
X104989500Y-92910234D01*
X104969815Y-92977273D01*
X104968602Y-92979125D01*
X104880609Y-93110814D01*
X104880602Y-93110827D01*
X104820264Y-93256498D01*
X104820261Y-93256510D01*
X104789500Y-93411153D01*
X104789500Y-93568846D01*
X104820261Y-93723489D01*
X104820264Y-93723501D01*
X104880602Y-93869172D01*
X104880609Y-93869185D01*
X104968210Y-94000288D01*
X104968213Y-94000292D01*
X105079707Y-94111786D01*
X105079711Y-94111789D01*
X105210814Y-94199390D01*
X105210827Y-94199397D01*
X105345487Y-94255174D01*
X105356503Y-94259737D01*
X105508810Y-94290033D01*
X105511153Y-94290499D01*
X105511156Y-94290500D01*
X105511158Y-94290500D01*
X105668844Y-94290500D01*
X105668845Y-94290499D01*
X105823497Y-94259737D01*
X105879225Y-94236654D01*
X118460001Y-94236654D01*
X118470319Y-94337652D01*
X118524546Y-94501300D01*
X118524551Y-94501311D01*
X118615052Y-94648034D01*
X118615055Y-94648038D01*
X118736961Y-94769944D01*
X118736965Y-94769947D01*
X118883688Y-94860448D01*
X118883699Y-94860453D01*
X119047347Y-94914680D01*
X119148351Y-94924999D01*
X119247500Y-94924998D01*
X119247500Y-94200000D01*
X118460001Y-94200000D01*
X118460001Y-94236654D01*
X105879225Y-94236654D01*
X105969179Y-94199394D01*
X106100289Y-94111789D01*
X106109407Y-94102671D01*
X106151122Y-94060957D01*
X106211786Y-94000292D01*
X106211789Y-94000289D01*
X106299394Y-93869179D01*
X106359737Y-93723497D01*
X106390500Y-93568842D01*
X106390500Y-93411158D01*
X106390500Y-93411155D01*
X106390499Y-93411153D01*
X106388020Y-93398688D01*
X106359737Y-93256503D01*
X106333641Y-93193501D01*
X106299397Y-93110827D01*
X106299390Y-93110814D01*
X106211398Y-92979125D01*
X106190520Y-92912447D01*
X106190500Y-92910234D01*
X106190500Y-91439060D01*
X106190501Y-91439047D01*
X106190501Y-91270944D01*
X106188931Y-91265084D01*
X106149577Y-91118216D01*
X106130913Y-91085888D01*
X106070524Y-90981290D01*
X106070518Y-90981282D01*
X104487590Y-89398355D01*
X104487588Y-89398352D01*
X104368717Y-89279481D01*
X104368709Y-89279475D01*
X104267116Y-89220821D01*
X104267113Y-89220820D01*
X104266742Y-89220606D01*
X104259647Y-89216509D01*
X104231786Y-89200423D01*
X104231787Y-89200423D01*
X104170693Y-89184053D01*
X104079057Y-89159499D01*
X103920943Y-89159499D01*
X103913347Y-89159499D01*
X103913331Y-89159500D01*
X100840098Y-89159500D01*
X100773059Y-89139815D01*
X100752417Y-89123181D01*
X99356819Y-87727583D01*
X99342115Y-87700655D01*
X99325523Y-87674837D01*
X99324631Y-87668636D01*
X99323334Y-87666260D01*
X99320500Y-87639902D01*
X99320500Y-87569765D01*
X99340185Y-87502726D01*
X99341398Y-87500874D01*
X99429390Y-87369185D01*
X99429390Y-87369184D01*
X99429394Y-87369179D01*
X99489737Y-87223497D01*
X99520500Y-87068842D01*
X99520500Y-86911158D01*
X99520500Y-86911155D01*
X99520499Y-86911153D01*
X99515964Y-86888354D01*
X99489737Y-86756503D01*
X99489735Y-86756498D01*
X99429397Y-86610827D01*
X99429390Y-86610814D01*
X99341789Y-86479711D01*
X99341786Y-86479707D01*
X99230292Y-86368213D01*
X99230288Y-86368210D01*
X99099185Y-86280609D01*
X99099172Y-86280602D01*
X98953501Y-86220264D01*
X98953489Y-86220261D01*
X98798845Y-86189500D01*
X98798842Y-86189500D01*
X98641158Y-86189500D01*
X98641155Y-86189500D01*
X98486510Y-86220261D01*
X98486498Y-86220264D01*
X98340827Y-86280602D01*
X98340811Y-86280611D01*
X98299853Y-86307978D01*
X98233176Y-86328855D01*
X98165796Y-86310369D01*
X98127861Y-86273765D01*
X98111787Y-86249708D01*
X98000292Y-86138213D01*
X98000288Y-86138210D01*
X97869185Y-86050609D01*
X97869172Y-86050602D01*
X97723501Y-85990264D01*
X97723489Y-85990261D01*
X97568845Y-85959500D01*
X97568842Y-85959500D01*
X97411158Y-85959500D01*
X97411155Y-85959500D01*
X97256510Y-85990261D01*
X97256498Y-85990264D01*
X97110827Y-86050602D01*
X97110814Y-86050609D01*
X96979711Y-86138210D01*
X96979707Y-86138213D01*
X96868213Y-86249707D01*
X96868210Y-86249711D01*
X96780609Y-86380814D01*
X96780602Y-86380827D01*
X96720264Y-86526498D01*
X96720261Y-86526510D01*
X96689500Y-86681153D01*
X96689500Y-86838846D01*
X96720261Y-86993489D01*
X96720264Y-86993501D01*
X96780602Y-87139172D01*
X96780609Y-87139185D01*
X96868602Y-87270874D01*
X96889480Y-87337551D01*
X96889500Y-87339765D01*
X96889500Y-88193346D01*
X96889499Y-88200917D01*
X96888503Y-88204304D01*
X96888742Y-88207024D01*
X96888741Y-88207033D01*
X96887735Y-88206921D01*
X96879246Y-88235820D01*
X96869814Y-88267940D01*
X96869808Y-88267944D01*
X96869806Y-88267954D01*
X96839208Y-88294459D01*
X96817010Y-88313695D01*
X96817002Y-88313696D01*
X96816996Y-88313702D01*
X96779860Y-88319036D01*
X96747852Y-88323639D01*
X96747844Y-88323635D01*
X96747836Y-88323637D01*
X96716684Y-88309405D01*
X96684296Y-88294614D01*
X96677818Y-88288582D01*
X95854573Y-87465337D01*
X95821088Y-87404014D01*
X95820637Y-87401847D01*
X95814139Y-87369179D01*
X95789737Y-87246503D01*
X95780208Y-87223497D01*
X95729397Y-87100827D01*
X95729390Y-87100814D01*
X95641789Y-86969711D01*
X95641786Y-86969707D01*
X95530292Y-86858213D01*
X95530288Y-86858210D01*
X95399185Y-86770609D01*
X95399172Y-86770602D01*
X95253501Y-86710264D01*
X95253489Y-86710261D01*
X95098845Y-86679500D01*
X95098842Y-86679500D01*
X94941158Y-86679500D01*
X94941155Y-86679500D01*
X94786510Y-86710261D01*
X94786498Y-86710264D01*
X94640827Y-86770602D01*
X94640814Y-86770609D01*
X94509711Y-86858210D01*
X94509707Y-86858213D01*
X94398213Y-86969707D01*
X94398210Y-86969711D01*
X94310609Y-87100814D01*
X94310602Y-87100827D01*
X94250264Y-87246498D01*
X94250261Y-87246510D01*
X94219500Y-87401153D01*
X93830500Y-87401153D01*
X93830500Y-84811153D01*
X117949500Y-84811153D01*
X117949500Y-84968846D01*
X117980261Y-85123489D01*
X117980264Y-85123501D01*
X118040602Y-85269172D01*
X118040609Y-85269185D01*
X118128602Y-85400874D01*
X118149480Y-85467551D01*
X118149500Y-85469765D01*
X118149500Y-91390830D01*
X118149499Y-91390848D01*
X118149499Y-91556554D01*
X118149498Y-91556554D01*
X118190423Y-91709285D01*
X118200034Y-91725931D01*
X118200035Y-91725934D01*
X118269475Y-91846209D01*
X118269481Y-91846217D01*
X118388349Y-91965085D01*
X118388355Y-91965090D01*
X119190582Y-92767317D01*
X119224067Y-92828640D01*
X119219083Y-92898332D01*
X119177211Y-92954265D01*
X119115504Y-92978356D01*
X119047347Y-92985319D01*
X118883699Y-93039546D01*
X118883688Y-93039551D01*
X118736965Y-93130052D01*
X118736961Y-93130055D01*
X118615055Y-93251961D01*
X118615052Y-93251965D01*
X118524551Y-93398688D01*
X118524546Y-93398699D01*
X118470319Y-93562347D01*
X118460000Y-93663345D01*
X118460000Y-93700000D01*
X119373500Y-93700000D01*
X119440539Y-93719685D01*
X119486294Y-93772489D01*
X119497500Y-93824000D01*
X119497500Y-93950000D01*
X119623500Y-93950000D01*
X119690539Y-93969685D01*
X119736294Y-94022489D01*
X119747500Y-94074000D01*
X119747500Y-94924999D01*
X119846640Y-94924999D01*
X119846654Y-94924998D01*
X119947652Y-94914680D01*
X120111300Y-94860453D01*
X120111311Y-94860448D01*
X120258035Y-94769947D01*
X120271960Y-94756021D01*
X120333282Y-94722533D01*
X120402973Y-94727514D01*
X120428960Y-94740880D01*
X120438872Y-94747562D01*
X120461650Y-94770340D01*
X120591099Y-94850185D01*
X120593176Y-94851585D01*
X120613926Y-94876623D01*
X120635683Y-94900812D01*
X120637061Y-94904538D01*
X120637760Y-94905381D01*
X120637948Y-94906936D01*
X120643636Y-94922308D01*
X120659017Y-94979707D01*
X120662923Y-94994285D01*
X120663047Y-94994499D01*
X120663095Y-94994583D01*
X120663144Y-94994668D01*
X120741975Y-95131209D01*
X120741981Y-95131217D01*
X120860849Y-95250085D01*
X120860855Y-95250090D01*
X121105139Y-95494374D01*
X121105149Y-95494385D01*
X121109479Y-95498715D01*
X121109480Y-95498716D01*
X121221284Y-95610520D01*
X121221286Y-95610521D01*
X121221290Y-95610524D01*
X121358209Y-95689574D01*
X121358213Y-95689575D01*
X121358216Y-95689577D01*
X121364835Y-95691350D01*
X121366124Y-95691696D01*
X121421710Y-95723789D01*
X121449707Y-95751786D01*
X121449711Y-95751789D01*
X121580814Y-95839390D01*
X121580827Y-95839397D01*
X121652743Y-95869185D01*
X121726503Y-95899737D01*
X121881153Y-95930499D01*
X121881156Y-95930500D01*
X121881158Y-95930500D01*
X122038844Y-95930500D01*
X122038845Y-95930499D01*
X122193497Y-95899737D01*
X122339179Y-95839394D01*
X122470289Y-95751789D01*
X122581789Y-95640289D01*
X122669394Y-95509179D01*
X122713932Y-95401654D01*
X124515001Y-95401654D01*
X124525319Y-95502652D01*
X124579546Y-95666300D01*
X124579551Y-95666311D01*
X124670052Y-95813034D01*
X124670055Y-95813038D01*
X124791961Y-95934944D01*
X124791965Y-95934947D01*
X124938688Y-96025448D01*
X124938699Y-96025453D01*
X125102347Y-96079680D01*
X125203352Y-96089999D01*
X125240000Y-96089999D01*
X125740000Y-96089999D01*
X125776640Y-96089999D01*
X125776654Y-96089998D01*
X125877652Y-96079680D01*
X126041300Y-96025453D01*
X126041311Y-96025448D01*
X126188034Y-95934947D01*
X126188038Y-95934944D01*
X126309944Y-95813038D01*
X126309947Y-95813034D01*
X126400448Y-95666311D01*
X126400453Y-95666300D01*
X126454680Y-95502652D01*
X126464999Y-95401654D01*
X126465000Y-95401641D01*
X126465000Y-95352500D01*
X125740000Y-95352500D01*
X125740000Y-96089999D01*
X125240000Y-96089999D01*
X125240000Y-95352500D01*
X124515001Y-95352500D01*
X124515001Y-95401654D01*
X122713932Y-95401654D01*
X122729737Y-95363497D01*
X122733026Y-95346958D01*
X122746954Y-95276946D01*
X122746954Y-95276945D01*
X122760499Y-95208846D01*
X122760500Y-95208844D01*
X122760500Y-95051155D01*
X122760499Y-95051153D01*
X122749230Y-94994499D01*
X122729737Y-94896503D01*
X122722306Y-94878562D01*
X122669397Y-94750827D01*
X122669390Y-94750814D01*
X122581789Y-94619711D01*
X122581786Y-94619707D01*
X122470292Y-94508213D01*
X122470288Y-94508210D01*
X122339182Y-94420607D01*
X122339179Y-94420606D01*
X122330954Y-94417199D01*
X122276550Y-94373359D01*
X122254485Y-94307065D01*
X122255047Y-94290049D01*
X122260500Y-94236677D01*
X122260499Y-93663324D01*
X122250865Y-93569017D01*
X122263634Y-93500327D01*
X122311515Y-93449443D01*
X122326759Y-93441862D01*
X122401811Y-93410775D01*
X122516542Y-93334114D01*
X122516545Y-93334111D01*
X122562319Y-93288338D01*
X122623642Y-93254853D01*
X122693334Y-93259837D01*
X122737681Y-93288338D01*
X122783454Y-93334111D01*
X122783458Y-93334114D01*
X122898182Y-93410771D01*
X122898195Y-93410778D01*
X122973225Y-93441856D01*
X123025672Y-93463580D01*
X123025676Y-93463580D01*
X123025677Y-93463581D01*
X123161004Y-93490500D01*
X123161007Y-93490500D01*
X123298995Y-93490500D01*
X123400605Y-93470288D01*
X123434328Y-93463580D01*
X123532924Y-93422740D01*
X123561804Y-93410778D01*
X123561804Y-93410777D01*
X123561811Y-93410775D01*
X123676542Y-93334114D01*
X123774114Y-93236542D01*
X123850775Y-93121811D01*
X123903580Y-92994328D01*
X123906765Y-92978315D01*
X124514500Y-92978315D01*
X124514500Y-93576669D01*
X124514501Y-93576687D01*
X124524825Y-93677752D01*
X124559525Y-93782466D01*
X124579092Y-93841516D01*
X124658147Y-93969685D01*
X124669661Y-93988351D01*
X124783982Y-94102672D01*
X124817467Y-94163995D01*
X124812483Y-94233687D01*
X124783983Y-94278034D01*
X124670052Y-94391965D01*
X124579551Y-94538688D01*
X124579546Y-94538699D01*
X124525319Y-94702347D01*
X124515000Y-94803345D01*
X124515000Y-94852500D01*
X126464999Y-94852500D01*
X126464999Y-94803360D01*
X126464998Y-94803345D01*
X126454680Y-94702347D01*
X126400453Y-94538699D01*
X126400448Y-94538688D01*
X126309947Y-94391965D01*
X126309944Y-94391961D01*
X126196017Y-94278034D01*
X126162532Y-94216711D01*
X126167516Y-94147019D01*
X126196013Y-94102676D01*
X126310340Y-93988350D01*
X126400908Y-93841516D01*
X126401439Y-93839912D01*
X126402099Y-93838959D01*
X126403958Y-93834973D01*
X126404639Y-93835290D01*
X126441209Y-93782466D01*
X126494955Y-93757295D01*
X126514413Y-93753424D01*
X126633497Y-93729737D01*
X126754192Y-93679744D01*
X126779172Y-93669397D01*
X126779172Y-93669396D01*
X126779179Y-93669394D01*
X126910289Y-93581789D01*
X127021789Y-93470289D01*
X127109394Y-93339179D01*
X127169737Y-93193497D01*
X127200500Y-93038842D01*
X127200500Y-92881158D01*
X127200500Y-92881155D01*
X127200499Y-92881153D01*
X127169738Y-92726510D01*
X127169737Y-92726503D01*
X127169735Y-92726498D01*
X127109397Y-92580827D01*
X127109390Y-92580814D01*
X127021789Y-92449711D01*
X127021786Y-92449707D01*
X126910292Y-92338213D01*
X126910288Y-92338210D01*
X126779185Y-92250609D01*
X126779172Y-92250602D01*
X126633501Y-92190264D01*
X126633489Y-92190261D01*
X126478845Y-92159500D01*
X126478842Y-92159500D01*
X126454500Y-92159500D01*
X126387461Y-92139815D01*
X126341706Y-92087011D01*
X126330500Y-92035500D01*
X126330500Y-91951155D01*
X126330499Y-91951153D01*
X126322487Y-91910874D01*
X126299737Y-91796503D01*
X126270507Y-91725934D01*
X126239397Y-91650827D01*
X126239390Y-91650814D01*
X126151789Y-91519711D01*
X126151786Y-91519707D01*
X126040292Y-91408213D01*
X126040288Y-91408210D01*
X125909185Y-91320609D01*
X125909172Y-91320602D01*
X125763501Y-91260264D01*
X125763489Y-91260261D01*
X125608845Y-91229500D01*
X125608842Y-91229500D01*
X125451158Y-91229500D01*
X125451155Y-91229500D01*
X125296510Y-91260261D01*
X125296498Y-91260264D01*
X125150827Y-91320602D01*
X125150814Y-91320609D01*
X125019711Y-91408210D01*
X125019707Y-91408213D01*
X124908213Y-91519707D01*
X124908210Y-91519711D01*
X124820609Y-91650814D01*
X124820602Y-91650827D01*
X124760264Y-91796498D01*
X124760261Y-91796510D01*
X124729500Y-91951153D01*
X124729500Y-92108846D01*
X124760261Y-92263489D01*
X124760264Y-92263501D01*
X124790810Y-92337245D01*
X124798279Y-92406714D01*
X124767004Y-92469193D01*
X124763931Y-92472377D01*
X124669661Y-92566648D01*
X124579093Y-92713481D01*
X124579091Y-92713486D01*
X124561253Y-92767317D01*
X124524826Y-92877247D01*
X124524826Y-92877248D01*
X124524825Y-92877248D01*
X124514500Y-92978315D01*
X123906765Y-92978315D01*
X123909753Y-92963294D01*
X123912204Y-92950975D01*
X123912204Y-92950974D01*
X123930500Y-92858995D01*
X123930500Y-92721004D01*
X123903581Y-92585677D01*
X123903580Y-92585676D01*
X123903580Y-92585672D01*
X123892838Y-92559738D01*
X123850778Y-92458195D01*
X123850771Y-92458182D01*
X123774114Y-92343458D01*
X123774111Y-92343454D01*
X123728338Y-92297681D01*
X123694853Y-92236358D01*
X123699837Y-92166666D01*
X123728338Y-92122319D01*
X123774111Y-92076545D01*
X123774114Y-92076542D01*
X123850775Y-91961811D01*
X123855843Y-91949577D01*
X123881947Y-91886554D01*
X123903580Y-91834328D01*
X123914551Y-91779172D01*
X123930500Y-91698995D01*
X123930500Y-91561004D01*
X123930499Y-91560999D01*
X123903581Y-91425677D01*
X123903580Y-91425676D01*
X123903580Y-91425672D01*
X123896348Y-91408213D01*
X123850778Y-91298195D01*
X123850771Y-91298182D01*
X123774114Y-91183458D01*
X123774111Y-91183454D01*
X123676545Y-91085888D01*
X123676541Y-91085885D01*
X123561817Y-91009228D01*
X123561804Y-91009221D01*
X123434332Y-90956421D01*
X123434322Y-90956418D01*
X123298995Y-90929500D01*
X123298993Y-90929500D01*
X123161007Y-90929500D01*
X123161005Y-90929500D01*
X123025677Y-90956418D01*
X123025667Y-90956421D01*
X122898195Y-91009221D01*
X122898182Y-91009228D01*
X122783458Y-91085885D01*
X122783454Y-91085888D01*
X122737681Y-91131662D01*
X122676358Y-91165147D01*
X122606666Y-91160163D01*
X122562319Y-91131662D01*
X122516545Y-91085888D01*
X122516541Y-91085885D01*
X122401817Y-91009228D01*
X122401804Y-91009221D01*
X122274332Y-90956421D01*
X122274322Y-90956418D01*
X122138995Y-90929500D01*
X122138993Y-90929500D01*
X122001007Y-90929500D01*
X122001005Y-90929500D01*
X121865677Y-90956418D01*
X121865667Y-90956421D01*
X121738195Y-91009221D01*
X121738182Y-91009228D01*
X121623458Y-91085885D01*
X121623454Y-91085888D01*
X121525888Y-91183454D01*
X121525885Y-91183458D01*
X121449228Y-91298182D01*
X121449221Y-91298195D01*
X121396421Y-91425667D01*
X121396418Y-91425677D01*
X121369501Y-91560999D01*
X121369500Y-91561004D01*
X121369500Y-91561007D01*
X121369500Y-91698993D01*
X121369500Y-91698995D01*
X121369499Y-91698995D01*
X121396418Y-91834322D01*
X121396421Y-91834332D01*
X121449221Y-91961804D01*
X121449228Y-91961817D01*
X121525885Y-92076541D01*
X121525888Y-92076545D01*
X121571662Y-92122319D01*
X121605147Y-92183642D01*
X121600163Y-92253334D01*
X121571662Y-92297681D01*
X121525888Y-92343454D01*
X121525885Y-92343458D01*
X121449228Y-92458182D01*
X121449221Y-92458195D01*
X121396421Y-92585667D01*
X121396418Y-92585677D01*
X121369500Y-92721004D01*
X121369500Y-92850500D01*
X121366949Y-92859185D01*
X121368238Y-92868147D01*
X121357259Y-92892187D01*
X121349815Y-92917539D01*
X121342974Y-92923466D01*
X121339213Y-92931703D01*
X121316978Y-92945992D01*
X121297011Y-92963294D01*
X121286496Y-92965581D01*
X121280435Y-92969477D01*
X121245500Y-92974500D01*
X121147597Y-92974500D01*
X121080558Y-92954815D01*
X121059916Y-92938181D01*
X119386819Y-91265084D01*
X119353334Y-91203761D01*
X119350500Y-91177403D01*
X119350500Y-89851153D01*
X123199500Y-89851153D01*
X123199500Y-90008846D01*
X123230261Y-90163489D01*
X123230264Y-90163501D01*
X123290602Y-90309172D01*
X123290609Y-90309185D01*
X123378210Y-90440288D01*
X123378213Y-90440292D01*
X123489707Y-90551786D01*
X123489711Y-90551789D01*
X123620814Y-90639390D01*
X123620827Y-90639397D01*
X123766440Y-90699711D01*
X123766503Y-90699737D01*
X123899536Y-90726199D01*
X123921153Y-90730499D01*
X123921156Y-90730500D01*
X123921158Y-90730500D01*
X124078844Y-90730500D01*
X124078845Y-90730499D01*
X124233497Y-90699737D01*
X124379179Y-90639394D01*
X124510289Y-90551789D01*
X124621789Y-90440289D01*
X124709394Y-90309179D01*
X124769737Y-90163497D01*
X124800500Y-90008842D01*
X124800500Y-89851158D01*
X124800500Y-89851155D01*
X124800499Y-89851153D01*
X124769738Y-89696510D01*
X124769737Y-89696503D01*
X124762423Y-89678846D01*
X124709397Y-89550827D01*
X124709390Y-89550814D01*
X124621789Y-89419711D01*
X124621786Y-89419707D01*
X124510292Y-89308213D01*
X124510288Y-89308210D01*
X124379185Y-89220609D01*
X124379172Y-89220602D01*
X124233501Y-89160264D01*
X124233489Y-89160261D01*
X124078845Y-89129500D01*
X124078842Y-89129500D01*
X123921158Y-89129500D01*
X123921155Y-89129500D01*
X123766510Y-89160261D01*
X123766498Y-89160264D01*
X123620827Y-89220602D01*
X123620814Y-89220609D01*
X123489711Y-89308210D01*
X123489707Y-89308213D01*
X123378213Y-89419707D01*
X123378210Y-89419711D01*
X123290609Y-89550814D01*
X123290602Y-89550827D01*
X123230264Y-89696498D01*
X123230261Y-89696510D01*
X123199500Y-89851153D01*
X119350500Y-89851153D01*
X119350500Y-85469765D01*
X119370185Y-85402726D01*
X119371398Y-85400874D01*
X119459390Y-85269185D01*
X119459390Y-85269184D01*
X119459394Y-85269179D01*
X119519737Y-85123497D01*
X119550500Y-84968842D01*
X119550500Y-84811158D01*
X119550500Y-84811155D01*
X119550499Y-84811153D01*
X119540224Y-84759499D01*
X119519737Y-84656503D01*
X119518782Y-84654197D01*
X119459397Y-84510827D01*
X119459390Y-84510814D01*
X119371789Y-84379711D01*
X119371786Y-84379707D01*
X119260292Y-84268213D01*
X119260288Y-84268210D01*
X119129185Y-84180609D01*
X119129172Y-84180602D01*
X118983501Y-84120264D01*
X118983489Y-84120261D01*
X118828845Y-84089500D01*
X118828842Y-84089500D01*
X118671158Y-84089500D01*
X118671155Y-84089500D01*
X118516510Y-84120261D01*
X118516498Y-84120264D01*
X118370827Y-84180602D01*
X118370814Y-84180609D01*
X118239711Y-84268210D01*
X118239707Y-84268213D01*
X118128213Y-84379707D01*
X118128210Y-84379711D01*
X118040609Y-84510814D01*
X118040602Y-84510827D01*
X117980264Y-84656498D01*
X117980261Y-84656510D01*
X117949500Y-84811153D01*
X93830500Y-84811153D01*
X93830500Y-83629765D01*
X93850185Y-83562726D01*
X93851398Y-83560874D01*
X93939390Y-83429185D01*
X93939390Y-83429184D01*
X93939394Y-83429179D01*
X93999737Y-83283497D01*
X94030500Y-83128842D01*
X94030500Y-82971158D01*
X94030500Y-82971155D01*
X94030499Y-82971153D01*
X93999738Y-82816510D01*
X93999737Y-82816503D01*
X93999735Y-82816498D01*
X93939397Y-82670827D01*
X93939390Y-82670814D01*
X93851789Y-82539711D01*
X93851786Y-82539707D01*
X93740292Y-82428213D01*
X93740288Y-82428210D01*
X93609185Y-82340609D01*
X93609172Y-82340602D01*
X93463501Y-82280264D01*
X93463489Y-82280261D01*
X93308845Y-82249500D01*
X93308842Y-82249500D01*
X93151158Y-82249500D01*
X93151155Y-82249500D01*
X92996510Y-82280261D01*
X92996498Y-82280264D01*
X92850827Y-82340602D01*
X92850814Y-82340609D01*
X92719711Y-82428210D01*
X92719707Y-82428213D01*
X92608213Y-82539707D01*
X92608210Y-82539711D01*
X92520609Y-82670814D01*
X92520602Y-82670827D01*
X92460264Y-82816498D01*
X92460261Y-82816510D01*
X92429500Y-82971153D01*
X92429500Y-83128846D01*
X92460261Y-83283489D01*
X92460264Y-83283501D01*
X92520602Y-83429172D01*
X92520609Y-83429185D01*
X92608602Y-83560874D01*
X92629480Y-83627551D01*
X92629500Y-83629765D01*
X92629500Y-87145456D01*
X92609815Y-87212495D01*
X92557011Y-87258250D01*
X92552953Y-87260017D01*
X92430824Y-87310604D01*
X92430814Y-87310609D01*
X92299711Y-87398210D01*
X92299707Y-87398213D01*
X92188213Y-87509707D01*
X92188210Y-87509711D01*
X92100609Y-87640814D01*
X92100604Y-87640823D01*
X92047920Y-87768016D01*
X92004079Y-87822419D01*
X91937785Y-87844484D01*
X91870086Y-87827205D01*
X91845678Y-87808244D01*
X89896819Y-85859385D01*
X89863334Y-85798062D01*
X89860500Y-85771704D01*
X89860500Y-85519765D01*
X89880185Y-85452726D01*
X89881398Y-85450874D01*
X89969390Y-85319185D01*
X89969390Y-85319184D01*
X89969394Y-85319179D01*
X90029737Y-85173497D01*
X90060500Y-85018842D01*
X90060500Y-84861158D01*
X90060500Y-84861155D01*
X90060499Y-84861153D01*
X90042419Y-84770261D01*
X90029737Y-84706503D01*
X90029735Y-84706498D01*
X89969397Y-84560827D01*
X89969390Y-84560814D01*
X89881789Y-84429711D01*
X89881786Y-84429707D01*
X89770292Y-84318213D01*
X89770288Y-84318210D01*
X89639185Y-84230609D01*
X89639172Y-84230602D01*
X89493501Y-84170264D01*
X89493489Y-84170261D01*
X89338845Y-84139500D01*
X89338842Y-84139500D01*
X89181158Y-84139500D01*
X89181155Y-84139500D01*
X89026510Y-84170261D01*
X89026498Y-84170264D01*
X88880827Y-84230602D01*
X88880814Y-84230609D01*
X88749711Y-84318210D01*
X88749707Y-84318213D01*
X88638213Y-84429707D01*
X88638210Y-84429711D01*
X88550609Y-84560814D01*
X88550602Y-84560827D01*
X88490264Y-84706498D01*
X88490261Y-84706510D01*
X88459500Y-84861153D01*
X88459500Y-84874892D01*
X88439815Y-84941931D01*
X88387011Y-84987686D01*
X88317853Y-84997630D01*
X88288048Y-84989453D01*
X88242980Y-84970785D01*
X88242968Y-84970782D01*
X88088324Y-84940021D01*
X88088321Y-84940021D01*
X87930637Y-84940021D01*
X87930634Y-84940021D01*
X87775989Y-84970782D01*
X87775977Y-84970785D01*
X87630306Y-85031123D01*
X87630293Y-85031130D01*
X87499190Y-85118731D01*
X87499186Y-85118734D01*
X87416259Y-85201662D01*
X87354936Y-85235147D01*
X87285244Y-85230163D01*
X87240897Y-85201662D01*
X87037590Y-84998355D01*
X87037588Y-84998352D01*
X86918717Y-84879481D01*
X86918716Y-84879480D01*
X86847276Y-84838234D01*
X86799062Y-84787669D01*
X86785838Y-84719062D01*
X86811806Y-84654197D01*
X86861823Y-84616288D01*
X86926325Y-84589570D01*
X86999173Y-84559397D01*
X86999176Y-84559395D01*
X86999179Y-84559394D01*
X87130289Y-84471789D01*
X87241789Y-84360289D01*
X87329394Y-84229179D01*
X87389737Y-84083497D01*
X87420500Y-83928842D01*
X87420500Y-83771158D01*
X87420500Y-83771155D01*
X87420499Y-83771153D01*
X87419418Y-83765717D01*
X87389737Y-83616503D01*
X87366453Y-83560289D01*
X87329397Y-83470827D01*
X87329390Y-83470814D01*
X87241789Y-83339711D01*
X87241786Y-83339707D01*
X87130292Y-83228213D01*
X87130288Y-83228210D01*
X86999185Y-83140609D01*
X86999172Y-83140602D01*
X86853501Y-83080264D01*
X86853489Y-83080261D01*
X86698845Y-83049500D01*
X86698842Y-83049500D01*
X86541158Y-83049500D01*
X86541155Y-83049500D01*
X86386510Y-83080261D01*
X86386498Y-83080264D01*
X86240827Y-83140602D01*
X86240814Y-83140609D01*
X86109711Y-83228210D01*
X86109707Y-83228213D01*
X85998213Y-83339707D01*
X85957602Y-83400486D01*
X85903989Y-83445290D01*
X85834664Y-83453997D01*
X85771637Y-83423842D01*
X85734918Y-83364399D01*
X85730500Y-83331594D01*
X85730500Y-79510097D01*
X85750185Y-79443058D01*
X85766819Y-79422416D01*
X85860519Y-79328716D01*
X85960734Y-79228501D01*
X86134738Y-79054496D01*
X86196059Y-79021013D01*
X86265750Y-79025997D01*
X86321684Y-79067868D01*
X86337056Y-79098232D01*
X86337932Y-79097870D01*
X86400602Y-79249172D01*
X86400609Y-79249185D01*
X86488210Y-79380288D01*
X86488213Y-79380292D01*
X86599707Y-79491786D01*
X86599711Y-79491789D01*
X86730814Y-79579390D01*
X86730827Y-79579397D01*
X86874958Y-79639097D01*
X86876503Y-79639737D01*
X87031153Y-79670499D01*
X87031156Y-79670500D01*
X87031158Y-79670500D01*
X87188844Y-79670500D01*
X87188845Y-79670499D01*
X87343497Y-79639737D01*
X87489179Y-79579394D01*
X87581165Y-79517931D01*
X87620875Y-79491398D01*
X87687553Y-79470520D01*
X87689766Y-79470500D01*
X91203331Y-79470500D01*
X91203347Y-79470501D01*
X91210943Y-79470501D01*
X91369054Y-79470501D01*
X91369057Y-79470501D01*
X91521785Y-79429577D01*
X91571904Y-79400639D01*
X91658716Y-79350520D01*
X91770520Y-79238716D01*
X91770520Y-79238714D01*
X91780728Y-79228507D01*
X91780729Y-79228504D01*
X92960519Y-78048716D01*
X93429506Y-77579727D01*
X93429511Y-77579724D01*
X93439714Y-77569520D01*
X93439716Y-77569520D01*
X93551520Y-77457716D01*
X93624968Y-77330500D01*
X93630577Y-77320785D01*
X93671500Y-77168058D01*
X93671500Y-77009943D01*
X93671500Y-74650060D01*
X93671501Y-74650047D01*
X93671501Y-74481944D01*
X93671501Y-74481943D01*
X93630577Y-74329216D01*
X93599189Y-74274850D01*
X93551524Y-74192290D01*
X93551518Y-74192282D01*
X93064573Y-73705337D01*
X93031088Y-73644014D01*
X93030637Y-73641847D01*
X93026894Y-73623031D01*
X92999737Y-73486503D01*
X92960667Y-73392179D01*
X92939397Y-73340827D01*
X92939390Y-73340814D01*
X92851789Y-73209711D01*
X92851786Y-73209707D01*
X92740292Y-73098213D01*
X92740288Y-73098210D01*
X92609185Y-73010609D01*
X92609172Y-73010602D01*
X92463501Y-72950264D01*
X92463489Y-72950261D01*
X92308845Y-72919500D01*
X92308842Y-72919500D01*
X92151158Y-72919500D01*
X92151155Y-72919500D01*
X91996510Y-72950261D01*
X91996498Y-72950264D01*
X91850827Y-73010602D01*
X91850814Y-73010609D01*
X91719711Y-73098210D01*
X91719707Y-73098213D01*
X91608213Y-73209707D01*
X91608210Y-73209711D01*
X91520609Y-73340814D01*
X91520602Y-73340827D01*
X91460264Y-73486498D01*
X91460261Y-73486510D01*
X91429500Y-73641153D01*
X91429500Y-73798846D01*
X91460261Y-73953489D01*
X91460264Y-73953501D01*
X91475994Y-73991476D01*
X91483463Y-74060945D01*
X91452188Y-74123424D01*
X91392099Y-74159076D01*
X91385625Y-74160545D01*
X91286508Y-74180261D01*
X91286498Y-74180264D01*
X91140827Y-74240602D01*
X91140814Y-74240609D01*
X91009712Y-74328209D01*
X90973483Y-74364439D01*
X90934739Y-74403182D01*
X90907808Y-74417888D01*
X90881995Y-74434477D01*
X90875795Y-74435368D01*
X90873419Y-74436666D01*
X90847060Y-74439500D01*
X90695193Y-74439500D01*
X90628154Y-74419815D01*
X90582399Y-74367011D01*
X90572455Y-74297853D01*
X90589655Y-74250403D01*
X90675448Y-74111311D01*
X90675453Y-74111300D01*
X90729680Y-73947652D01*
X90739999Y-73846654D01*
X90740000Y-73846641D01*
X90740000Y-73810000D01*
X89826500Y-73810000D01*
X89759461Y-73790315D01*
X89713706Y-73737511D01*
X89702500Y-73686000D01*
X89702500Y-73560000D01*
X89576500Y-73560000D01*
X89509461Y-73540315D01*
X89463706Y-73487511D01*
X89452500Y-73436000D01*
X89452500Y-73173511D01*
X89432834Y-73137496D01*
X89430000Y-73111138D01*
X89430000Y-72466488D01*
X89930000Y-72466488D01*
X89949666Y-72502504D01*
X89952500Y-72528862D01*
X89952500Y-73310000D01*
X90739999Y-73310000D01*
X90739999Y-73273360D01*
X90739998Y-73273345D01*
X90729680Y-73172347D01*
X90675453Y-73008699D01*
X90675450Y-73008692D01*
X90587965Y-72866859D01*
X90569524Y-72799466D01*
X90587965Y-72736663D01*
X90652950Y-72631307D01*
X90652953Y-72631300D01*
X90707180Y-72467652D01*
X90717499Y-72366654D01*
X90717500Y-72366641D01*
X90717500Y-72330000D01*
X89930000Y-72330000D01*
X89930000Y-72466488D01*
X89430000Y-72466488D01*
X89430000Y-72141153D01*
X119749500Y-72141153D01*
X119749500Y-72298846D01*
X119780261Y-72453489D01*
X119780264Y-72453501D01*
X119840602Y-72599172D01*
X119840609Y-72599185D01*
X119928210Y-72730288D01*
X119928213Y-72730292D01*
X120039707Y-72841786D01*
X120039711Y-72841789D01*
X120170814Y-72929390D01*
X120170827Y-72929397D01*
X120316498Y-72989735D01*
X120316503Y-72989737D01*
X120471153Y-73020499D01*
X120471156Y-73020500D01*
X120471158Y-73020500D01*
X120628844Y-73020500D01*
X120628845Y-73020499D01*
X120783497Y-72989737D01*
X120929179Y-72929394D01*
X121060289Y-72841789D01*
X121171789Y-72730289D01*
X121259394Y-72599179D01*
X121319737Y-72453497D01*
X121344302Y-72330000D01*
X121350638Y-72298150D01*
X121359403Y-72281392D01*
X121363424Y-72262913D01*
X121382166Y-72237876D01*
X121383023Y-72236239D01*
X121384519Y-72234715D01*
X121422417Y-72196818D01*
X121483741Y-72163333D01*
X121510097Y-72160500D01*
X123454281Y-72160500D01*
X123521320Y-72180185D01*
X123564765Y-72228205D01*
X123584947Y-72267814D01*
X123584948Y-72267815D01*
X123709890Y-72439786D01*
X123860213Y-72590109D01*
X124032182Y-72715050D01*
X124040946Y-72719516D01*
X124091742Y-72767491D01*
X124108536Y-72835312D01*
X124085998Y-72901447D01*
X124040946Y-72940484D01*
X124032182Y-72944949D01*
X123860213Y-73069890D01*
X123709890Y-73220213D01*
X123584951Y-73392179D01*
X123488444Y-73581585D01*
X123422753Y-73783760D01*
X123396779Y-73947753D01*
X123389500Y-73993713D01*
X123389500Y-74206287D01*
X123422754Y-74416243D01*
X123481057Y-74595681D01*
X123488444Y-74618414D01*
X123584951Y-74807820D01*
X123709890Y-74979786D01*
X123860213Y-75130109D01*
X124032182Y-75255050D01*
X124040946Y-75259516D01*
X124091742Y-75307491D01*
X124108536Y-75375312D01*
X124085998Y-75441447D01*
X124040946Y-75480484D01*
X124032182Y-75484949D01*
X123860213Y-75609890D01*
X123709890Y-75760213D01*
X123584951Y-75932179D01*
X123488444Y-76121585D01*
X123422753Y-76323760D01*
X123389500Y-76533713D01*
X123389500Y-76746287D01*
X123396250Y-76788903D01*
X123415300Y-76909185D01*
X123422754Y-76956243D01*
X123470870Y-77104329D01*
X123488444Y-77158414D01*
X123584951Y-77347820D01*
X123709890Y-77519786D01*
X123860213Y-77670109D01*
X124032179Y-77795048D01*
X124032181Y-77795049D01*
X124032184Y-77795051D01*
X124221588Y-77891557D01*
X124423757Y-77957246D01*
X124633713Y-77990500D01*
X124633714Y-77990500D01*
X124846286Y-77990500D01*
X124846287Y-77990500D01*
X125056243Y-77957246D01*
X125258412Y-77891557D01*
X125447816Y-77795051D01*
X125469789Y-77779086D01*
X125619786Y-77670109D01*
X125619788Y-77670106D01*
X125619792Y-77670104D01*
X125770104Y-77519792D01*
X125770106Y-77519788D01*
X125770109Y-77519786D01*
X125895048Y-77347820D01*
X125895047Y-77347820D01*
X125895051Y-77347816D01*
X125991557Y-77158412D01*
X126057246Y-76956243D01*
X126090500Y-76746287D01*
X126090500Y-76533713D01*
X126057246Y-76323757D01*
X125991557Y-76121588D01*
X125895051Y-75932184D01*
X125895049Y-75932181D01*
X125895048Y-75932179D01*
X125770109Y-75760213D01*
X125619786Y-75609890D01*
X125447820Y-75484951D01*
X125447115Y-75484591D01*
X125439054Y-75480485D01*
X125388259Y-75432512D01*
X125371463Y-75364692D01*
X125393999Y-75298556D01*
X125439054Y-75259515D01*
X125447816Y-75255051D01*
X125469789Y-75239086D01*
X125619786Y-75130109D01*
X125619788Y-75130106D01*
X125619792Y-75130104D01*
X125770104Y-74979792D01*
X125770106Y-74979788D01*
X125770109Y-74979786D01*
X125895048Y-74807820D01*
X125895047Y-74807820D01*
X125895051Y-74807816D01*
X125991557Y-74618412D01*
X126057246Y-74416243D01*
X126090500Y-74206287D01*
X126090500Y-73993713D01*
X126057246Y-73783757D01*
X125991557Y-73581588D01*
X125895051Y-73392184D01*
X125895049Y-73392181D01*
X125895048Y-73392179D01*
X125770109Y-73220213D01*
X125619786Y-73069890D01*
X125447820Y-72944951D01*
X125447115Y-72944591D01*
X125439054Y-72940485D01*
X125388259Y-72892512D01*
X125371463Y-72824692D01*
X125393999Y-72758556D01*
X125439054Y-72719515D01*
X125447816Y-72715051D01*
X125469789Y-72699086D01*
X125619786Y-72590109D01*
X125619788Y-72590106D01*
X125619792Y-72590104D01*
X125770104Y-72439792D01*
X125770106Y-72439788D01*
X125770109Y-72439786D01*
X125879374Y-72289394D01*
X125895051Y-72267816D01*
X125991557Y-72078412D01*
X126057246Y-71876243D01*
X126090500Y-71666287D01*
X126090500Y-71453713D01*
X126057246Y-71243757D01*
X125991557Y-71041588D01*
X125895051Y-70852184D01*
X125895049Y-70852181D01*
X125895048Y-70852179D01*
X125770109Y-70680213D01*
X125656181Y-70566285D01*
X125622696Y-70504962D01*
X125627680Y-70435270D01*
X125669552Y-70379337D01*
X125700529Y-70362422D01*
X125832086Y-70313354D01*
X125832093Y-70313350D01*
X125947187Y-70227190D01*
X125947190Y-70227187D01*
X126033350Y-70112093D01*
X126033354Y-70112086D01*
X126083596Y-69977379D01*
X126083598Y-69977372D01*
X126089999Y-69917844D01*
X126090000Y-69917827D01*
X126090000Y-69270000D01*
X125173012Y-69270000D01*
X125205925Y-69212993D01*
X125240000Y-69085826D01*
X125240000Y-68954174D01*
X125205925Y-68827007D01*
X125173012Y-68770000D01*
X126090000Y-68770000D01*
X126090000Y-68122172D01*
X126089999Y-68122155D01*
X126083598Y-68062627D01*
X126083596Y-68062620D01*
X126033354Y-67927913D01*
X126033350Y-67927906D01*
X125947190Y-67812812D01*
X125947187Y-67812809D01*
X125832093Y-67726649D01*
X125832086Y-67726645D01*
X125697379Y-67676403D01*
X125697372Y-67676401D01*
X125637844Y-67670000D01*
X124990000Y-67670000D01*
X124990000Y-68586988D01*
X124932993Y-68554075D01*
X124805826Y-68520000D01*
X124674174Y-68520000D01*
X124547007Y-68554075D01*
X124490000Y-68586988D01*
X124490000Y-67670000D01*
X123842155Y-67670000D01*
X123782627Y-67676401D01*
X123782620Y-67676403D01*
X123647913Y-67726645D01*
X123647906Y-67726649D01*
X123532812Y-67812809D01*
X123532809Y-67812812D01*
X123446649Y-67927906D01*
X123446645Y-67927913D01*
X123396403Y-68062620D01*
X123396401Y-68062627D01*
X123390000Y-68122155D01*
X123390000Y-68770000D01*
X124306988Y-68770000D01*
X124274075Y-68827007D01*
X124240000Y-68954174D01*
X124240000Y-69085826D01*
X124274075Y-69212993D01*
X124306988Y-69270000D01*
X123390000Y-69270000D01*
X123390000Y-69917844D01*
X123396401Y-69977372D01*
X123396403Y-69977379D01*
X123446645Y-70112086D01*
X123446649Y-70112093D01*
X123532809Y-70227187D01*
X123532812Y-70227190D01*
X123647906Y-70313350D01*
X123647913Y-70313354D01*
X123779470Y-70362422D01*
X123835404Y-70404293D01*
X123859821Y-70469758D01*
X123844969Y-70538031D01*
X123823819Y-70566285D01*
X123709889Y-70680215D01*
X123584948Y-70852184D01*
X123584947Y-70852185D01*
X123564765Y-70891795D01*
X123516791Y-70942591D01*
X123454281Y-70959500D01*
X121296669Y-70959500D01*
X121296653Y-70959499D01*
X121289057Y-70959499D01*
X121130943Y-70959499D01*
X121023587Y-70988265D01*
X120978210Y-71000424D01*
X120978209Y-71000425D01*
X120928096Y-71029359D01*
X120928095Y-71029360D01*
X120906914Y-71041589D01*
X120841285Y-71079479D01*
X120841282Y-71079481D01*
X120729478Y-71191286D01*
X120535338Y-71385425D01*
X120474015Y-71418910D01*
X120471849Y-71419361D01*
X120316508Y-71450261D01*
X120316498Y-71450264D01*
X120170827Y-71510602D01*
X120170814Y-71510609D01*
X120039711Y-71598210D01*
X120039707Y-71598213D01*
X119928213Y-71709707D01*
X119928210Y-71709711D01*
X119840609Y-71840814D01*
X119840602Y-71840827D01*
X119780264Y-71986498D01*
X119780261Y-71986510D01*
X119749500Y-72141153D01*
X89430000Y-72141153D01*
X89430000Y-71830000D01*
X89930000Y-71830000D01*
X90717499Y-71830000D01*
X90717499Y-71793360D01*
X90717498Y-71793345D01*
X90707180Y-71692347D01*
X90652953Y-71528699D01*
X90652948Y-71528688D01*
X90562447Y-71381965D01*
X90562444Y-71381961D01*
X90440538Y-71260055D01*
X90440534Y-71260052D01*
X90293811Y-71169551D01*
X90293800Y-71169546D01*
X90130152Y-71115319D01*
X90029154Y-71105000D01*
X89930000Y-71105000D01*
X89930000Y-71830000D01*
X89430000Y-71830000D01*
X89430000Y-71104999D01*
X89330860Y-71105000D01*
X89330844Y-71105001D01*
X89229847Y-71115319D01*
X89066199Y-71169546D01*
X89066188Y-71169551D01*
X88919465Y-71260052D01*
X88905532Y-71273985D01*
X88844208Y-71307468D01*
X88774516Y-71302482D01*
X88745896Y-71287287D01*
X88737480Y-71281290D01*
X88715850Y-71259660D01*
X88650902Y-71219599D01*
X88647543Y-71217206D01*
X88628400Y-71192849D01*
X88607678Y-71169810D01*
X88606614Y-71165128D01*
X88604369Y-71162272D01*
X88603218Y-71150185D01*
X88595500Y-71116220D01*
X88595500Y-70008451D01*
X88615185Y-69941412D01*
X88654402Y-69902913D01*
X88755850Y-69840340D01*
X88770171Y-69826018D01*
X88831489Y-69792533D01*
X88901181Y-69797514D01*
X88945534Y-69826017D01*
X88959461Y-69839944D01*
X88959465Y-69839947D01*
X89106188Y-69930448D01*
X89106199Y-69930453D01*
X89269847Y-69984680D01*
X89370851Y-69994999D01*
X89970000Y-69994999D01*
X90069140Y-69994999D01*
X90069154Y-69994998D01*
X90170152Y-69984680D01*
X90333800Y-69930453D01*
X90333811Y-69930448D01*
X90480534Y-69839947D01*
X90480538Y-69839944D01*
X90602444Y-69718038D01*
X90602447Y-69718034D01*
X90692948Y-69571311D01*
X90692953Y-69571300D01*
X90747180Y-69407652D01*
X90757499Y-69306654D01*
X90757500Y-69306641D01*
X90757500Y-69270000D01*
X89970000Y-69270000D01*
X89970000Y-69994999D01*
X89370851Y-69994999D01*
X89470000Y-69994998D01*
X89470000Y-68770000D01*
X89970000Y-68770000D01*
X90757499Y-68770000D01*
X90757499Y-68733360D01*
X90757498Y-68733345D01*
X90747180Y-68632347D01*
X90692953Y-68468699D01*
X90692948Y-68468688D01*
X90602447Y-68321965D01*
X90602444Y-68321961D01*
X90480538Y-68200055D01*
X90480534Y-68200052D01*
X90333811Y-68109551D01*
X90333800Y-68109546D01*
X90170152Y-68055319D01*
X90069154Y-68045000D01*
X89970000Y-68045000D01*
X89970000Y-68770000D01*
X89470000Y-68770000D01*
X89470000Y-68044999D01*
X89370860Y-68045000D01*
X89370844Y-68045001D01*
X89269847Y-68055319D01*
X89106199Y-68109546D01*
X89106188Y-68109551D01*
X88959465Y-68200052D01*
X88945532Y-68213985D01*
X88884208Y-68247468D01*
X88814516Y-68242482D01*
X88770172Y-68213982D01*
X88755851Y-68199661D01*
X88755850Y-68199660D01*
X88630222Y-68122172D01*
X88609018Y-68109093D01*
X88609013Y-68109091D01*
X88607569Y-68108612D01*
X88445253Y-68054826D01*
X88445251Y-68054825D01*
X88344178Y-68044500D01*
X87645830Y-68044500D01*
X87645812Y-68044501D01*
X87544747Y-68054825D01*
X87380984Y-68109092D01*
X87380981Y-68109093D01*
X87234148Y-68199661D01*
X87112161Y-68321648D01*
X87021593Y-68468481D01*
X87021591Y-68468486D01*
X87018535Y-68477708D01*
X86967326Y-68632247D01*
X86967326Y-68632248D01*
X86967325Y-68632248D01*
X86957000Y-68733315D01*
X86957000Y-69306669D01*
X86957001Y-69306687D01*
X86967325Y-69407752D01*
X86993230Y-69485925D01*
X87021592Y-69571516D01*
X87112160Y-69718350D01*
X87234150Y-69840340D01*
X87335596Y-69902912D01*
X87382321Y-69954860D01*
X87394500Y-70008451D01*
X87394500Y-71039145D01*
X87374815Y-71106184D01*
X87322011Y-71151939D01*
X87252853Y-71161883D01*
X87189297Y-71132858D01*
X87167399Y-71108037D01*
X87141791Y-71069713D01*
X87141786Y-71069707D01*
X87030292Y-70958213D01*
X87030288Y-70958210D01*
X86899185Y-70870609D01*
X86899172Y-70870602D01*
X86753501Y-70810264D01*
X86753489Y-70810261D01*
X86598845Y-70779500D01*
X86598842Y-70779500D01*
X86441158Y-70779500D01*
X86441155Y-70779500D01*
X86286510Y-70810261D01*
X86286498Y-70810264D01*
X86140827Y-70870602D01*
X86140814Y-70870609D01*
X86009125Y-70958602D01*
X85942447Y-70979480D01*
X85940234Y-70979500D01*
X83170942Y-70979500D01*
X83018216Y-71020422D01*
X82981555Y-71041589D01*
X82981554Y-71041588D01*
X82881287Y-71099477D01*
X82881282Y-71099481D01*
X82769478Y-71211286D01*
X80357732Y-73623031D01*
X80296409Y-73656516D01*
X80226717Y-73651532D01*
X80170784Y-73609660D01*
X80146367Y-73544196D01*
X80147578Y-73515952D01*
X80152242Y-73486510D01*
X80160242Y-73436000D01*
X80180500Y-73308097D01*
X80180500Y-73071902D01*
X80143553Y-72838631D01*
X80076257Y-72631518D01*
X80070568Y-72614008D01*
X80070566Y-72614005D01*
X80070566Y-72614003D01*
X79992829Y-72461436D01*
X79963343Y-72403567D01*
X79824517Y-72212490D01*
X79657510Y-72045483D01*
X79466433Y-71906657D01*
X79255996Y-71799433D01*
X79031368Y-71726446D01*
X78798097Y-71689500D01*
X78798092Y-71689500D01*
X78561908Y-71689500D01*
X78561903Y-71689500D01*
X78328631Y-71726446D01*
X78104003Y-71799433D01*
X77893566Y-71906657D01*
X77784550Y-71985862D01*
X77702490Y-72045483D01*
X77702488Y-72045485D01*
X77702487Y-72045485D01*
X77622181Y-72125792D01*
X77560858Y-72159277D01*
X77491166Y-72154293D01*
X77435233Y-72112421D01*
X77410816Y-72046957D01*
X77410500Y-72038111D01*
X77410500Y-69657308D01*
X77430185Y-69590269D01*
X77446819Y-69569627D01*
X78156212Y-68860233D01*
X78167482Y-68902292D01*
X78239890Y-69027708D01*
X78342292Y-69130110D01*
X78467708Y-69202518D01*
X78509765Y-69213787D01*
X77810893Y-69912658D01*
X77893828Y-69972914D01*
X78104197Y-70080102D01*
X78328752Y-70153065D01*
X78328751Y-70153065D01*
X78561948Y-70190000D01*
X78798052Y-70190000D01*
X79031247Y-70153065D01*
X79255802Y-70080102D01*
X79466163Y-69972918D01*
X79466169Y-69972914D01*
X79549104Y-69912658D01*
X79549105Y-69912658D01*
X78850233Y-69213787D01*
X78892292Y-69202518D01*
X79017708Y-69130110D01*
X79120110Y-69027708D01*
X79192518Y-68902292D01*
X79203787Y-68860234D01*
X79902658Y-69559105D01*
X79902658Y-69559104D01*
X79962914Y-69476169D01*
X79962918Y-69476163D01*
X80070102Y-69265802D01*
X80143065Y-69041247D01*
X80180000Y-68808052D01*
X80180000Y-68571947D01*
X83680000Y-68571947D01*
X83680000Y-68808052D01*
X83716934Y-69041247D01*
X83789897Y-69265802D01*
X83897087Y-69476174D01*
X83957338Y-69559104D01*
X83957340Y-69559105D01*
X84656212Y-68860233D01*
X84667482Y-68902292D01*
X84739890Y-69027708D01*
X84842292Y-69130110D01*
X84967708Y-69202518D01*
X85009765Y-69213787D01*
X84310893Y-69912658D01*
X84393828Y-69972914D01*
X84604197Y-70080102D01*
X84828752Y-70153065D01*
X84828751Y-70153065D01*
X85061948Y-70190000D01*
X85298052Y-70190000D01*
X85531247Y-70153065D01*
X85755802Y-70080102D01*
X85966163Y-69972918D01*
X85966169Y-69972914D01*
X86049104Y-69912658D01*
X86049105Y-69912658D01*
X85350233Y-69213787D01*
X85392292Y-69202518D01*
X85517708Y-69130110D01*
X85620110Y-69027708D01*
X85692518Y-68902292D01*
X85703787Y-68860234D01*
X86402658Y-69559105D01*
X86402658Y-69559104D01*
X86462914Y-69476169D01*
X86462918Y-69476163D01*
X86570102Y-69265802D01*
X86643065Y-69041247D01*
X86680000Y-68808052D01*
X86680000Y-68571947D01*
X86643065Y-68338752D01*
X86570102Y-68114197D01*
X86462914Y-67903828D01*
X86402658Y-67820894D01*
X86402658Y-67820893D01*
X85703787Y-68519765D01*
X85692518Y-68477708D01*
X85620110Y-68352292D01*
X85517708Y-68249890D01*
X85392292Y-68177482D01*
X85350234Y-68166212D01*
X86049105Y-67467340D01*
X86049104Y-67467338D01*
X85966174Y-67407087D01*
X85755802Y-67299897D01*
X85531247Y-67226934D01*
X85531248Y-67226934D01*
X85298052Y-67190000D01*
X85061948Y-67190000D01*
X84828752Y-67226934D01*
X84604197Y-67299897D01*
X84393830Y-67407084D01*
X84310894Y-67467340D01*
X85009766Y-68166212D01*
X84967708Y-68177482D01*
X84842292Y-68249890D01*
X84739890Y-68352292D01*
X84667482Y-68477708D01*
X84656212Y-68519766D01*
X83957340Y-67820894D01*
X83897084Y-67903830D01*
X83789897Y-68114197D01*
X83716934Y-68338752D01*
X83680000Y-68571947D01*
X80180000Y-68571947D01*
X80143065Y-68338752D01*
X80070102Y-68114197D01*
X79962914Y-67903828D01*
X79902658Y-67820894D01*
X79902658Y-67820893D01*
X79203787Y-68519765D01*
X79192518Y-68477708D01*
X79120110Y-68352292D01*
X79017708Y-68249890D01*
X78892292Y-68177482D01*
X78850234Y-68166212D01*
X79549105Y-67467340D01*
X79549104Y-67467339D01*
X79466174Y-67407087D01*
X79255802Y-67299897D01*
X79031247Y-67226934D01*
X79031248Y-67226934D01*
X78798052Y-67190000D01*
X78561948Y-67190000D01*
X78328752Y-67226934D01*
X78104197Y-67299897D01*
X77893830Y-67407084D01*
X77810894Y-67467340D01*
X78509766Y-68166212D01*
X78467708Y-68177482D01*
X78342292Y-68249890D01*
X78239890Y-68352292D01*
X78167482Y-68477708D01*
X78156212Y-68519765D01*
X77446819Y-67810372D01*
X77432115Y-67783444D01*
X77415523Y-67757626D01*
X77414631Y-67751425D01*
X77413334Y-67749049D01*
X77410500Y-67722691D01*
X77410500Y-66128076D01*
X77430185Y-66061037D01*
X77482989Y-66015282D01*
X77535315Y-66004080D01*
X127646323Y-66336394D01*
G37*
G04 #@! TD.AperFunction*
G04 #@! TD*
M02*
