G04 #@! TF.GenerationSoftware,KiCad,Pcbnew,9.0.7*
G04 #@! TF.CreationDate,2026-02-26T12:58:45-06:00*
G04 #@! TF.ProjectId,ImpactInsole_v1,496d7061-6374-4496-9e73-6f6c655f7631,rev?*
G04 #@! TF.SameCoordinates,Original*
G04 #@! TF.FileFunction,Paste,Top*
G04 #@! TF.FilePolarity,Positive*
%FSLAX46Y46*%
G04 Gerber Fmt 4.6, Leading zero omitted, Abs format (unit mm)*
G04 Created by KiCad (PCBNEW 9.0.7) date 2026-02-26 12:58:45*
%MOMM*%
%LPD*%
G01*
G04 APERTURE LIST*
G04 Aperture macros list*
%AMRoundRect*
0 Rectangle with rounded corners*
0 $1 Rounding radius*
0 $2 $3 $4 $5 $6 $7 $8 $9 X,Y pos of 4 corners*
0 Add a 4 corners polygon primitive as box body*
4,1,4,$2,$3,$4,$5,$6,$7,$8,$9,$2,$3,0*
0 Add four circle primitives for the rounded corners*
1,1,$1+$1,$2,$3*
1,1,$1+$1,$4,$5*
1,1,$1+$1,$6,$7*
1,1,$1+$1,$8,$9*
0 Add four rect primitives between the rounded corners*
20,1,$1+$1,$2,$3,$4,$5,0*
20,1,$1+$1,$4,$5,$6,$7,0*
20,1,$1+$1,$6,$7,$8,$9,0*
20,1,$1+$1,$8,$9,$2,$3,0*%
G04 Aperture macros list end*
%ADD10C,0.010000*%
%ADD11R,0.900000X0.900000*%
%ADD12R,1.500000X0.900000*%
%ADD13R,0.900000X1.500000*%
%ADD14RoundRect,0.237500X-0.250000X-0.237500X0.250000X-0.237500X0.250000X0.237500X-0.250000X0.237500X0*%
%ADD15RoundRect,0.072500X-0.532500X-0.217500X0.532500X-0.217500X0.532500X0.217500X-0.532500X0.217500X0*%
%ADD16RoundRect,0.237500X0.300000X0.237500X-0.300000X0.237500X-0.300000X-0.237500X0.300000X-0.237500X0*%
%ADD17RoundRect,0.150000X-0.587500X-0.150000X0.587500X-0.150000X0.587500X0.150000X-0.587500X0.150000X0*%
%ADD18R,0.610000X0.350000*%
%ADD19R,0.350000X0.610000*%
%ADD20R,0.700000X0.300000*%
%ADD21R,1.000000X0.300000*%
%ADD22RoundRect,0.032500X0.397500X0.097500X-0.397500X0.097500X-0.397500X-0.097500X0.397500X-0.097500X0*%
%ADD23RoundRect,0.032500X0.097500X0.397500X-0.097500X0.397500X-0.097500X-0.397500X0.097500X-0.397500X0*%
%ADD24RoundRect,0.237500X0.250000X0.237500X-0.250000X0.237500X-0.250000X-0.237500X0.250000X-0.237500X0*%
%ADD25RoundRect,0.060000X-0.890000X-0.180000X0.890000X-0.180000X0.890000X0.180000X-0.890000X0.180000X0*%
%ADD26RoundRect,0.250001X-0.624999X0.462499X-0.624999X-0.462499X0.624999X-0.462499X0.624999X0.462499X0*%
%ADD27RoundRect,0.237500X-0.237500X0.250000X-0.237500X-0.250000X0.237500X-0.250000X0.237500X0.250000X0*%
%ADD28R,0.600000X1.240000*%
%ADD29R,0.300000X1.240000*%
%ADD30RoundRect,0.250000X-0.450000X0.325000X-0.450000X-0.325000X0.450000X-0.325000X0.450000X0.325000X0*%
%ADD31RoundRect,0.237500X-0.237500X0.300000X-0.237500X-0.300000X0.237500X-0.300000X0.237500X0.300000X0*%
%ADD32RoundRect,0.237500X0.237500X-0.300000X0.237500X0.300000X-0.237500X0.300000X-0.237500X-0.300000X0*%
%ADD33RoundRect,0.150000X-0.825000X-0.150000X0.825000X-0.150000X0.825000X0.150000X-0.825000X0.150000X0*%
G04 APERTURE END LIST*
D10*
G04 #@! TO.C,U5*
X123180000Y-92740000D02*
X122120000Y-92740000D01*
X122120000Y-91680000D01*
X123180000Y-91680000D01*
X123180000Y-92740000D01*
G36*
X123180000Y-92740000D02*
G01*
X122120000Y-92740000D01*
X122120000Y-91680000D01*
X123180000Y-91680000D01*
X123180000Y-92740000D01*
G37*
G04 #@! TD*
D11*
G04 #@! TO.C,U6*
X95170000Y-73810000D03*
X95170000Y-75210000D03*
X95170000Y-76610000D03*
X96570000Y-73810000D03*
X96570000Y-75210000D03*
X96570000Y-76610000D03*
X97970000Y-73810000D03*
X97970000Y-75210000D03*
X97970000Y-76610000D03*
D12*
X89320000Y-67490000D03*
X89320000Y-68760000D03*
X89320000Y-70030000D03*
X89320000Y-71300000D03*
X89320000Y-72570000D03*
X89320000Y-73840000D03*
X89320000Y-75110000D03*
X89320000Y-76380000D03*
X89320000Y-77650000D03*
X89320000Y-78920000D03*
X89320000Y-80190000D03*
X89320000Y-81460000D03*
X89320000Y-82730000D03*
X89320000Y-84000000D03*
D13*
X91085000Y-85250000D03*
X92355000Y-85250000D03*
X93625000Y-85250000D03*
X94895000Y-85250000D03*
X96165000Y-85250000D03*
X97435000Y-85250000D03*
X98705000Y-85250000D03*
X99975000Y-85250000D03*
X101245000Y-85250000D03*
X102515000Y-85250000D03*
X103785000Y-85250000D03*
X105055000Y-85250000D03*
D12*
X106820000Y-84000000D03*
X106820000Y-82730000D03*
X106820000Y-81460000D03*
X106820000Y-80190000D03*
X106820000Y-78920000D03*
X106820000Y-77650000D03*
X106820000Y-76380000D03*
X106820000Y-75110000D03*
X106820000Y-73840000D03*
X106820000Y-72570000D03*
X106820000Y-71300000D03*
X106820000Y-70030000D03*
X106820000Y-68760000D03*
X106820000Y-67490000D03*
G04 #@! TD*
D14*
G04 #@! TO.C,R12*
X123180000Y-82200000D03*
X125005000Y-82200000D03*
G04 #@! TD*
D15*
G04 #@! TO.C,U2*
X101645000Y-92550000D03*
X101645000Y-93500000D03*
X101645000Y-94450000D03*
X104155000Y-94450000D03*
X104155000Y-93500000D03*
X104155000Y-92550000D03*
G04 #@! TD*
D14*
G04 #@! TO.C,R10*
X118867500Y-83460000D03*
X120692500Y-83460000D03*
G04 #@! TD*
G04 #@! TO.C,R6*
X94845000Y-96450000D03*
X96670000Y-96450000D03*
G04 #@! TD*
D16*
G04 #@! TO.C,C9*
X118182500Y-88042500D03*
X116457500Y-88042500D03*
G04 #@! TD*
D17*
G04 #@! TO.C,U7*
X116502500Y-90160000D03*
X116502500Y-92060000D03*
X118377500Y-91110000D03*
G04 #@! TD*
D18*
G04 #@! TO.C,U4*
X80580000Y-87207500D03*
X80580000Y-87707500D03*
X80580000Y-88207500D03*
X80580000Y-88707500D03*
D19*
X81240000Y-88867500D03*
X81740000Y-88867500D03*
X82240000Y-88867500D03*
D18*
X82900000Y-88707500D03*
X82900000Y-88207500D03*
X82900000Y-87707500D03*
X82900000Y-87207500D03*
D19*
X82240000Y-87047500D03*
X81740000Y-87047500D03*
X81240000Y-87047500D03*
G04 #@! TD*
D20*
G04 #@! TO.C,J1*
X78090000Y-102220000D03*
X78090000Y-101720000D03*
X78090000Y-101220000D03*
X78090000Y-100720000D03*
X78090000Y-100220000D03*
X78090000Y-99720000D03*
X78090000Y-99220000D03*
X78090000Y-98720000D03*
X78090000Y-98220000D03*
X78090000Y-97720000D03*
X78090000Y-97220000D03*
X78090000Y-96720000D03*
X78090000Y-96220000D03*
X78090000Y-95720000D03*
X78090000Y-95220000D03*
X78090000Y-94720000D03*
X78090000Y-94220000D03*
X78090000Y-93720000D03*
D21*
X80740000Y-103010000D03*
X80740000Y-92930000D03*
G04 #@! TD*
D22*
G04 #@! TO.C,U5*
X124085000Y-92960000D03*
X124085000Y-92460000D03*
X124085000Y-91960000D03*
X124085000Y-91460000D03*
D23*
X123400000Y-90775000D03*
X122900000Y-90775000D03*
X122400000Y-90775000D03*
X121900000Y-90775000D03*
D22*
X121215000Y-91460000D03*
X121215000Y-91960000D03*
X121215000Y-92460000D03*
X121215000Y-92960000D03*
D23*
X121900000Y-93645000D03*
X122400000Y-93645000D03*
X122900000Y-93645000D03*
X123400000Y-93645000D03*
G04 #@! TD*
D24*
G04 #@! TO.C,R9*
X126102500Y-95770000D03*
X124277500Y-95770000D03*
G04 #@! TD*
D25*
G04 #@! TO.C,U1*
X83430000Y-93610000D03*
X83430000Y-94260000D03*
X83430000Y-94910000D03*
X83430000Y-95560000D03*
X83430000Y-96210000D03*
X83430000Y-96860000D03*
X83430000Y-97510000D03*
X83430000Y-98160000D03*
X83430000Y-98810000D03*
X83430000Y-99460000D03*
X83430000Y-100110000D03*
X83430000Y-100760000D03*
X90440000Y-100760000D03*
X90440000Y-100110000D03*
X90440000Y-99460000D03*
X90440000Y-98810000D03*
X90440000Y-98160000D03*
X90440000Y-97510000D03*
X90440000Y-96860000D03*
X90440000Y-96210000D03*
X90440000Y-95560000D03*
X90440000Y-94910000D03*
X90440000Y-94260000D03*
X90440000Y-93610000D03*
G04 #@! TD*
D26*
G04 #@! TO.C,D2*
X124140000Y-85422500D03*
X124140000Y-88397500D03*
G04 #@! TD*
D27*
G04 #@! TO.C,R1*
X79980000Y-82697500D03*
X79980000Y-84522500D03*
G04 #@! TD*
D16*
G04 #@! TO.C,C5*
X96532500Y-94920000D03*
X94807500Y-94920000D03*
G04 #@! TD*
D28*
G04 #@! TO.C,J3*
X111980000Y-97730000D03*
X112780000Y-97730000D03*
D29*
X113930000Y-97730000D03*
X114930000Y-97730000D03*
X115430000Y-97730000D03*
X116430000Y-97730000D03*
D28*
X117580000Y-97730000D03*
X118380000Y-97730000D03*
X118380000Y-97730000D03*
X117580000Y-97730000D03*
D29*
X116930000Y-97730000D03*
X115930000Y-97730000D03*
X114430000Y-97730000D03*
X113430000Y-97730000D03*
D28*
X112780000Y-97730000D03*
X111980000Y-97730000D03*
G04 #@! TD*
D30*
G04 #@! TO.C,D1*
X120780000Y-86185000D03*
X120780000Y-88235000D03*
G04 #@! TD*
D24*
G04 #@! TO.C,R11*
X80582500Y-77280000D03*
X78757500Y-77280000D03*
G04 #@! TD*
D31*
G04 #@! TO.C,C4*
X103600000Y-98385000D03*
X103600000Y-100110000D03*
G04 #@! TD*
D14*
G04 #@! TO.C,R8*
X118907500Y-95620000D03*
X120732500Y-95620000D03*
G04 #@! TD*
D32*
G04 #@! TO.C,C10*
X113840000Y-91732500D03*
X113840000Y-90007500D03*
G04 #@! TD*
D27*
G04 #@! TO.C,R2*
X81702500Y-83562500D03*
X81702500Y-85387500D03*
G04 #@! TD*
D33*
G04 #@! TO.C,U3*
X95115000Y-98255000D03*
X95115000Y-99525000D03*
X95115000Y-100795000D03*
X95115000Y-102065000D03*
X100065000Y-102065000D03*
X100065000Y-100795000D03*
X100065000Y-99525000D03*
X100065000Y-98255000D03*
G04 #@! TD*
D14*
G04 #@! TO.C,R5*
X90550000Y-104300000D03*
X92375000Y-104300000D03*
G04 #@! TD*
M02*
