G04 #@! TF.GenerationSoftware,KiCad,Pcbnew,9.0.7*
G04 #@! TF.CreationDate,2026-02-26T12:58:45-06:00*
G04 #@! TF.ProjectId,ImpactInsole_v1,496d7061-6374-4496-9e73-6f6c655f7631,rev?*
G04 #@! TF.SameCoordinates,Original*
G04 #@! TF.FileFunction,Legend,Bot*
G04 #@! TF.FilePolarity,Positive*
%FSLAX46Y46*%
G04 Gerber Fmt 4.6, Leading zero omitted, Abs format (unit mm)*
G04 Created by KiCad (PCBNEW 9.0.7) date 2026-02-26 12:58:45*
%MOMM*%
%LPD*%
G01*
G04 APERTURE LIST*
%ADD10C,0.150000*%
%ADD11C,0.120000*%
G04 APERTURE END LIST*
D10*
X79132857Y-89987080D02*
X79180476Y-90034700D01*
X79180476Y-90034700D02*
X79323333Y-90082319D01*
X79323333Y-90082319D02*
X79418571Y-90082319D01*
X79418571Y-90082319D02*
X79561428Y-90034700D01*
X79561428Y-90034700D02*
X79656666Y-89939461D01*
X79656666Y-89939461D02*
X79704285Y-89844223D01*
X79704285Y-89844223D02*
X79751904Y-89653747D01*
X79751904Y-89653747D02*
X79751904Y-89510890D01*
X79751904Y-89510890D02*
X79704285Y-89320414D01*
X79704285Y-89320414D02*
X79656666Y-89225176D01*
X79656666Y-89225176D02*
X79561428Y-89129938D01*
X79561428Y-89129938D02*
X79418571Y-89082319D01*
X79418571Y-89082319D02*
X79323333Y-89082319D01*
X79323333Y-89082319D02*
X79180476Y-89129938D01*
X79180476Y-89129938D02*
X79132857Y-89177557D01*
X78180476Y-90082319D02*
X78751904Y-90082319D01*
X78466190Y-90082319D02*
X78466190Y-89082319D01*
X78466190Y-89082319D02*
X78561428Y-89225176D01*
X78561428Y-89225176D02*
X78656666Y-89320414D01*
X78656666Y-89320414D02*
X78751904Y-89368033D01*
X77275714Y-89082319D02*
X77751904Y-89082319D01*
X77751904Y-89082319D02*
X77799523Y-89558509D01*
X77799523Y-89558509D02*
X77751904Y-89510890D01*
X77751904Y-89510890D02*
X77656666Y-89463271D01*
X77656666Y-89463271D02*
X77418571Y-89463271D01*
X77418571Y-89463271D02*
X77323333Y-89510890D01*
X77323333Y-89510890D02*
X77275714Y-89558509D01*
X77275714Y-89558509D02*
X77228095Y-89653747D01*
X77228095Y-89653747D02*
X77228095Y-89891842D01*
X77228095Y-89891842D02*
X77275714Y-89987080D01*
X77275714Y-89987080D02*
X77323333Y-90034700D01*
X77323333Y-90034700D02*
X77418571Y-90082319D01*
X77418571Y-90082319D02*
X77656666Y-90082319D01*
X77656666Y-90082319D02*
X77751904Y-90034700D01*
X77751904Y-90034700D02*
X77799523Y-89987080D01*
X79092857Y-91767080D02*
X79140476Y-91814700D01*
X79140476Y-91814700D02*
X79283333Y-91862319D01*
X79283333Y-91862319D02*
X79378571Y-91862319D01*
X79378571Y-91862319D02*
X79521428Y-91814700D01*
X79521428Y-91814700D02*
X79616666Y-91719461D01*
X79616666Y-91719461D02*
X79664285Y-91624223D01*
X79664285Y-91624223D02*
X79711904Y-91433747D01*
X79711904Y-91433747D02*
X79711904Y-91290890D01*
X79711904Y-91290890D02*
X79664285Y-91100414D01*
X79664285Y-91100414D02*
X79616666Y-91005176D01*
X79616666Y-91005176D02*
X79521428Y-90909938D01*
X79521428Y-90909938D02*
X79378571Y-90862319D01*
X79378571Y-90862319D02*
X79283333Y-90862319D01*
X79283333Y-90862319D02*
X79140476Y-90909938D01*
X79140476Y-90909938D02*
X79092857Y-90957557D01*
X78140476Y-91862319D02*
X78711904Y-91862319D01*
X78426190Y-91862319D02*
X78426190Y-90862319D01*
X78426190Y-90862319D02*
X78521428Y-91005176D01*
X78521428Y-91005176D02*
X78616666Y-91100414D01*
X78616666Y-91100414D02*
X78711904Y-91148033D01*
X77283333Y-91195652D02*
X77283333Y-91862319D01*
X77521428Y-90814700D02*
X77759523Y-91528985D01*
X77759523Y-91528985D02*
X77140476Y-91528985D01*
X117016666Y-99204819D02*
X117349999Y-98728628D01*
X117588094Y-99204819D02*
X117588094Y-98204819D01*
X117588094Y-98204819D02*
X117207142Y-98204819D01*
X117207142Y-98204819D02*
X117111904Y-98252438D01*
X117111904Y-98252438D02*
X117064285Y-98300057D01*
X117064285Y-98300057D02*
X117016666Y-98395295D01*
X117016666Y-98395295D02*
X117016666Y-98538152D01*
X117016666Y-98538152D02*
X117064285Y-98633390D01*
X117064285Y-98633390D02*
X117111904Y-98681009D01*
X117111904Y-98681009D02*
X117207142Y-98728628D01*
X117207142Y-98728628D02*
X117588094Y-98728628D01*
X116159523Y-98538152D02*
X116159523Y-99204819D01*
X116397618Y-98157200D02*
X116635713Y-98871485D01*
X116635713Y-98871485D02*
X116016666Y-98871485D01*
X89482857Y-75349580D02*
X89530476Y-75397200D01*
X89530476Y-75397200D02*
X89673333Y-75444819D01*
X89673333Y-75444819D02*
X89768571Y-75444819D01*
X89768571Y-75444819D02*
X89911428Y-75397200D01*
X89911428Y-75397200D02*
X90006666Y-75301961D01*
X90006666Y-75301961D02*
X90054285Y-75206723D01*
X90054285Y-75206723D02*
X90101904Y-75016247D01*
X90101904Y-75016247D02*
X90101904Y-74873390D01*
X90101904Y-74873390D02*
X90054285Y-74682914D01*
X90054285Y-74682914D02*
X90006666Y-74587676D01*
X90006666Y-74587676D02*
X89911428Y-74492438D01*
X89911428Y-74492438D02*
X89768571Y-74444819D01*
X89768571Y-74444819D02*
X89673333Y-74444819D01*
X89673333Y-74444819D02*
X89530476Y-74492438D01*
X89530476Y-74492438D02*
X89482857Y-74540057D01*
X88530476Y-75444819D02*
X89101904Y-75444819D01*
X88816190Y-75444819D02*
X88816190Y-74444819D01*
X88816190Y-74444819D02*
X88911428Y-74587676D01*
X88911428Y-74587676D02*
X89006666Y-74682914D01*
X89006666Y-74682914D02*
X89101904Y-74730533D01*
X88197142Y-74444819D02*
X87530476Y-74444819D01*
X87530476Y-74444819D02*
X87959047Y-75444819D01*
X86199580Y-87514642D02*
X86247200Y-87467023D01*
X86247200Y-87467023D02*
X86294819Y-87324166D01*
X86294819Y-87324166D02*
X86294819Y-87228928D01*
X86294819Y-87228928D02*
X86247200Y-87086071D01*
X86247200Y-87086071D02*
X86151961Y-86990833D01*
X86151961Y-86990833D02*
X86056723Y-86943214D01*
X86056723Y-86943214D02*
X85866247Y-86895595D01*
X85866247Y-86895595D02*
X85723390Y-86895595D01*
X85723390Y-86895595D02*
X85532914Y-86943214D01*
X85532914Y-86943214D02*
X85437676Y-86990833D01*
X85437676Y-86990833D02*
X85342438Y-87086071D01*
X85342438Y-87086071D02*
X85294819Y-87228928D01*
X85294819Y-87228928D02*
X85294819Y-87324166D01*
X85294819Y-87324166D02*
X85342438Y-87467023D01*
X85342438Y-87467023D02*
X85390057Y-87514642D01*
X86294819Y-88467023D02*
X86294819Y-87895595D01*
X86294819Y-88181309D02*
X85294819Y-88181309D01*
X85294819Y-88181309D02*
X85437676Y-88086071D01*
X85437676Y-88086071D02*
X85532914Y-87990833D01*
X85532914Y-87990833D02*
X85580533Y-87895595D01*
X85294819Y-88800357D02*
X85294819Y-89419404D01*
X85294819Y-89419404D02*
X85675771Y-89086071D01*
X85675771Y-89086071D02*
X85675771Y-89228928D01*
X85675771Y-89228928D02*
X85723390Y-89324166D01*
X85723390Y-89324166D02*
X85771009Y-89371785D01*
X85771009Y-89371785D02*
X85866247Y-89419404D01*
X85866247Y-89419404D02*
X86104342Y-89419404D01*
X86104342Y-89419404D02*
X86199580Y-89371785D01*
X86199580Y-89371785D02*
X86247200Y-89324166D01*
X86247200Y-89324166D02*
X86294819Y-89228928D01*
X86294819Y-89228928D02*
X86294819Y-88943214D01*
X86294819Y-88943214D02*
X86247200Y-88847976D01*
X86247200Y-88847976D02*
X86199580Y-88800357D01*
X127374819Y-94023333D02*
X126898628Y-93690000D01*
X127374819Y-93451905D02*
X126374819Y-93451905D01*
X126374819Y-93451905D02*
X126374819Y-93832857D01*
X126374819Y-93832857D02*
X126422438Y-93928095D01*
X126422438Y-93928095D02*
X126470057Y-93975714D01*
X126470057Y-93975714D02*
X126565295Y-94023333D01*
X126565295Y-94023333D02*
X126708152Y-94023333D01*
X126708152Y-94023333D02*
X126803390Y-93975714D01*
X126803390Y-93975714D02*
X126851009Y-93928095D01*
X126851009Y-93928095D02*
X126898628Y-93832857D01*
X126898628Y-93832857D02*
X126898628Y-93451905D01*
X126374819Y-94356667D02*
X126374819Y-95023333D01*
X126374819Y-95023333D02*
X127374819Y-94594762D01*
X88984166Y-73869580D02*
X89031785Y-73917200D01*
X89031785Y-73917200D02*
X89174642Y-73964819D01*
X89174642Y-73964819D02*
X89269880Y-73964819D01*
X89269880Y-73964819D02*
X89412737Y-73917200D01*
X89412737Y-73917200D02*
X89507975Y-73821961D01*
X89507975Y-73821961D02*
X89555594Y-73726723D01*
X89555594Y-73726723D02*
X89603213Y-73536247D01*
X89603213Y-73536247D02*
X89603213Y-73393390D01*
X89603213Y-73393390D02*
X89555594Y-73202914D01*
X89555594Y-73202914D02*
X89507975Y-73107676D01*
X89507975Y-73107676D02*
X89412737Y-73012438D01*
X89412737Y-73012438D02*
X89269880Y-72964819D01*
X89269880Y-72964819D02*
X89174642Y-72964819D01*
X89174642Y-72964819D02*
X89031785Y-73012438D01*
X89031785Y-73012438D02*
X88984166Y-73060057D01*
X88412737Y-73393390D02*
X88507975Y-73345771D01*
X88507975Y-73345771D02*
X88555594Y-73298152D01*
X88555594Y-73298152D02*
X88603213Y-73202914D01*
X88603213Y-73202914D02*
X88603213Y-73155295D01*
X88603213Y-73155295D02*
X88555594Y-73060057D01*
X88555594Y-73060057D02*
X88507975Y-73012438D01*
X88507975Y-73012438D02*
X88412737Y-72964819D01*
X88412737Y-72964819D02*
X88222261Y-72964819D01*
X88222261Y-72964819D02*
X88127023Y-73012438D01*
X88127023Y-73012438D02*
X88079404Y-73060057D01*
X88079404Y-73060057D02*
X88031785Y-73155295D01*
X88031785Y-73155295D02*
X88031785Y-73202914D01*
X88031785Y-73202914D02*
X88079404Y-73298152D01*
X88079404Y-73298152D02*
X88127023Y-73345771D01*
X88127023Y-73345771D02*
X88222261Y-73393390D01*
X88222261Y-73393390D02*
X88412737Y-73393390D01*
X88412737Y-73393390D02*
X88507975Y-73441009D01*
X88507975Y-73441009D02*
X88555594Y-73488628D01*
X88555594Y-73488628D02*
X88603213Y-73583866D01*
X88603213Y-73583866D02*
X88603213Y-73774342D01*
X88603213Y-73774342D02*
X88555594Y-73869580D01*
X88555594Y-73869580D02*
X88507975Y-73917200D01*
X88507975Y-73917200D02*
X88412737Y-73964819D01*
X88412737Y-73964819D02*
X88222261Y-73964819D01*
X88222261Y-73964819D02*
X88127023Y-73917200D01*
X88127023Y-73917200D02*
X88079404Y-73869580D01*
X88079404Y-73869580D02*
X88031785Y-73774342D01*
X88031785Y-73774342D02*
X88031785Y-73583866D01*
X88031785Y-73583866D02*
X88079404Y-73488628D01*
X88079404Y-73488628D02*
X88127023Y-73441009D01*
X88127023Y-73441009D02*
X88222261Y-73393390D01*
X89500357Y-70809580D02*
X89547976Y-70857200D01*
X89547976Y-70857200D02*
X89690833Y-70904819D01*
X89690833Y-70904819D02*
X89786071Y-70904819D01*
X89786071Y-70904819D02*
X89928928Y-70857200D01*
X89928928Y-70857200D02*
X90024166Y-70761961D01*
X90024166Y-70761961D02*
X90071785Y-70666723D01*
X90071785Y-70666723D02*
X90119404Y-70476247D01*
X90119404Y-70476247D02*
X90119404Y-70333390D01*
X90119404Y-70333390D02*
X90071785Y-70142914D01*
X90071785Y-70142914D02*
X90024166Y-70047676D01*
X90024166Y-70047676D02*
X89928928Y-69952438D01*
X89928928Y-69952438D02*
X89786071Y-69904819D01*
X89786071Y-69904819D02*
X89690833Y-69904819D01*
X89690833Y-69904819D02*
X89547976Y-69952438D01*
X89547976Y-69952438D02*
X89500357Y-70000057D01*
X88547976Y-70904819D02*
X89119404Y-70904819D01*
X88833690Y-70904819D02*
X88833690Y-69904819D01*
X88833690Y-69904819D02*
X88928928Y-70047676D01*
X88928928Y-70047676D02*
X89024166Y-70142914D01*
X89024166Y-70142914D02*
X89119404Y-70190533D01*
X87690833Y-69904819D02*
X87881309Y-69904819D01*
X87881309Y-69904819D02*
X87976547Y-69952438D01*
X87976547Y-69952438D02*
X88024166Y-70000057D01*
X88024166Y-70000057D02*
X88119404Y-70142914D01*
X88119404Y-70142914D02*
X88167023Y-70333390D01*
X88167023Y-70333390D02*
X88167023Y-70714342D01*
X88167023Y-70714342D02*
X88119404Y-70809580D01*
X88119404Y-70809580D02*
X88071785Y-70857200D01*
X88071785Y-70857200D02*
X87976547Y-70904819D01*
X87976547Y-70904819D02*
X87786071Y-70904819D01*
X87786071Y-70904819D02*
X87690833Y-70857200D01*
X87690833Y-70857200D02*
X87643214Y-70809580D01*
X87643214Y-70809580D02*
X87595595Y-70714342D01*
X87595595Y-70714342D02*
X87595595Y-70476247D01*
X87595595Y-70476247D02*
X87643214Y-70381009D01*
X87643214Y-70381009D02*
X87690833Y-70333390D01*
X87690833Y-70333390D02*
X87786071Y-70285771D01*
X87786071Y-70285771D02*
X87976547Y-70285771D01*
X87976547Y-70285771D02*
X88071785Y-70333390D01*
X88071785Y-70333390D02*
X88119404Y-70381009D01*
X88119404Y-70381009D02*
X88167023Y-70476247D01*
X120526666Y-92879580D02*
X120574285Y-92927200D01*
X120574285Y-92927200D02*
X120717142Y-92974819D01*
X120717142Y-92974819D02*
X120812380Y-92974819D01*
X120812380Y-92974819D02*
X120955237Y-92927200D01*
X120955237Y-92927200D02*
X121050475Y-92831961D01*
X121050475Y-92831961D02*
X121098094Y-92736723D01*
X121098094Y-92736723D02*
X121145713Y-92546247D01*
X121145713Y-92546247D02*
X121145713Y-92403390D01*
X121145713Y-92403390D02*
X121098094Y-92212914D01*
X121098094Y-92212914D02*
X121050475Y-92117676D01*
X121050475Y-92117676D02*
X120955237Y-92022438D01*
X120955237Y-92022438D02*
X120812380Y-91974819D01*
X120812380Y-91974819D02*
X120717142Y-91974819D01*
X120717142Y-91974819D02*
X120574285Y-92022438D01*
X120574285Y-92022438D02*
X120526666Y-92070057D01*
X119669523Y-91974819D02*
X119859999Y-91974819D01*
X119859999Y-91974819D02*
X119955237Y-92022438D01*
X119955237Y-92022438D02*
X120002856Y-92070057D01*
X120002856Y-92070057D02*
X120098094Y-92212914D01*
X120098094Y-92212914D02*
X120145713Y-92403390D01*
X120145713Y-92403390D02*
X120145713Y-92784342D01*
X120145713Y-92784342D02*
X120098094Y-92879580D01*
X120098094Y-92879580D02*
X120050475Y-92927200D01*
X120050475Y-92927200D02*
X119955237Y-92974819D01*
X119955237Y-92974819D02*
X119764761Y-92974819D01*
X119764761Y-92974819D02*
X119669523Y-92927200D01*
X119669523Y-92927200D02*
X119621904Y-92879580D01*
X119621904Y-92879580D02*
X119574285Y-92784342D01*
X119574285Y-92784342D02*
X119574285Y-92546247D01*
X119574285Y-92546247D02*
X119621904Y-92451009D01*
X119621904Y-92451009D02*
X119669523Y-92403390D01*
X119669523Y-92403390D02*
X119764761Y-92355771D01*
X119764761Y-92355771D02*
X119955237Y-92355771D01*
X119955237Y-92355771D02*
X120050475Y-92403390D01*
X120050475Y-92403390D02*
X120098094Y-92451009D01*
X120098094Y-92451009D02*
X120145713Y-92546247D01*
X114036666Y-99494819D02*
X114369999Y-99018628D01*
X114608094Y-99494819D02*
X114608094Y-98494819D01*
X114608094Y-98494819D02*
X114227142Y-98494819D01*
X114227142Y-98494819D02*
X114131904Y-98542438D01*
X114131904Y-98542438D02*
X114084285Y-98590057D01*
X114084285Y-98590057D02*
X114036666Y-98685295D01*
X114036666Y-98685295D02*
X114036666Y-98828152D01*
X114036666Y-98828152D02*
X114084285Y-98923390D01*
X114084285Y-98923390D02*
X114131904Y-98971009D01*
X114131904Y-98971009D02*
X114227142Y-99018628D01*
X114227142Y-99018628D02*
X114608094Y-99018628D01*
X113703332Y-98494819D02*
X113084285Y-98494819D01*
X113084285Y-98494819D02*
X113417618Y-98875771D01*
X113417618Y-98875771D02*
X113274761Y-98875771D01*
X113274761Y-98875771D02*
X113179523Y-98923390D01*
X113179523Y-98923390D02*
X113131904Y-98971009D01*
X113131904Y-98971009D02*
X113084285Y-99066247D01*
X113084285Y-99066247D02*
X113084285Y-99304342D01*
X113084285Y-99304342D02*
X113131904Y-99399580D01*
X113131904Y-99399580D02*
X113179523Y-99447200D01*
X113179523Y-99447200D02*
X113274761Y-99494819D01*
X113274761Y-99494819D02*
X113560475Y-99494819D01*
X113560475Y-99494819D02*
X113655713Y-99447200D01*
X113655713Y-99447200D02*
X113703332Y-99399580D01*
D11*
G04 #@! TO.C,C15*
X81651233Y-89017500D02*
X81943767Y-89017500D01*
X81651233Y-90037500D02*
X81943767Y-90037500D01*
G04 #@! TO.C,C14*
X81613733Y-90767500D02*
X81906267Y-90767500D01*
X81613733Y-91787500D02*
X81906267Y-91787500D01*
G04 #@! TO.C,R4*
X116357500Y-100985276D02*
X116357500Y-101494724D01*
X117402500Y-100985276D02*
X117402500Y-101494724D01*
G04 #@! TO.C,C17*
X88693733Y-73050000D02*
X88986267Y-73050000D01*
X88693733Y-74070000D02*
X88986267Y-74070000D01*
G04 #@! TO.C,C13*
X83900000Y-88303767D02*
X83900000Y-88011233D01*
X84920000Y-88303767D02*
X84920000Y-88011233D01*
G04 #@! TO.C,R7*
X124967500Y-94444724D02*
X124967500Y-93935276D01*
X126012500Y-94444724D02*
X126012500Y-93935276D01*
G04 #@! TO.C,C8*
X88671233Y-71570000D02*
X88963767Y-71570000D01*
X88671233Y-72590000D02*
X88963767Y-72590000D01*
G04 #@! TO.C,C16*
X88711233Y-68510000D02*
X89003767Y-68510000D01*
X88711233Y-69530000D02*
X89003767Y-69530000D01*
G04 #@! TO.C,C6*
X120506267Y-93440000D02*
X120213733Y-93440000D01*
X120506267Y-94460000D02*
X120213733Y-94460000D01*
G04 #@! TO.C,R3*
X113387500Y-101624724D02*
X113387500Y-101115276D01*
X114432500Y-101624724D02*
X114432500Y-101115276D01*
G04 #@! TD*
M02*
